<?xml version="1.0" standalone="no"?>
<!DOCTYPE svg PUBLIC "-//W3C//DTD SVG 1.1//EN" "http://www.w3.org/Graphics/SVG/1.1/DTD/svg11.dtd" >
<svg xmlns="http://www.w3.org/2000/svg">
<metadata></metadata>
<defs>
<font id="zrnicregular" horiz-adv-x="1005" >
<font-face units-per-em="2048" ascent="1536" descent="-512" />
<missing-glyph horiz-adv-x="483" />
<glyph unicode="&#x28;C&#x29;" horiz-adv-x="1306" d="M86 330v766q0 182 70.5 261t236.5 79h520q166 0 237 -79t71 -261v-766q0 -174 -71 -252t-237 -78h-520q-166 0 -236.5 78t-70.5 252zM193 344q0 -135 52 -202.5t169 -67.5h479q117 0 169 67.5t52 202.5v737q0 160 -52 218.5t-169 58.5h-479q-117 0 -169 -58.5t-52 -218.5 v-737zM412 526v392q0 104 41 160.5t135 56.5h237v-70h-200q-47 0 -68.5 -30.5t-21.5 -116.5v-392q0 -143 90 -143h202v-68h-239q-96 0 -136 56.5t-40 154.5z" />
<glyph unicode="&#x28;R&#x29;" horiz-adv-x="1306" d="M86 330v766q0 182 70.5 261t236.5 79h520q166 0 237 -79t71 -261v-766q0 -174 -71 -252t-237 -78h-520q-166 0 -236.5 78t-70.5 252zM193 344q0 -135 52 -202.5t169 -67.5h479q117 0 169 67.5t52 202.5v737q0 160 -52 218.5t-169 58.5h-479q-117 0 -169 -58.5t-52 -218.5 v-737zM412 315v820h301q104 0 147 -51.5t43 -168.5q0 -59 -9 -97t-23.5 -60.5t-33 -33.5t-38.5 -17q20 -6 38.5 -18.5t34 -35t24.5 -58.5t9 -91v-189h-123v189q0 98 -23.5 133t-72.5 35h-100v69h102q47 0 69.5 35t22.5 127q0 94 -22.5 128t-69.5 34h-153v-750h-123z" />
<glyph horiz-adv-x="2048" />
<glyph horiz-adv-x="2048" />
<glyph unicode="&#xd;" horiz-adv-x="483" />
<glyph horiz-adv-x="483" />
<glyph unicode=" "  horiz-adv-x="483" />
<glyph unicode="&#x09;" horiz-adv-x="483" />
<glyph unicode="&#xa0;" horiz-adv-x="483" />
<glyph unicode="!" horiz-adv-x="438" d="M111 0v201h215v-201h-215zM111 401v1039h215v-1039h-215z" />
<glyph unicode="&#x22;" horiz-adv-x="702" d="M86 1436h193l-33 -512h-127zM422 1436h193l-33 -512h-127z" />
<glyph unicode="#" horiz-adv-x="1042" d="M29 446v129h215l16 281h-221v129h227l27 451h129l-27 -451h281l26 451h129l-26 -451h209v-129h-215l-17 -281h222v-129h-230l-24 -446h-129l24 446h-280l-25 -446h-129l25 446h-207zM373 575h280l17 281h-281z" />
<glyph unicode="$" horiz-adv-x="944" d="M57 975q0 150 70 232.5t242 82.5h20v146h135v-146h240v-119h-344q-43 0 -75 -5t-53.5 -23.5t-32.5 -53t-11 -92.5q0 -57 7 -92t25.5 -54.5t52.5 -25.5t87 -6h143q88 0 147.5 -15.5t96.5 -52t53.5 -99t16.5 -156.5q0 -176 -75 -259t-255 -83h-23v-154h-135v154h-295v118 h412q43 0 76.5 5.5t57.5 25t35 59t11 109.5q0 59 -7 95t-28.5 55.5t-61.5 25.5t-104 6h-153q-76 0 -128 17.5t-85 55.5t-47.5 99.5t-14.5 149.5z" />
<glyph unicode="%" horiz-adv-x="1429" d="M86 920v356q0 98 32.5 139t124.5 41h136q92 0 125.5 -41t33.5 -139v-356q0 -98 -33.5 -139t-125.5 -41h-136q-92 0 -124.5 40.5t-32.5 139.5zM127 0l1011 1436h133l-1011 -1436h-133zM219 920q0 -72 11 -89.5t54 -17.5h54q23 0 36 3t19 14.5t8 32t2 57.5v356 q0 37 -2 57.5t-8 31.5t-19.5 14.5t-35.5 3.5h-54q-43 0 -54 -17.5t-11 -89.5v-356zM889 160v356q0 98 32.5 139t124.5 41h136q92 0 125.5 -41t33.5 -139v-356q0 -98 -33.5 -139t-125.5 -41h-136q-92 0 -124.5 40.5t-32.5 139.5zM1022 160q0 -72 11 -89.5t54 -17.5h54 q23 0 36 3t19 14.5t8 32t2 57.5v356q0 37 -2 57.5t-8 31.5t-19.5 14.5t-35.5 3.5h-54q-43 0 -54 -17.5t-11 -89.5v-356z" />
<glyph unicode="&#x26;" horiz-adv-x="966" d="M74 391q0 164 51 266.5t123 126.5q-33 18 -61.5 43t-49 62t-32 88t-11.5 123q0 74 17.5 136t55.5 106t99.5 69t147.5 25h340v-123h-291q-35 0 -63.5 -9.5t-50 -36t-33 -71.5t-11.5 -115q0 -68 5 -113.5t20.5 -73.5t43 -39t72.5 -11h451v-121h-94v-600h137v-123h-528 q-180 0 -259 99.5t-79 291.5zM289 403q0 -160 48 -220t126 -60h160v600h-177q-90 0 -123.5 -79t-33.5 -241z" />
<glyph unicode="'" horiz-adv-x="366" d="M86 1436h193l-33 -512h-127z" />
<glyph unicode="(" horiz-adv-x="735" d="M164 -80v1407q0 193 94 282t246 89h190v-121h-166q-55 0 -90 -17.5t-56.5 -50t-29.5 -78t-8 -102.5v-1411q0 -115 38 -181.5t146 -66.5h166v-121h-190q-76 0 -138.5 21.5t-107.5 67t-69.5 116t-24.5 166.5z" />
<glyph unicode=")" horiz-adv-x="735" d="M41 -330h166q109 0 146.5 66.5t37.5 181.5v1411q0 57 -8 102.5t-29.5 78t-56.5 50t-90 17.5h-166v121h190q76 0 138.5 -21.5t107.5 -66.5t69.5 -116t24.5 -167v-1407q0 -96 -24.5 -166.5t-69.5 -116t-107.5 -67t-138.5 -21.5h-190v121z" />
<glyph unicode="*" horiz-adv-x="876" d="M53 1112l39 117l297 -109l-12 316h123l-11 -318l297 109l37 -115l-305 -88l195 -250l-99 -72l-176 267l-178 -264l-98 71l196 250z" />
<glyph unicode="+" d="M102 653v125h338v336h125v-336h338v-125h-338v-340h-125v340h-338z" />
<glyph unicode="," horiz-adv-x="393" d="M102 201h215l-86 -525h-129v525z" />
<glyph unicode="-" horiz-adv-x="485" d="M37 602v123h412v-123h-412z" />
<glyph unicode="." horiz-adv-x="419" d="M102 0v201h215v-201h-215z" />
<glyph unicode="/" horiz-adv-x="624" d="M-72 -225l531 1661h166l-527 -1661h-170z" />
<glyph unicode="0" horiz-adv-x="1056" d="M86 350v725q0 90 12.5 157.5t46 113t95 68t157.5 22.5h262q96 0 158 -22.5t95.5 -68t46 -113t12.5 -157.5v-725q0 -86 -12.5 -151.5t-46 -109.5t-95 -66.5t-158.5 -22.5h-262q-96 0 -157.5 22.5t-95 66.5t-46 109.5t-12.5 151.5zM305 350q0 -61 4 -105t19.5 -71t47.5 -39 t87 -12h131q53 0 85 12t48 39t20.5 71t4.5 105v725q0 74 -4.5 121t-20.5 72.5t-48 35t-85 9.5h-131q-55 0 -87 -9.5t-47.5 -35t-19.5 -72.5t-4 -121v-725z" />
<glyph unicode="1" horiz-adv-x="452" d="M18 1313v123h332v-1436h-217v1313h-115z" />
<glyph unicode="2" horiz-adv-x="978" d="M80 0v393q0 113 15.5 192t55 127t109.5 69.5t178 21.5h105q55 0 88 14t50 45t23.5 80t6.5 121q0 74 -10.5 123t-32 76.5t-52 39t-73.5 11.5h-404v123h455q86 0 146.5 -18.5t98.5 -61.5t54 -112.5t16 -172.5q0 -123 -14 -200.5t-47 -120.5t-86 -59.5t-131 -16.5h-129 q-68 0 -109 -13.5t-64.5 -46t-30.5 -89t-7 -142.5v-260h594v-123h-805z" />
<glyph unicode="3" horiz-adv-x="880" d="M57 0v123h359q78 0 126 60t48 220q0 80 -8.5 132.5t-26.5 83t-48 42t-75 11.5h-194v121h194q45 0 72.5 14t43 47t20.5 86t5 133q0 74 -11 121t-32.5 72.5t-50 36t-63.5 10.5h-355v123h404q174 0 246.5 -98.5t72.5 -278.5q0 -84 -12 -139.5t-32.5 -91t-48 -58t-60.5 -37.5 q37 -12 68.5 -36.5t55 -65.5t38 -99.5t14.5 -140.5q0 -193 -80 -292t-260 -99h-410z" />
<glyph unicode="4" horiz-adv-x="944" d="M27 268v125l532 1043h240v-1051h127v-115h-127v-270h-193v268h-579zM240 385h366v748z" />
<glyph unicode="5" horiz-adv-x="1013" d="M88 0v123h473q92 0 129 71.5t37 233.5q0 88 -8 144.5t-26.5 89t-47.5 45t-67 12.5h-480v717h752v-123h-533v-467h310q160 0 235.5 -89t75.5 -300q0 -127 -20.5 -214t-59.5 -141.5t-96 -78t-133 -23.5h-541z" />
<glyph unicode="6" horiz-adv-x="1024" d="M86 350v725q0 90 12.5 157.5t46 113t95 68t157.5 22.5h400v-123h-334q-55 0 -87 -9.5t-47.5 -35t-19.5 -72.5t-4 -121v-725q0 -61 4 -105t19.5 -71t47.5 -39t87 -12h110q53 0 85 12t48.5 39t20.5 71t4 105v150q0 74 -4 121t-19.5 72.5t-47 34.5t-87.5 9h-159v123h225 q96 0 157.5 -22.5t95.5 -67.5t46 -112.5t12 -157.5v-150q0 -86 -12 -151.5t-46 -109.5t-95.5 -66.5t-157.5 -22.5h-242q-96 0 -157.5 22.5t-95 66.5t-46 109.5t-12.5 151.5z" />
<glyph unicode="7" horiz-adv-x="831" d="M35 1313v123h778v-93l-407 -1343h-230l414 1313h-555z" />
<glyph unicode="8" horiz-adv-x="1064" d="M76 391q0 82 14 140.5t38 99.5t55.5 65.5t68.5 36.5q-33 14 -60.5 37t-48 58.5t-33 91t-12.5 139.5q0 180 73 278.5t247 98.5h227q174 0 247 -98.5t73 -278.5q0 -84 -12.5 -139.5t-33 -91t-48 -58t-60.5 -37.5q37 -12 68.5 -36.5t55 -65.5t38 -99.5t14.5 -140.5 q0 -193 -80 -292t-260 -99h-231q-180 0 -260 99.5t-80 291.5zM291 403q0 -160 48 -220t126 -60h133q78 0 126 60.5t48 219.5q0 80 -8 132.5t-26.5 83t-48.5 42t-75 11.5h-165q-45 0 -75 -11.5t-48.5 -42t-26.5 -83t-8 -132.5zM307 1073q0 -80 5 -133t20.5 -86t43 -47 t73.5 -14h165q45 0 73 14t43 47t20.5 86t5.5 133q0 74 -11.5 121t-33 72.5t-50 36t-63.5 10.5h-133q-35 0 -63.5 -10.5t-50 -36t-33 -72.5t-11.5 -121z" />
<glyph unicode="9" horiz-adv-x="1028" d="M78 889v196q0 86 12 152t46 110t95.5 66.5t157.5 22.5h242q96 0 157.5 -22.5t95.5 -66.5t46 -110t12 -152v-725q0 -90 -12 -157.5t-46 -112.5t-95.5 -67.5t-157.5 -22.5h-391v123h325q55 0 87 9t47.5 35t19.5 73t4 120v725q0 61 -4 105.5t-19.5 71t-47 39t-87.5 12.5 h-110q-53 0 -85 -12.5t-48.5 -39t-20.5 -70.5t-4 -106v-196q0 -74 4 -121t19.5 -72.5t47 -35t87.5 -9.5h159v-123h-225q-96 0 -157.5 22.5t-95.5 68t-46 113t-12 157.5z" />
<glyph unicode=":" horiz-adv-x="450" d="M117 0v201h215v-201h-215zM117 717v201h215v-201h-215z" />
<glyph unicode=";" horiz-adv-x="450" d="M117 201h215l-84 -525h-131v525zM117 717v201h215v-201h-215z" />
<glyph unicode="&#x3c;" d="M102 643v143l801 402v-139l-676 -330l676 -336v-139z" />
<glyph unicode="=" d="M102 449v124h801v-124h-801zM102 858v125h801v-125h-801z" />
<glyph unicode="&#x3e;" d="M102 244v139l676 336l-676 330v139l801 -402v-143z" />
<glyph unicode="?" horiz-adv-x="843" d="M16 1313v123h488q88 0 147.5 -20.5t95 -66.5t50 -120t14.5 -180q0 -199 -58.5 -293t-207.5 -94h-96q-41 0 -70 -7.5t-49.5 -26t-29.5 -52t-9 -87.5q0 -29 3 -60.5t7 -70.5h-104q-41 123 -41 217t49 149.5t172 55.5h88q35 0 61.5 12.5t44 44t26.5 84t9 132.5 q0 147 -34.5 203.5t-122.5 56.5h-433zM135 0v201h215v-201h-215z" />
<glyph unicode="@" horiz-adv-x="1265" d="M78 174v690q0 334 209 334h700q111 0 156 -82t45 -252v-497q0 -98 -41 -148.5t-160 -50.5h-393q-209 0 -209 324v100q0 170 51 251t158 81h276v-652h117q35 0 52.5 16.5t17.5 65.5v510q0 131 -28 178.5t-93 47.5h-598q-63 0 -92 -47.5t-29 -178.5v-690q0 -221 121 -221 h815v-105h-866q-106 0 -157.5 80t-51.5 246zM520 492q0 -219 125 -220h90v545h-90q-63 0 -94 -48t-31 -177v-100z" />
<glyph unicode="A" horiz-adv-x="968" d="M16 0l297 1436h355l284 -1436h-223l-57 313h-383l-60 -313h-213zM311 434h340l-151 879h-21z" />
<glyph unicode="B" horiz-adv-x="1024" d="M102 0v1436h531q174 0 246.5 -98.5t72.5 -278.5q0 -84 -12 -139.5t-32.5 -91t-48.5 -58t-60 -37.5q37 -12 68.5 -36.5t55 -65.5t38 -99.5t14.5 -140.5q0 -193 -80 -292t-260 -99h-533zM317 123h267q78 0 126 58.5t48 205.5q0 154 -34 219.5t-124 65.5h-194v121h194 q88 0 114.5 57t26.5 190q0 152 -43 212.5t-114 60.5h-267v-1190z" />
<glyph unicode="C" horiz-adv-x="864" d="M86 371v684q0 182 70.5 281.5t236.5 99.5h418v-123h-352q-84 0 -121 -54.5t-37 -203.5v-684q0 -125 37 -186.5t121 -61.5h356v-123h-422q-166 0 -236.5 98.5t-70.5 272.5z" />
<glyph unicode="D" horiz-adv-x="1060" d="M102 0v1436h566q166 0 236.5 -99.5t70.5 -281.5v-684q0 -174 -70.5 -272.5t-236.5 -98.5h-566zM317 123h285q84 0 121 61.5t37 186.5v684q0 150 -37 204t-121 54h-285v-1190z" />
<glyph unicode="E" horiz-adv-x="878" d="M102 0v1436h727v-123h-512v-520h367v-121h-367v-549h512v-123h-727z" />
<glyph unicode="F" horiz-adv-x="811" d="M102 0v1436h699v-123h-482v-539h363v-121h-363v-653h-217z" />
<glyph unicode="G" horiz-adv-x="1040" d="M86 371v684q0 182 72.5 281.5t238.5 99.5h418v-123h-352q-84 0 -123 -54.5t-39 -203.5v-684q0 -248 162 -248h282v536h-319v123h528v-782h-557q-166 0 -238.5 98.5t-72.5 272.5z" />
<glyph unicode="H" horiz-adv-x="1085" d="M102 0v1436h215v-643h451v643h215v-1436h-215v670h-451v-670h-215z" />
<glyph unicode="I" horiz-adv-x="428" d="M106 0v1436h216v-1436h-216z" />
<glyph unicode="J" horiz-adv-x="806" d="M18 0v123h316q162 0 162 248v942h-160v123h375v-1065q0 -174 -73 -272.5t-239 -98.5h-381z" />
<glyph unicode="K" horiz-adv-x="991" d="M102 0v1436h215v-629l422 629h187l-412 -613l465 -823h-238l-424 772v-772h-215z" />
<glyph unicode="L" horiz-adv-x="761" d="M102 0v1436h215v-1313h422v-123h-637z" />
<glyph unicode="M" horiz-adv-x="1343" d="M100 0v1436h326l258 -1209l252 1209h307v-1436h-207v1221l-258 -1221h-211l-270 1221v-1221h-197z" />
<glyph unicode="N" horiz-adv-x="1077" d="M98 0v1436h267l442 -1022v1022h170v-1436h-186l-525 1167v-1167h-168z" />
<glyph unicode="O" horiz-adv-x="1101" d="M86 371v684q0 182 70.5 281.5t236.5 99.5h316q166 0 236.5 -99.5t70.5 -281.5v-684q0 -174 -71 -272.5t-236 -98.5h-316q-166 0 -236.5 98.5t-70.5 272.5zM301 371q0 -125 37 -186.5t121 -61.5h184q84 0 121 61.5t37 186.5v684q0 150 -37 204t-121 54h-184 q-84 0 -121 -54.5t-37 -203.5v-684z" />
<glyph unicode="P" horiz-adv-x="995" d="M102 0v1436h523q102 0 168.5 -17.5t104.5 -65.5t53.5 -134.5t15.5 -221.5t-15.5 -219t-53.5 -129t-104.5 -60.5t-168.5 -15.5h-224v121h199q45 0 76 11.5t48 45t24.5 94t7.5 156.5t-7.5 158t-24.5 95.5t-48 46t-76 12.5h-283v-1313h-215z" />
<glyph unicode="Q" horiz-adv-x="1116" d="M86 371v684q0 182 71.5 281.5t237.5 99.5h326q166 0 237.5 -99.5t71.5 -281.5v-684q0 -174 -71.5 -272.5t-237.5 -98.5l72 -193h-207l-72 193h-119q-166 0 -237.5 98.5t-71.5 272.5zM303 371q0 -125 37 -186.5t121 -61.5h194q84 0 121 61.5t37 186.5v684q0 150 -37 204 t-121 54h-194q-84 0 -121 -54.5t-37 -203.5v-684z" />
<glyph unicode="R" horiz-adv-x="1056" d="M102 0v1436h529q180 0 257 -90t77 -295q0 -102 -15.5 -169t-41 -107t-59.5 -59.5t-69 -29.5q35 -12 69 -33.5t59.5 -61.5t42 -103.5t16.5 -157.5v-330h-215v330q0 86 -10.5 142t-32 90t-52 48.5t-73.5 14.5h-178v120h182q39 0 68.5 14.5t50 47.5t31 87t10.5 136 t-10.5 136.5t-31 87t-50 46t-68.5 13.5h-271v-1313h-215z" />
<glyph unicode="S" horiz-adv-x="931" d="M47 1036q0 188 70.5 294t244.5 106h400v-123h-348q-43 0 -74 -11.5t-52.5 -39t-31.5 -75.5t-10 -122q0 -72 6 -118t23.5 -71.5t50 -36t88.5 -10.5h145q82 0 142.5 -16t99.5 -59t57.5 -121t18.5 -201q0 -223 -76 -327.5t-258 -104.5h-459v123h418q43 0 76.5 10t55 41 t33 85t11.5 142q0 76 -8 124t-30 74t-59.5 35t-99.5 9h-155q-78 0 -131.5 20.5t-86 66.5t-47 121t-14.5 185z" />
<glyph unicode="T" horiz-adv-x="837" d="M16 1313v123h805v-123h-295v-1313h-215v1313h-295z" />
<glyph unicode="U" horiz-adv-x="1110" d="M92 371v1065h221v-1065q0 -143 37 -195.5t121 -52.5h176q84 0 121 52t37 196v1065h213v-1065q0 -174 -73 -272.5t-238 -98.5h-304q-88 0 -147 25.5t-96 72.5t-52.5 117t-15.5 156z" />
<glyph unicode="V" horiz-adv-x="944" d="M16 1436h226l219 -1313h12l240 1313h215l-293 -1436h-338z" />
<glyph unicode="W" horiz-adv-x="1519" d="M18 1436h234l158 -1313h12l166 1313h348l168 -1313h10l174 1313h213l-217 -1436h-352l-162 1313h-16l-166 -1313h-359z" />
<glyph unicode="X" horiz-adv-x="925" d="M31 0l313 766l-297 670h234l211 -506l210 506h160l-291 -664l324 -772h-233l-236 608l-236 -608h-159z" />
<glyph unicode="Y" horiz-adv-x="858" d="M8 1436h230l227 -564l250 564h135l-324 -727v-709h-215v713z" />
<glyph unicode="Z" horiz-adv-x="888" d="M68 0v133l528 1180h-514v123h743v-105l-530 -1208h534v-123h-761z" />
<glyph unicode="[" horiz-adv-x="735" d="M164 -451v2149h530v-121h-350v-1907h350v-121h-530z" />
<glyph unicode="\" horiz-adv-x="624" d="M0 1436h166l530 -1661h-170z" />
<glyph unicode="]" horiz-adv-x="735" d="M41 -330h350v1907h-350v121h530v-2149h-530v121z" />
<glyph unicode="^" horiz-adv-x="780" d="M61 922l256 514h144l258 -514h-139l-187 389l-192 -389h-140z" />
<glyph unicode="_" horiz-adv-x="792" d="M0 -139h799v-123h-799v123z" />
<glyph unicode="`" horiz-adv-x="815" d="M102 1561h293l318 -310h-187z" />
<glyph unicode="a" horiz-adv-x="985" d="M68 268v146q0 66 13 116t49 83.5t95.5 51t151.5 17.5h162v-119h-88q-55 0 -89 -8t-52.5 -25.5t-26 -46t-7.5 -71.5v-131q0 -47 7.5 -77t26 -48.5t52 -25.5t89.5 -7h231v674q0 68 -7 110.5t-25.5 66t-52.5 32t-89 8.5h-295v123h369q92 0 151.5 -18.5t95 -60.5t49 -108.5 t13.5 -161.5v-788h-514q-92 0 -151.5 17.5t-95.5 51t-49 84t-13 115.5z" />
<glyph unicode="b" horiz-adv-x="1050" d="M102 0v1477h209v-1354h271q55 0 89 8t52 31.5t25.5 66.5t7.5 111v457q0 68 -7.5 110.5t-25.5 66t-52 32t-89 8.5h-158v123h231q92 0 151.5 -18.5t95.5 -60.5t49.5 -108.5t13.5 -161.5v-440q0 -96 -13.5 -161.5t-49.5 -107.5t-95 -60.5t-152 -18.5h-553z" />
<glyph unicode="c" horiz-adv-x="845" d="M86 348v440q0 94 13.5 161t49 109t95 60.5t151.5 18.5h398v-123h-324q-55 0 -89 -8.5t-52.5 -32t-25.5 -66.5t-7 -110v-457q0 -68 7 -111t25.5 -66.5t52.5 -31.5t89 -8h324v-123h-398q-92 0 -151.5 18.5t-95 60.5t-49 107.5t-13.5 161.5z" />
<glyph unicode="d" horiz-adv-x="1050" d="M86 348v440q0 94 13.5 161t49 109t95 60.5t151.5 18.5h232v-123h-158q-55 0 -89 -8.5t-52.5 -32t-25.5 -66.5t-7 -110v-457q0 -68 7 -111t25.5 -66.5t52.5 -31.5t89 -8h270v1354h209v-1477h-553q-92 0 -151.5 18.5t-95 60.5t-49 107.5t-13.5 161.5z" />
<glyph unicode="e" horiz-adv-x="991" d="M86 348v440q0 94 13.5 161t49 109t95 60.5t151.5 18.5h234q92 0 151.5 -17.5t95 -51.5t49 -84t13.5 -116v-125q0 -66 -13.5 -115.5t-49 -83.5t-95 -51.5t-151.5 -17.5h-191v119h117q55 0 89 8t52.5 25.5t25.5 46t7 71.5v111q0 45 -7 76t-25.5 49t-52.5 25.5t-89 7.5h-86 q-55 0 -89 -8.5t-52.5 -32t-25.5 -66.5t-7 -110v-457q0 -68 7 -111t25.5 -66.5t52.5 -31.5t89 -8h387v-123h-461q-92 0 -151.5 18.5t-95 60.5t-49 107.5t-13.5 161.5z" />
<glyph unicode="f" horiz-adv-x="557" d="M102 0v1184q0 82 14.5 138t48.5 90t86 49.5t130 15.5h160v-119h-123q-57 0 -82 -25.5t-25 -97.5v-98h230v-123h-230v-1014h-209z" />
<glyph unicode="g" horiz-adv-x="1050" d="M86 348v440q0 94 13.5 161t49 109t95 60.5t151.5 18.5h553v-1239q0 -96 -13 -162t-49 -108t-95.5 -60.5t-151.5 -18.5h-272v119h198q55 0 89 9.5t52.5 34t25.5 67.5t7 110v1125h-270q-55 0 -89 -8.5t-52.5 -32t-25.5 -66.5t-7 -110v-457q0 -68 7 -111t25.5 -66.5 t52.5 -31.5t89 -8h158v-123h-232q-92 0 -151.5 18.5t-95 60.5t-49 107.5t-13.5 161.5z" />
<glyph unicode="h" horiz-adv-x="1067" d="M102 0v1477h209v-340h353q92 0 151 -18.5t95 -60.5t49.5 -108.5t13.5 -161.5v-788h-209v797q0 68 -7 110.5t-25.5 66t-52.5 32t-89 8.5h-279v-1014h-209z" />
<glyph unicode="i" horiz-adv-x="421" d="M106 0v1137h209v-1137h-209zM106 1282v197h209v-197h-209z" />
<glyph unicode="j" horiz-adv-x="450" d="M-94 -332h59q55 0 89 9.5t52.5 34t25.5 67.5t7 110v1248h209v-1239q0 -96 -13 -162t-49 -108t-95.5 -60.5t-151.5 -18.5h-133v119zM139 1282v197h209v-197h-209z" />
<glyph unicode="k" horiz-adv-x="929" d="M102 0v1477h209v-785l394 445h159l-362 -414l411 -723h-247l-355 633v-633h-209z" />
<glyph unicode="l" horiz-adv-x="413" d="M102 0v1477h209v-1477h-209z" />
<glyph unicode="m" horiz-adv-x="1585" d="M102 0v1137h1080q92 0 151.5 -18.5t95 -60.5t49 -108.5t13.5 -161.5v-788h-209v797q0 68 -7 110.5t-25.5 66t-52.5 32t-89 8.5h-207v-1014h-209v1014h-381v-1014h-209z" />
<glyph unicode="n" horiz-adv-x="1067" d="M102 0v1137h562q92 0 151 -18.5t95 -60.5t49.5 -108.5t13.5 -161.5v-788h-209v797q0 68 -7 110.5t-25.5 66t-52.5 32t-89 8.5h-279v-1014h-209z" />
<glyph unicode="o" horiz-adv-x="1064" d="M86 348v440q0 94 13.5 161t49 109t95 60.5t151.5 18.5h275q92 0 151.5 -18.5t95 -60.5t49 -108.5t13.5 -161.5v-440q0 -96 -13.5 -161.5t-49 -107.5t-95 -60.5t-151.5 -18.5h-275q-92 0 -151.5 18.5t-95 60.5t-49 107.5t-13.5 161.5zM295 340q0 -68 7 -111t25.5 -66.5 t52.5 -31.5t89 -8h127q55 0 89 8t52.5 31.5t25.5 66.5t7 111v457q0 68 -7 110.5t-25.5 66t-52.5 32t-89 8.5h-127q-55 0 -89 -8.5t-52.5 -32t-25.5 -66.5t-7 -110v-457z" />
<glyph unicode="p" horiz-adv-x="1050" d="M102 -451v1588h553q92 0 151.5 -18.5t95.5 -60.5t49.5 -108.5t13.5 -161.5v-440q0 -96 -13.5 -161.5t-49.5 -107.5t-95 -60.5t-152 -18.5h-231v123h158q55 0 89 8t52 31.5t25.5 66.5t7.5 111v457q0 68 -7.5 110.5t-25.5 66t-52 32t-89 8.5h-271v-1465h-209z" />
<glyph unicode="q" horiz-adv-x="1050" d="M86 348v440q0 94 13.5 161t49 109t95 60.5t151.5 18.5h553v-1588h-209v1465h-270q-55 0 -89 -8.5t-52.5 -32t-25.5 -66.5t-7 -110v-457q0 -68 7 -111t25.5 -66.5t52.5 -31.5t89 -8h158v-123h-232q-92 0 -151.5 18.5t-95 60.5t-49 107.5t-13.5 161.5z" />
<glyph unicode="r" horiz-adv-x="661" d="M94 0v788q0 94 13.5 161t49.5 109t95 60.5t151 18.5h213v-123h-139q-55 0 -89 -8.5t-52.5 -32t-25.5 -66.5t-7 -110v-797h-209z" />
<glyph unicode="s" horiz-adv-x="931" d="M61 821q0 150 70 233t242 83h395v-123h-344q-43 0 -75 -5t-53.5 -21.5t-32.5 -51.5t-11 -92t7 -92t25.5 -54.5t52.5 -25.5t87 -6h143q88 0 147.5 -15.5t96.5 -52.5t53.5 -99.5t16.5 -156.5q0 -176 -75 -259t-255 -83h-453v123h412q43 0 77 4t57.5 23.5t34.5 58.5t11 108 q0 59 -7 95.5t-28.5 55.5t-61.5 25.5t-104 6.5h-153q-76 0 -128 17.5t-85 55t-47.5 99t-14.5 149.5z" />
<glyph unicode="t" horiz-adv-x="612" d="M94 274v1162h209v-299h285v-123h-285v-725q0 -98 27.5 -132t107.5 -34h92v-123h-176q-74 0 -124 20.5t-79.5 57.5t-43 87t-13.5 109z" />
<glyph unicode="u" horiz-adv-x="1056" d="M94 348v789h209v-797q0 -68 7 -111t25.5 -66.5t52.5 -31.5t89 -8h268v1014h209v-1137h-551q-92 0 -151 18.5t-95 60.5t-49.5 107.5t-13.5 161.5z" />
<glyph unicode="v" horiz-adv-x="976" d="M20 1137h228l241 -1012l259 1012h208l-325 -1137h-297z" />
<glyph unicode="w" horiz-adv-x="1529" d="M25 1137h233l158 -1039h12l166 1039h346l168 -1039h10l174 1039h213l-217 -1137h-352l-162 1038h-14l-166 -1038h-358z" />
<glyph unicode="x" horiz-adv-x="944" d="M18 0l342 602l-307 535h246l221 -412l230 412h161l-307 -533l324 -604h-246l-236 479l-268 -479h-160z" />
<glyph unicode="y" horiz-adv-x="954" d="M20 1137h216l243 -924l258 924h197l-479 -1588h-201l127 426z" />
<glyph unicode="z" horiz-adv-x="868" d="M68 0v125l512 889h-502v123h721v-88l-506 -926h516v-123h-741z" />
<glyph unicode="{" horiz-adv-x="743" d="M88 563v121h59q23 0 42.5 8t33 28.5t20.5 56.5t7 93v457q0 193 94 282t246 89h112v-121h-88q-55 0 -90 -17.5t-56.5 -50t-29.5 -78t-8 -102.5v-457q0 -117 -39 -174t-108 -75q35 -12 62.5 -28.5t46 -44.5t28.5 -70t10 -105v-457q0 -115 38 -181.5t146 -66.5h88v-121h-112 q-76 0 -138.5 21.5t-107.5 67t-69.5 116t-24.5 166.5v457q0 57 -7 93t-20.5 56.5t-33 28.5t-42.5 8h-59z" />
<glyph unicode="|" horiz-adv-x="540" d="M182 -426v2081h174v-2081h-174z" />
<glyph unicode="}" horiz-adv-x="745" d="M41 -330h88q109 0 146.5 66.5t37.5 181.5v457q0 63 10.5 105t29 70t46 44t62.5 29q-70 18 -109 75.5t-39 173.5v457q0 57 -8 102.5t-29.5 78t-56.5 50t-90 17.5h-88v121h113q76 0 138 -21.5t107 -66.5t70 -116t25 -167v-457q0 -57 7 -93t20.5 -56.5t32.5 -28.5t42 -8h59 v-121h-59q-47 0 -74.5 -37t-27.5 -149v-457q0 -96 -25 -166.5t-70 -116t-107.5 -67t-137.5 -21.5h-113v121z" />
<glyph unicode="~" d="M102 633v135q41 35 92.5 49t108.5 14q59 0 112.5 -18t119.5 -41q43 -16 87 -27.5t95 -11.5q57 0 98 13.5t88 50.5v-135q-41 -35 -92 -49.5t-109 -14.5q-59 0 -112 18t-119 41q-43 16 -87 27.5t-95 11.5q-57 0 -98 -13t-89 -50z" />
<glyph unicode="&#xa1;" horiz-adv-x="438" d="M110 0v1039h215v-1039h-215zM110 1239v201h215v-201h-215z" />
<glyph unicode="&#xa2;" horiz-adv-x="862" d="M102 500v440q0 94 13.5 160.5t49.5 108.5t95 60.5t152 18.5h69v148h135v-148h193v-119h-324q-55 0 -89 -9t-52 -33.5t-25.5 -67.5t-7.5 -111v-456q0 -68 7.5 -111t25.5 -67.5t52 -34t89 -9.5h324v-118h-193v-152h-135v152h-69q-92 0 -151.5 18t-95.5 60t-49.5 107.5 t-13.5 162.5z" />
<glyph unicode="&#xa3;" horiz-adv-x="901" d="M41 664v118h127v283q0 174 72.5 272.5t238.5 98.5h320v-123h-254q-162 0 -162 -248v-283h295v-118h-295v-541h473v-123h-813v123h125v541h-127z" />
<glyph unicode="&#xa5;" horiz-adv-x="897" d="M37 344v125h303v203h-303v125h303v39l-252 600h227l179 -441l194 441h135l-268 -605v-34h305v-125h-305v-203h305v-125h-305v-344h-215v344h-303z" />
<glyph unicode="&#xa6;" horiz-adv-x="540" d="M182 -426v852h174v-852h-174zM182 803v852h174v-852h-174z" />
<glyph unicode="&#xa7;" horiz-adv-x="997" d="M82 606q0 94 27.5 156.5t74.5 97.5q-41 37 -62.5 99.5t-21.5 160.5q0 150 70 233t242 83h395v-123h-344q-43 0 -75 -5t-53.5 -21.5t-32.5 -51.5t-11 -92t7 -98t25.5 -69t52.5 -41t87 -13h143q88 0 147.5 -8.5t96.5 -37t53.5 -85t16.5 -150.5q0 -102 -28 -167.5 t-75 -104.5q39 -31 61.5 -87.5t22.5 -154.5q0 -176 -74.5 -259t-255.5 -83h-452v123h411q43 0 77 4t57.5 23.5t35 58.5t11.5 108q0 57 -7.5 94t-26 60t-53 32t-89.5 11h-179q-76 0 -128 15.5t-84.5 51t-47 94t-14.5 146.5zM272 629q0 -55 6.5 -94t22.5 -64t46 -37t77 -12 h125q43 0 76.5 4t57.5 23.5t35 58t11 108.5q0 59 -7 95.5t-28.5 55.5t-61.5 25.5t-104 6.5h-108q-37 0 -64.5 -6.5t-46 -24.5t-28 -52t-9.5 -87z" />
<glyph unicode="&#xa8;" horiz-adv-x="884" d="M102 1282v197h209v-197h-209zM573 1282v197h209v-197h-209z" />
<glyph unicode="&#xaa;" horiz-adv-x="675" d="M98 762v86q0 72 36 109.5t138 37.5h93v-80h-41q-53 0 -68.5 -14t-15.5 -55v-76q0 -47 15 -60.5t69 -13.5h98v359q0 35 -3 55t-12.5 30.5t-25.5 13.5t-43 3h-158v82h207q104 0 140 -43t36 -147v-435h-291q-102 0 -138 38t-36 110z" />
<glyph unicode="&#xab;" horiz-adv-x="778" d="M41 559v182l305 248v-190l-199 -144l199 -147v-182zM430 559v182l305 248v-190l-199 -144l199 -147v-182z" />
<glyph unicode="&#xac;" horiz-adv-x="1107" d="M102 653v125h904v-659h-125v534h-779z" />
<glyph unicode="&#xad;" horiz-adv-x="485" d="M37 602v123h412v-123h-412z" />
<glyph unicode="&#xaf;" horiz-adv-x="884" d="M102 1321v123h680v-123h-680z" />
<glyph unicode="&#xb0;" horiz-adv-x="790" d="M74 1092v57q0 78 11 133t39 89t75 49.5t118 15.5h154q72 0 120 -15.5t75.5 -49.5t39 -89t11.5 -133v-57q0 -80 -11.5 -135.5t-39 -89t-75.5 -48t-120 -14.5h-154q-72 0 -118.5 14.5t-74.5 48t-39 89t-11 135.5zM242 1083q0 -57 5 -93t19.5 -56.5t40 -28.5t68.5 -8h35 q45 0 71.5 8t42 28.5t20.5 56.5t5 93v74q0 55 -5 91t-20.5 55.5t-42 27.5t-71.5 8h-35q-43 0 -68.5 -8t-40 -27.5t-19.5 -55.5t-5 -91v-74z" />
<glyph unicode="&#xb1;" d="M102 102v125h801v-125h-801zM102 653v125h338v336h125v-336h338v-125h-338v-340h-125v340h-338z" />
<glyph unicode="&#xb2;" horiz-adv-x="561" d="M70 740v202q0 57 8 96t28.5 64t56.5 35t91 10h43q53 0 64.5 28.5t11.5 90.5q0 72 -18.5 94.5t-53.5 22.5h-201v73h234q90 0 126 -40t36 -144q0 -63 -7.5 -102t-25 -61.5t-45 -31t-66.5 -8.5h-59q-61 0 -77.5 -26.5t-16.5 -106.5v-123h282v-73h-411z" />
<glyph unicode="&#xb3;" horiz-adv-x="509" d="M59 740v73h179q29 0 50 25.5t21 103.5q0 86 -14 106.5t-51 20.5h-92v72h92q41 0 49 26.5t8 92.5q0 41 -5 65.5t-13.5 36.5t-19.5 16.5t-25 4.5h-177v73h207q90 0 127 -48t37 -140q0 -82 -20.5 -112.5t-49.5 -49.5q35 -16 57.5 -54t22.5 -118q0 -96 -41 -145t-133 -49 h-209z" />
<glyph unicode="&#xb4;" horiz-adv-x="815" d="M102 1251l318 310h293l-424 -310h-187z" />
<glyph unicode="&#xb5;" horiz-adv-x="1058" d="M102 -451v1588h209v-1014h271q55 0 89 8t52 31.5t25.5 66.5t7.5 111v797h209v-789q0 -96 -13.5 -161.5t-49.5 -107.5t-95 -60.5t-152 -18.5h-344v-451h-209z" />
<glyph unicode="&#xb6;" horiz-adv-x="1089" d="M37 1083v99q0 82 11 138t41 91t81 51.5t131 16.5h686v-1643h-178v1514h-229v-1514h-179v950h-100q-80 0 -131 15.5t-81 51.5t-41 92t-11 138z" />
<glyph unicode="&#xb7;" horiz-adv-x="419" d="M102 594v201h215v-201h-215z" />
<glyph unicode="&#xb8;" horiz-adv-x="407" d="M102 -78h203l-76 -373h-127v373z" />
<glyph unicode="&#xb9;" horiz-adv-x="303" d="M39 1383v73h182v-716h-133v643h-49z" />
<glyph unicode="&#xba;" horiz-adv-x="720" d="M109 807v242q0 104 34.5 147t139.5 43h155q102 0 138 -43t36 -147v-242q0 -106 -35.5 -149.5t-138.5 -43.5h-155q-104 0 -139 43t-35 150zM250 801q0 -35 3 -55.5t12 -32t25.5 -14.5t43.5 -3h53q27 0 43 3t25.5 14.5t12.5 32t3 55.5v254q0 35 -3 55t-12.5 30.5 t-25.5 13.5t-43 3h-53q-27 0 -43.5 -3t-25.5 -13.5t-12 -30.5t-3 -55v-254z" />
<glyph unicode="&#xbb;" horiz-adv-x="778" d="M41 326v182l199 147l-199 144v190l305 -248v-182zM430 326v182l199 147l-199 144v190l305 -248v-182z" />
<glyph unicode="&#xbc;" horiz-adv-x="1429" d="M127 0l1011 1436h133l-1011 -1436h-133zM266 1383v73h182v-716h-133v643h-49zM817 109v73l250 514h145v-518h66v-69h-66v-129h-116v129h-279zM928 178h168v369z" />
<glyph unicode="&#xbd;" horiz-adv-x="1429" d="M127 0l1011 1436h133l-1011 -1436h-133zM287 1383v73h182v-716h-133v643h-49zM906 -20v202q0 57 8 96t28.5 64t56.5 35t91 10h43q53 0 64.5 28.5t11.5 90.5q0 72 -18.5 94.5t-53.5 22.5h-201v73h234q90 0 126 -40t36 -144q0 -63 -7.5 -102t-25 -61.5t-45 -31t-66.5 -8.5 h-59q-61 0 -77.5 -26.5t-16.5 -106.5v-123h282v-73h-411z" />
<glyph unicode="&#xbe;" horiz-adv-x="1429" d="M127 0l1011 1436h133l-1011 -1436h-133zM223 740v73h179q29 0 50 25.5t21 103.5q0 86 -14 106.5t-51 20.5h-92v72h92q41 0 49 26.5t8 92.5q0 41 -5 65.5t-13.5 36.5t-19.5 16.5t-25 4.5h-177v73h207q90 0 127 -48t37 -140q0 -82 -20.5 -112.5t-49.5 -49.5 q35 -16 57.5 -54t22.5 -118q0 -96 -41 -145t-133 -49h-209zM756 109v73l250 514h145v-518h66v-69h-66v-129h-116v129h-279zM867 178h168v369z" />
<glyph unicode="&#xbf;" horiz-adv-x="843" d="M16 387q0 199 58.5 293t207.5 94h96q41 0 70 7.5t49.5 26t29.5 52t9 87.5q0 29 -3 60.5t-7 70.5h104q41 -123 41 -217t-49 -149.5t-172 -55.5h-88q-35 0 -61.5 -12.5t-44 -44t-26.5 -84t-9 -132.5q0 -147 34.5 -203.5t122.5 -56.5h433v-123h-488q-88 0 -147.5 20.5 t-95 66.5t-50 120t-14.5 180zM477 1235v201h215v-201h-215z" />
<glyph unicode="&#xc0;" horiz-adv-x="968" d="M16 0l297 1436h355l284 -1436h-223l-57 313h-383l-60 -313h-213zM116 1860h293l318 -310h-187zM311 434h340l-151 879h-21z" />
<glyph unicode="&#xc1;" horiz-adv-x="968" d="M16 0l297 1436h355l284 -1436h-223l-57 313h-383l-60 -313h-213zM239 1550l318 310h293l-424 -310h-187zM311 434h340l-151 879h-21z" />
<glyph unicode="&#xc2;" horiz-adv-x="968" d="M16 0l297 1436h355l284 -1436h-223l-57 313h-383l-60 -313h-213zM98 1550l316 310h147l316 -310h-156l-233 179l-234 -179h-156zM311 434h340l-151 879h-21z" />
<glyph unicode="&#xc3;" horiz-adv-x="968" d="M16 0l297 1436h355l284 -1436h-223l-57 313h-383l-60 -313h-213zM184 1612v121q31 27 70 37t80 10q45 0 86 -13.5t88 -31.5q33 -10 65.5 -19.5t71.5 -9.5q43 0 74 9t65 38v-121q-31 -27 -69.5 -37t-79.5 -10q-45 0 -86 13.5t-88 31.5q-33 10 -65.5 19.5t-71.5 9.5 q-43 0 -74 -9.5t-66 -37.5zM311 434h340l-151 879h-21z" />
<glyph unicode="&#xc4;" horiz-adv-x="968" d="M16 0l297 1436h355l284 -1436h-223l-57 313h-383l-60 -313h-213zM143 1581v197h209v-197h-209zM311 434h340l-151 879h-21zM614 1581v197h209v-197h-209z" />
<glyph unicode="&#xc5;" horiz-adv-x="968" d="M16 0l297 1436h355l284 -1436h-223l-57 313h-383l-60 -313h-213zM247 1700v14q0 57 8.5 97t29 65t55 36t88.5 11h112q106 0 143 -47t37 -162v-14q0 -117 -36.5 -163t-143.5 -46h-112q-53 0 -88 10t-55.5 35t-29 64.5t-8.5 99.5zM311 434h340l-151 879h-21zM370 1696 q0 -66 17.5 -87.5t81.5 -21.5h26q66 0 84.5 21.5t18.5 87.5v22q0 63 -18.5 85t-84.5 22h-26q-63 0 -81 -20.5t-18 -86.5v-22z" />
<glyph unicode="&#xc6;" horiz-adv-x="1304" d="M16 0l301 1436h938v-123h-450v-520h305v-121h-305v-549h450v-123h-665v313h-297l-60 -313h-217zM315 434h275v879h-107z" />
<glyph unicode="&#xc7;" horiz-adv-x="864" d="M86 371v684q0 182 70.5 281.5t236.5 99.5h418v-123h-352q-84 0 -121 -54.5t-37 -203.5v-684q0 -125 37 -186.5t121 -61.5h356v-123h-422q-166 0 -236.5 98.5t-70.5 272.5zM417 -78h203l-76 -373h-127v373z" />
<glyph unicode="&#xc8;" horiz-adv-x="878" d="M96 1860h293l318 -310h-187zM102 0v1436h727v-123h-512v-520h367v-121h-367v-549h512v-123h-727z" />
<glyph unicode="&#xc9;" horiz-adv-x="878" d="M102 0v1436h727v-123h-512v-520h367v-121h-367v-549h512v-123h-727zM215 1550l318 310h293l-424 -310h-187z" />
<glyph unicode="&#xca;" horiz-adv-x="878" d="M73 1550l316 310h147l316 -310h-156l-233 179l-234 -179h-156zM102 0v1436h727v-123h-512v-520h367v-121h-367v-549h512v-123h-727z" />
<glyph unicode="&#xcb;" horiz-adv-x="878" d="M102 0v1436h727v-123h-512v-520h367v-121h-367v-549h512v-123h-727zM120 1581v197h209v-197h-209zM591 1581v197h209v-197h-209z" />
<glyph unicode="&#xcc;" horiz-adv-x="428" d="M-150 1860h293l318 -310h-187zM106 0v1436h216v-1436h-216z" />
<glyph unicode="&#xcd;" horiz-adv-x="428" d="M-27 1550l318 310h293l-424 -310h-187zM106 0v1436h216v-1436h-216z" />
<glyph unicode="&#xce;" horiz-adv-x="428" d="M-172 1550l316 310h147l316 -310h-156l-233 179l-234 -179h-156zM106 0v1436h216v-1436h-216z" />
<glyph unicode="&#xcf;" horiz-adv-x="428" d="M-123 1581v197h209v-197h-209zM106 0v1436h216v-1436h-216zM348 1581v197h209v-197h-209z" />
<glyph unicode="&#xd0;" horiz-adv-x="1073" d="M23 672v121h92v643h565q166 0 236.5 -99.5t70.5 -281.5v-684q0 -174 -70.5 -272.5t-236.5 -98.5h-565v672h-92zM330 123h284q84 0 121 61.5t37 186.5v684q0 150 -37 204t-121 54h-284v-520h252v-121h-252v-549z" />
<glyph unicode="&#xd1;" horiz-adv-x="1077" d="M98 0v1436h267l442 -1022v1022h170v-1436h-186l-525 1167v-1167h-168zM237 1612v121q31 27 70 37t80 10q45 0 86 -13.5t88 -31.5q33 -10 65.5 -19.5t71.5 -9.5q43 0 74 9t65 38v-121q-31 -27 -69.5 -37t-79.5 -10q-45 0 -86 13.5t-88 31.5q-33 10 -65.5 19.5t-71.5 9.5 q-43 0 -74 -9.5t-66 -37.5z" />
<glyph unicode="&#xd2;" horiz-adv-x="1101" d="M86 371v684q0 182 70.5 281.5t236.5 99.5h316q166 0 236.5 -99.5t70.5 -281.5v-684q0 -174 -71 -272.5t-236 -98.5h-316q-166 0 -236.5 98.5t-70.5 272.5zM184 1860h293l318 -310h-187zM301 371q0 -125 37 -186.5t121 -61.5h184q84 0 121 61.5t37 186.5v684 q0 150 -37 204t-121 54h-184q-84 0 -121 -54.5t-37 -203.5v-684z" />
<glyph unicode="&#xd3;" horiz-adv-x="1101" d="M86 371v684q0 182 70.5 281.5t236.5 99.5h316q166 0 236.5 -99.5t70.5 -281.5v-684q0 -174 -71 -272.5t-236 -98.5h-316q-166 0 -236.5 98.5t-70.5 272.5zM301 371q0 -125 37 -186.5t121 -61.5h184q84 0 121 61.5t37 186.5v684q0 150 -37 204t-121 54h-184 q-84 0 -121 -54.5t-37 -203.5v-684zM307 1550l318 310h293l-424 -310h-187z" />
<glyph unicode="&#xd4;" horiz-adv-x="1101" d="M86 371v684q0 182 70.5 281.5t236.5 99.5h316q166 0 236.5 -99.5t70.5 -281.5v-684q0 -174 -71 -272.5t-236 -98.5h-316q-166 0 -236.5 98.5t-70.5 272.5zM161 1550l316 310h147l316 -310h-156l-233 179l-234 -179h-156zM301 371q0 -125 37 -186.5t121 -61.5h184 q84 0 121 61.5t37 186.5v684q0 150 -37 204t-121 54h-184q-84 0 -121 -54.5t-37 -203.5v-684z" />
<glyph unicode="&#xd5;" horiz-adv-x="1101" d="M86 371v684q0 182 70.5 281.5t236.5 99.5h316q166 0 236.5 -99.5t70.5 -281.5v-684q0 -174 -71 -272.5t-236 -98.5h-316q-166 0 -236.5 98.5t-70.5 272.5zM249 1612v121q31 27 70 37t80 10q45 0 86 -13.5t88 -31.5q33 -10 65.5 -19.5t71.5 -9.5q43 0 74 9t65 38v-121 q-31 -27 -69.5 -37t-79.5 -10q-45 0 -86 13.5t-88 31.5q-33 10 -65.5 19.5t-71.5 9.5q-43 0 -74 -9.5t-66 -37.5zM301 371q0 -125 37 -186.5t121 -61.5h184q84 0 121 61.5t37 186.5v684q0 150 -37 204t-121 54h-184q-84 0 -121 -54.5t-37 -203.5v-684z" />
<glyph unicode="&#xd6;" horiz-adv-x="1101" d="M86 371v684q0 182 70.5 281.5t236.5 99.5h316q166 0 236.5 -99.5t70.5 -281.5v-684q0 -174 -71 -272.5t-236 -98.5h-316q-166 0 -236.5 98.5t-70.5 272.5zM211 1581v197h209v-197h-209zM301 371q0 -125 37 -186.5t121 -61.5h184q84 0 121 61.5t37 186.5v684 q0 150 -37 204t-121 54h-184q-84 0 -121 -54.5t-37 -203.5v-684zM682 1581v197h209v-197h-209z" />
<glyph unicode="&#xd7;" d="M172 477l240 238l-238 237l88 90l238 -237l239 237l88 -88l-239 -239l241 -240l-88 -88l-241 240l-238 -238z" />
<glyph unicode="&#xd8;" horiz-adv-x="1101" d="M86 371v684q0 182 70.5 281.5t236.5 99.5h316q16 0 31.5 -1t31.5 -3l82 208h137l-100 -254q66 -47 95.5 -131t29.5 -200v-684q0 -174 -71 -272.5t-236 -98.5h-355l-80 -205h-137l92 240q-76 41 -109.5 127t-33.5 209zM301 371q0 -72 12 -123l408 1048q-31 16 -78 17h-184 q-84 0 -121 -54.5t-37 -203.5v-684zM403 131q23 -8 56 -8h184q84 0 121 61.5t37 186.5v684q0 23 -1 44t-3 42z" />
<glyph unicode="&#xd9;" horiz-adv-x="1110" d="M92 371v1065h221v-1065q0 -143 37 -195.5t121 -52.5h176q84 0 121 52t37 196v1065h213v-1065q0 -174 -73 -272.5t-238 -98.5h-304q-88 0 -147 25.5t-96 72.5t-52.5 117t-15.5 156zM188 1860h293l318 -310h-187z" />
<glyph unicode="&#xda;" horiz-adv-x="1110" d="M92 371v1065h221v-1065q0 -143 37 -195.5t121 -52.5h176q84 0 121 52t37 196v1065h213v-1065q0 -174 -73 -272.5t-238 -98.5h-304q-88 0 -147 25.5t-96 72.5t-52.5 117t-15.5 156zM311 1550l318 310h293l-424 -310h-187z" />
<glyph unicode="&#xdb;" horiz-adv-x="1110" d="M92 371v1065h221v-1065q0 -143 37 -195.5t121 -52.5h176q84 0 121 52t37 196v1065h213v-1065q0 -174 -73 -272.5t-238 -98.5h-304q-88 0 -147 25.5t-96 72.5t-52.5 117t-15.5 156zM165 1550l316 310h147l316 -310h-156l-233 179l-234 -179h-156z" />
<glyph unicode="&#xdc;" horiz-adv-x="1110" d="M92 371v1065h221v-1065q0 -143 37 -195.5t121 -52.5h176q84 0 121 52t37 196v1065h213v-1065q0 -174 -73 -272.5t-238 -98.5h-304q-88 0 -147 25.5t-96 72.5t-52.5 117t-15.5 156zM215 1581v197h209v-197h-209zM686 1581v197h209v-197h-209z" />
<glyph unicode="&#xdd;" horiz-adv-x="858" d="M8 1436h230l227 -564l250 564h135l-324 -727v-709h-215v713zM184 1550l318 310h293l-424 -310h-187z" />
<glyph unicode="&#xde;" horiz-adv-x="1009" d="M102 0v1436h217v-267h308q102 0 170.5 -17t109.5 -65.5t57.5 -134.5t16.5 -221t-16.5 -219t-57.5 -129t-109.5 -60.5t-170.5 -15.5h-224v121h199q45 0 76 11.5t48 45t24.5 94t7.5 156.5t-7.5 157.5t-24.5 95.5t-48 46.5t-76 12.5h-283v-1047h-217z" />
<glyph unicode="&#xdf;" horiz-adv-x="1292" d="M102 0v1184q0 82 14.5 138t48.5 90t86 49.5t130 15.5h106q76 0 129.5 -15.5t87 -49.5t48 -90t14.5 -138v-275q0 -92 26.5 -126.5t102.5 -34.5h33q80 0 134 -17.5t86 -49.5t45 -77t13 -102v-248q0 -66 -13 -114t-49 -78.5t-95.5 -46t-151.5 -15.5h-379v123h361 q66 0 92 28.5t26 96.5v254q0 66 -26.5 96.5t-104.5 30.5h-47q-82 0 -133 13t-79.5 44t-39 82t-10.5 129v338q0 72 -24.5 97.5t-81.5 25.5h-33q-57 0 -82 -25.5t-25 -97.5v-1235h-209z" />
<glyph unicode="&#xe0;" horiz-adv-x="985" d="M68 268v146q0 66 13 116t49 83.5t95.5 51t151.5 17.5h162v-119h-88q-55 0 -89 -8t-52.5 -25.5t-26 -46t-7.5 -71.5v-131q0 -47 7.5 -77t26 -48.5t52 -25.5t89.5 -7h231v674q0 68 -7 110.5t-25.5 66t-52.5 32t-89 8.5h-295v123h369q92 0 151.5 -18.5t95 -60.5t49 -108.5 t13.5 -161.5v-788h-514q-92 0 -151.5 17.5t-95.5 51t-49 84t-13 115.5zM145 1561h293l318 -310h-187z" />
<glyph unicode="&#xe1;" horiz-adv-x="985" d="M68 268v146q0 66 13 116t49 83.5t95.5 51t151.5 17.5h162v-119h-88q-55 0 -89 -8t-52.5 -25.5t-26 -46t-7.5 -71.5v-131q0 -47 7.5 -77t26 -48.5t52 -25.5t89.5 -7h231v674q0 68 -7 110.5t-25.5 66t-52.5 32t-89 8.5h-295v123h369q92 0 151.5 -18.5t95 -60.5t49 -108.5 t13.5 -161.5v-788h-514q-92 0 -151.5 17.5t-95.5 51t-49 84t-13 115.5zM268 1251l318 310h293l-424 -310h-187z" />
<glyph unicode="&#xe2;" horiz-adv-x="985" d="M68 268v146q0 66 13 116t49 83.5t95.5 51t151.5 17.5h162v-119h-88q-55 0 -89 -8t-52.5 -25.5t-26 -46t-7.5 -71.5v-131q0 -47 7.5 -77t26 -48.5t52 -25.5t89.5 -7h231v674q0 68 -7 110.5t-25.5 66t-52.5 32t-89 8.5h-295v123h369q92 0 151.5 -18.5t95 -60.5t49 -108.5 t13.5 -161.5v-788h-514q-92 0 -151.5 17.5t-95.5 51t-49 84t-13 115.5zM143 1251l316 310h147l316 -310h-156l-233 179l-234 -179h-156z" />
<glyph unicode="&#xe3;" horiz-adv-x="985" d="M68 268v146q0 66 13 116t49 83.5t95.5 51t151.5 17.5h162v-119h-88q-55 0 -89 -8t-52.5 -25.5t-26 -46t-7.5 -71.5v-131q0 -47 7.5 -77t26 -48.5t52 -25.5t89.5 -7h231v674q0 68 -7 110.5t-25.5 66t-52.5 32t-89 8.5h-295v123h369q92 0 151.5 -18.5t95 -60.5t49 -108.5 t13.5 -161.5v-788h-514q-92 0 -151.5 17.5t-95.5 51t-49 84t-13 115.5zM225 1313v121q31 27 70 37t80 10q45 0 86 -13.5t88 -31.5q33 -10 65.5 -19.5t71.5 -9.5q43 0 74 9t65 38v-121q-31 -27 -69.5 -37t-79.5 -10q-45 0 -86 13.5t-88 31.5q-33 10 -65.5 19.5t-71.5 9.5 q-43 0 -74 -9.5t-66 -37.5z" />
<glyph unicode="&#xe4;" horiz-adv-x="985" d="M68 268v146q0 66 13 116t49 83.5t95.5 51t151.5 17.5h162v-119h-88q-55 0 -89 -8t-52.5 -25.5t-26 -46t-7.5 -71.5v-131q0 -47 7.5 -77t26 -48.5t52 -25.5t89.5 -7h231v674q0 68 -7 110.5t-25.5 66t-52.5 32t-89 8.5h-295v123h369q92 0 151.5 -18.5t95 -60.5t49 -108.5 t13.5 -161.5v-788h-514q-92 0 -151.5 17.5t-95.5 51t-49 84t-13 115.5zM182 1282v197h209v-197h-209zM653 1282v197h209v-197h-209z" />
<glyph unicode="&#xe5;" horiz-adv-x="985" d="M68 268v146q0 66 13 116t49 83.5t95.5 51t151.5 17.5h162v-119h-88q-55 0 -89 -8t-52.5 -25.5t-26 -46t-7.5 -71.5v-131q0 -47 7.5 -77t26 -48.5t52 -25.5t89.5 -7h231v674q0 68 -7 110.5t-25.5 66t-52.5 32t-89 8.5h-295v123h369q92 0 151.5 -18.5t95 -60.5t49 -108.5 t13.5 -161.5v-788h-514q-92 0 -151.5 17.5t-95.5 51t-49 84t-13 115.5zM284 1401v14q0 57 8.5 97t29 65t55 36t88.5 11h112q106 0 143 -47t37 -162v-14q0 -117 -36.5 -163t-143.5 -46h-112q-53 0 -88 10t-55.5 35t-29 64.5t-8.5 99.5zM407 1397q0 -66 17.5 -87.5t81.5 -21.5 h26q66 0 84.5 21.5t18.5 87.5v22q0 63 -18.5 85t-84.5 22h-26q-63 0 -81 -20.5t-18 -86.5v-22z" />
<glyph unicode="&#xe6;" horiz-adv-x="1593" d="M86 268v146q0 66 13.5 116t49 83.5t95 51t151.5 17.5h150v-119h-76q-55 0 -89 -8t-52.5 -25.5t-25.5 -46t-7 -71.5v-131q0 -47 7 -77t25.5 -48.5t52.5 -25.5t89 -7h219v674q0 68 -7 110.5t-25.5 66t-52.5 32t-89 8.5h-283v123h357q45 0 79.5 -11.5t59.5 -29t40 -38 t26 -40.5q8 20 22 40.5t38 38t59.5 29t84.5 11.5h234q92 0 151.5 -17.5t95 -51.5t49 -84t13.5 -116v-125q0 -66 -13.5 -115.5t-49 -83.5t-95 -51.5t-151.5 -17.5h-191v119h117q55 0 89 8t52.5 25.5t25.5 46t7 71.5v111q0 45 -7 76t-25.5 49t-52.5 25.5t-89 7.5h-86 q-55 0 -89 -8.5t-52.5 -32t-25.5 -66.5t-7 -110v-674h561v-123h-1063q-92 0 -151.5 17.5t-95 51t-49 84t-13.5 115.5z" />
<glyph unicode="&#xe7;" horiz-adv-x="845" d="M86 348v440q0 94 13.5 161t49 109t95 60.5t151.5 18.5h398v-123h-324q-55 0 -89 -8.5t-52.5 -32t-25.5 -66.5t-7 -110v-457q0 -68 7 -111t25.5 -66.5t52.5 -31.5t89 -8h324v-123h-398q-92 0 -151.5 18.5t-95 60.5t-49 107.5t-13.5 161.5zM374 -78h203l-76 -373h-127v373z " />
<glyph unicode="&#xe8;" horiz-adv-x="991" d="M86 348v440q0 94 13.5 161t49 109t95 60.5t151.5 18.5h234q92 0 151.5 -17.5t95 -51.5t49 -84t13.5 -116v-125q0 -66 -13.5 -115.5t-49 -83.5t-95 -51.5t-151.5 -17.5h-191v119h117q55 0 89 8t52.5 25.5t25.5 46t7 71.5v111q0 45 -7 76t-25.5 49t-52.5 25.5t-89 7.5h-86 q-55 0 -89 -8.5t-52.5 -32t-25.5 -66.5t-7 -110v-457q0 -68 7 -111t25.5 -66.5t52.5 -31.5t89 -8h387v-123h-461q-92 0 -151.5 18.5t-95 60.5t-49 107.5t-13.5 161.5zM129 1561h293l318 -310h-187z" />
<glyph unicode="&#xe9;" horiz-adv-x="991" d="M86 348v440q0 94 13.5 161t49 109t95 60.5t151.5 18.5h234q92 0 151.5 -17.5t95 -51.5t49 -84t13.5 -116v-125q0 -66 -13.5 -115.5t-49 -83.5t-95 -51.5t-151.5 -17.5h-191v119h117q55 0 89 8t52.5 25.5t25.5 46t7 71.5v111q0 45 -7 76t-25.5 49t-52.5 25.5t-89 7.5h-86 q-55 0 -89 -8.5t-52.5 -32t-25.5 -66.5t-7 -110v-457q0 -68 7 -111t25.5 -66.5t52.5 -31.5t89 -8h387v-123h-461q-92 0 -151.5 18.5t-95 60.5t-49 107.5t-13.5 161.5zM252 1251l318 310h293l-424 -310h-187z" />
<glyph unicode="&#xea;" horiz-adv-x="991" d="M86 348v440q0 94 13.5 161t49 109t95 60.5t151.5 18.5h234q92 0 151.5 -17.5t95 -51.5t49 -84t13.5 -116v-125q0 -66 -13.5 -115.5t-49 -83.5t-95 -51.5t-151.5 -17.5h-191v119h117q55 0 89 8t52.5 25.5t25.5 46t7 71.5v111q0 45 -7 76t-25.5 49t-52.5 25.5t-89 7.5h-86 q-55 0 -89 -8.5t-52.5 -32t-25.5 -66.5t-7 -110v-457q0 -68 7 -111t25.5 -66.5t52.5 -31.5t89 -8h387v-123h-461q-92 0 -151.5 18.5t-95 60.5t-49 107.5t-13.5 161.5zM106 1251l316 310h147l316 -310h-156l-233 179l-234 -179h-156z" />
<glyph unicode="&#xeb;" horiz-adv-x="991" d="M86 348v440q0 94 13.5 161t49 109t95 60.5t151.5 18.5h234q92 0 151.5 -17.5t95 -51.5t49 -84t13.5 -116v-125q0 -66 -13.5 -115.5t-49 -83.5t-95 -51.5t-151.5 -17.5h-191v119h117q55 0 89 8t52.5 25.5t25.5 46t7 71.5v111q0 45 -7 76t-25.5 49t-52.5 25.5t-89 7.5h-86 q-55 0 -89 -8.5t-52.5 -32t-25.5 -66.5t-7 -110v-457q0 -68 7 -111t25.5 -66.5t52.5 -31.5t89 -8h387v-123h-461q-92 0 -151.5 18.5t-95 60.5t-49 107.5t-13.5 161.5zM155 1282v197h209v-197h-209zM626 1282v197h209v-197h-209z" />
<glyph unicode="&#xec;" horiz-adv-x="569" d="M-7 1561h293l318 -310h-187zM253 0v1137h209v-1137h-209z" />
<glyph unicode="&#xed;" horiz-adv-x="575" d="M-31 1251l318 310h293l-424 -310h-187zM106 0v1137h209v-1137h-209z" />
<glyph unicode="&#xee;" horiz-adv-x="624" d="M-74 1251l316 310h147l316 -310h-156l-233 179l-234 -179h-156zM208 0v1137h209v-1137h-209z" />
<glyph unicode="&#xef;" horiz-adv-x="555" d="M-60 1282v197h209v-197h-209zM174 0v1137h209v-1137h-209zM411 1282v197h209v-197h-209z" />
<glyph unicode="&#xf0;" horiz-adv-x="1036" d="M86 348v238q0 94 13.5 160.5t49 108.5t95 60.5t151.5 18.5h236v-119h-162q-55 0 -89 -9t-52.5 -33.5t-25.5 -67.5t-7 -111v-254q0 -68 7 -111t25.5 -66.5t52.5 -31.5t89 -8h98q55 0 89 8t52.5 31.5t25.5 66.5t7 111v797q0 68 -7 110.5t-25.5 67t-52 34t-89.5 9.5h-217 v119h291q92 0 151.5 -18.5t95.5 -60.5t49 -108.5t13 -161.5v-780q0 -96 -13 -161.5t-49 -107.5t-95.5 -60.5t-151.5 -18.5h-246q-92 0 -151.5 18.5t-95 60.5t-49 107.5t-13.5 161.5z" />
<glyph unicode="&#xf1;" horiz-adv-x="1067" d="M102 0v1137h562q92 0 151 -18.5t95 -60.5t49.5 -108.5t13.5 -161.5v-788h-209v797q0 68 -7 110.5t-25.5 66t-52.5 32t-89 8.5h-279v-1014h-209zM233 1313v121q31 27 70 37t80 10q45 0 86 -13.5t88 -31.5q33 -10 65.5 -19.5t71.5 -9.5q43 0 74 9t65 38v-121 q-31 -27 -69.5 -37t-79.5 -10q-45 0 -86 13.5t-88 31.5q-33 10 -65.5 19.5t-71.5 9.5q-43 0 -74 -9.5t-66 -37.5z" />
<glyph unicode="&#xf2;" horiz-adv-x="1064" d="M86 348v440q0 94 13.5 161t49 109t95 60.5t151.5 18.5h275q92 0 151.5 -18.5t95 -60.5t49 -108.5t13.5 -161.5v-440q0 -96 -13.5 -161.5t-49 -107.5t-95 -60.5t-151.5 -18.5h-275q-92 0 -151.5 18.5t-95 60.5t-49 107.5t-13.5 161.5zM165 1561h293l318 -310h-187z M295 340q0 -68 7 -111t25.5 -66.5t52.5 -31.5t89 -8h127q55 0 89 8t52.5 31.5t25.5 66.5t7 111v457q0 68 -7 110.5t-25.5 66t-52.5 32t-89 8.5h-127q-55 0 -89 -8.5t-52.5 -32t-25.5 -66.5t-7 -110v-457z" />
<glyph unicode="&#xf3;" horiz-adv-x="1064" d="M86 348v440q0 94 13.5 161t49 109t95 60.5t151.5 18.5h275q92 0 151.5 -18.5t95 -60.5t49 -108.5t13.5 -161.5v-440q0 -96 -13.5 -161.5t-49 -107.5t-95 -60.5t-151.5 -18.5h-275q-92 0 -151.5 18.5t-95 60.5t-49 107.5t-13.5 161.5zM288 1251l318 310h293l-424 -310 h-187zM295 340q0 -68 7 -111t25.5 -66.5t52.5 -31.5t89 -8h127q55 0 89 8t52.5 31.5t25.5 66.5t7 111v457q0 68 -7 110.5t-25.5 66t-52.5 32t-89 8.5h-127q-55 0 -89 -8.5t-52.5 -32t-25.5 -66.5t-7 -110v-457z" />
<glyph unicode="&#xf4;" horiz-adv-x="1064" d="M86 348v440q0 94 13.5 161t49 109t95 60.5t151.5 18.5h275q92 0 151.5 -18.5t95 -60.5t49 -108.5t13.5 -161.5v-440q0 -96 -13.5 -161.5t-49 -107.5t-95 -60.5t-151.5 -18.5h-275q-92 0 -151.5 18.5t-95 60.5t-49 107.5t-13.5 161.5zM143 1251l316 310h147l316 -310h-156 l-233 179l-234 -179h-156zM295 340q0 -68 7 -111t25.5 -66.5t52.5 -31.5t89 -8h127q55 0 89 8t52.5 31.5t25.5 66.5t7 111v457q0 68 -7 110.5t-25.5 66t-52.5 32t-89 8.5h-127q-55 0 -89 -8.5t-52.5 -32t-25.5 -66.5t-7 -110v-457z" />
<glyph unicode="&#xf5;" horiz-adv-x="1064" d="M86 348v440q0 94 13.5 161t49 109t95 60.5t151.5 18.5h275q92 0 151.5 -18.5t95 -60.5t49 -108.5t13.5 -161.5v-440q0 -96 -13.5 -161.5t-49 -107.5t-95 -60.5t-151.5 -18.5h-275q-92 0 -151.5 18.5t-95 60.5t-49 107.5t-13.5 161.5zM231 1313v121q31 27 70 37t80 10 q45 0 86 -13.5t88 -31.5q33 -10 65.5 -19.5t71.5 -9.5q43 0 74 9t65 38v-121q-31 -27 -69.5 -37t-79.5 -10q-45 0 -86 13.5t-88 31.5q-33 10 -65.5 19.5t-71.5 9.5q-43 0 -74 -9.5t-66 -37.5zM295 340q0 -68 7 -111t25.5 -66.5t52.5 -31.5t89 -8h127q55 0 89 8t52.5 31.5 t25.5 66.5t7 111v457q0 68 -7 110.5t-25.5 66t-52.5 32t-89 8.5h-127q-55 0 -89 -8.5t-52.5 -32t-25.5 -66.5t-7 -110v-457z" />
<glyph unicode="&#xf6;" horiz-adv-x="1064" d="M86 348v440q0 94 13.5 161t49 109t95 60.5t151.5 18.5h275q92 0 151.5 -18.5t95 -60.5t49 -108.5t13.5 -161.5v-440q0 -96 -13.5 -161.5t-49 -107.5t-95 -60.5t-151.5 -18.5h-275q-92 0 -151.5 18.5t-95 60.5t-49 107.5t-13.5 161.5zM192 1282v197h209v-197h-209z M295 340q0 -68 7 -111t25.5 -66.5t52.5 -31.5t89 -8h127q55 0 89 8t52.5 31.5t25.5 66.5t7 111v457q0 68 -7 110.5t-25.5 66t-52.5 32t-89 8.5h-127q-55 0 -89 -8.5t-52.5 -32t-25.5 -66.5t-7 -110v-457zM663 1282v197h209v-197h-209z" />
<glyph unicode="&#xf7;" d="M102 653v125h801v-125h-801zM395 289v201h215v-201h-215zM395 942v201h215v-201h-215z" />
<glyph unicode="&#xf8;" horiz-adv-x="1064" d="M86 348v440q0 94 13.5 161t49 109t95 60.5t151.5 18.5h275q18 0 35.5 -1t33.5 -3l103 208h137l-117 -239q66 -35 91.5 -111t25.5 -203v-440q0 -96 -13.5 -161.5t-49 -107.5t-95 -60.5t-151.5 -18.5h-275h-35.5t-33.5 2l-101 -207h-137l117 238q-70 35 -94.5 110.5 t-24.5 204.5zM295 340q0 -35 1 -60.5t5 -48.5l379 775q-16 4 -37.5 6t-46.5 2h-127q-55 0 -89 -8.5t-52.5 -32t-25.5 -66.5t-7 -110v-457zM387 129q31 -6 82 -6h127q55 0 89 8t52.5 31.5t25.5 66.5t7 111v457q0 61 -6 104z" />
<glyph unicode="&#xf9;" horiz-adv-x="1056" d="M94 348v789h209v-797q0 -68 7 -111t25.5 -66.5t52.5 -31.5t89 -8h268v1014h209v-1137h-551q-92 0 -151 18.5t-95 60.5t-49.5 107.5t-13.5 161.5zM161 1561h293l318 -310h-187z" />
<glyph unicode="&#xfa;" horiz-adv-x="1056" d="M94 348v789h209v-797q0 -68 7 -111t25.5 -66.5t52.5 -31.5t89 -8h268v1014h209v-1137h-551q-92 0 -151 18.5t-95 60.5t-49.5 107.5t-13.5 161.5zM284 1251l318 310h293l-424 -310h-187z" />
<glyph unicode="&#xfb;" horiz-adv-x="1056" d="M94 348v789h209v-797q0 -68 7 -111t25.5 -66.5t52.5 -31.5t89 -8h268v1014h209v-1137h-551q-92 0 -151 18.5t-95 60.5t-49.5 107.5t-13.5 161.5zM139 1251l316 310h147l316 -310h-156l-233 179l-234 -179h-156z" />
<glyph unicode="&#xfc;" horiz-adv-x="1056" d="M94 348v789h209v-797q0 -68 7 -111t25.5 -66.5t52.5 -31.5t89 -8h268v1014h209v-1137h-551q-92 0 -151 18.5t-95 60.5t-49.5 107.5t-13.5 161.5zM188 1282v197h209v-197h-209zM659 1282v197h209v-197h-209z" />
<glyph unicode="&#xfd;" horiz-adv-x="954" d="M20 1137h216l243 -924l258 924h197l-479 -1588h-201l127 426zM233 1251l318 310h293l-424 -310h-187z" />
<glyph unicode="&#xfe;" horiz-adv-x="1050" d="M102 -451v1928h209v-1354h271q55 0 89 8t52 31.5t25.5 66.5t7.5 111v457q0 68 -7.5 110.5t-25.5 66t-52 32t-89 8.5h-158v123h231q92 0 151.5 -18.5t95.5 -60.5t49.5 -108.5t13.5 -161.5v-440q0 -96 -13.5 -161.5t-49.5 -107.5t-95 -60.5t-152 -18.5h-344v-451h-209z" />
<glyph unicode="&#xff;" horiz-adv-x="954" d="M20 1137h216l243 -924l258 924h197l-479 -1588h-201l127 426zM137 1282v197h209v-197h-209zM608 1282v197h209v-197h-209z" />
<glyph unicode="&#x152;" horiz-adv-x="1415" d="M86 371v684q0 182 70.5 281.5t236.5 99.5h973v-123h-451v-520h306v-121h-306v-549h451v-123h-973q-166 0 -236.5 98.5t-70.5 272.5zM301 371q0 -125 37 -186.5t121 -61.5h241v1190h-241q-84 0 -121 -54.5t-37 -203.5v-684z" />
<glyph unicode="&#x153;" horiz-adv-x="1675" d="M86 348v440q0 94 13.5 161t49 109t95 60.5t151.5 18.5h275q68 0 119 -20.5t85 -43.5q35 23 85.5 43.5t119.5 20.5h234q92 0 151.5 -17.5t95 -51.5t49 -84t13.5 -116v-125q0 -66 -13.5 -115.5t-49 -83.5t-95 -51.5t-151.5 -17.5h-191v119h117q55 0 89 8t52.5 25.5t25.5 46 t7 71.5v111q0 45 -7 76t-25.5 49t-52.5 25.5t-89 7.5h-86q-53 0 -86 -8.5t-53.5 -31t-27.5 -65.5t-7 -112v-457q0 -68 7 -111t25.5 -66.5t52.5 -31.5t89 -8h387v-123h-461q-96 0 -138 19.5t-67 41.5q-14 -10 -30.5 -21t-40 -20.5t-56 -14.5t-77.5 -5h-275q-92 0 -151.5 18.5 t-95 60.5t-49 107.5t-13.5 161.5zM295 340q0 -68 7 -111t25.5 -66.5t52.5 -31.5t89 -8h127q55 0 89 8t52.5 31.5t25.5 66.5t7 111v457q0 68 -7 110.5t-25.5 66t-52.5 32t-89 8.5h-127q-55 0 -89 -8.5t-52.5 -32t-25.5 -66.5t-7 -110v-457z" />
<glyph unicode="&#x178;" horiz-adv-x="858" d="M8 1436h230l227 -564l250 564h135l-324 -727v-709h-215v713zM92 1581v197h209v-197h-209zM563 1581v197h209v-197h-209z" />
<glyph unicode="&#x2c6;" horiz-adv-x="983" d="M102 1251l316 310h147l316 -310h-156l-233 179l-234 -179h-156z" />
<glyph unicode="&#x2dc;" horiz-adv-x="804" d="M102 1313v121q31 27 70 37t80 10q45 0 86 -13.5t88 -31.5q33 -10 65.5 -19.5t71.5 -9.5q43 0 74 9t65 38v-121q-31 -27 -69.5 -37t-79.5 -10q-45 0 -86 13.5t-88 31.5q-33 10 -65.5 19.5t-71.5 9.5q-43 0 -74 -9.5t-66 -37.5z" />
<glyph unicode="&#x2000;" horiz-adv-x="961" />
<glyph unicode="&#x2001;" horiz-adv-x="1923" />
<glyph unicode="&#x2002;" horiz-adv-x="961" />
<glyph unicode="&#x2003;" horiz-adv-x="1923" />
<glyph unicode="&#x2004;" horiz-adv-x="641" />
<glyph unicode="&#x2005;" horiz-adv-x="480" />
<glyph unicode="&#x2006;" horiz-adv-x="320" />
<glyph unicode="&#x2007;" horiz-adv-x="320" />
<glyph unicode="&#x2008;" horiz-adv-x="240" />
<glyph unicode="&#x2009;" horiz-adv-x="384" />
<glyph unicode="&#x200a;" horiz-adv-x="106" />
<glyph unicode="&#x2010;" horiz-adv-x="485" d="M37 602v123h412v-123h-412z" />
<glyph unicode="&#x2011;" horiz-adv-x="485" d="M37 602v123h412v-123h-412z" />
<glyph unicode="&#x2012;" horiz-adv-x="485" d="M37 602v123h412v-123h-412z" />
<glyph unicode="&#x2013;" horiz-adv-x="976" d="M37 602v123h903v-123h-903z" />
<glyph unicode="&#x2014;" horiz-adv-x="1576" d="M37 602v123h1503v-123h-1503z" />
<glyph unicode="&#x2018;" horiz-adv-x="389" d="M86 952l86 525h129v-525h-215z" />
<glyph unicode="&#x2019;" horiz-adv-x="389" d="M86 952v525h215l-86 -525h-129z" />
<glyph unicode="&#x201a;" horiz-adv-x="389" d="M86 201h215l-86 -525h-129v525z" />
<glyph unicode="&#x201c;" horiz-adv-x="778" d="M86 952l86 525h129v-525h-215zM475 952l86 525h129v-525h-215z" />
<glyph unicode="&#x201d;" horiz-adv-x="778" d="M86 952v525h215l-86 -525h-129zM475 952v525h215l-86 -525h-129z" />
<glyph unicode="&#x201e;" horiz-adv-x="778" d="M86 201h215l-86 -525h-129v525zM475 201h215l-86 -525h-129v525z" />
<glyph unicode="&#x2022;" horiz-adv-x="761" d="M102 690v148q0 59 8.5 100t30 67.5t59.5 38t95 11.5h170q115 0 154.5 -49.5t39.5 -167.5v-148q0 -59 -9 -100t-30.5 -66.5t-59.5 -37t-95 -11.5h-170q-57 0 -95 11.5t-59.5 37t-30 66.5t-8.5 100z" />
<glyph unicode="&#x2026;" horiz-adv-x="2099" d="M102 0v201h215v-201h-215zM942 0v201h215v-201h-215zM1781 0v201h215v-201h-215z" />
<glyph unicode="&#x202f;" horiz-adv-x="384" />
<glyph unicode="&#x2039;" horiz-adv-x="389" d="M41 559v182l305 248v-190l-199 -144l199 -147v-182z" />
<glyph unicode="&#x203a;" horiz-adv-x="389" d="M41 326v182l199 147l-199 144v190l305 -248v-182z" />
<glyph unicode="&#x205f;" horiz-adv-x="480" />
<glyph unicode="&#x20ac;" horiz-adv-x="937" d="M27 461l22 123h86v243h-108l22 123h86v125q0 90 12.5 157.5t46 113t95 68t157.5 22.5h469l-34 -123h-369q-55 0 -87 -9.5t-47.5 -35t-19.5 -72.5t-4 -121v-125h424l-35 -123h-389v-243h318l-35 -123h-283v-111q0 -61 4 -105t19.5 -71t47.5 -39t87 -12h346v-123h-412 q-96 0 -157.5 22.5t-95 66.5t-46 109.5t-12.5 151.5v111h-108z" />
<glyph unicode="&#x2122;" horiz-adv-x="1378" d="M33 1356v80h493v-80h-188v-631h-133v631h-172zM627 725v711h149l176 -549l174 549h150v-711h-100v510l-166 -510h-115l-166 508v-508h-102z" />
<glyph unicode="&#x25fc;" horiz-adv-x="1136" d="M0 0v1137h1137v-1137h-1137z" />
<glyph unicode="&#xfb01;" horiz-adv-x="978" d="M102 0v1184q0 82 14.5 138t48.5 90t86 49.5t130 15.5h160v-119h-123q-57 0 -82 -25.5t-25 -97.5v-98h230v-123h-230v-1014h-209zM663 0v1137h209v-1137h-209zM663 1282v197h209v-197h-209z" />
<glyph unicode="&#xfb02;" horiz-adv-x="970" d="M102 0v1184q0 82 14.5 138t48.5 90t86 49.5t130 15.5h160v-119h-123q-57 0 -82 -25.5t-25 -97.5v-98h230v-123h-230v-1014h-209zM659 0v1477h209v-1477h-209z" />
</font>
</defs>
</svg>
