<svg xmlns="http://www.w3.org/2000/svg" width="53" height="52.998" viewBox="0 0 53 52.998">
  <g id="Group_15187" data-name="Group 15187" transform="translate(-1092.259 -806.259)">
    <g id="Union_2" data-name="Union 2" transform="translate(1092.259 806.258)" fill="none">
      <path d="M23.188,49.687V29.813H3.312a3.312,3.312,0,0,1,0-6.625H23.188V3.314a3.312,3.312,0,1,1,6.625,0V23.188H49.687a3.312,3.312,0,1,1,0,6.625H29.813V49.687a3.312,3.312,0,0,1-6.625,0Z" stroke="none"/>
      <path d="M 26.49960136413574 50.99920272827148 C 27.22354125976562 50.99920272827148 27.81250190734863 50.41064071655273 27.81250190734863 49.68720245361328 L 27.81250190734863 27.81250190734863 L 49.68720245361328 27.81250190734863 C 50.41114044189453 27.81250190734863 51.00010299682617 27.22394180297852 51.00010299682617 26.50050163269043 C 51.00010299682617 25.77656173706055 50.41114044189453 25.18760108947754 49.68720245361328 25.18760108947754 L 27.81250190734863 25.18760108947754 L 27.81250190734863 3.313801527023315 C 27.81250190734863 2.589861392974854 27.22354125976562 2.000901460647583 26.49960136413574 2.000901460647583 C 25.77616119384766 2.000901460647583 25.18760108947754 2.589861392974854 25.18760108947754 3.313801527023315 L 25.18760108947754 25.18760108947754 L 3.312001466751099 25.18760108947754 C 2.588561534881592 25.18760108947754 2.000001430511475 25.77656173706055 2.000001430511475 26.50050163269043 C 2.000001430511475 27.22394180297852 2.588561534881592 27.81250190734863 3.312001466751099 27.81250190734863 L 25.18760108947754 27.81250190734863 L 25.18760108947754 49.68720245361328 C 25.18760108947754 50.41064071655273 25.77616119384766 50.99920272827148 26.49960136413574 50.99920272827148 M 26.49960136413574 52.99920272827148 C 24.67080116271973 52.99920272827148 23.18760108947754 51.5160026550293 23.18760108947754 49.68720245361328 L 23.18760108947754 29.81250190734863 L 3.312001466751099 29.81250190734863 C 1.483201503753662 29.81250190734863 1.498413098488527e-06 28.32930183410645 1.498413098488527e-06 26.50050163269043 C 1.498413098488527e-06 24.67080116271973 1.483201503753662 23.18760108947754 3.312001466751099 23.18760108947754 L 23.18760108947754 23.18760108947754 L 23.18760108947754 3.313801527023315 C 23.18760108947754 1.484101533889771 24.67080116271973 0.0009014984243549407 26.49960136413574 0.0009014984243549407 C 28.32930183410645 0.0009014984243549407 29.81250190734863 1.484101533889771 29.81250190734863 3.313801527023315 L 29.81250190734863 23.18760108947754 L 49.68720245361328 23.18760108947754 C 51.51690292358398 23.18760108947754 53.00010299682617 24.67080116271973 53.00010299682617 26.50050163269043 C 53.00010299682617 28.32930183410645 51.51690292358398 29.81250190734863 49.68720245361328 29.81250190734863 L 29.81250190734863 29.81250190734863 L 29.81250190734863 49.68720245361328 C 29.81250190734863 51.5160026550293 28.32930183410645 52.99920272827148 26.49960136413574 52.99920272827148 Z" stroke="none" fill="#8b7461"/>
    </g>
  </g>
</svg>
