<svg xmlns="http://www.w3.org/2000/svg" width="22.397" height="22.397" viewBox="0 0 22.397 22.397">
  <g id="allergens-none" transform="translate(0 100)">
    <path id="Path_9364" data-name="Path 9364" d="M0-88.8A11.2,11.2,0,0,1,11.2-100,11.2,11.2,0,0,1,22.4-88.8,11.2,11.2,0,0,1,11.2-77.6,11.2,11.2,0,0,1,0-88.8Zm18.276-5.487L5.7-81.735a8.9,8.9,0,0,0,5.5,1.883,8.959,8.959,0,0,0,8.959-8.957,8.923,8.923,0,0,0-1.895-5.508l.015.02ZM16.7-95.88a8.9,8.9,0,0,0-5.519-1.9A8.959,8.959,0,0,0,2.22-88.823a8.919,8.919,0,0,0,1.916,5.539L4.121-83.3Z" transform="translate(0 0)" fill="#8b7461"/>
  </g>
</svg>
