<svg xmlns="http://www.w3.org/2000/svg" width="29.07" height="11.18" viewBox="0 0 29.07 11.18">
  <g id="Group_15293" data-name="Group 15293" transform="translate(-7.465 -18.37)">
    <path id="Path_569" data-name="Path 569" d="M41,71.719a2.472,2.472,0,1,1,2.472,2.472A2.471,2.471,0,0,1,41,71.719" transform="translate(-30.123 -50.877)" fill="#2d2a28"/>
    <path id="Path_570" data-name="Path 570" d="M106.233,71.719A2.472,2.472,0,1,1,108.7,74.19a2.471,2.471,0,0,1-2.472-2.472" transform="translate(-78.052 -50.877)" fill="#2d2a28"/>
    <path id="Path_571" data-name="Path 571" d="M56.622,108.135H28.728a.589.589,0,0,1,0-1.177H56.622a.589.589,0,1,1,0,1.177" transform="translate(-20.675 -78.585)" fill="#2d2a28"/>
  </g>
</svg>
