<svg xmlns="http://www.w3.org/2000/svg" width="45.715" height="32" viewBox="0 0 45.715 32">
  <path id="Icon_awesome-money-bill-wave" data-name="Icon awesome-money-bill-wave" d="M44.369,3.854a21.152,21.152,0,0,0-8.315-1.6c-8.8,0-17.6,4.453-26.393,4.453a21.672,21.672,0,0,1-6.618-.98A2.442,2.442,0,0,0,2.3,5.607,2.273,2.273,0,0,0,0,7.879V30.541a2.272,2.272,0,0,0,1.346,2.1,21.141,21.141,0,0,0,8.315,1.6c8.8,0,17.6-4.454,26.394-4.454a21.672,21.672,0,0,1,6.618.98,2.442,2.442,0,0,0,.739.116,2.273,2.273,0,0,0,2.3-2.272V5.959a2.274,2.274,0,0,0-1.346-2.105ZM3.429,9.409a24.857,24.857,0,0,0,4.48.638,4.577,4.577,0,0,1-4.48,3.681Zm0,20.357V26.353a4.57,4.57,0,0,1,4.551,4.386A17.256,17.256,0,0,1,3.429,29.766Zm19.429-4.659c-3.156,0-5.714-3.071-5.714-6.857s2.559-6.857,5.714-6.857,5.714,3.07,5.714,6.857S26.012,25.107,22.857,25.107Zm19.429,1.984a24.559,24.559,0,0,0-3.88-.6,4.562,4.562,0,0,1,3.88-3.52Zm0-16.865A4.562,4.562,0,0,1,38.3,5.83a17.17,17.17,0,0,1,3.986.9Z" transform="translate(0 -2.25)" fill="#2f2523"/>
</svg>
