<svg xmlns="http://www.w3.org/2000/svg" width="110.574" height="110.574" viewBox="0 0 110.574 110.574">
  <path id="Icon_awesome-coins" data-name="Icon awesome-coins" d="M0,87.531v9.222c0,7.624,18.573,13.822,41.465,13.822s41.465-6.2,41.465-13.822V87.531c-8.919,6.285-25.225,9.222-41.465,9.222S8.919,93.815,0,87.531ZM69.109,27.644c22.892,0,41.465-6.2,41.465-13.822S92,0,69.109,0,27.644,6.2,27.644,13.822,46.217,27.644,69.109,27.644ZM0,64.876V76.02c0,7.624,18.573,13.822,41.465,13.822s41.465-6.2,41.465-13.822V64.876C74.011,72.219,57.684,76.02,41.465,76.02S8.919,72.219,0,64.876Zm89.842,2.376c12.375-2.4,20.733-6.846,20.733-11.964V46.065c-5.01,3.542-12.375,5.961-20.733,7.451Zm-48.376-32.7C18.573,34.554,0,42.286,0,51.832S18.573,69.109,41.465,69.109s41.465-7.732,41.465-17.277S64.358,34.554,41.465,34.554ZM88.827,46.713c12.958-2.332,21.748-6.911,21.748-12.159V25.333c-7.667,5.421-20.841,8.336-34.706,9.027C82.24,37.448,86.926,41.595,88.827,46.713Z" fill="#8b7461"/>
</svg>
