<svg xmlns="http://www.w3.org/2000/svg" width="36.641" height="25.646" viewBox="0 0 36.641 25.646">
  <g id="Group_15285" data-name="Group 15285" transform="translate(-19.088 -11.018)">
    <path id="Icon_awesome-coffee" data-name="Icon awesome-coffee" d="M10.991,22.4H21.982a5.5,5.5,0,0,0,5.5-5.5h1.832a7.327,7.327,0,1,0,0-14.655H6.869A1.371,1.371,0,0,0,5.495,3.624V16.9A5.5,5.5,0,0,0,10.991,22.4ZM29.309,5.914a3.664,3.664,0,1,1,0,7.327H27.477V5.914ZM32.04,27.9H2.764C.039,27.9-.728,24.232.7,24.232H34.1c1.431,0,.676,3.664-2.055,3.664Z" transform="translate(19.092 8.768)" fill="#ffebba"/>
    <text id="L" transform="translate(36.183 23.664)" fill="#2f2523" font-size="8" font-family="Lato-Black, Lato" font-weight="800"><tspan x="-2.1" y="0">L</tspan></text>
  </g>
</svg>
