<svg xmlns="http://www.w3.org/2000/svg" width="28.217" height="19.75" viewBox="0 0 28.217 19.75">
  <g id="Group_15284" data-name="Group 15284" transform="translate(-215.343 -664.25)">
    <path id="Icon_awesome-coffee" data-name="Icon awesome-coffee" d="M8.463,17.768h8.464a4.233,4.233,0,0,0,4.232-4.232H22.57a5.643,5.643,0,0,0,0-11.286H5.289A1.055,1.055,0,0,0,4.231,3.308V13.536A4.233,4.233,0,0,0,8.463,17.768ZM22.57,5.071a2.821,2.821,0,0,1,0,5.643H21.159V5.071ZM24.673,22H2.128C.029,22-.561,19.179.541,19.179H26.255c1.1,0,.52,2.821-1.583,2.821Z" transform="translate(215.347 662)" fill="#8b7461"/>
    <g id="Group_6265" data-name="Group 6265" transform="translate(220.925 659)">
      <text id="S" transform="translate(7.513 16)" fill="#ffebba" font-size="8" font-family="Lato-Black, Lato" font-weight="800"><tspan x="-2.216" y="0">S</tspan></text>
    </g>
  </g>
</svg>
