<svg xmlns="http://www.w3.org/2000/svg" width="43.564" height="30.492" viewBox="0 0 43.564 30.492">
  <g id="Group_15283" data-name="Group 15283" transform="translate(-18.074 -15.38)">
    <path id="Icon_awesome-coffee" data-name="Icon awesome-coffee" d="M13.068,26.208H26.136a6.536,6.536,0,0,0,6.534-6.534h2.178a8.712,8.712,0,1,0,0-17.424H8.167A1.63,1.63,0,0,0,6.534,3.884V19.674A6.536,6.536,0,0,0,13.068,26.208Zm21.78-19.6a4.356,4.356,0,1,1,0,8.712H32.67V6.606Zm3.247,26.136H3.287c-3.24,0-4.152-4.356-2.45-4.356h39.7c1.7,0,.8,4.356-2.443,4.356Z" transform="translate(18.078 13.13)" fill="#ffebba"/>
    <text id="XL" transform="translate(39.093 29.872)" fill="#2f2523" font-size="8" font-family="Lato-Black, Lato" font-weight="800"><tspan x="-4.86" y="0">XL</tspan></text>
  </g>
</svg>
