<svg xmlns="http://www.w3.org/2000/svg" width="33.768" height="23.635" viewBox="0 0 33.768 23.635">
  <g id="Group_15285" data-name="Group 15285" transform="translate(-212.905 -662.364)">
    <g id="Group_6264" data-name="Group 6264" transform="translate(195.614 651.23)">
      <path id="Icon_awesome-coffee" data-name="Icon awesome-coffee" d="M10.129,20.821H20.258a5.066,5.066,0,0,0,5.065-5.065h1.688a6.753,6.753,0,0,0,0-13.506H6.33A1.263,1.263,0,0,0,5.064,3.516v12.24A5.066,5.066,0,0,0,10.129,20.821ZM27.011,5.626a3.376,3.376,0,1,1,0,6.753H25.323V5.626Zm2.517,20.259H2.547c-2.511,0-3.218-3.376-1.9-3.376H31.422c1.319,0,.623,3.376-1.894,3.376Z" transform="translate(17.295 8.883)" fill="#8b7461"/>
      <text id="M" transform="translate(33.385 22.769)" fill="#ffebba" font-size="8" font-family="Lato-Black, Lato" font-weight="800"><tspan x="-3.84" y="0">M</tspan></text>
    </g>
  </g>
</svg>
