<svg xmlns="http://www.w3.org/2000/svg" xmlns:xlink="http://www.w3.org/1999/xlink" width="114.936" height="113" viewBox="0 0 114.936 113">
  <defs>
    <clipPath id="clip-path">
      <rect id="Rectangle_1785" data-name="Rectangle 1785" width="114.936" height="113" transform="translate(-5 -6)" fill="none" stroke="#8b7461" stroke-width="2"/>
    </clipPath>
  </defs>
  <g id="Group_15287" data-name="Group 15287" transform="translate(-126.001 -267)">
    <g id="Group_6396" data-name="Group 6396" transform="translate(111.256 124.273)">
      <g id="Group_6394" data-name="Group 6394" transform="translate(19.745 148.727)" clip-path="url(#clip-path)">
        <path id="Path_9989" data-name="Path 9989" d="M28.369,185.187a24.568,24.568,0,0,0,2.2,5.218l-2.652,3.345a2.746,2.746,0,0,0,.206,3.638l4.568,4.568a2.734,2.734,0,0,0,3.638.206l3.323-2.63a24.168,24.168,0,0,0,5.423,2.295l.5,4.276a2.74,2.74,0,0,0,2.717,2.425h6.463a2.739,2.739,0,0,0,2.717-2.425l.476-4.125a24.405,24.405,0,0,0,5.813-2.349l3.215,2.544a2.746,2.746,0,0,0,3.638-.206l4.568-4.568a2.733,2.733,0,0,0,.205-3.637l-2.5-3.172a23.858,23.858,0,0,0,2.392-5.715l3.853-.444a2.738,2.738,0,0,0,2.425-2.717v-6.463a2.738,2.738,0,0,0-2.425-2.717l-3.8-.444a24.021,24.021,0,0,0-2.3-5.651l2.338-2.955a2.746,2.746,0,0,0-.206-3.637l-4.557-4.557a2.734,2.734,0,0,0-3.638-.206L64.1,157.355a24.082,24.082,0,0,0-5.943-2.49l-.433-3.713a2.739,2.739,0,0,0-2.717-2.425H48.547a2.738,2.738,0,0,0-2.717,2.425l-.433,3.713a24.007,24.007,0,0,0-6.095,2.576l-2.977-2.36a2.746,2.746,0,0,0-3.638.206l-4.568,4.568a2.734,2.734,0,0,0-.206,3.638l2.49,3.15a23.554,23.554,0,0,0-2.252,5.705l-3.983.455a2.738,2.738,0,0,0-2.425,2.717v6.463a2.738,2.738,0,0,0,2.425,2.717ZM51.785,167.7A10.685,10.685,0,1,1,41.1,178.388,10.7,10.7,0,0,1,51.785,167.7Zm0,0" transform="translate(-21.744 -148.727)" fill="none" stroke="#8b7461" stroke-width="2"/>
        <path id="Path_9990" data-name="Path 9990" d="M346.074,323.218l-3.41-2.879a2.7,2.7,0,0,0-3.595.1l-1.883,1.764a19.489,19.489,0,0,0-5.023-1.624l-.53-2.6a2.722,2.722,0,0,0-2.88-2.165l-4.449.379a2.71,2.71,0,0,0-2.479,2.609l-.087,2.641a19.542,19.542,0,0,0-4.8,2.522l-2.252-1.494a2.7,2.7,0,0,0-3.561.509l-2.88,3.432a2.7,2.7,0,0,0,.1,3.594l1.971,2.1a20.177,20.177,0,0,0-1.451,4.807l-2.815.574a2.723,2.723,0,0,0-2.165,2.88l.379,4.449a2.711,2.711,0,0,0,2.609,2.479l3.042.1a19.84,19.84,0,0,0,2.154,4.113l-1.7,2.566a2.7,2.7,0,0,0,.509,3.562l3.41,2.88a2.7,2.7,0,0,0,3.594-.1l2.23-2.089a19.532,19.532,0,0,0,4.579,1.494l.617,3.053a2.722,2.722,0,0,0,2.88,2.165l4.449-.379a2.711,2.711,0,0,0,2.479-2.609l.1-2.988a20.008,20.008,0,0,0,4.579-2.316l2.457,1.624a2.7,2.7,0,0,0,3.561-.509l2.88-3.41a2.7,2.7,0,0,0-.1-3.594l-1.981-2.1a19.512,19.512,0,0,0,1.559-4.829l2.706-.552a2.722,2.722,0,0,0,2.165-2.88l-.379-4.449a2.71,2.71,0,0,0-2.608-2.479l-2.717-.087a19.648,19.648,0,0,0-2.262-4.46l1.483-2.23a2.692,2.692,0,0,0-.487-3.573ZM329.305,348.94a8.746,8.746,0,1,1,7.979-9.451,8.747,8.747,0,0,1-7.979,9.451Zm0,0" transform="translate(-247.142 -284.167)" fill="none" stroke="#8b7461" stroke-width="2"/>
      </g>
      <path id="Path_9991" data-name="Path 9991" d="M131.818,491.545a2.705,2.705,0,0,0-2.425,2.663l-.032,2.739a2.7,2.7,0,0,0,2.36,2.717l2.013.26a15.64,15.64,0,0,0,1.429,3.5l-1.3,1.6a2.7,2.7,0,0,0,.162,3.594l1.916,1.959a2.7,2.7,0,0,0,3.594.249l1.613-1.245a15.787,15.787,0,0,0,3.594,1.57l.217,2.078a2.705,2.705,0,0,0,2.663,2.425l2.739.032a2.7,2.7,0,0,0,2.717-2.36l.249-1.97a16.267,16.267,0,0,0,3.9-1.516l1.515,1.223a2.7,2.7,0,0,0,3.594-.162l1.959-1.916a2.7,2.7,0,0,0,.249-3.594l-1.158-1.5a15.709,15.709,0,0,0,1.645-3.789l1.8-.184a2.705,2.705,0,0,0,2.425-2.663l.032-2.739a2.7,2.7,0,0,0-2.36-2.717l-1.754-.227a16.3,16.3,0,0,0-1.483-3.789l1.094-1.343a2.7,2.7,0,0,0-.163-3.594l-1.916-1.96a2.7,2.7,0,0,0-3.594-.249l-1.31,1.006a15.917,15.917,0,0,0-3.941-1.71l-.173-1.7a2.7,2.7,0,0,0-2.663-2.425l-2.739-.033a2.7,2.7,0,0,0-2.717,2.36l-.217,1.689a16.342,16.342,0,0,0-4.081,1.667l-1.353-1.1a2.7,2.7,0,0,0-3.594.162l-1.971,1.927a2.7,2.7,0,0,0-.249,3.595l1.159,1.494a15.84,15.84,0,0,0-1.548,3.789Zm17.678-3.1a7.124,7.124,0,1,1-7.21,7.037,7.13,7.13,0,0,1,7.21-7.037Zm0,0" transform="translate(-87.882 -264.073)" fill="none" stroke="#8b7461" stroke-width="2"/>
    </g>
  </g>
</svg>
