<svg xmlns="http://www.w3.org/2000/svg" xmlns:xlink="http://www.w3.org/1999/xlink" width="21.509" height="20" viewBox="0 0 21.509 20">
  <defs>
    <clipPath id="clip-path">
      <rect id="Rectangle_713" data-name="Rectangle 713" width="21.509" height="20" fill="none"/>
    </clipPath>
  </defs>
  <g id="Group_2409" data-name="Group 2409" clip-path="url(#clip-path)">
    <path id="Path_1033" data-name="Path 1033" d="M20.958,144.457a2.13,2.13,0,0,0-.058-.969c-.629-2.265-2.51-6.9-4.073-8.811a1.136,1.136,0,0,0-1.659,0,1.165,1.165,0,0,0-.338.722.822.822,0,0,0-.45-.214s-3.965-.494-4.013-.488h-1.8a.672.672,0,0,0-.76.759v5.789H6.481v-6.208a.558.558,0,0,0-.557-.557H.557a.558.558,0,0,0-.557.557s0,8.717,0,9.28a1.172,1.172,0,0,0,1.173,1.173H2.325a3.169,3.169,0,1,0,6.155,0h3.547v.777a1.115,1.115,0,0,0,1.114,1.114h.021a1.106,1.106,0,0,0,1.105-1.117l-.008-.774h1.008a3.169,3.169,0,1,0,5.691-1.033Zm-2.614.592a1.2,1.2,0,1,1-1.2,1.2,1.2,1.2,0,0,1,1.2-1.2ZM6.6,146.245a1.2,1.2,0,1,1-1.2-1.2,1.2,1.2,0,0,1,1.2,1.2Zm7.619-4.83a1.126,1.126,0,0,0-1.123-1.111H11.241v-3.785l.906.111a.754.754,0,0,0,.736.593h3.173l.246,2.049-2.079,2.722Zm0,0" transform="translate(0 -129.429)"/>
  </g>
</svg>
