<svg xmlns="http://www.w3.org/2000/svg" width="22.248" height="17.137" viewBox="0 0 22.248 17.137">
  <g id="Group_15295" data-name="Group 15295" transform="translate(-10.876 -14.92)">
    <path id="Path_573" data-name="Path 573" d="M64.291,97.809a1.553,1.553,0,0,0,1.511-1.94c-.981-3.658-4.675-6.377-9.082-6.377s-8.1,2.72-9.082,6.377a1.553,1.553,0,0,0,1.511,1.94l5.751-.769a13.249,13.249,0,0,1,3.47-.005Z" transform="translate(-34.962 -65.752)" fill="#2d2a28"/>
    <path id="Path_574" data-name="Path 574" d="M41,58.717a2.472,2.472,0,1,1,2.472,2.472A2.471,2.471,0,0,1,41,58.717" transform="translate(-30.123 -41.325)" fill="#2d2a28"/>
    <path id="Path_575" data-name="Path 575" d="M106.233,58.717a2.472,2.472,0,1,1,2.472,2.472,2.471,2.471,0,0,1-2.472-2.472" transform="translate(-78.052 -41.325)" fill="#2d2a28"/>
  </g>
</svg>
