<svg xmlns="http://www.w3.org/2000/svg" width="42.426" height="42.426" viewBox="0 0 42.426 42.426">
  <g id="Group_4240" data-name="Group 4240" transform="translate(-181.02 -1342.92) rotate(45)">
    <g id="Union_2" data-name="Union 2" transform="translate(1092.589 806.587)" fill="none">
      <path d="M13.125,28.125V16.875H1.875a1.875,1.875,0,0,1,0-3.75h11.25V1.875a1.875,1.875,0,0,1,3.75,0v11.25h11.25a1.875,1.875,0,0,1,0,3.75H16.875v11.25a1.875,1.875,0,0,1-3.75,0Z" stroke="none"/>
      <path d="M 15.00030040740967 28.99970054626465 C 15.48261070251465 28.99970054626465 15.875 28.60730934143066 15.875 28.125 L 15.875 15.875 L 28.125 15.875 C 28.60730934143066 15.875 28.99970054626465 15.48261070251465 28.99970054626465 15.00030040740967 C 28.99970054626465 14.51749038696289 28.60730934143066 14.12470054626465 28.125 14.12470054626465 L 15.875 14.12470054626465 L 15.875 1.874700307846069 C 15.875 1.392390251159668 15.48261070251465 1.000000238418579 15.00030040740967 1.000000238418579 C 14.51749038696289 1.000000238418579 14.12470054626465 1.392390251159668 14.12470054626465 1.874700307846069 L 14.12470054626465 14.12470054626465 L 1.874700307846069 14.12470054626465 C 1.392390251159668 14.12470054626465 1.000000238418579 14.51749038696289 1.000000238418579 15.00030040740967 C 1.000000238418579 15.48261070251465 1.392390251159668 15.875 1.874700307846069 15.875 L 14.12470054626465 15.875 L 14.12470054626465 28.125 C 14.12470054626465 28.60730934143066 14.51749038696289 28.99970054626465 15.00030040740967 28.99970054626465 M 15.00030040740967 29.99970054626465 C 13.96440029144287 29.99970054626465 13.12470054626465 29.1609001159668 13.12470054626465 28.125 L 13.12470054626465 16.875 L 1.874700307846069 16.875 C 0.8397002816200256 16.875 2.731323149873788e-07 16.03530120849609 2.731323149873788e-07 15.00030040740967 C 2.731323149873788e-07 13.96440029144287 0.8397002816200256 13.12470054626465 1.874700307846069 13.12470054626465 L 13.12470054626465 13.12470054626465 L 13.12470054626465 1.874700307846069 C 13.12470054626465 0.8397002816200256 13.96440029144287 2.731323149873788e-07 15.00030040740967 2.731323149873788e-07 C 16.03530120849609 2.731323149873788e-07 16.875 0.8397002816200256 16.875 1.874700307846069 L 16.875 13.12470054626465 L 28.125 13.12470054626465 C 29.1609001159668 13.12470054626465 29.99970054626465 13.96440029144287 29.99970054626465 15.00030040740967 C 29.99970054626465 16.03530120849609 29.1609001159668 16.875 28.125 16.875 L 16.875 16.875 L 16.875 28.125 C 16.875 29.1609001159668 16.03530120849609 29.99970054626465 15.00030040740967 29.99970054626465 Z" stroke="none" fill="#352f2d"/>
    </g>
  </g>
</svg>
