<svg xmlns="http://www.w3.org/2000/svg" xmlns:xlink="http://www.w3.org/1999/xlink" width="58.201" height="56.757" viewBox="0 0 58.201 56.757">
  <defs>
    <filter id="Icon_ionic-ios-heart-empty" x="0" y="0" width="58.201" height="56.757" filterUnits="userSpaceOnUse">
      <feOffset input="SourceAlpha"/>
      <feGaussianBlur stdDeviation="3" result="blur"/>
      <feFlood flood-opacity="0.161"/>
      <feComposite operator="in" in2="blur"/>
      <feComposite in="SourceGraphic"/>
    </filter>
  </defs>
  <g transform="matrix(1, 0, 0, 1, 0, 0)" filter="url(#Icon_ionic-ios-heart-empty)">
    <path id="Icon_ionic-ios-heart-empty-2" data-name="Icon ionic-ios-heart-empty" d="M28.44,0h-.094a10.645,10.645,0,0,0-8.888,4.865A10.645,10.645,0,0,0,10.572,0h-.094A10.577,10.577,0,0,0,0,10.572,22.773,22.773,0,0,0,4.472,22.986c5.632,7.7,14.987,14.435,14.987,14.435s9.355-6.736,14.987-14.435a22.773,22.773,0,0,0,4.472-12.415A10.577,10.577,0,0,0,28.44,0Zm3.892,21.443C28.347,26.9,22.275,31.93,19.459,34.128c-2.816-2.2-8.888-7.241-12.873-12.7A20.183,20.183,0,0,1,2.62,10.572,7.938,7.938,0,0,1,10.5,2.629h.084a7.843,7.843,0,0,1,3.845,1.01A8.175,8.175,0,0,1,17.27,6.306a2.628,2.628,0,0,0,4.4,0,8.256,8.256,0,0,1,2.844-2.666,7.843,7.843,0,0,1,3.845-1.01h.084a7.938,7.938,0,0,1,7.877,7.943A20.438,20.438,0,0,1,32.332,21.443Z" transform="matrix(1, -0.03, 0.03, 1, 9, 10.36)" fill="#ffebba"/>
  </g>
</svg>
