<svg xmlns="http://www.w3.org/2000/svg" width="22.5" height="20" viewBox="0 0 22.5 20">
  <path id="Icon_material-drive-eta" data-name="Icon material-drive-eta" d="M24.4,7.262A1.868,1.868,0,0,0,22.625,6H8.875A1.88,1.88,0,0,0,7.1,7.262L4.5,14.75v10A1.254,1.254,0,0,0,5.75,26H7a1.254,1.254,0,0,0,1.25-1.25V23.5h15v1.25A1.254,1.254,0,0,0,24.5,26h1.25A1.254,1.254,0,0,0,27,24.75v-10ZM8.875,19.75a1.875,1.875,0,1,1,1.875-1.875A1.872,1.872,0,0,1,8.875,19.75Zm13.75,0A1.875,1.875,0,1,1,24.5,17.875,1.872,1.872,0,0,1,22.625,19.75ZM7,13.5,8.875,7.875h13.75L24.5,13.5Z" transform="translate(-4.5 -6)"/>
</svg>
