<svg id="fb" xmlns="http://www.w3.org/2000/svg" width="30.304" height="30.304" viewBox="0 0 30.304 30.304">
  <g id="Group_2284" data-name="Group 2284">
    <path id="Path_7926" data-name="Path 7926" d="M15.152,39.231A15.152,15.152,0,1,1,30.3,24.079,15.169,15.169,0,0,1,15.152,39.231Z" transform="translate(0 -8.927)" fill="#2f2523"/>
  </g>
  <g id="Group_2285" data-name="Group 2285" transform="translate(10.917 6.07)">
    <path id="Path_7927" data-name="Path 7927" d="M37.625,37.967v8.782a.228.228,0,0,0,.229.229h3.261a.229.229,0,0,0,.229-.229V37.825h2.364a.229.229,0,0,0,.228-.21l.227-2.689a.229.229,0,0,0-.228-.248H41.344V32.77a.81.81,0,0,1,.809-.809h1.822a.229.229,0,0,0,.229-.229V29.043a.229.229,0,0,0-.229-.229H40.9a3.271,3.271,0,0,0-3.271,3.271v2.593H35.995a.228.228,0,0,0-.229.229V37.6a.229.229,0,0,0,.229.229h1.631Z" transform="translate(-35.766 -28.814)" fill="#fff" fill-rule="evenodd"/>
  </g>
</svg>
