<svg xmlns="http://www.w3.org/2000/svg" width="29" height="32" viewBox="0 0 29 32">
  <g id="Icon_feather-share-2" data-name="Icon feather-share-2" transform="translate(1 1)">
    <path id="Path_23783" data-name="Path 23783" d="M31.5,7.5A4.5,4.5,0,1,1,27,3a4.5,4.5,0,0,1,4.5,4.5Z" transform="translate(-4.5 -3)" fill="none" stroke="#2f2422" stroke-linecap="round" stroke-linejoin="round" stroke-width="2"/>
    <path id="Path_23784" data-name="Path 23784" d="M13.5,18A4.5,4.5,0,1,1,9,13.5,4.5,4.5,0,0,1,13.5,18Z" transform="translate(-4.5 -3)" fill="none" stroke="#2f2422" stroke-linecap="round" stroke-linejoin="round" stroke-width="2"/>
    <path id="Path_23785" data-name="Path 23785" d="M31.5,28.5A4.5,4.5,0,1,1,27,24,4.5,4.5,0,0,1,31.5,28.5Z" transform="translate(-4.5 -3)" fill="none" stroke="#2f2422" stroke-linecap="round" stroke-linejoin="round" stroke-width="2"/>
    <path id="Path_23786" data-name="Path 23786" d="M12.885,20.265l10.245,5.97" transform="translate(-4.5 -3)" fill="none" stroke="#2f2422" stroke-linecap="round" stroke-linejoin="round" stroke-width="2"/>
    <path id="Path_23787" data-name="Path 23787" d="M23.115,9.765l-10.23,5.97" transform="translate(-4.5 -3)" fill="none" stroke="#2f2422" stroke-linecap="round" stroke-linejoin="round" stroke-width="2"/>
  </g>
</svg>
