<svg xmlns="http://www.w3.org/2000/svg" width="60.872" height="81.172" viewBox="0 0 60.872 81.172">
  <path id="Icon_awesome-receipt" data-name="Icon awesome-receipt" d="M56.814.51l-6.087,7.1L42.1.51a2.521,2.521,0,0,0-3.044,0l-8.624,7.1L21.813.51a2.521,2.521,0,0,0-3.044,0l-8.624,7.1L4.058.51A2.535,2.535,0,0,0,0,2.539V78.629a2.535,2.535,0,0,0,4.058,2.029l6.087-7.1,8.624,7.1a2.52,2.52,0,0,0,3.044,0l8.624-7.1,8.624,7.1a2.52,2.52,0,0,0,3.044,0l8.624-7.1,6.087,7.1a2.537,2.537,0,0,0,4.058-2.029V2.539A2.535,2.535,0,0,0,56.814.51ZM50.727,57.07a1.272,1.272,0,0,1-1.268,1.268H11.414a1.272,1.272,0,0,1-1.268-1.268V54.534a1.272,1.272,0,0,1,1.268-1.268H49.459a1.272,1.272,0,0,1,1.268,1.268Zm0-15.218a1.272,1.272,0,0,1-1.268,1.268H11.414a1.272,1.272,0,0,1-1.268-1.268V39.316a1.272,1.272,0,0,1,1.268-1.268H49.459a1.272,1.272,0,0,1,1.268,1.268Zm0-15.218A1.272,1.272,0,0,1,49.459,27.9H11.414a1.272,1.272,0,0,1-1.268-1.268V24.1a1.272,1.272,0,0,1,1.268-1.268H49.459A1.272,1.272,0,0,1,50.727,24.1Z" transform="translate(0 0.002)" fill="#88715f"/>
</svg>
