<svg xmlns="http://www.w3.org/2000/svg" width="30.304" height="30.304" viewBox="0 0 30.304 30.304">
  <g id="ig" transform="translate(0)">
    <path id="Path_23496" data-name="Path 23496" d="M13.272,0A13.272,13.272,0,0,1,26.544,13.272a13.424,13.424,0,0,1-1.781,6.646A13.273,13.273,0,1,1,13.272,0Z" transform="translate(1.868 1.752)" fill="#fff"/>
    <g id="Group_2291" data-name="Group 2291" transform="translate(0 0)">
      <path id="Path_7930" data-name="Path 7930" d="M289.956,39.555A15.152,15.152,0,1,1,305.108,24.4,15.169,15.169,0,0,1,289.956,39.555Zm5.109-21.3a1.121,1.121,0,1,0,1.121,1.121A1.121,1.121,0,0,0,295.065,18.255Zm-4.985,1.438a4.71,4.71,0,1,0,4.71,4.71A4.715,4.715,0,0,0,290.081,19.693Zm0,7.727A3.017,3.017,0,1,1,293.1,24.4,3.02,3.02,0,0,1,290.081,27.42Zm9.5-6.931a5.745,5.745,0,0,0-5.745-5.744h-7.582a5.744,5.744,0,0,0-5.745,5.744v7.583a5.745,5.745,0,0,0,5.745,5.745h7.582a5.745,5.745,0,0,0,5.745-5.745Zm-1.8,7.583a3.946,3.946,0,0,1-3.946,3.946h-7.582a3.946,3.946,0,0,1-3.945-3.946V20.489a3.945,3.945,0,0,1,3.945-3.945h7.582a3.945,3.945,0,0,1,3.946,3.945Z" transform="translate(-274.804 -9.251)" fill="#2f2523"/>
    </g>
  </g>
</svg>
