<svg xmlns="http://www.w3.org/2000/svg" width="21.4" height="19.872" viewBox="0 0 21.4 19.872">
  <path id="Icon_ionic-ios-star" data-name="Icon ionic-ios-star" d="M22.838,10.254H15.812L13.676,3.881a.774.774,0,0,0-1.452,0l-2.135,6.372H3.014a.767.767,0,0,0-.764.764.562.562,0,0,0,.014.129.734.734,0,0,0,.32.54l5.775,4.07L6.143,22.2a.766.766,0,0,0,.263.86.739.739,0,0,0,.43.186.936.936,0,0,0,.478-.172l5.637-4.017,5.637,4.017a.9.9,0,0,0,.478.172.686.686,0,0,0,.425-.186.757.757,0,0,0,.263-.86l-2.216-6.444,5.727-4.108.139-.119a.8.8,0,0,0,.248-.511A.809.809,0,0,0,22.838,10.254Z" transform="translate(-2.25 -3.375)" fill="#2f2422"/>
</svg>
