<svg xmlns="http://www.w3.org/2000/svg" width="92.557" height="92.557" viewBox="0 0 92.557 92.557">
  <path id="south-indian-food" d="M55.038,21.854a1.356,1.356,0,1,0-1.387-1.324,1.356,1.356,0,0,0,1.387,1.324Zm-.651,4.021a1.356,1.356,0,1,0,1.324-1.387,1.356,1.356,0,0,0-1.324,1.387ZM48.862,20.5a1.356,1.356,0,1,0-1.387-1.324A1.356,1.356,0,0,0,48.862,20.5ZM45.392,26.7A1.356,1.356,0,1,0,44,25.38,1.356,1.356,0,0,0,45.392,26.7ZM50.914,29.4a1.356,1.356,0,1,0,1.324-1.387A1.356,1.356,0,0,0,50.914,29.4Zm-2.083-5.112A1.356,1.356,0,1,0,50.154,22.9a1.356,1.356,0,0,0-1.324,1.387Zm26.336-6.9a40.855,40.855,0,1,0,0,57.778,40.855,40.855,0,0,0,0-57.778Zm-1.918,55.86a38.143,38.143,0,1,1,0-53.943,38.143,38.143,0,0,1,0,53.943Zm-4.64-40.37a12.16,12.16,0,1,0,12.16,12.16,12.16,12.16,0,0,0-12.16-12.16Zm0,21.608a9.448,9.448,0,1,1,9.448-9.448,9.448,9.448,0,0,1-9.448,9.448ZM79,13.554A46.278,46.278,0,1,0,79,79a46.278,46.278,0,0,0,0-65.447Zm-1.917,63.53a43.567,43.567,0,1,1,0-61.612,43.567,43.567,0,0,1,0,61.612Zm-26.17-40.67a12.16,12.16,0,1,0-12.16-12.16,12.16,12.16,0,0,0,12.16,12.16Zm0-21.608a9.448,9.448,0,1,1-9.448,9.448,9.448,9.448,0,0,1,9.448-9.448ZM73.989,43.682a1.356,1.356,0,0,0-1.356,1.356,4.029,4.029,0,0,1-4.025,4.025,1.356,1.356,0,0,0,0,2.712,6.744,6.744,0,0,0,6.737-6.736,1.356,1.356,0,0,0-1.356-1.356ZM60.463,67.877a1.354,1.354,0,0,0-.034-.157q-.014-.048-.031-.095c-.006-.017-.012-.034-.018-.052a1.36,1.36,0,0,0-.063-.133c0-.005,0-.01-.007-.015q-6.5-11.638-14.016-22.664Q39.343,34.577,31.576,24.989l-.016-.017q-.032-.037-.067-.072t-.088-.083c-.017-.014-.034-.029-.051-.042a1.312,1.312,0,0,0-.125-.086c-.024-.015-.048-.03-.074-.043s-.047-.022-.071-.033q-.06-.027-.122-.049l-.072-.024a1.333,1.333,0,0,0-.151-.033l-.077-.011c-.029,0-.059,0-.089-.005a1.361,1.361,0,0,0-.2.005l-.023,0h-.012a24.558,24.558,0,0,0-18.9,12.793v0l-.016.028h0a1.355,1.355,0,0,0,0,1.287Q17.6,49.954,24.85,60.657q7.169,10.571,15.329,20.416l.018.019q.033.038.068.073l.034.033c.024.022.048.043.074.064l.032.026a1.362,1.362,0,0,0,.235.143l.03.013a1.352,1.352,0,0,0,.134.052q.05.016.1.029l.034.008c.037.008.076.014.114.019l.025,0a1.351,1.351,0,0,0,.142.008,1.377,1.377,0,0,0,.151-.009A24.558,24.558,0,0,0,60.3,68.759l0-.007,0-.009.01-.018a1.377,1.377,0,0,0,.059-.126c.005-.013.009-.026.014-.039.014-.037.027-.074.037-.112,0-.018.009-.036.013-.054q.012-.051.02-.1c0-.018.006-.036.008-.054,0-.039.007-.079.008-.118,0-.013,0-.025,0-.038a1.352,1.352,0,0,0-.009-.147c0-.02-.006-.039-.009-.058ZM28.37,27.574a30.06,30.06,0,0,0-1.674,11.9,30.232,30.232,0,0,0-11.672-2.859A21.844,21.844,0,0,1,28.37,27.574ZM40.808,77.568q-7.256-8.912-13.713-18.433Q20.567,49.5,14.91,39.317A27.4,27.4,0,0,1,36.527,51.336l1.067,1.576A27.693,27.693,0,0,1,40.808,77.568Zm2.55.912a30.5,30.5,0,0,0,1.65-11.922,30.038,30.038,0,0,0,11.711,2.883A21.845,21.845,0,0,1,43.358,78.48Zm1.271-15.163a30.491,30.491,0,0,0-4.79-11.926l-1.067-1.576a30.2,30.2,0,0,0-9.212-8.795A27.363,27.363,0,0,1,30.917,28.5q6.9,8.649,13.135,17.792,6.788,9.96,12.754,20.444a27.342,27.342,0,0,1-12.177-3.415Zm25.335-23.66A1.356,1.356,0,0,0,68.608,38.3a6.744,6.744,0,0,0-6.737,6.737,1.356,1.356,0,0,0,2.712,0,4.029,4.029,0,0,1,4.025-4.025,1.356,1.356,0,0,0,1.356-1.356Z" transform="translate(0.001 0.001)" fill="#8b7461"/>
</svg>
