<svg xmlns="http://www.w3.org/2000/svg" width="76" height="76" viewBox="0 0 76 76">
  <g id="Group_6119" data-name="Group 6119" transform="translate(-33 -33)">
    <rect id="Rectangle_1437" data-name="Rectangle 1437" width="76" height="76" rx="38" transform="translate(33 33)" fill="#8b7461"/>
    <path id="Path_9050" data-name="Path 9050" d="M408.6,349.782h-.716v-3.238a8.708,8.708,0,1,0-17.416,0v3.238h-.715a2.662,2.662,0,0,0-2.651,2.672v12.677a2.663,2.663,0,0,0,2.651,2.673H408.6a2.662,2.662,0,0,0,2.649-2.673V352.454A2.661,2.661,0,0,0,408.6,349.782Zm-8.314,9.184v1.658a.446.446,0,0,1-.445.448h-1.332a.447.447,0,0,1-.444-.448v-1.658a2.126,2.126,0,1,1,2.221,0Zm3.78-9.184H394.29v-3.238a4.89,4.89,0,1,1,9.779,0Z" transform="translate(-328.106 -281.767)" fill="#fff"/>
  </g>
</svg>
