<svg xmlns="http://www.w3.org/2000/svg" width="53.766" height="53.766" viewBox="0 0 53.766 53.766">
  <path id="Icon_material-local-offer" data-name="Icon material-local-offer" d="M55.18,28.754,30.985,4.559A5.343,5.343,0,0,0,27.195,3H8.377A5.392,5.392,0,0,0,3,8.377V27.195a5.365,5.365,0,0,0,1.586,3.817L28.781,55.206a5.343,5.343,0,0,0,3.79,1.559,5.256,5.256,0,0,0,3.79-1.586L55.18,36.362a5.256,5.256,0,0,0,1.586-3.79,5.43,5.43,0,0,0-1.586-3.817ZM12.409,16.441a4.032,4.032,0,1,1,4.032-4.032A4.027,4.027,0,0,1,12.409,16.441Z" transform="translate(-3 -3)" fill="#fff"/>
</svg>
