<svg xmlns="http://www.w3.org/2000/svg" width="19.824" height="19.824" viewBox="0 0 19.824 19.824">
  <path id="Icon_ionic-md-locate" data-name="Icon ionic-md-locate" d="M12.162,8.622a3.54,3.54,0,1,0,3.54,3.54A3.55,3.55,0,0,0,12.162,8.622Zm8.449,2.6a8.528,8.528,0,0,0-7.505-7.5V2.25H11.218V3.713a8.528,8.528,0,0,0-7.505,7.5H2.25v1.888H3.713a8.529,8.529,0,0,0,7.505,7.505v1.463h1.888V20.611a8.529,8.529,0,0,0,7.505-7.505h1.463V11.218ZM12.162,18.77a6.608,6.608,0,1,1,6.608-6.608A6.627,6.627,0,0,1,12.162,18.77Z" transform="translate(-2.25 -2.25)" fill="#fff"/>
</svg>
