<svg id="Object" xmlns="http://www.w3.org/2000/svg" width="16.96" height="18.672" viewBox="0 0 16.96 18.672">
  <g id="Group_4239" data-name="Group 4239" transform="translate(0 0)">
    <path id="Path_9055" data-name="Path 9055" d="M276.947,232.217l-1.572.012-.007-.908a.27.27,0,0,0-.271-.267l-3.468.027-.007-.925a.543.543,0,0,0-.547-.538l-5.346.042a.542.542,0,0,0-.538.546l.008.925-3.233.025a.27.27,0,0,0-.267.271l.007.908-1.706.013.014,1.726,16.947-.132Zm-10.664-1.094,0-.383,4.262-.033,0,.383Z" transform="translate(-260 -229.618)" fill="#ffebba"/>
    <path id="Path_9056" data-name="Path 9056" d="M300.667,402.8l-14.391.112a.576.576,0,0,0-.561.684l2.4,12.529a.576.576,0,0,0,.57.468l9.7-.076a.576.576,0,0,0,.562-.472l2.289-12.566a.575.575,0,0,0-.571-.679Zm-10.255,12.942a.571.571,0,0,1-.654-.474l-1.648-10.327a.572.572,0,0,1,1.129-.18l1.648,10.327A.572.572,0,0,1,290.412,415.746Zm3.16.041a.571.571,0,0,1-.576-.567l-.082-10.457a.572.572,0,0,1,1.143-.009l.082,10.457A.572.572,0,0,1,293.572,415.787Zm5.292-10.926-1.486,10.352a.572.572,0,0,1-1.132-.163l1.486-10.352a.572.572,0,0,1,1.132.163Z" transform="translate(-284.98 -397.925)" fill="#ffebba"/>
  </g>
</svg>
