<svg id="Layer_2" data-name="Layer 2" xmlns="http://www.w3.org/2000/svg" width="98.906" height="80" viewBox="0 0 98.906 80">
  <g id="Layer_1" data-name="Layer 1">
    <g id="Group_15233" data-name="Group 15233">
      <path id="Path_23827" data-name="Path 23827" d="M31.8,7.187A7.187,7.187,0,1,1,24.617,0,7.187,7.187,0,0,1,31.8,7.187Zm0,0" transform="translate(23.506)" fill="#88715f"/>
      <path id="Path_23828" data-name="Path 23828" d="M22.708,24.73a8.937,8.937,0,1,1-.094.024Zm0,14.091a3.1,3.1,0,1,1,3.1-3.1A3.1,3.1,0,0,1,22.708,38.822Zm0,0" transform="translate(15.832 33.522)" fill="#88715f"/>
      <path id="Path_23829" data-name="Path 23829" d="M43.6,8.13l-5.425-.47a4.862,4.862,0,0,0-5.261,4.415l-1.433,16.44a8.384,8.384,0,0,0,2.865,7.046,3.992,3.992,0,0,0,.446.587H7.9A2.349,2.349,0,0,0,5.55,38.5l13.223,6.318A18.436,18.436,0,0,0,12.76,56.558a1.808,1.808,0,0,0,1.808,2.02h3.405a13.164,13.164,0,0,1,26.328,0h0a1.738,1.738,0,0,0,1.738,1.738H64.218c1.6,0,2.349-.775,2.349-2.02A12.26,12.26,0,0,1,79.061,46.083a12.494,12.494,0,0,1,9.394,4.2,1.832,1.832,0,0,0,2.724-2.349h0a16.158,16.158,0,0,0-12.072-5.425h-.564a19.634,19.634,0,0,0-10.569-11.6l-.634-1.973H69.1a4.556,4.556,0,0,0,4.18,2.724h2.184a1.127,1.127,0,0,0,1.127-1.151V23.725A1.127,1.127,0,0,0,75.467,22.6H73.283a4.556,4.556,0,0,0-4.18,2.724H66.167a3.241,3.241,0,0,0-2.983-4.885l-11.25.611L45.64,12.569m3.8,44.177a18.342,18.342,0,0,0-1.668-5.989h0a18.577,18.577,0,0,0-4.885-6.294V37.934l8.173.7-.211,16.44a3.852,3.852,0,0,0,.4,1.761Zm13.622,0H58.276a3.9,3.9,0,0,0,.4-1.644l.258-19.986a3.9,3.9,0,0,0-3.546-3.946L49.4,30.958a4.3,4.3,0,0,1-4.2-2.677l-.141-4.7L47.8,26.238A3.241,3.241,0,0,0,50.6,27.553L62.9,26.9l1.033,3.194,5.073,15.97a16.135,16.135,0,0,0-6.036,10.686Zm0,0" transform="translate(7.485 10.478)" fill="#88715f"/>
      <path id="Path_23830" data-name="Path 23830" d="M43.1,24.73A10.874,10.874,0,1,0,53.978,35.6,10.874,10.874,0,0,0,43.1,24.73Zm0,14.091a3.1,3.1,0,1,1,3.1-3.1A3.1,3.1,0,0,1,43.1,38.821Zm0,0" transform="translate(43.465 33.522)" fill="#88715f"/>
      <rect id="Rectangle_3255" data-name="Rectangle 3255" width="31.588" height="20.808" transform="translate(0 27.912)" fill="#88715f"/>
      <rect id="Rectangle_3256" data-name="Rectangle 3256" width="31.588" height="3.241" transform="translate(0 21.585)" fill="#88715f"/>
    </g>
  </g>
</svg>
