<svg id="Layer_2" data-name="Layer 2" xmlns="http://www.w3.org/2000/svg" width="93.669" height="80" viewBox="0 0 93.669 80">
  <g id="Layer_1" data-name="Layer 1" transform="translate(0 0)">
    <g id="Group_15234" data-name="Group 15234">
      <path id="Path_23831" data-name="Path 23831" d="M79.435,16.55H8.655a1.505,1.505,0,0,0,0,3.01h4.711a1.876,1.876,0,0,0,1.745,1.832H72.259A1.876,1.876,0,0,0,74,19.56h5.431a1.505,1.505,0,0,0,0-3.01Z" transform="translate(12.729 21.396)" fill="#88715f"/>
      <path id="Path_23832" data-name="Path 23832" d="M28.473,0H24.94a2.814,2.814,0,0,0,0,5.606h3.512a2.814,2.814,0,0,0,0-5.606ZM25.005,3.664a.905.905,0,1,1-1.81,0V2.312a.905.905,0,1,1,1.81,0Z" transform="translate(29.016 0)" fill="#88715f"/>
      <path id="Path_23833" data-name="Path 23833" d="M29.03,7.19a7.7,7.7,0,1,0,7.7,7.7,7.7,7.7,0,0,0-7.7-7.7Zm3.8,10.492L28.463,15.5h-.218V8.957h1.745v5.584l3.686,1.832Z" transform="translate(27.888 9.434)" fill="#88715f"/>
      <path id="Path_23834" data-name="Path 23834" d="M42.037,3.41H37.151a25.847,25.847,0,0,0-25.52,26.174v.938H67.557v-.938A25.847,25.847,0,0,0,42.037,3.41ZM17.738,27.4a.807.807,0,1,1-1.614,0c0-.2,0-19.413,19.631-21.114a.807.807,0,0,1,.131,1.592C17.848,9.517,17.738,26.727,17.738,27.469Z" transform="translate(18.019 4.028)" fill="#88715f"/>
      <path id="Path_23835" data-name="Path 23835" d="M62.076,21.761h5.652s2.181,1.592,0,4.6L44.04,41.13H13.246l.727,1.68H9.282L7.5,24.422,19.625,20.06H42.211l-.188,4.362-10.2,1.418-.915,3.446,16.23-1.156Z" transform="translate(8.859 27.353)" fill="#88715f"/>
      <path id="Path_23836" data-name="Path 23836" d="M13.72,22.14l2.552,21.594,2.2,2.552L17.8,48.118,0,50.19V23.558Z" transform="translate(0 29.81)" fill="#88715f"/>
    </g>
  </g>
</svg>
