<svg id="Layer_1" data-name="Layer 1" xmlns="http://www.w3.org/2000/svg" width="39.017" height="33.323" viewBox="0 0 39.017 33.323">
  <g id="Group_15234" data-name="Group 15234">
    <path id="Path_23831" data-name="Path 23831" d="M37.26,16.55H7.777a.627.627,0,0,0,0,1.254H9.739a.781.781,0,0,0,.727.763h23.8A.781.781,0,0,0,35,17.8H37.26a.627.627,0,0,0,0-1.254Z" transform="translate(1.13 -0.744)" fill="#2f2422"/>
    <path id="Path_23832" data-name="Path 23832" d="M24.914,0H23.442a1.172,1.172,0,0,0,0,2.335h1.463a1.172,1.172,0,0,0,0-2.335ZM23.47,1.526a.377.377,0,1,1-.754,0V.963a.377.377,0,0,1,.754,0Z" transform="translate(-0.967 0)" fill="#2f2422"/>
    <path id="Path_23833" data-name="Path 23833" d="M24.537,7.19A3.207,3.207,0,1,0,27.744,10.4,3.207,3.207,0,0,0,24.537,7.19Zm1.581,4.37L24.3,10.652H24.21V7.926h.727v2.326l1.535.763Z" transform="translate(-0.828 -0.265)" fill="#2f2422"/>
    <path id="Path_23834" data-name="Path 23834" d="M24.3,3.41H22.26a10.766,10.766,0,0,0-10.63,10.9V14.7h23.3v-.391A10.766,10.766,0,0,0,24.3,3.41ZM14.174,13.4a.336.336,0,1,1-.672,0c0-.082,0-8.086,8.177-8.795a.336.336,0,0,1,.055.663c-7.514.681-7.559,7.85-7.559,8.159Z" transform="translate(0.721 -0.312)" fill="#2f2422"/>
    <path id="Path_23835" data-name="Path 23835" d="M30.233,20.769h2.354s.909.663,0,1.917l-9.867,6.151H9.893l.3.7H8.242L7.5,21.877l5.051-1.817h9.408l-.078,1.817-4.25.591L17.25,23.9l6.76-.482Z" transform="translate(-0.686 -0.31)" fill="#2f2422"/>
    <path id="Path_23836" data-name="Path 23836" d="M5.715,22.14l1.063,8.995L7.7,32.2l-.282.763L0,33.824V22.731Z" transform="translate(0 -0.501)" fill="#2f2422"/>
  </g>
</svg>
