<svg xmlns="http://www.w3.org/2000/svg" width="24" height="16" viewBox="0 0 24 16">
  <g id="Group_15289" data-name="Group 15289" transform="translate(-568 -649)">
    <rect id="Rectangle_3258" data-name="Rectangle 3258" width="24" height="16" rx="2" transform="translate(568 649)" fill="#2f2523"/>
    <path id="Icon_awesome-coins" data-name="Icon awesome-coins" d="M0,8.848v.932c0,.771,1.878,1.4,4.192,1.4s4.192-.627,4.192-1.4V8.848a7.939,7.939,0,0,1-4.192.932A7.939,7.939,0,0,1,0,8.848ZM6.986,2.794c2.314,0,4.192-.627,4.192-1.4S9.3,0,6.986,0,2.794.627,2.794,1.4,4.672,2.794,6.986,2.794ZM0,6.558V7.685c0,.771,1.878,1.4,4.192,1.4s4.192-.627,4.192-1.4V6.558A7.03,7.03,0,0,1,4.192,7.685,7.03,7.03,0,0,1,0,6.558Zm9.082.24c1.251-.242,2.1-.692,2.1-1.209V4.657a5.361,5.361,0,0,1-2.1.753ZM4.192,3.493C1.878,3.493,0,4.275,0,5.24S1.878,6.986,4.192,6.986,8.383,6.2,8.383,5.24,6.506,3.493,4.192,3.493ZM8.979,4.722c1.31-.236,2.2-.7,2.2-1.229V2.561a7.107,7.107,0,0,1-3.508.913A2.445,2.445,0,0,1,8.979,4.722Z" transform="translate(574 651.411)" fill="#fff"/>
  </g>
</svg>
