<svg xmlns="http://www.w3.org/2000/svg" width="9" height="5" viewBox="0 0 9 5">
  <g id="Polygon_2" data-name="Polygon 2" transform="translate(9 5) rotate(180)" fill="none">
    <path d="M3.757.826a1,1,0,0,1,1.487,0L7.5,3.331A1,1,0,0,1,6.755,5H2.245A1,1,0,0,1,1.5,3.331Z" stroke="none"/>
    <path d="M 4.5 1.494840860366821 L 4.5 1.494850873947144 L 2.245369911193848 3.999990940093994 C 2.245367527008057 3.999993324279785 2.245388507843018 3.999994277954102 2.245359897613525 4.000000953674316 L 6.754634380340576 4.000000953674316 C 6.754634857177734 3.999999523162842 6.754635810852051 3.999998092651367 6.754640102386475 4.000000953674316 L 4.501319885253906 1.494961023330688 C 4.501190185546875 1.494930982589722 4.50068998336792 1.494840860366821 4.5 1.494840860366821 M 4.5 0.4948458671569824 C 4.772335052490234 0.4948458671569824 5.044670104980469 0.6051907539367676 5.243289947509766 0.8258810043334961 L 7.49793004989624 3.331031084060669 C 8.077099800109863 3.974560976028442 7.620409965515137 5.000000953674316 6.754640102386475 5.000000953674316 L 2.245359897613525 5.000000953674316 C 1.379590034484863 5.000000953674316 0.9229001998901367 3.974560976028442 1.50206995010376 3.331031084060669 L 3.756710052490234 0.8258810043334961 C 3.955329895019531 0.6051907539367676 4.227664947509766 0.4948458671569824 4.5 0.4948458671569824 Z" stroke="none" fill="#fff"/>
  </g>
</svg>
