<svg id="Group_4205" data-name="Group 4205" xmlns="http://www.w3.org/2000/svg" width="25.662" height="32.228" viewBox="0 0 25.662 32.228">
  <path id="Path_9007" data-name="Path 9007" d="M781.348,255.023H755.692l0-.319c-.009-.383-.091-9.457,5.9-14.641l.082-.073s.027.027.077.073c.173.155.346.3.524.442l0,.009,4.473,8.792.756-4.865-1.134-1.84a9.017,9.017,0,0,0,4.469.068l-1.1,1.767.806,4.783,4.041-8.3c.2-.137.387-.278.574-.428.091-.073.178-.146.264-.223s.173-.146.26-.223c1.025.7,5.22,4.164,5.644,14.646Z" transform="translate(-755.686 -222.795)" fill="#fff"/>
  <path id="Path_9008" data-name="Path 9008" d="M772.759,202.244a9.63,9.63,0,1,0,9.63,9.63A9.64,9.64,0,0,0,772.759,202.244Z" transform="translate(-759.739 -202.244)" fill="#fff"/>
  <path id="Path_9009" data-name="Path 9009" d="M782.231,240.04v9.366l-9.571,1.941-4.961-1.608.515-9.749s.027.027.077.073a6.718,6.718,0,0,0,.528.451,11.493,11.493,0,0,0,4.1,2.086,9.017,9.017,0,0,0,4.469.068A11.425,11.425,0,0,0,782.231,240.04Z" transform="translate(-762.227 -222.795)" fill="#fff"/>
</svg>
