<svg xmlns="http://www.w3.org/2000/svg" width="30.793" height="25.378" viewBox="0 0 30.793 25.378">
  <path id="Path_23501" data-name="Path 23501" d="M12183.6-691.456a2.2,2.2,0,0,1-.69-1.1c.356.113.567-.15.69-.488a3.427,3.427,0,0,0,.176-.9,3.118,3.118,0,0,0-.176-1.386,3.546,3.546,0,0,0-1.989-1.763,12.944,12.944,0,0,0,1.989-.3c.035-.013.07-.024.1-.037a7.775,7.775,0,0,0,1.891-1.172,6.821,6.821,0,0,0-.961,2.9c0,.567,0,1.086-.043,1.654a16.119,16.119,0,0,1-.493,2.832.046.046,0,0,1-.052.04A.977.977,0,0,1,12183.6-691.456Zm0-4.439a3.572,3.572,0,0,1,.436,1.932,2.613,2.613,0,0,1-.436,1.471.887.887,0,0,1-.11.124,1.459,1.459,0,0,1,.11.119,1.292,1.292,0,0,1,.273.483,6.447,6.447,0,0,0,.4-2.841,5.028,5.028,0,0,1-.072-1.52,4.643,4.643,0,0,1,.593-1.657c-.491.321-.512.373-.647.823-.168.559-.176.286-.2.012-.018-.179-.043-.357-.127-.3a1.193,1.193,0,0,1-.217.1,3.608,3.608,0,0,1-1.344.2A2.4,2.4,0,0,1,12183.6-695.895Zm-3.372-2.114a11.649,11.649,0,0,1-2.76-5.276,35.97,35.97,0,0,1-.735-4.173c-.555-4.15-.413-6.769-4.734-9.543a8.488,8.488,0,0,1,5.47,3.127,27,27,0,0,1,3.56,5.581,36.1,36.1,0,0,0,2.572,3.683c1.148,1.572,2.225,3.216,2.314,4.493v.314a1.609,1.609,0,0,1-.393.977,4.379,4.379,0,0,1-1.922,1.2,4.987,4.987,0,0,1-1.538.256A2.48,2.48,0,0,1,12180.229-698.008Zm-3.024-8.879c.046.562.134,1.23.265,1.943a14.981,14.981,0,0,0,1.548,4.665c1.217,2.035,2.764,3.042,2.137,2-1.055-1.754-3.144-4.5-2.744-7.7.715,5.671,3.116,5.636,2.984,4.623a58.6,58.6,0,0,0-1.672-5.689,22.721,22.721,0,0,0-2.253-5.477,9.3,9.3,0,0,0-3.925-3.628C12177.01-713.7,12176.953-709.89,12177.205-706.888Z" transform="matrix(0.454, 0.891, -0.891, 0.454, -6141.019, -10519.354)" fill="#8b7461" stroke="rgba(0,0,0,0)" stroke-width="1" opacity="0.894"/>
</svg>
