<svg id="Group_15284" data-name="Group 15284" xmlns="http://www.w3.org/2000/svg" xmlns:xlink="http://www.w3.org/1999/xlink" width="17.626" height="17.626" viewBox="0 0 17.626 17.626">
  <defs>
    <clipPath id="clip-path">
      <path id="Path_1" data-name="Path 1" d="M18.91,29.441a7.782,7.782,0,0,1,1.734-4.889L31.573,35.481a7.77,7.77,0,0,1-12.663-6.04m2.479-5.684A7.768,7.768,0,0,1,32.368,34.736Zm-3.518,5.684a8.813,8.813,0,1,0,8.813-8.813,8.813,8.813,0,0,0-8.813,8.813" transform="translate(-17.871 -20.628)" fill="#9d0505"/>
    </clipPath>
    <clipPath id="clip-path-2">
      <rect id="Rectangle_9" data-name="Rectangle 9" width="19.671" height="19.986" fill="#9d0505"/>
    </clipPath>
  </defs>
  <path id="Icon_awesome-store" data-name="Icon awesome-store" d="M10.834,2.134,9.666.27A.576.576,0,0,0,9.179,0H1.91a.576.576,0,0,0-.488.27L.255,2.134A1.605,1.605,0,0,0,1.313,4.588a1.87,1.87,0,0,0,.246.016,1.777,1.777,0,0,0,1.328-.6,1.778,1.778,0,0,0,2.656,0,1.778,1.778,0,0,0,2.656,0,1.782,1.782,0,0,0,1.328.6,1.85,1.85,0,0,0,.246-.016A1.6,1.6,0,0,0,10.834,2.134ZM9.53,5.182A2.283,2.283,0,0,1,9,5.113v1.8H2.09v-1.8a2.384,2.384,0,0,1-.531.068,2.43,2.43,0,0,1-.324-.022A2.263,2.263,0,0,1,.941,5.1V8.636a.575.575,0,0,0,.576.576h8.06a.575.575,0,0,0,.576-.576V5.1a1.837,1.837,0,0,1-.3.065,2.5,2.5,0,0,1-.328.022Z" transform="translate(3.268 4.207)" fill="#8b7461"/>
  <g id="Group_15" data-name="Group 15" clip-path="url(#clip-path)">
    <rect id="Rectangle_6" data-name="Rectangle 6" width="19.671" height="19.986" transform="translate(-1.467 -0.722)" fill="#9d0505"/>
    <g id="Group_14" data-name="Group 14" transform="translate(-1.687 -1.948)" style="mix-blend-mode: screen;isolation: isolate">
      <g id="Group_13" data-name="Group 13">
        <g id="Group_12" data-name="Group 12" clip-path="url(#clip-path-2)">
          <g id="Group_11" data-name="Group 11" transform="translate(0 0)">
            <g id="Group_10" data-name="Group 10" clip-path="url(#clip-path-2)">
              <rect id="Rectangle_7" data-name="Rectangle 7" width="27.855" height="27.903" transform="translate(-9.761 7.855) rotate(-38.822)" fill="#9d0505"/>
            </g>
          </g>
        </g>
      </g>
    </g>
  </g>
</svg>
