<svg xmlns="http://www.w3.org/2000/svg" width="24.496" height="16.33" viewBox="0 0 24.496 16.33">
  <path id="Icon_awesome-road" data-name="Icon awesome-road" d="M24.376,18.9,18.431,5.294A1.3,1.3,0,0,0,17.252,4.5H13.1l.1.985a.34.34,0,0,1-.339.376h-1.24a.34.34,0,0,1-.339-.376l.1-.985H7.243a1.3,1.3,0,0,0-1.179.794L.119,18.9A1.358,1.358,0,0,0,1.3,20.83H9.67l.438-4.154a.68.68,0,0,1,.677-.609H13.71a.68.68,0,0,1,.677.609l.438,4.154H23.2A1.358,1.358,0,0,0,24.376,18.9ZM11.074,7.526a.34.34,0,0,1,.339-.3h1.671a.341.341,0,0,1,.339.3l.2,1.853a.51.51,0,0,1-.507.564H11.386a.51.51,0,0,1-.507-.564l.2-1.853Zm2.349,7.18H11.072a.68.68,0,0,1-.677-.752l.216-2.041a.68.68,0,0,1,.677-.609h1.92a.68.68,0,0,1,.677.609l.216,2.041a.68.68,0,0,1-.677.752Z" transform="translate(0 -4.5)" fill="#8b7461"/>
</svg>
