<svg xmlns="http://www.w3.org/2000/svg" width="22.904" height="18.832" viewBox="0 0 22.904 18.832">
  <g id="Group_15290" data-name="Group 15290" transform="translate(-10.548 -14.209)">
    <path id="Path_577" data-name="Path 577" d="M43.58,56.78c0,1.777-.854,3.217-1.909,3.217s-1.909-1.44-1.909-3.217.854-3.217,1.909-3.217S43.58,55,43.58,56.78" transform="translate(-29.215 -39.354)" fill="#2d2a28"/>
    <path id="Path_578" data-name="Path 578" d="M115.53,56.78c0,1.777-.854,3.217-1.909,3.217s-1.909-1.44-1.909-3.217.854-3.217,1.909-3.217S115.53,55,115.53,56.78" transform="translate(-82.078 -39.354)" fill="#2d2a28"/>
    <path id="Path_579" data-name="Path 579" d="M65.39,93.2a2.326,2.326,0,0,1,2.079,3.365,9.843,9.843,0,0,1-17.084,0A2.326,2.326,0,0,1,52.464,93.2Z" transform="translate(-36.838 -68.475)" fill="#2d2a28"/>
  </g>
</svg>
