<svg xmlns="http://www.w3.org/2000/svg" width="100.002" height="100.002" viewBox="0 0 100.002 100.002">
  <g id="Group_15267" data-name="Group 15267" transform="translate(-518.567 -44.472)">
    <g id="Group_6460" data-name="Group 6460" transform="translate(526.316 52.227)">
      <path id="Path_10065" data-name="Path 10065" d="M668.689,77.278h-4.448v4.447h8.895V77.278Z" transform="translate(-637.557 -77.278)" fill="#88715f"/>
      <rect id="Rectangle_1814" data-name="Rectangle 1814" width="4.448" height="4.447" transform="translate(53.37 0)" fill="#88715f"/>
      <path id="Path_10066" data-name="Path 10066" d="M700.847,81.726H696.4V77.278h-4.448v4.447H687.5v8.895h-4.447v4.448H687.5v4.447h8.9V95.068h-4.448V86.173h13.343V81.726Z" transform="translate(-651.924 -77.278)" fill="#88715f"/>
      <path id="Path_10067" data-name="Path 10067" d="M781.58,119.356v-4.447h-4.448V123.8h4.448Z" transform="translate(-723.762 -106.013)" fill="#88715f"/>
      <path id="Path_10068" data-name="Path 10068" d="M664.242,156.986v4.448h4.448v-8.895h-4.448Z" transform="translate(-637.557 -134.748)" fill="#88715f"/>
      <rect id="Rectangle_1815" data-name="Rectangle 1815" width="4.447" height="4.447" transform="translate(48.923 17.79)" fill="#88715f"/>
      <rect id="Rectangle_1816" data-name="Rectangle 1816" width="4.447" height="4.448" transform="translate(31.133 48.923)" fill="#88715f"/>
      <rect id="Rectangle_1817" data-name="Rectangle 1817" width="4.448" height="4.448" transform="translate(0 26.685)" fill="#88715f"/>
      <path id="Path_10069" data-name="Path 10069" d="M715.215,180.248h4.447V184.7h4.448v-4.448h4.447V175.8H724.11v-4.448h-4.448V175.8h-17.79v4.448h8.9V184.7h4.448Z" transform="translate(-666.292 -149.116)" fill="#88715f"/>
      <path id="Path_10070" data-name="Path 10070" d="M875.656,194.616v-4.448h-4.447v8.9h4.447Z" transform="translate(-795.6 -163.483)" fill="#88715f"/>
      <rect id="Rectangle_1818" data-name="Rectangle 1818" width="4.448" height="4.447" transform="translate(0 35.58)" fill="#88715f"/>
      <path id="Path_10071" data-name="Path 10071" d="M631.059,203.511h4.448v-4.447h4.448v-4.448h-8.9v-4.448h-4.448v8.9h4.448Z" transform="translate(-608.822 -163.483)" fill="#88715f"/>
      <rect id="Rectangle_1819" data-name="Rectangle 1819" width="4.448" height="4.447" transform="translate(40.028 35.58)" fill="#88715f"/>
      <path id="Path_10072" data-name="Path 10072" d="M809.29,199.064v-8.9h-4.448v8.9h-8.9v4.447h8.9v4.448h4.448v-4.448h4.448v-4.447Z" transform="translate(-738.13 -163.483)" fill="#88715f"/>
      <path id="Path_10073" data-name="Path 10073" d="M587.957,203.511h-4.448v-4.447h-4.447v-8.9h-4.448v4.448h-4.448v4.448h4.448v4.447h4.448v4.448h4.447v4.447h4.448v-8.895Z" transform="translate(-565.719 -163.483)" fill="#88715f"/>
      <path id="Path_10074" data-name="Path 10074" d="M683.057,236.694H687.5v4.447h4.448v-8.895H687.5V227.8h-4.447v8.895Z" transform="translate(-651.924 -192.219)" fill="#88715f"/>
      <path id="Path_10075" data-name="Path 10075" d="M861.288,246.614H856.84v8.895h-4.448v4.448h4.448V264.4h4.447V273.3h4.448V259.956h-4.448v-4.448h4.448v-4.447h-4.448Z" transform="translate(-781.233 -206.586)" fill="#88715f"/>
      <path id="Path_10076" data-name="Path 10076" d="M555.8,265.429h-4.448v8.895H555.8v4.448h4.448v-8.9H555.8Z" transform="translate(-551.351 -220.954)" fill="#88715f"/>
      <rect id="Rectangle_1820" data-name="Rectangle 1820" width="4.448" height="4.447" transform="translate(8.895 44.475)" fill="#88715f"/>
      <path id="Path_10077" data-name="Path 10077" d="M752.845,251.061v-4.448H739.5v8.895h4.448v-4.447H748.4v4.447h4.448v4.448h4.447v-4.448h4.448v-4.447h-8.9Z" transform="translate(-695.027 -206.586)" fill="#88715f"/>
      <rect id="Rectangle_1821" data-name="Rectangle 1821" width="4.447" height="4.448" transform="translate(13.343 48.923)" fill="#88715f"/>
      <path id="Path_10078" data-name="Path 10078" d="M649.874,284.244h-4.447v8.9h4.447v8.895h4.448V288.691h-4.448Z" transform="translate(-623.189 -235.321)" fill="#88715f"/>
      <rect id="Rectangle_1822" data-name="Rectangle 1822" width="4.448" height="4.448" transform="translate(40.028 48.923)" fill="#88715f"/>
      <rect id="Rectangle_1823" data-name="Rectangle 1823" width="4.448" height="4.448" transform="translate(35.58 53.37)" fill="#88715f"/>
      <path id="Path_10079" data-name="Path 10079" d="M748.4,311.954v-8.895H743.95v4.448H739.5v4.447H748.4Z" transform="translate(-695.027 -249.689)" fill="#88715f"/>
      <rect id="Rectangle_1824" data-name="Rectangle 1824" width="4.448" height="4.448" transform="translate(35.58 62.265)" fill="#88715f"/>
      <rect id="Rectangle_1825" data-name="Rectangle 1825" width="4.448" height="4.447" transform="translate(44.475 66.713)" fill="#88715f"/>
      <path id="Path_10080" data-name="Path 10080" d="M794.99,316.385V303.038H777.112v17.878h4.452v4.364h4.448v-4.364h4.447v4.364h4.447v-4.364h.083v-.083h4.364v4.447h8.9v-4.447H803.8v-4.447H794.99Zm-14.454-9.923h11.119v11.119H780.536Z" transform="translate(-723.747 -249.673)" fill="#88715f"/>
      <path id="Path_10081" data-name="Path 10081" d="M683.057,368.4v4.448H687.5V359.5h-4.447V368.4Z" transform="translate(-651.924 -292.792)" fill="#88715f"/>
      <path id="Path_10082" data-name="Path 10082" d="M758.318,397.134v4.448h8.9v-4.448h-8.9Z" transform="translate(-709.395 -321.527)" fill="#88715f"/>
      <rect id="Rectangle_1826" data-name="Rectangle 1826" width="4.448" height="4.448" transform="translate(26.685 80.055)" fill="#88715f"/>
      <path id="Path_10083" data-name="Path 10083" d="M706.319,420.4h4.448V415.95h-8.9V420.4Z" transform="translate(-666.292 -335.894)" fill="#88715f"/>
      <path id="Path_10084" data-name="Path 10084" d="M871.208,415.95V420.4H880.1V415.95h-8.895Z" transform="translate(-795.6 -335.894)" fill="#88715f"/>
      <rect id="Rectangle_1827" data-name="Rectangle 1827" width="4.448" height="4.447" transform="translate(60.125 60.125)" fill="#88715f"/>
      <path id="Path_10085" data-name="Path 10085" d="M573.589,77.278H551.351V99.515h22.238Zm-3.336,18.9H554.687V80.614h15.566Z" transform="translate(-551.351 -77.278)" fill="#88715f"/>
      <rect id="Rectangle_1828" data-name="Rectangle 1828" width="8.895" height="8.895" transform="translate(6.671 6.671)" fill="#88715f"/>
      <path id="Path_10086" data-name="Path 10086" d="M814.763,77.278V99.515H837V77.278Zm18.9,18.9H818.1V80.614h15.566Z" transform="translate(-752.498 -77.278)" fill="#88715f"/>
      <rect id="Rectangle_1829" data-name="Rectangle 1829" width="8.895" height="8.895" transform="translate(68.936 6.671)" fill="#88715f"/>
      <path id="Path_10087" data-name="Path 10087" d="M551.351,363.162h22.238V340.925H551.351Zm3.336-18.9h15.566v15.567H554.687Z" transform="translate(-551.351 -278.604)" fill="#88715f"/>
      <rect id="Rectangle_1830" data-name="Rectangle 1830" width="8.895" height="8.895" transform="translate(6.671 68.992)" fill="#88715f"/>
    </g>
    <g id="Group_6461" data-name="Group 6461" transform="translate(518.567 44.472)">
      <path id="Path_10088" data-name="Path 10088" d="M522.438,384.613a1.305,1.305,0,0,1-1.305-1.305v-21h-2.565v21.658a3.214,3.214,0,0,0,3.214,3.214h21.658v-2.565Z" transform="translate(-518.567 -287.176)" fill="#88715f"/>
      <path id="Path_10089" data-name="Path 10089" d="M521.132,48.342a1.305,1.305,0,0,1,1.305-1.305h21V44.472H521.781a3.214,3.214,0,0,0-3.214,3.214V69.344h2.565Z" transform="translate(-518.567 -44.472)" fill="#88715f"/>
      <path id="Path_10090" data-name="Path 10090" d="M858.708,383.308a1.305,1.305,0,0,1-1.305,1.305h-21v2.565h21.658a3.214,3.214,0,0,0,3.214-3.214V362.306h-2.565Z" transform="translate(-761.271 -287.176)" fill="#88715f"/>
      <path id="Path_10091" data-name="Path 10091" d="M858.059,44.472H836.4v2.565h21a1.305,1.305,0,0,1,1.305,1.305v21h2.565V47.686A3.214,3.214,0,0,0,858.059,44.472Z" transform="translate(-761.271 -44.472)" fill="#88715f"/>
    </g>
  </g>
</svg>
