<svg xmlns="http://www.w3.org/2000/svg" width="79.99" height="73.33" viewBox="0 0 79.99 73.33">
  <g id="Layer_2" data-name="Layer 2" transform="translate(-30.887 5.678)">
    <g id="Group_15239" data-name="Group 15239" transform="translate(-66 7.406)">
      <g id="Layer_2-2" data-name="Layer 2" transform="translate(107.612 29.581)">
        <path id="Icon_awesome-calendar" data-name="Icon awesome-calendar" d="M1.422,22.749H51.66a1.426,1.426,0,0,1,1.422,1.422V54.978a5.689,5.689,0,0,1-5.687,5.687H5.687A5.689,5.689,0,0,1,0,54.978V24.171A1.426,1.426,0,0,1,1.422,22.749Zm51.66-5.213V13.27a5.689,5.689,0,0,0-5.687-5.687H41.707V1.422A1.426,1.426,0,0,0,40.285,0H35.546a1.426,1.426,0,0,0-1.422,1.422V7.583H18.958V1.422A1.426,1.426,0,0,0,17.536,0H12.8a1.426,1.426,0,0,0-1.422,1.422V7.583H5.687A5.689,5.689,0,0,0,0,13.27v4.266a1.426,1.426,0,0,0,1.422,1.422H51.66A1.426,1.426,0,0,0,53.082,17.536Z" transform="translate(-10.725 -30)" fill="#88715f"/>
        <g id="Layer_1" data-name="Layer 1" transform="translate(0 0)">
          <g id="Group_15233" data-name="Group 15233">
            <path id="Path_23827" data-name="Path 23827" d="M21.706,2.138A2.138,2.138,0,1,1,19.568,0a2.138,2.138,0,0,1,2.138,2.138Zm0,0" transform="translate(-5.251 0)" fill="#fff"/>
            <path id="Path_23828" data-name="Path 23828" d="M15,24.73a2.659,2.659,0,1,1-.028.007Zm0,4.192A.922.922,0,1,1,15.925,28,.922.922,0,0,1,15,28.922Zm0,0" transform="translate(-3.537 -7.399)" fill="#fff"/>
            <path id="Path_23829" data-name="Path 23829" d="M16.869,7.787l-1.614-.14A1.446,1.446,0,0,0,13.69,8.961l-.426,4.891a2.494,2.494,0,0,0,.852,2.1,1.188,1.188,0,0,0,.133.175h-8a.7.7,0,0,0-.7.7L9.484,18.7A5.485,5.485,0,0,0,7.7,22.2a.538.538,0,0,0,.538.6H9.246a3.916,3.916,0,0,1,7.833,0h0a.517.517,0,0,0,.517.517H23c.475,0,.7-.231.7-.6a3.647,3.647,0,0,1,3.717-3.633,3.717,3.717,0,0,1,2.795,1.251.545.545,0,0,0,.811-.7h0a4.807,4.807,0,0,0-3.591-1.614h-.168a5.841,5.841,0,0,0-3.144-3.452l-.189-.587h.524a1.356,1.356,0,0,0,1.244.811h.65a.335.335,0,0,0,.335-.342V12.427a.335.335,0,0,0-.335-.335H25.7a1.356,1.356,0,0,0-1.244.811h-.873a.964.964,0,0,0-.887-1.453l-3.347.182L17.477,9.108m1.132,13.143a5.457,5.457,0,0,0-.5-1.782h0A5.527,5.527,0,0,0,16.66,18.6V16.654l2.432.21-.063,4.891a1.146,1.146,0,0,0,.119.524Zm4.053,0H21.236a1.16,1.16,0,0,0,.119-.489l.077-5.946a1.16,1.16,0,0,0-1.055-1.174L18.6,14.579a1.279,1.279,0,0,1-1.251-.8l-.042-1.4.818.79a.964.964,0,0,0,.831.391l3.661-.2.307.95,1.509,4.751a4.8,4.8,0,0,0-1.8,3.179Zm0,0" transform="translate(-1.672 -2.251)" fill="#fff"/>
            <path id="Path_23830" data-name="Path 23830" d="M35.465,24.73A3.235,3.235,0,1,0,38.7,27.965,3.235,3.235,0,0,0,35.465,24.73Zm0,4.192A.922.922,0,1,1,36.387,28,.922.922,0,0,1,35.465,28.922Zm0,0" transform="translate(-9.71 -7.4)" fill="#fff"/>
            <rect id="Rectangle_3255" data-name="Rectangle 3255" width="9.398" height="6.191" transform="translate(0 8.304)" fill="#fff"/>
            <rect id="Rectangle_3256" data-name="Rectangle 3256" width="9.398" height="0.964" transform="translate(0 6.422)" fill="#fff"/>
          </g>
        </g>
      </g>
      <g id="Group_15238" data-name="Group 15238" transform="translate(96.887 -13.084)">
        <path id="Path_23837" data-name="Path 23837" d="M39.513,7.19A18.183,18.183,0,1,0,57.7,25.373,18.183,18.183,0,0,0,39.513,7.19Zm8.963,24.776L37.658,26.815h0V11.362h1.453v14.52l9.982,4.886Z" transform="translate(22.295 -7.19)" fill="#88715f"/>
      </g>
    </g>
  </g>
</svg>
