<svg xmlns="http://www.w3.org/2000/svg" width="85.682" height="71.224" viewBox="0 0 85.682 71.224">
  <path id="Icon_awesome-store" data-name="Icon awesome-store" d="M83.741,16.5,74.712,2.087A4.453,4.453,0,0,0,70.942,0h-56.2a4.453,4.453,0,0,0-3.77,2.087L1.944,16.5c-4.66,7.442-.529,17.792,8.18,18.975a14.457,14.457,0,0,0,1.906.125,13.736,13.736,0,0,0,10.266-4.6,13.747,13.747,0,0,0,20.533,0,13.747,13.747,0,0,0,20.533,0,13.782,13.782,0,0,0,10.266,4.6,14.3,14.3,0,0,0,1.906-.125C84.269,34.3,88.415,23.955,83.741,16.5ZM73.655,40.064a17.65,17.65,0,0,1-4.1-.529V53.418H16.133V39.535a18.429,18.429,0,0,1-4.1.529,18.77,18.77,0,0,1-2.5-.167,17.494,17.494,0,0,1-2.281-.5V66.773A4.447,4.447,0,0,0,11.7,71.224H74.017a4.447,4.447,0,0,0,4.452-4.452V39.4a14.2,14.2,0,0,1-2.281.5A19.345,19.345,0,0,1,73.655,40.064Z" transform="translate(-0.004)" fill="#88715f"/>
</svg>
