<svg xmlns="http://www.w3.org/2000/svg" width="100" height="100" viewBox="0 0 100 100">
  <g id="Group_6462" data-name="Group 6462" transform="translate(-1022.885 -45.88)">
    <path id="Path_10092" data-name="Path 10092" d="M1265.342,222.061v2.272a19.71,19.71,0,0,1,25.179,0v-2.272a19.707,19.707,0,0,0-25.179,0Z" transform="translate(-184.955 -130.93)" fill="#88715f"/>
    <path id="Path_10093" data-name="Path 10093" d="M1267.612,154.6a2.272,2.272,0,1,0-2.27-2.272A2.25,2.25,0,0,0,1267.612,154.6Z" transform="translate(-184.955 -79.471)" fill="#88715f"/>
    <path id="Path_10094" data-name="Path 10094" d="M1354.618,150.058a2.272,2.272,0,1,0,2.274,2.272A2.249,2.249,0,0,0,1354.618,150.058Z" transform="translate(-251.326 -79.471)" fill="#88715f"/>
    <path id="Path_10095" data-name="Path 10095" d="M1114.137,80.814a29.908,29.908,0,0,0-51.053,20.817,29.918,29.918,0,1,0,19.631,28.427,29.912,29.912,0,0,0,31.422-49.244Zm-51.055,38.551a2.272,2.272,0,1,1-2.274,2.273A2.249,2.249,0,0,1,1063.082,119.365Zm-20.635,0a2.272,2.272,0,1,1-2.273,2.273A2.251,2.251,0,0,1,1042.447,119.365Zm23,20.635a19.11,19.11,0,0,1-12.727,4.543A18.623,18.623,0,0,1,1040.174,140v-2.274a18.614,18.614,0,0,0,12.545,4.547,19.1,19.1,0,0,0,12.727-4.547Zm27.589-10.181a27.722,27.722,0,0,1-10.38-2,29.941,29.941,0,0,0-17.429-25.305c0-.168,0-.334,0-.5a27.811,27.811,0,1,1,27.813,27.811Z" transform="translate(-0.013 -19.967)" fill="#88715f"/>
    <path id="Path_10096" data-name="Path 10096" d="M1080.385,148.292l.013.009a1.75,1.75,0,1,0-.013-.009Z" transform="translate(-43.305 -75.688)" fill="#88715f"/>
    <path id="Path_10097" data-name="Path 10097" d="M1175.407,49.073l.013.009a1.759,1.759,0,1,0-.013-.009Z" transform="translate(-115.791)" fill="#88715f"/>
    <path id="Path_10098" data-name="Path 10098" d="M1287.048,452.988l-.014-.009a1.745,1.745,0,1,0,.014.009Z" transform="translate(-199.378 -310.301)" fill="#88715f"/>
    <path id="Path_10099" data-name="Path 10099" d="M1378.709,390.031l-.013-.009a1.749,1.749,0,1,0,.013.009Z" transform="translate(-269.301 -262.275)" fill="#88715f"/>
    <path id="Path_10100" data-name="Path 10100" d="M1432.443,291.544l-.012-.009a1.761,1.761,0,1,0,.012.009Z" transform="translate(-310.291 -187.146)" fill="#88715f"/>
    <path id="Path_10101" data-name="Path 10101" d="M1134.747,114.35l-.3,1.29a.924.924,0,0,0,1.377,1l1.133-.687,1.134.687a.924.924,0,0,0,1.377-1l-.3-1.29,1-.866a.923.923,0,0,0-.526-1.618l-1.32-.111-.515-1.222a.923.923,0,0,0-1.7,0l-.515,1.222-1.32.111a.923.923,0,0,0-.526,1.618Z" transform="translate(-84.325 -48.888)" fill="#88715f"/>
    <path id="Path_10102" data-name="Path 10102" d="M1024.206,76.72l-.3,1.29a.924.924,0,0,0,1.377,1l1.134-.687,1.134.687a.924.924,0,0,0,1.377-1l-.3-1.29,1-.866a.923.923,0,0,0-.526-1.618l-1.32-.111-.515-1.222a.923.923,0,0,0-1.7,0l-.515,1.222-1.32.111a.923.923,0,0,0-.526,1.618Z" transform="translate(0 -20.182)" fill="#88715f"/>
    <path id="Path_10103" data-name="Path 10103" d="M1321.971,366.01l-1.32-.111-.515-1.221a.923.923,0,0,0-1.7,0l-.515,1.221-1.32.111a.923.923,0,0,0-.526,1.619l1,.866-.3,1.288a.923.923,0,0,0,1.376,1l1.134-.687,1.134.687a.923.923,0,0,0,1.377-1l-.3-1.288,1-.866a.923.923,0,0,0-.526-1.619Z" transform="translate(-223.41 -242.759)" fill="#88715f"/>
  </g>
</svg>
