<svg xmlns="http://www.w3.org/2000/svg" width="85.56" height="94.701" viewBox="0 0 85.56 94.701">
  <path id="Path_9992" data-name="Path 9992" d="M142.5,99.047a8.983,8.983,0,1,1,8.983,8.983A8.983,8.983,0,0,1,142.5,99.047Zm31.991,29.221a4.2,4.2,0,0,0-5.908-.639l-10.833,4.95-8.787-18.028-9.088-5.368-19.958-.433a6.366,6.366,0,0,0-5.372,2.627L106.9,121.925a3.76,3.76,0,0,0,.847,5.257l.062.045a3.76,3.76,0,0,0,5.265-.875l6.926-9.76,11.193,1.9-16.9,34.052-16.379-7.437a3.761,3.761,0,0,0-4.958,1.446l-.571.974a3.761,3.761,0,0,0,1.342,5.146l19.056,11.175a4.773,4.773,0,0,0,6.3-1.345c4.164-5.836,12.037-16.791,12.36-16.64l14.658,9.828.078,20.115s-.021,5.4,2.458,6.519a4.923,4.923,0,0,0,6.519-2.458l1.927-24.548s.041-5.35-2.4-6.493l-15.868-12.257,6.074-8.876,8.361,13.037a4.2,4.2,0,0,0,5.793.5l14.805-7.057A4.2,4.2,0,0,0,174.489,128.267Z" transform="translate(-90.862 -89.063)" fill="none" stroke="#8a7460" stroke-width="2"/>
</svg>
