<svg xmlns="http://www.w3.org/2000/svg" width="30.304" height="30.304" viewBox="0 0 30.304 30.304">
  <g id="tw" transform="translate(0)">
    <g id="Group_2276" data-name="Group 2276">
      <path id="Path_7920" data-name="Path 7920" d="M152.412,39.231a15.152,15.152,0,1,1,15.152-15.152A15.169,15.169,0,0,1,152.412,39.231Z" transform="translate(-137.26 -8.927)" fill="#2f2523"/>
    </g>
    <g id="Group_2282" data-name="Group 2282" transform="translate(6.266 7.879)">
      <g id="Group_2277" data-name="Group 2277" transform="translate(0 0)">
        <path id="Path_7921" data-name="Path 7921" d="M175.384,36.483a7.268,7.268,0,0,1-1.784.51c.287-.048.711-.569.88-.779a3.277,3.277,0,0,0,.594-1.082c.015-.031.027-.07,0-.093a.1.1,0,0,0-.095.008,9.114,9.114,0,0,1-2.119.811.141.141,0,0,1-.146-.039,1.707,1.707,0,0,0-.185-.189A3.747,3.747,0,0,0,171.5,35a3.57,3.57,0,0,0-1.574-.254,3.769,3.769,0,0,0-1.494.422,3.852,3.852,0,0,0-1.205.984,3.7,3.7,0,0,0-.72,1.441,3.905,3.905,0,0,0-.038,1.522c.012.085,0,.1-.073.085a11.318,11.318,0,0,1-7.282-3.706c-.085-.1-.131-.1-.2.007a3.692,3.692,0,0,0,.63,4.363c.143.135.289.27.447.394a3.711,3.711,0,0,1-1.405-.394c-.085-.054-.128-.023-.135.074a2.2,2.2,0,0,0,.023.417,3.733,3.733,0,0,0,2.3,2.977,2.164,2.164,0,0,0,.467.143,4.161,4.161,0,0,1-1.378.043c-.1-.02-.139.031-.1.127a3.876,3.876,0,0,0,2.9,2.425c.131.023.262.023.394.054-.008.012-.016.012-.024.023a4.586,4.586,0,0,1-1.977,1.048,7.083,7.083,0,0,1-3,.384c-.161-.024-.2-.022-.239,0s-.006.066.046.108c.2.135.413.255.626.371a9.919,9.919,0,0,0,2.007.8,10.693,10.693,0,0,0,10.381-2.427,10.892,10.892,0,0,0,2.873-7.947c0-.114.135-.177.215-.238a7,7,0,0,0,1.406-1.469.427.427,0,0,0,.087-.281v-.016C175.45,36.436,175.456,36.45,175.384,36.483Z" transform="translate(-157.79 -34.739)" fill="#fff"/>
      </g>
      <g id="Group_2278" data-name="Group 2278" transform="translate(5.245 14.484)">
        <path id="Path_7922" data-name="Path 7922" d="M174.972,82.194Z" transform="translate(-174.972 -82.194)" fill="#2f2523" fill-rule="evenodd"/>
      </g>
      <g id="Group_2279" data-name="Group 2279" transform="translate(5.11 14.484)">
        <path id="Path_7923" data-name="Path 7923" d="M174.666,82.194c-.023,0-.292,0,0,0Z" transform="translate(-174.531 -82.194)" fill="#2f2523" fill-rule="evenodd"/>
      </g>
      <g id="Group_2280" data-name="Group 2280" transform="translate(5.839 14.487)">
        <path id="Path_7924" data-name="Path 7924" d="M176.921,82.214c0-.03.313,0,0,0C176.921,82.2,176.959,82.214,176.921,82.214Z" transform="translate(-176.921 -82.201)" fill="#2f2523" fill-rule="evenodd"/>
      </g>
      <g id="Group_2281" data-name="Group 2281" transform="translate(12.013 0.022)">
        <path id="Path_7925" data-name="Path 7925" d="M197.22,34.81a.064.064,0,0,1-.073,0Z" transform="translate(-197.147 -34.81)" fill="#2f2523" fill-rule="evenodd"/>
      </g>
    </g>
  </g>
</svg>
