<svg xmlns="http://www.w3.org/2000/svg" width="76" height="76" viewBox="0 0 76 76">
  <g id="Group_6118" data-name="Group 6118" transform="translate(-33 -33)">
    <rect id="Rectangle_1437" data-name="Rectangle 1437" width="76" height="76" rx="38" transform="translate(33 33)" fill="#8b7461"/>
    <g id="Group_6121" data-name="Group 6121" transform="translate(-696.687 -146.155)">
      <path id="Path_9007" data-name="Path 9007" d="M779.6,254H755.692l0-.3c-.008-.357-.085-8.815,5.5-13.646l.076-.068s.025.025.072.068c.161.144.323.28.488.412l0,.008,4.17,8.195.7-4.535-1.057-1.715a8.4,8.4,0,0,0,4.165.064l-1.023,1.647.751,4.458,3.766-7.74c.183-.127.361-.259.535-.4.085-.068.166-.136.246-.208s.161-.136.242-.208c.955.65,4.866,3.881,5.261,13.651Z" transform="translate(0 -21.719)" fill="#fff"/>
      <path id="Path_9008" data-name="Path 9008" d="M772.1,202.244a8.975,8.975,0,1,0,8.976,8.975A8.986,8.986,0,0,0,772.1,202.244Z" transform="translate(-4.283)" fill="#fff"/>
      <path id="Path_9009" data-name="Path 9009" d="M781.243,240.037v8.73l-8.921,1.809-4.624-1.5.48-9.086s.025.025.072.068a6.244,6.244,0,0,0,.492.42,10.711,10.711,0,0,0,3.817,1.945,8.4,8.4,0,0,0,4.165.064A10.648,10.648,0,0,0,781.243,240.037Z" transform="translate(-6.912 -21.719)" fill="#fff"/>
    </g>
  </g>
</svg>
