<svg xmlns="http://www.w3.org/2000/svg" width="29.959" height="20.621" viewBox="0 0 29.959 20.621">
  <g id="Group_15287" data-name="Group 15287" transform="translate(-7.02 -13.611)">
    <g id="Group_15286" data-name="Group 15286">
      <path id="Path_581" data-name="Path 581" d="M58.95,87.916a2.7,2.7,0,0,1,2.495,3.722c-1.708,4.192-6.219,7.187-11.516,7.187s-9.808-2.995-11.516-7.187a2.7,2.7,0,0,1,2.495-3.722Z" transform="translate(-28.074 -64.594)" fill="#2d2a28"/>
      <path id="Path_582" data-name="Path 582" d="M26.525,54.077a.546.546,0,0,1-.033-.114c-.422-2.368,4.1-2.973,5.55-2.516a6.15,6.15,0,0,1,2.09,1.149c.229.2,1.707,2.042.644,2.067a.746.746,0,0,1-.428-.177c-.97-.685-1.486-1.7-2.71-1.993a3.923,3.923,0,0,0-3.75,1.13c-.3.321-1.044,1.234-1.364.454" transform="translate(-19.443 -37.696)" fill="#2d2a28"/>
      <path id="Path_583" data-name="Path 583" d="M115.265,54.077a.563.563,0,0,0,.033-.114c.422-2.368-4.1-2.973-5.55-2.516a6.15,6.15,0,0,0-2.09,1.149c-.229.2-1.707,2.042-.644,2.067a.746.746,0,0,0,.428-.177c.97-.685,1.486-1.7,2.71-1.993a3.923,3.923,0,0,1,3.75,1.13c.3.321,1.044,1.234,1.364.454" transform="translate(-78.347 -37.696)" fill="#2d2a28"/>
    </g>
  </g>
</svg>
