<svg xmlns="http://www.w3.org/2000/svg" width="25.249" height="17.647" viewBox="0 0 25.249 17.647">
  <g id="Group_15297" data-name="Group 15297" transform="translate(-9.375 -13.988)">
    <path id="Path_563" data-name="Path 563" d="M69.6,102.1a.5.5,0,0,0,.668-.55c-.45-3.159-3.478-5.6-7.146-5.6s-6.695,2.441-7.146,5.6a.5.5,0,0,0,.67.55l3.457-1.277a8.653,8.653,0,0,1,5.972-.01Z" transform="translate(-41.125 -70.495)" fill="#2d2a28"/>
    <path id="Path_564" data-name="Path 564" d="M52.764,66.7c0,1.371-.659,2.482-1.473,2.482s-1.473-1.111-1.473-2.482.659-2.482,1.473-2.482,1.473,1.111,1.473,2.482" transform="translate(-36.604 -47.183)" fill="#2d2a28"/>
    <path id="Path_565" data-name="Path 565" d="M108.275,66.7c0,1.371-.659,2.482-1.473,2.482s-1.473-1.111-1.473-2.482.659-2.482,1.473-2.482,1.473,1.111,1.473,2.482" transform="translate(-77.389 -47.183)" fill="#2d2a28"/>
    <path id="Path_566" data-name="Path 566" d="M42.325,56.459a10.44,10.44,0,0,0-6.387-1.926.522.522,0,0,1-.436-.225.672.672,0,0,1,.266-1.062,4.475,4.475,0,0,1,3.639-.228A9,9,0,0,1,42.458,55.5a.663.663,0,0,1,.082.2l.125.534a.216.216,0,0,1-.34.222" transform="translate(-25.967 -38.743)" fill="#2d2a28"/>
    <path id="Path_567" data-name="Path 567" d="M103.24,56.459a10.439,10.439,0,0,1,6.387-1.926.522.522,0,0,0,.436-.225.672.672,0,0,0-.266-1.062,4.475,4.475,0,0,0-3.639-.228,9,9,0,0,0-3.052,2.484.663.663,0,0,0-.082.2l-.125.534a.216.216,0,0,0,.341.222" transform="translate(-75.599 -38.743)" fill="#2d2a28"/>
  </g>
</svg>
