<svg xmlns="http://www.w3.org/2000/svg" width="41.143" height="32" viewBox="0 0 41.143 32">
  <path id="Icon_awesome-cc-visa" data-name="Icon awesome-cc-visa" d="M33.579,16.486s.543,2.657.664,3.214H31.857C32.093,19.064,33,16.593,33,16.593c-.014.021.236-.65.379-1.064l.2.957ZM41.143,5.679V30.821a3.429,3.429,0,0,1-3.429,3.429H3.429A3.429,3.429,0,0,1,0,30.821V5.679A3.429,3.429,0,0,1,3.429,2.25H37.714A3.429,3.429,0,0,1,41.143,5.679ZM10.893,23.621l4.514-11.086H12.371L9.564,20.107l-.307-1.536-1-5.1a1.194,1.194,0,0,0-1.3-.936H2.336l-.05.221A11.335,11.335,0,0,1,5.3,13.979l2.557,9.643Zm6.743.014,1.8-11.1H16.564l-1.793,11.1h2.864Zm9.993-3.629c.014-1.264-.757-2.229-2.407-3.021-1.007-.507-1.621-.85-1.621-1.371.014-.471.521-.957,1.65-.957a4.922,4.922,0,0,1,2.136.421l.257.121.393-2.4a7.133,7.133,0,0,0-2.571-.471c-2.836,0-4.829,1.514-4.843,3.671-.021,1.593,1.429,2.479,2.514,3.014,1.107.543,1.486.9,1.486,1.379-.014.743-.9,1.086-1.721,1.086a5.722,5.722,0,0,1-2.693-.593l-.379-.179-.4,2.493a8.765,8.765,0,0,0,3.2.593C25.643,23.8,27.607,22.307,27.629,20.007Zm10.086,3.629L35.4,12.536H33.179a1.413,1.413,0,0,0-1.5.921L27.414,23.636h3.014s.493-1.371.6-1.664h3.686c.086.393.343,1.664.343,1.664Z" transform="translate(0 -2.25)" fill="#2f2523"/>
</svg>
