<svg id="Group_4396" data-name="Group 4396" xmlns="http://www.w3.org/2000/svg" width="24.854" height="17.14" viewBox="0 0 24.854 17.14">
  <path id="Path_7991" data-name="Path 7991" d="M132.854,33.261a1.469,1.469,0,0,1-1.469,1.469H109.469A1.469,1.469,0,0,1,108,33.261v-14.2a1.469,1.469,0,0,1,1.469-1.469h21.916a1.469,1.469,0,0,1,1.469,1.469Zm0,0" transform="translate(-108 -17.59)" fill="#fcfcfc"/>
  <path id="Path_7992" data-name="Path 7992" d="M134.911,103.617l-.583-2.8a.7.7,0,0,0-.753-.516H130.9l-.024.128a5.5,5.5,0,0,1,4.036,3.188Zm0,0" transform="translate(-129.394 -94.948)" fill="#f79f1a"/>
  <path id="Path_7993" data-name="Path 7993" d="M248.433,101.168H246.7l-1.08,6.336h1.726Zm0,0" transform="translate(-236.717 -95.759)" fill="#059bbf"/>
  <path id="Path_7994" data-name="Path 7994" d="M160.753,107.56l2.719-6.325h-1.83l-1.691,4.322-.181-.653a6.763,6.763,0,0,0-2.391-2.626l1.546,5.285Zm0,0" transform="translate(-154.183 -95.82)" fill="#059bbf"/>
  <path id="Path_7995" data-name="Path 7995" d="M293.947,103.869c.006-.719-.456-1.268-1.451-1.721-.6-.293-.973-.488-.969-.785,0-.262.312-.544.989-.544a3.186,3.186,0,0,1,1.293.243l.156.072.234-1.373a4.478,4.478,0,0,0-1.548-.264c-1.707,0-2.908.859-2.919,2.09-.011.911.859,1.418,1.513,1.722.672.309.9.507.893.785,0,.424-.536.618-1.032.618a3.621,3.621,0,0,1-1.626-.332l-.221-.1-.243,1.42a5.46,5.46,0,0,0,1.923.337c1.815,0,2.995-.848,3.008-2.165Zm0,0" transform="translate(-277.3 -94.195)" fill="#059bbf"/>
  <path id="Path_7996" data-name="Path 7996" d="M365.466,106.65l2.212,0c.052.22.21.95.21.95h1.6l-1.4-6.332h-1.333a.859.859,0,0,0-.9.525l-2.565,5.807H365.1s.295-.781.362-.952Zm1.184-3.068c-.008.017.143-.367.23-.6l.117.546s.33,1.514.4,1.83h-1.433c.143-.364.687-1.772.687-1.772Zm0,0" transform="translate(-346.766 -95.854)" fill="#059bbf"/>
  <path id="Path_7997" data-name="Path 7997" d="M131.385,17.59H109.469A1.469,1.469,0,0,0,108,19.059v1.525h24.854V19.059a1.469,1.469,0,0,0-1.469-1.469Zm0,0" transform="translate(-108 -17.59)" fill="#059bbf"/>
  <path id="Path_7998" data-name="Path 7998" d="M131.385,239.146H109.469A1.469,1.469,0,0,1,108,237.677v-1.525h24.854v1.525a1.469,1.469,0,0,1-1.469,1.469Zm0,0" transform="translate(-108 -222.006)" fill="#f79f1a"/>
</svg>
