<svg xmlns="http://www.w3.org/2000/svg" width="28.571" height="20" viewBox="0 0 28.571 20">
  <path id="Icon_awesome-wifi" data-name="Icon awesome-wifi" d="M28.344,7.736a20.757,20.757,0,0,0-28.117,0A.71.71,0,0,0,.212,8.762L1.74,10.278a.725.725,0,0,0,1,.017,17.128,17.128,0,0,1,23.092,0,.725.725,0,0,0,1-.017L28.36,8.762a.71.71,0,0,0-.016-1.026Zm-14.058,8.8a2.857,2.857,0,1,0,2.857,2.857A2.857,2.857,0,0,0,14.286,16.536ZM23.334,12.8a13.705,13.705,0,0,0-18.1,0,.706.706,0,0,0-.025,1.033L6.75,15.355a.729.729,0,0,0,.984.036,10.055,10.055,0,0,1,13.1,0,.728.728,0,0,0,.984-.036l1.538-1.517A.706.706,0,0,0,23.334,12.8Z" transform="translate(0 -2.25)"/>
</svg>
