<svg xmlns="http://www.w3.org/2000/svg" width="30.304" height="30.304" viewBox="0 0 30.304 30.304">
  <g id="yt" transform="translate(0)">
    <g id="Group_2287" data-name="Group 2287">
      <path id="Path_7928" data-name="Path 7928" d="M427.867,39.231a15.152,15.152,0,1,1,15.152-15.152A15.169,15.169,0,0,1,427.867,39.231Z" transform="translate(-412.715 -8.927)" fill="#2f2523"/>
    </g>
    <g id="Group_2289" data-name="Group 2289" transform="translate(6.35 8.963)">
      <g id="Group_2288" data-name="Group 2288" transform="translate(0 0)">
        <path id="Path_7929" data-name="Path 7929" d="M451.394,42.183a3.891,3.891,0,0,0-3.891-3.891H437.41a3.891,3.891,0,0,0-3.891,3.891v4.73A3.891,3.891,0,0,0,437.41,50.8H447.5a3.891,3.891,0,0,0,3.891-3.891Zm-6.368,2.6L441,46.994c-.175.095-.332-.032-.332-.231V42.232c0-.2.162-.328.337-.228l4.053,2.324A.264.264,0,0,1,445.026,44.787Z" transform="translate(-433.519 -38.292)" fill="#fff"/>
      </g>
    </g>
  </g>
</svg>
