<?xml version="1.0" encoding="utf-8"?>
<!-- Generator: Adobe Illustrator 26.2.0, SVG Export Plug-In . SVG Version: 6.00 Build 0)  -->
<svg version="1.1" id="Layer_1" xmlns="http://www.w3.org/2000/svg" xmlns:xlink="http://www.w3.org/1999/xlink" x="0px" y="0px"
	 viewBox="0 0 512 177" style="enable-background:new 0 0 512 177;" xml:space="preserve">
<style type="text/css">
	.st0{fill:#E79225;}
	.st1{fill:#FFF16D;}
	.st2{fill:url(#SVGID_1_);}
	.st3{fill:#FFFFFF;}
	.st4{fill:#009ADA;}
	.st5{fill:#91C9ED;}
	.st6{fill:url(#SVGID_00000125599077216269020510000017251058578540600989_);}
	.st7{fill:#66BF6B;}
	.st8{fill:#98D0A0;}
	.st9{fill:url(#SVGID_00000147183663472930797480000009230541351349137056_);}
	.st10{fill:#760D16;}
	.st11{fill:#EF463E;}
	.st12{fill:url(#SVGID_00000097484881066092352430000017318648308081775526_);}
	.st13{font-family:'MyriadPro-Semibold';}
	.st14{font-size:75.3119px;}
</style>
<g>
	<g>
		<g transform="translate(384.000000, 37.000000)">
			<path class="st0" d="M-2.9-8.5v59.3l-8.2,8V0.8L-2.9-8.5L-2.9-8.5z"/>
			<path class="st1" d="M-56.7-8.4l-8.5,9.2l0.4,0.6l53.3-0.2l0.5-0.4l8.1-9.3L-56.7-8.4L-56.7-8.4z"/>
			
				<linearGradient id="SVGID_1_" gradientUnits="userSpaceOnUse" x1="-415.0683" y1="463.4183" x2="-415.0683" y2="462.9514" gradientTransform="matrix(111 0 0 -118.9 46034.5 55102.1016)">
				<stop  offset="5.618000e-03" style="stop-color:#FFE513"/>
				<stop  offset="1" style="stop-color:#FDB924"/>
			</linearGradient>
			<rect x="-65.2" y="0.8" class="st2" width="54.2" height="58.1"/>
			<path class="st3" d="M-19.2,21.7c-1.1-2.7-2.7-5.1-4.8-7.2c-2-2.1-4.3-3.6-6.8-4.6c-2.5-1-5.2-1.6-8.1-1.6
				c-2.9,0-5.7,0.5-8.2,1.6c-2.5,1-4.8,2.6-6.8,4.6c-2.1,2.1-3.7,4.5-4.7,7.2c-1.1,2.7-1.6,5.6-1.6,8.8c0,3.1,0.5,6.1,1.6,8.8
				c1.1,2.7,2.6,5.2,4.7,7.3c2,2,4.2,3.5,6.7,4.5s5.3,1.6,8.3,1.6c2.9,0,5.6-0.5,8.1-1.6s4.8-2.5,6.8-4.5c2.1-2.2,3.7-4.6,4.8-7.3
				c1.1-2.7,1.6-5.7,1.6-8.8C-17.6,27.4-18.1,24.4-19.2,21.7L-19.2,21.7L-19.2,21.7z M-30.4,40.9c-2.1,2.5-4.9,3.8-8.5,3.8
				c-3.6,0-6.5-1.3-8.6-3.8c-2.1-2.5-3.1-6-3.1-10.4c0-4.5,1.1-8,3.1-10.5c2.1-2.5,4.9-3.8,8.6-3.8c3.6,0,6.4,1.3,8.5,3.8
				c2.1,2.5,3.1,6,3.1,10.5C-27.3,34.9-28.3,38.4-30.4,40.9L-30.4,40.9L-30.4,40.9z"/>
		</g>
		<g transform="translate(257.000000, 27.000000)">
			<path class="st4" d="M56.5-3.3V-3l6.9,53.3l-4.1,11.2l-0.5-0.4L51.7,10l0.1-0.7L56.3-3L56.5-3.3L56.5-3.3z"/>
			<path class="st5" d="M3.1,4.1l53.4-7.4L52,9.5l-0.6,0.7L1.4,17.5l0.2-9.1L3.1,4.1L3.1,4.1z"/>
			
				<linearGradient id="SVGID_00000061449255141865642590000002766988589924260794_" gradientUnits="userSpaceOnUse" x1="-287.7297" y1="473.4052" x2="-287.2842" y2="473.0457" gradientTransform="matrix(122.2 0 0 -121.6 35162.8984 57583.6016)">
				<stop  offset="5.618000e-03" style="stop-color:#008CD2"/>
				<stop  offset="1" style="stop-color:#00649D"/>
			</linearGradient>
			<path style="fill:url(#SVGID_00000061449255141865642590000002766988589924260794_);" d="M52,9.5l7.4,52L6.7,68.9l-7.1-50.3
				l3.1-2.4L52,9.5L52,9.5z"/>
			<path class="st3" d="M43,19.5c-0.2-1.6-0.8-2.8-1.7-3.7c-0.7-0.6-1.6-1-2.6-1c-0.2,0-0.5,0-0.8,0c-1.4,0.2-2.4,0.8-3,1.9
				c-0.5,0.7-0.7,1.7-0.7,2.7c0,0.4,0,0.8,0.1,1.3l1.9,13.5L21,36.5L19.1,23c-0.2-1.6-0.8-2.8-1.7-3.6c-0.7-0.7-1.6-1-2.6-1
				c-0.2,0-0.5,0-0.7,0c-1.4,0.2-2.5,0.8-3.2,1.9c-0.5,0.7-0.7,1.7-0.7,2.7c0,0.4,0,0.8,0.1,1.3l5.2,35.2c0.2,1.6,0.8,2.8,1.8,3.7
				c0.7,0.6,1.6,0.9,2.7,0.9c0.3,0,0.6,0,0.9,0c1.3-0.2,2.3-0.8,2.9-1.9c0.4-0.7,0.6-1.6,0.6-2.6c0-0.4,0-0.8-0.1-1.3l-2.1-13.9
				l15.2-2.2l2.1,13.9c0.2,1.6,0.8,2.8,1.7,3.6c0.7,0.6,1.6,1,2.6,1c0.2,0,0.5,0,0.8,0c1.4-0.2,2.4-0.8,3-1.9
				c0.4-0.7,0.7-1.6,0.7-2.7c0-0.4,0-0.8-0.1-1.3L43,19.5L43,19.5z"/>
		</g>
		<g transform="translate(123.000000, 0.000000)">
			<path class="st7" d="M87.1,10.1l-19,45.2l2.6,19.8l0.1,0l21.4-48L92,26l-4.6-15.2L87.1,10.1L87.1,10.1z"/>
			<path class="st8" d="M87.1,10.1L92,26.7l0.1,0.3l47,21.1l0.1-0.1l-4-15.8L87.1,10.1L87.1,10.1z"/>
			
				<linearGradient id="SVGID_00000111179929188851217500000016300845792793742504_" gradientUnits="userSpaceOnUse" x1="-153.0702" y1="500.6373" x2="-153.0702" y2="500.2964" gradientTransform="matrix(140.4 0 0 -142.7 21596.002 71487.0078)">
				<stop  offset="0" style="stop-color:#26A146"/>
				<stop  offset="1" style="stop-color:#008A52"/>
			</linearGradient>
			<path style="fill:url(#SVGID_00000111179929188851217500000016300845792793742504_);" d="M92,26.7L139.3,48l-21.4,48.4L70.6,75.1
				L92,26.7L92,26.7z"/>
			<path class="st3" d="M124.9,51.9c-1-2.7-2.4-5.1-4.3-7c-1.9-2-4.1-3.5-6.7-4.6s-5.3-1.7-8-1.7h-0.1c-2.7,0-5.4,0.6-8.1,1.8l0,0
				c-2.8,1.2-5.2,2.9-7.2,5.1c-2.1,2.2-3.7,4.8-5,7.8c-1.3,3-2,6-2.1,9v1c0,2.6,0.4,5.2,1.4,7.8c1,2.7,2.4,5,4.3,6.9
				c1.9,2,4.2,3.5,6.9,4.6l0,0c2.6,1.1,5.2,1.7,7.9,1.7h0c2.7,0,5.4-0.6,8-1.7l0,0c2.8-1.2,5.2-2.9,7.3-5.1c2.1-2.2,3.8-4.7,5-7.8
				c1.3-3,2-6,2.1-9v-0.9C126.4,57.1,125.9,54.5,124.9,51.9L124.9,51.9L124.9,51.9z M115.5,66c-1.8,4.2-4.2,7.1-7,8.7
				c-1.6,0.8-3.2,1.3-4.8,1.3c-1.4,0-2.9-0.3-4.4-1c-3.3-1.4-5.4-3.7-6.3-6.9c-0.3-1.1-0.4-2.2-0.4-3.4c0-2.3,0.6-4.9,1.8-7.7
				c1.8-4.3,4.2-7.2,7.1-8.8c1.6-0.9,3.2-1.3,4.8-1.3c1.5,0,2.9,0.3,4.5,1c3.3,1.4,5.3,3.7,6.2,6.9c0.3,1,0.4,2.2,0.4,3.3
				C117.3,60.5,116.7,63.1,115.5,66L115.5,66L115.5,66z"/>
		</g>
		<g transform="translate(0.000000, 15.000000)">
			<path class="st10" d="M187.3,2.8l7.7,51.7l-3.5,18.2L191,72l-7.5-49.9v-1l3.3-17.4L187.3,2.8L187.3,2.8z"/>
			<path class="st11" d="M130.9,29.5l3.7-18.3l52.7-8.5l-3.6,18.6v1.2L131.5,30L130.9,29.5L130.9,29.5z"/>
			
				<linearGradient id="SVGID_00000062164855013295456630000013714536992537833390_" gradientUnits="userSpaceOnUse" x1="-29.4807" y1="485.4302" x2="-29.4132" y2="485.0148" gradientTransform="matrix(124 0 0 -121.6 3813 59054.5938)">
				<stop  offset="0" style="stop-color:#D92231"/>
				<stop  offset="1" style="stop-color:#BA2234"/>
			</linearGradient>
			<path style="fill:url(#SVGID_00000062164855013295456630000013714536992537833390_);" d="M183.7,21.4l7.8,51.3l-52.2,8.2
				l-8.4-51.3L183.7,21.4L183.7,21.4z"/>
			<path class="st3" d="M178.1,64.5c-0.4-0.5-1-0.8-1.7-1.1c-0.7-0.2-1.5-0.3-2.5-0.3c-0.9,0-2,0.1-3.2,0.3l-13.8,2.3
				c0.1-1.1,0.7-2.4,1.6-4.2c1-1.9,2.6-4.2,4.6-6.8l0,0c0.7-0.9,1.2-1.6,1.6-2.1c0.2-0.3,0.6-0.8,1.1-1.4c3.2-4.2,5.1-7.5,5.9-10.2
				c0.4-1.5,0.7-3,0.8-4.5c0-0.4,0-0.8,0-1.2c0-1.1-0.1-2.2-0.3-3.2c-0.1-1-0.4-1.8-0.7-2.4c-0.3-0.6-0.7-1.1-1.2-1.4
				c-0.5-0.3-1.4-0.5-2.4-0.5c-0.8,0-1.9,0.1-3.1,0.3l-15.9,2.7c-1.9,0.3-3.4,0.9-4.3,1.8c-0.7,0.7-1.1,1.6-1.1,2.5
				c0,0.2,0,0.5,0,0.8c0.2,1.4,0.9,2.3,2.1,2.8c0.7,0.3,1.5,0.4,2.4,0.4c0.6,0,1.4,0,2.2-0.2l13.3-2.3c0,0.2,0,0.5,0,0.7
				c0,0.8-0.1,1.7-0.4,2.4c-0.4,1.1-1.4,2.7-3,4.7c-0.4,0.5-1.1,1.4-2.1,2.5c-3.6,4.3-6.2,8.1-7.7,11.1l0,0
				c-1.1,2.2-1.9,4.2-2.3,6.3c-0.2,1.2-0.4,2.3-0.4,3.5c0,0.8,0,1.6,0.2,2.3c0.2,1.1,0.4,2,0.8,2.6c0.3,0.7,0.8,1.2,1.4,1.5
				c0.5,0.3,1.3,0.4,2.3,0.4c1.3,0,3.1-0.2,5.4-0.6l14.5-2.5c2.5-0.4,4.3-1.1,5.4-1.9c0.8-0.7,1.3-1.6,1.3-2.7c0-0.3,0-0.6-0.1-0.9
				C178.8,65.6,178.5,65,178.1,64.5L178.1,64.5L178.1,64.5z"/>
		</g>
	</g>
	<text transform="matrix(1 0 0 1 134.937 148.0547)" class="st13 st14">Creator</text>
</g>
</svg>
