<svg xmlns="http://www.w3.org/2000/svg" width="67.476" height="42.839" viewBox="0 0 67.476 42.839">
  <g id="Distributor_1" data-name="Distributor 1" transform="translate(0 -0.001)">
    <path id="Path_52" data-name="Path 52" d="M-85.734,854.959a13.293,13.293,0,0,1,6.252,11.007c-5.3,1.493-14.268.68-14.268.68l.815-3.532,3.669-5.572Z" transform="translate(94.618 -835.085)" opacity="0.15"/>
    <path id="Path_54" data-name="Path 54" d="M-73.4,854.959a13.293,13.293,0,0,1,6.258,11.007c-5.3,1.493-5.652,0-5.652,0l-3.126-4.755-1.011-3.669Z" transform="translate(122.451 -835.085)" opacity="0.15"/>
    <path id="Path_53" data-name="Path 53" d="M-78.949,833.56s9.808,10.519,10,21.309a26.568,26.568,0,0,1-15.164-.926l-3.4-3.8,2.309-11.007Z" transform="translate(104.955 -812.871)" opacity="0.15"/>
    <path id="Path_15" data-name="Path 15" d="M5.773,0a5.589,5.589,0,0,1,5.773,5.385c0,2.974-1.3,1.123-4.49,1.123S0,8.36,0,5.386A5.589,5.589,0,0,1,5.773,0Z" transform="translate(7.57 5.798)" opacity="0.15"/>
    <path id="Path_51" data-name="Path 51" d="M5.773,0a5.589,5.589,0,0,1,5.773,5.385c0,2.974-1.3,1.123-4.49,1.123S0,8.36,0,5.386A5.589,5.589,0,0,1,5.773,0Z" transform="translate(48.163 5.798)" opacity="0.15"/>
    <path id="Path_50" data-name="Path 50" d="M8.147,0a7.886,7.886,0,0,1,8.147,7.6c0,4.2-1.837,1.583-6.336,1.583S0,11.8,0,7.6A7.886,7.886,0,0,1,8.147,0Z" transform="translate(25.493 0.803)" opacity="0.15"/>
    <g id="_615075" data-name="615075" transform="translate(0 0.001)">
      <g id="Group_16" data-name="Group 16">
        <path id="Path_49" data-name="Path 49" d="M58.356,111.114a7.7,7.7,0,1,0-8.839,0,13.344,13.344,0,0,0-4.553,2.669,17.27,17.27,0,0,0-6.248-3.4,9.759,9.759,0,1,0-10.093,0,17.415,17.415,0,0,0-6.181,3.366,13.456,13.456,0,0,0-4.5-2.617,7.7,7.7,0,1,0-8.839,0A13.522,13.522,0,0,0,0,123.9v.881a.058.058,0,0,0,.053.053H16.381a17.957,17.957,0,0,0-.148,2.256V128a7.1,7.1,0,0,0,7.1,7.1h20.7a7.1,7.1,0,0,0,7.1-7.1V127.1a17.954,17.954,0,0,0-.148-2.256H67.422a.058.058,0,0,0,.053-.053v-.881a13.576,13.576,0,0,0-9.118-12.792ZM48.371,104.8a5.567,5.567,0,1,1,5.674,5.567h-.214a5.559,5.559,0,0,1-5.46-5.567Zm-22.35-2.777a7.624,7.624,0,1,1,8.063,7.61H33.2a7.635,7.635,0,0,1-7.183-7.61ZM7.917,104.8a5.567,5.567,0,1,1,5.674,5.573h-.214a5.569,5.569,0,0,1-5.46-5.567Zm8.839,17.9H2.163A11.407,11.407,0,0,1,13.4,112.51h.157a11.288,11.288,0,0,1,7.277,2.711,17.53,17.53,0,0,0-4.082,7.476Zm32.216,5.314a4.974,4.974,0,0,1-4.966,4.966h-20.7a4.974,4.974,0,0,1-4.966-4.966V127.1A15.335,15.335,0,0,1,33.2,111.786c.148.013.314.013.454.013s.314,0,.454-.013A15.335,15.335,0,0,1,48.972,127.1Zm1.589-5.314a17.483,17.483,0,0,0-4.046-7.424,11.343,11.343,0,0,1,7.343-2.763h.157A11.407,11.407,0,0,1,65.256,122.7Z" transform="translate(0 -92.268)"/>
      </g>
    </g>
  </g>
</svg>
