<svg id="fi-rr-edit-alt" xmlns="http://www.w3.org/2000/svg" width="34" height="34" viewBox="0 0 34 34">
  <path id="Path_18449" data-name="Path 18449" d="M10.958,13.093c-3.282.632-4.909,4.287-5.614,6.565A1.417,1.417,0,0,0,6.7,21.5h5.269A4.25,4.25,0,0,0,16.2,16.86a4.4,4.4,0,0,0-5.242-3.767Z" transform="translate(2.2 5.419)"/>
  <path id="Path_18450" data-name="Path 18450" d="M32.583,12.72a1.417,1.417,0,0,0-1.417,1.417V21.25H25.5a4.25,4.25,0,0,0-4.25,4.25v5.667H7.083a4.25,4.25,0,0,1-4.25-4.25V7.083a4.25,4.25,0,0,1,4.25-4.25H22.726a1.417,1.417,0,1,0,0-2.833H7.083A7.092,7.092,0,0,0,0,7.083V26.917A7.092,7.092,0,0,0,7.083,34H23.153a7.035,7.035,0,0,0,5.008-2.074l3.765-3.765A7.035,7.035,0,0,0,34,23.153V14.137A1.417,1.417,0,0,0,32.583,12.72Zm-6.426,17.2a4.281,4.281,0,0,1-2.074,1.133V25.5A1.417,1.417,0,0,1,25.5,24.083h5.56a4.281,4.281,0,0,1-1.133,2.074Z"/>
  <path id="Path_18451" data-name="Path 18451" d="M16.053,19.658a1.417,1.417,0,0,1-1-2.418L26.176,6.114a1.336,1.336,0,0,0,0-1.891,1.275,1.275,0,0,0-.983-.39,1.322,1.322,0,0,0-.961.445L13.466,16.188a1.417,1.417,0,0,1-2.1-1.9L22.13,2.389A4.178,4.178,0,0,1,25.115,1a4.229,4.229,0,0,1,3.064,1.221,4.175,4.175,0,0,1,0,5.9L17.054,19.244a1.407,1.407,0,0,1-1,.414Z" transform="translate(4.582 0.416)"/>
</svg>
