<svg xmlns="http://www.w3.org/2000/svg" width="38.469" height="31.328" viewBox="0 0 38.469 31.328">
  <g id="book" transform="translate(0 -47.336)">
    <path id="Path_18723" data-name="Path 18723" d="M37.377,52.944c-.072,0-1.558-.053-3.739,0V48.468a1.132,1.132,0,0,0-1.226-1.128c-4.349.363-9.881,2.285-13.178,5.789-3.3-3.5-8.829-5.426-13.178-5.789a1.132,1.132,0,0,0-1.226,1.128V53.06c-1.239-.047-2.411-.08-3.666-.117A1.132,1.132,0,0,0,0,54.075V74.68a1.131,1.131,0,0,0,1.055,1.129c4.5.3,12.04.337,17.735,2.766a1.134,1.134,0,0,0,.888,0c5.7-2.429,13.233-2.463,17.735-2.766a1.131,1.131,0,0,0,1.055-1.129V54.075a1.132,1.132,0,0,0-1.092-1.131Zm-6-3.2V69.132a24.006,24.006,0,0,0-11.009,5.59V55.274C22.842,52.185,27.53,50.323,31.375,49.74Zm-24.281,0c3.845.583,8.534,2.444,11.009,5.533V74.722a24.006,24.006,0,0,0-11.009-5.59ZM2.263,73.615V55.24c.81.024,1.677.051,2.568.085v14.73a1.131,1.131,0,0,0,.923,1.112,22.635,22.635,0,0,1,9.074,3.8A76.645,76.645,0,0,0,2.263,73.615Zm33.943,0A76.645,76.645,0,0,0,23.641,74.97a22.635,22.635,0,0,1,9.074-3.8,1.131,1.131,0,0,0,.923-1.112V55.2c1.041-.023,1.928-.024,2.568-.018v18.43Z" transform="translate(0 0)"/>
    <path id="Path_18724" data-name="Path 18724" d="M135.9,166.91a10.538,10.538,0,0,0-4-1.632,1.131,1.131,0,1,0-.377,2.231,8.25,8.25,0,0,1,3.083,1.258,1.131,1.131,0,0,0,1.294-1.857Z" transform="translate(-120.733 -109.03)"/>
    <path id="Path_18725" data-name="Path 18725" d="M135.789,251.651a12.091,12.091,0,0,0-3.886-1.61,1.131,1.131,0,1,0-.377,2.231,10.1,10.1,0,0,1,3.084,1.31,1.131,1.131,0,0,0,1.18-1.931Z" transform="translate(-120.733 -187.4)"/>
    <path id="Path_18726" data-name="Path 18726" d="M304.245,168.766a8.25,8.25,0,0,1,3.083-1.258,1.131,1.131,0,1,0-.377-2.231,10.537,10.537,0,0,0-4,1.632,1.131,1.131,0,1,0,1.294,1.857Z" transform="translate(-279.652 -109.029)"/>
    <path id="Path_18727" data-name="Path 18727" d="M307.639,250.041a12.087,12.087,0,0,0-3.886,1.61,1.131,1.131,0,1,0,1.179,1.931,10.1,10.1,0,0,1,3.084-1.31,1.131,1.131,0,1,0-.377-2.231Z" transform="translate(-280.34 -187.4)"/>
  </g>
</svg>
