<svg xmlns="http://www.w3.org/2000/svg" width="40" height="33.333" viewBox="0 0 40 33.333">
  <g id="fi-rr-subtitles" transform="translate(0 -2)">
    <path id="Path_18613" data-name="Path 18613" d="M31.667,35.333H8.333A8.343,8.343,0,0,1,0,27V10.333A8.343,8.343,0,0,1,8.333,2H31.667A8.343,8.343,0,0,1,40,10.333V27A8.343,8.343,0,0,1,31.667,35.333Zm-23.333-30a5,5,0,0,0-5,5V27a5,5,0,0,0,5,5H31.667a5,5,0,0,0,5-5V10.333a5,5,0,0,0-5-5Z"/>
    <path id="Path_18614" data-name="Path 18614" d="M25,14.333H11.667a1.667,1.667,0,1,1,0-3.333H25a1.667,1.667,0,0,1,0,3.333Z" transform="translate(6.667 6)"/>
    <path id="Path_18615" data-name="Path 18615" d="M9,14.333H5.667a1.667,1.667,0,1,1,0-3.333H9a1.667,1.667,0,1,1,0,3.333Z" transform="translate(2.667 6)"/>
    <path id="Path_18616" data-name="Path 18616" d="M19,19.333H5.667a1.667,1.667,0,0,1,0-3.333H19a1.667,1.667,0,0,1,0,3.333Z" transform="translate(2.667 9.333)"/>
    <path id="Path_18617" data-name="Path 18617" d="M21,19.333H17.667a1.667,1.667,0,0,1,0-3.333H21a1.667,1.667,0,0,1,0,3.333Z" transform="translate(10.667 9.333)"/>
  </g>
</svg>
