<svg id="fi-rr-edit-alt" xmlns="http://www.w3.org/2000/svg" width="40" height="40" viewBox="0 0 40 40">
  <path id="Path_18449" data-name="Path 18449" d="M11.96,13.108c-3.862.743-5.775,5.043-6.6,7.723A1.667,1.667,0,0,0,6.949,23h6.2a5,5,0,0,0,4.98-5.457,5.178,5.178,0,0,0-6.167-4.432Z" transform="translate(3.519 8.67)"/>
  <path id="Path_18450" data-name="Path 18450" d="M38.333,14.965a1.667,1.667,0,0,0-1.667,1.667V25H30a5,5,0,0,0-5,5v6.667H8.333a5,5,0,0,1-5-5V8.333a5,5,0,0,1,5-5h18.4a1.667,1.667,0,1,0,0-3.333H8.333A8.343,8.343,0,0,0,0,8.333V31.667A8.343,8.343,0,0,0,8.333,40h18.9a8.277,8.277,0,0,0,5.892-2.44l4.43-4.43A8.277,8.277,0,0,0,40,27.238V16.632A1.667,1.667,0,0,0,38.333,14.965ZM30.773,35.2a5.037,5.037,0,0,1-2.44,1.333V30A1.667,1.667,0,0,1,30,28.333h6.542a5.037,5.037,0,0,1-1.333,2.44Z"/>
  <path id="Path_18451" data-name="Path 18451" d="M16.945,22.95a1.667,1.667,0,0,1-1.178-2.845L28.855,7.017a1.572,1.572,0,0,0,0-2.225A1.5,1.5,0,0,0,27.7,4.334a1.555,1.555,0,0,0-1.13.523L13.9,18.869a1.667,1.667,0,0,1-2.473-2.235l12.667-14A4.915,4.915,0,0,1,27.606,1a4.975,4.975,0,0,1,3.6,1.437,4.912,4.912,0,0,1,0,6.938L18.123,22.464a1.655,1.655,0,0,1-1.178.487Z" transform="translate(7.332 0.666)"/>
</svg>
