<svg xmlns="http://www.w3.org/2000/svg" width="33.333" height="40" viewBox="0 0 33.333 40">
  <path id="fi-rr-file-check" d="M31.917,9.227l-5.81-5.81A11.59,11.59,0,0,0,17.858,0H10.333A8.343,8.343,0,0,0,2,8.333V31.667A8.343,8.343,0,0,0,10.333,40H27a8.343,8.343,0,0,0,8.333-8.333V17.475a11.59,11.59,0,0,0-3.417-8.248ZM29.56,11.583a8.363,8.363,0,0,1,1.3,1.75H23.667A1.667,1.667,0,0,1,22,11.667V4.472a8.363,8.363,0,0,1,1.75,1.3ZM32,31.667a5,5,0,0,1-5,5H10.333a5,5,0,0,1-5-5V8.333a5,5,0,0,1,5-5h7.525c.275,0,.538.053.808.078v8.255a5,5,0,0,0,5,5h8.255c.025.27.078.533.078.808Zm-5.46-9.482a1.667,1.667,0,0,1-.058,2.355L20.5,30.23a5,5,0,0,1-7.043-.028l-2.567-2.29a1.668,1.668,0,1,1,2.22-2.49l2.642,2.357a1.667,1.667,0,0,0,2.427.067l6-5.718a1.667,1.667,0,0,1,2.362.058Z" transform="translate(-2)"/>
</svg>
