<svg id="Distributor_1" data-name="Distributor 1" xmlns="http://www.w3.org/2000/svg" width="71" height="45.076" viewBox="0 0 71 45.076">
  <path id="Path_52" data-name="Path 52" d="M-85.315,854.959a13.988,13.988,0,0,1,6.577,11.582c-5.576,1.572-15.014.715-15.014.715l.858-3.718,3.861-5.862Z" transform="translate(94.663 -834.047)" opacity="0.15"/>
  <path id="Path_54" data-name="Path 54" d="M-73.219,854.959a13.988,13.988,0,0,1,6.577,11.582c-5.576,1.572-5.942,0-5.942,0l-3.289-5-1.064-3.861Z" transform="translate(124.828 -834.047)" opacity="0.15"/>
  <path id="Path_53" data-name="Path 53" d="M-78.5,833.56s10.32,11.073,10.524,22.423c-7.9,2.23-15.956-.975-15.956-.975l-3.575-4,2.431-11.582Z" transform="translate(105.866 -811.79)" opacity="0.15"/>
  <path id="Path_15" data-name="Path 15" d="M6.075,0a5.881,5.881,0,0,1,6.075,5.666c0,3.129-1.37,1.181-4.725,1.181S0,8.8,0,5.666A5.881,5.881,0,0,1,6.075,0Z" transform="translate(7.966 6.102)" opacity="0.15"/>
  <path id="Path_51" data-name="Path 51" d="M6.075,0a5.881,5.881,0,0,1,6.075,5.666c0,3.129-1.37,1.181-4.725,1.181S0,8.8,0,5.666A5.881,5.881,0,0,1,6.075,0Z" transform="translate(50.679 6.102)" opacity="0.15"/>
  <path id="Path_50" data-name="Path 50" d="M8.571,0c4.734,0,8.572,3.579,8.572,8S15.21,9.661,10.476,9.661,0,12.411,0,8,3.838,0,8.571,0Z" transform="translate(26.826 0.848)" opacity="0.15"/>
  <g id="_615075" data-name="615075" transform="translate(0 0)">
    <g id="Group_16" data-name="Group 16" transform="translate(0 0)">
      <path id="Path_49" data-name="Path 49" d="M61.4,112.1a8.106,8.106,0,1,0-9.3,0,14.045,14.045,0,0,0-4.79,2.81,18.174,18.174,0,0,0-6.575-3.582,10.269,10.269,0,1,0-10.621,0,18.325,18.325,0,0,0-6.5,3.541,14.159,14.159,0,0,0-4.734-2.754,8.106,8.106,0,1,0-9.3,0A14.228,14.228,0,0,0,0,125.557v.926a.06.06,0,0,0,.056.056H17.237a18.9,18.9,0,0,0-.155,2.374v.954a7.47,7.47,0,0,0,7.473,7.476H46.332a7.47,7.47,0,0,0,7.474-7.474v-.954a18.893,18.893,0,0,0-.155-2.374H70.944a.06.06,0,0,0,.056-.056v-.926a14.284,14.284,0,0,0-9.6-13.46ZM50.9,105.454a5.858,5.858,0,1,1,5.97,5.858h-.225a5.85,5.85,0,0,1-5.746-5.858ZM27.38,102.532a8.022,8.022,0,1,1,8.485,8.007h-.926a8.033,8.033,0,0,1-7.559-8.008ZM8.331,105.454a5.858,5.858,0,1,1,5.97,5.858h-.225a5.859,5.859,0,0,1-5.746-5.858Zm9.3,18.825H2.276A12,12,0,0,1,14.1,113.559h.168a11.878,11.878,0,0,1,7.657,2.852,18.445,18.445,0,0,0-4.3,7.868Zm33.9,5.591A5.234,5.234,0,0,1,46.3,135.1H24.527A5.234,5.234,0,0,1,19.3,129.87v-.954A16.136,16.136,0,0,1,34.939,112.8c.155.014.323.014.477.014s.323,0,.477-.014a16.136,16.136,0,0,1,15.636,16.113Zm1.672-5.591a18.4,18.4,0,0,0-4.256-7.812,11.936,11.936,0,0,1,7.727-2.908h.168a12,12,0,0,1,11.829,10.72Z" transform="translate(0 -92.267)"/>
    </g>
  </g>
</svg>
