<svg xmlns="http://www.w3.org/2000/svg" width="27.641" height="34.888" viewBox="0 0 27.641 34.888">
  <g id="surface1" transform="translate(-0.5)">
    <path id="Path_19891" data-name="Path 19891" d="M19.3.27A.844.844,0,0,0,18.694,0H5.084A4.6,4.6,0,0,0,.5,4.576V30.312a4.6,4.6,0,0,0,4.584,4.576H23.557a4.6,4.6,0,0,0,4.584-4.576V9.876a.907.907,0,0,0-.244-.59Zm.244,2.705L25.3,9.017H21.559a2.007,2.007,0,0,1-2.014-2.006ZM23.557,33.2H5.084a2.919,2.919,0,0,1-2.9-2.891V4.576a2.919,2.919,0,0,1,2.9-2.89H17.86V7.011a3.687,3.687,0,0,0,3.7,3.691h4.9v19.61A2.913,2.913,0,0,1,23.557,33.2Zm0,0"/>
    <path id="Path_19892" data-name="Path 19892" d="M103.886,401.934H90.015a.843.843,0,1,0,0,1.685h13.88a.843.843,0,1,0-.009-1.685Zm0,0" transform="translate(-82.63 -374.546)"/>
    <path id="Path_19893" data-name="Path 19893" d="M123.784,183.056a.837.837,0,0,0,1.23,0l4.938-5.3a.841.841,0,1,0-1.23-1.146l-3.481,3.733v-9.2a.843.843,0,0,0-1.685,0v9.2l-3.472-3.733a.841.841,0,0,0-1.23,1.146Zm0,0" transform="translate(-110.078 -158.693)"/>
  </g>
</svg>
