<svg xmlns="http://www.w3.org/2000/svg" width="26.937" height="34" viewBox="0 0 26.937 34">
  <g id="surface1" transform="translate(-0.5)">
    <path id="Path_18694" data-name="Path 18694" d="M18.822.263A.822.822,0,0,0,18.231,0H4.968A4.486,4.486,0,0,0,.5,4.459V29.54A4.487,4.487,0,0,0,4.968,34h18a4.487,4.487,0,0,0,4.468-4.46V9.625A.884.884,0,0,0,27.2,9.05ZM19.06,2.9,24.67,8.787H21.023A1.956,1.956,0,0,1,19.06,6.833Zm3.909,29.458h-18A2.845,2.845,0,0,1,2.143,29.54V4.459A2.845,2.845,0,0,1,4.968,1.643h12.45v5.19a3.593,3.593,0,0,0,3.605,3.6h4.771V29.54A2.839,2.839,0,0,1,22.969,32.358Zm0,0" transform="translate(0 0)"/>
    <path id="Path_18695" data-name="Path 18695" d="M103.511,401.934H89.993a.821.821,0,0,0,0,1.643h13.526a.821.821,0,1,0-.008-1.643Zm0,0" transform="translate(-82.784 -375.243)"/>
    <path id="Path_18696" data-name="Path 18696" d="M123.652,182.731a.815.815,0,0,0,1.2,0l4.813-5.166a.819.819,0,1,0-1.2-1.117l-3.392,3.638v-8.968a.821.821,0,0,0-1.643,0v8.968l-3.384-3.638a.819.819,0,0,0-1.2,1.117Zm0,0" transform="translate(-110.283 -158.988)"/>
  </g>
</svg>
