<svg xmlns="http://www.w3.org/2000/svg" width="189.402" height="206.953" viewBox="0 0 189.402 206.953">
  <g id="Group_19284" data-name="Group 19284" transform="translate(-19.107 -24.552)">
    <g id="Group_19237" data-name="Group 19237" transform="translate(25.731 117.672)" opacity="0.5">
      <g id="Group_19227" data-name="Group 19227" transform="translate(9.455 9.579)">
        <path id="Path_19840" data-name="Path 19840" d="M66.068,166.657l-5.136,2.7-.313-.709a2.274,2.274,0,0,0-1.888-1.324c-2.179-.008-3.739-3.338-3.911-3.716a53.918,53.918,0,0,0-3.71-6.763,20.085,20.085,0,0,0-5.39-5.4C36.029,144.819,34.269,138.7,34.5,134.727a12.58,12.58,0,0,1,7.1-10.22c4.654-2.446,9.932-2.344,13.773.268,3.26,2.216,6.9,7.15,5.724,18.069a18.555,18.555,0,0,0,1.034,8.074,22.345,22.345,0,0,0,2.535,5.145c1.478,2.167,2.975,4.915,1.52,7.075a3.532,3.532,0,0,0-.333,2.924Zm-4.524.744,2.785-1.463a4.825,4.825,0,0,1,.653-3.607c.747-1.108.269-2.835-1.5-5.438a23.269,23.269,0,0,1-2.717-5.5,19.979,19.979,0,0,1-1.107-8.7c1.1-10.206-2.166-14.724-5.1-16.719-3.347-2.276-8.171-2.347-12.287-.183a11.152,11.152,0,0,0-6.325,9.023c-.209,3.6,1.46,9.2,10.594,15.441a21.513,21.513,0,0,1,5.766,5.775,55.13,55.13,0,0,1,3.825,6.966c.432.954,1.622,2.881,2.607,2.886A3.476,3.476,0,0,1,61.544,167.4Z" transform="translate(-34.481 -122.742)" fill="#292662"/>
      </g>
      <g id="Group_19228" data-name="Group 19228" transform="translate(12.163 18.213)">
        <path id="Path_19841" data-name="Path 19841" d="M45.454,147.77c-6.078-2.92-9.768-10.758-7.9-16.773l1.381.43c-1.673,5.379,1.664,12.408,7.143,15.04Z" transform="translate(-37.069 -130.997)" fill="#292662"/>
      </g>
      <g id="Group_19229" data-name="Group 19229" transform="translate(28.146 37.074)">
        <path id="Path_19842" data-name="Path 19842" d="M62.807,153.668l-8.084,4.182-.664-1.284L60.942,153l-.847-1.947-7.051,3.851-.693-1.269,8.439-4.609Z" transform="translate(-52.351 -149.03)" fill="#292662"/>
      </g>
      <g id="Group_19230" data-name="Group 19230" transform="translate(31.618 43.315)">
        <path id="Path_19843" data-name="Path 19843" d="M65.765,159.636l-7.542,3.9-.664-1.285,6.341-3.276-.847-1.947-6.689,3.659-.694-1.269L63.748,155Z" transform="translate(-55.67 -154.997)" fill="#292662"/>
      </g>
      <g id="Group_19231" data-name="Group 19231" transform="translate(17.041 18.437)">
        <path id="Path_19844" data-name="Path 19844" d="M57.606,150.1l-3.877,2.038-4.644-5.04,1.063-.98,3.891,4.223,1.867-.981-.295-1.083c-1.471-5.354-2.161-7.868-2.094-14.255l-1.821-.8-.669,2.784-3.043-1.085-.8,2.782-2.871-.984-1.285,2.553-1.292-.651,1.853-3.68,2.626.9.808-2.8L50,134.111l.7-2.9,4.282,1.876-.007.481c-.1,6.539.567,8.98,2.035,14.33Z" transform="translate(-41.733 -131.212)" fill="#292662"/>
      </g>
      <g id="Group_19232" data-name="Group 19232" transform="translate(10.561 0.088)">
        <rect id="Rectangle_18021" data-name="Rectangle 18021" width="1.446" height="6.22" transform="translate(0 0.673) rotate(-27.727)" fill="#292662"/>
      </g>
      <g id="Group_19233" data-name="Group 19233" transform="translate(1.039 28.193)">
        <rect id="Rectangle_18022" data-name="Rectangle 18022" width="6.22" height="1.446" transform="translate(0 2.894) rotate(-27.727)" fill="#292662"/>
      </g>
      <g id="Group_19234" data-name="Group 19234" transform="translate(36.625 10.007)">
        <rect id="Rectangle_18023" data-name="Rectangle 18023" width="6.22" height="1.446" transform="translate(0 2.894) rotate(-27.728)" fill="#292662"/>
      </g>
      <g id="Group_19235" data-name="Group 19235" transform="translate(0 13.644)">
        <rect id="Rectangle_18024" data-name="Rectangle 18024" width="1.446" height="6.22" transform="translate(0 1.38) rotate(-72.728)" fill="#292662"/>
      </g>
      <g id="Group_19236" data-name="Group 19236" transform="translate(25.406 0)">
        <rect id="Rectangle_18025" data-name="Rectangle 18025" width="6.22" height="1.445" transform="translate(0 5.94) rotate(-72.729)" fill="#292662"/>
      </g>
    </g>
    <g id="Group_19248" data-name="Group 19248" transform="translate(154.873 24.552)" opacity="0.5">
      <g id="Group_19238" data-name="Group 19238" transform="translate(0 8.824)">
        <path id="Path_19845" data-name="Path 19845" d="M153.045,70.328,148.913,67.8l.374-.527a1.9,1.9,0,0,0,.142-1.92c-.926-1.567.793-4.109.993-4.394a45.215,45.215,0,0,0,3.261-5.553,16.761,16.761,0,0,0,1.565-6.174c.606-9.782,4.242-13.664,7.188-15.2a10.5,10.5,0,0,1,10.362.715,11.194,11.194,0,0,1,5.7,9.99c-.195,3.286-2.175,8.005-10.507,11.832a15.507,15.507,0,0,0-5.347,4.2,18.542,18.542,0,0,0-2.6,4.018c-.923,1.986-2.252,4.235-4.423,4.116a2.946,2.946,0,0,0-2.238,1.012ZM150.578,67.4l2.24,1.37a4.029,4.029,0,0,1,2.866-1.074c1.113.062,2.147-1.021,3.255-3.406a19.424,19.424,0,0,1,2.781-4.3,16.663,16.663,0,0,1,5.766-4.516c7.788-3.578,9.631-7.852,9.805-10.807a10.122,10.122,0,0,0-5.124-8.888,9.312,9.312,0,0,0-9.175-.676c-2.668,1.39-5.969,4.981-6.539,14.2a17.947,17.947,0,0,1-1.674,6.6,45.992,45.992,0,0,1-3.357,5.722c-.5.717-1.372,2.4-.953,3.1A2.9,2.9,0,0,1,150.578,67.4Z" transform="translate(-148.913 -32.988)" fill="#292662"/>
      </g>
      <g id="Group_19239" data-name="Group 19239" transform="translate(8.593 10.717)">
        <path id="Path_19846" data-name="Path 19846" d="M157.172,47.636c-.506-5.607,3.534-11.607,8.647-12.838l.283,1.174c-4.573,1.1-8.184,6.5-7.728,11.555Z" transform="translate(-157.129 -34.798)" fill="#292662"/>
      </g>
      <g id="Group_19240" data-name="Group 19240" transform="translate(5.08 31.866)">
        <path id="Path_19847" data-name="Path 19847" d="M160.226,62.528l-6.456-4.007.637-1.026,5.5,3.412,1.034-1.44-5.777-3.408.613-1.04,6.914,4.079Z" transform="translate(-153.77 -55.019)" fill="#292662"/>
      </g>
      <g id="Group_19241" data-name="Group 19241" transform="translate(2.372 36.944)">
        <path id="Path_19848" data-name="Path 19848" d="M157.2,67.205l-6.02-3.741.637-1.025,5.061,3.145,1.033-1.44-5.485-3.23.613-1.04,6.624,3.9Z" transform="translate(-151.181 -59.874)" fill="#292662"/>
      </g>
      <g id="Group_19242" data-name="Group 19242" transform="translate(9.125 16.889)">
        <path id="Path_19849" data-name="Path 19849" d="M160.757,57.233l-3.12-1.909,1.627-5.485,1.157.342-1.363,4.6,1.5.918.649-.675c3.21-3.344,4.717-4.915,9.324-7.6l-.207-1.647-2.282.711-.523-2.645-2.339.615-.522-2.48-2.382.17-.086-1.2,3.432-.245.477,2.268,2.354-.618.511,2.587,2.377-.741.486,3.874-.348.2a33.981,33.981,0,0,0-9.4,7.589Z" transform="translate(-157.637 -40.699)" fill="#292662"/>
      </g>
      <g id="Group_19243" data-name="Group 19243" transform="translate(26.193 1.754)">
        <rect id="Rectangle_18026" data-name="Rectangle 18026" width="5.193" height="1.207" transform="translate(0 4.43) rotate(-58.547)" fill="#292662"/>
      </g>
      <g id="Group_19244" data-name="Group 19244" transform="translate(2.456 7.899)">
        <rect id="Rectangle_18027" data-name="Rectangle 18027" width="1.207" height="5.193" transform="translate(0 1.03) rotate(-58.549)" fill="#292662"/>
      </g>
      <g id="Group_19245" data-name="Group 19245" transform="translate(30.717 25.633)">
        <rect id="Rectangle_18028" data-name="Rectangle 18028" width="1.207" height="5.193" transform="matrix(0.522, -0.853, 0.853, 0.522, 0, 1.03)" fill="#292662"/>
      </g>
      <g id="Group_19246" data-name="Group 19246" transform="translate(14.158 0)">
        <rect id="Rectangle_18029" data-name="Rectangle 18029" width="1.207" height="5.193" transform="translate(0 0.283) rotate(-13.548)" fill="#292662"/>
      </g>
      <g id="Group_19247" data-name="Group 19247" transform="translate(31.539 13.395)">
        <rect id="Rectangle_18030" data-name="Rectangle 18030" width="5.193" height="1.207" transform="matrix(0.972, -0.234, 0.234, 0.972, 0, 1.217)" fill="#292662"/>
      </g>
    </g>
    <g id="Group_19253" data-name="Group 19253" transform="translate(162.795 134.112)" opacity="0.5">
      <g id="Group_19249" data-name="Group 19249" transform="translate(0.247 22.05)">
        <path id="Path_19850" data-name="Path 19850" d="M181.768,184.444l-2.011-1.872-3.007.583-1,2.228-5.422-.524-.479-2.635-2.8-1.209-2.188,1.231-4.116-3.47,1.248-2.4-1.505-2.493-2.551-.231-1.212-5.139,2.5-1.235.316-2.817-1.942-1.62,2.192-4.806,2.786.4,2.025-2.117-.576-2.383,4.71-2.616,2.011,1.872,3.007-.583,1-2.227,5.421.523.479,2.635,2.8,1.209,2.188-1.231,4.115,3.47-1.247,2.4,1.5,2.493,2.552.232,1.212,5.139-2.5,1.234-.316,2.818,1.942,1.619-2.193,4.806-2.785-.4-2.025,2.116.576,2.383Zm-6.122-2.684,4.6-.888L182,182.51l2.66-1.477-.5-2.055,3.184-3.325,2.419.348,1.2-2.637-1.669-1.391.506-4.518,2.149-1.061-.663-2.812-2.215-.2-2.374-3.934,1.073-2.065-2.314-1.952-1.916,1.077-4.3-1.853-.416-2.293-3.107-.3L174.857,154l-4.6.889-1.759-1.637-2.66,1.477.5,2.054-3.183,3.326-2.42-.348-1.2,2.636,1.668,1.392-.506,4.518-2.149,1.061.663,2.812,2.215.2,2.374,3.935-1.073,2.064,2.314,1.952,1.916-1.077,4.3,1.853.416,2.293,3.108.3Z" transform="translate(-156.723 -150.384)" fill="#292662"/>
      </g>
      <g id="Group_19250" data-name="Group 19250" transform="translate(9.304 30.173)">
        <path id="Path_19851" data-name="Path 19851" d="M178.794,176.058a9.558,9.558,0,0,1-11.2-2.51,9.311,9.311,0,0,1,1.187-13.222,9.52,9.52,0,0,1,13.327,1.18,9.311,9.311,0,0,1-1.187,13.222A9.5,9.5,0,0,1,178.794,176.058Zm-6.578-14.191a6.355,6.355,0,0,0-1.423.89,6.158,6.158,0,0,0-.789,8.752,6.371,6.371,0,0,0,8.912.787,6.157,6.157,0,0,0,.788-8.752A6.392,6.392,0,0,0,172.216,161.867Z" transform="translate(-165.382 -158.15)" fill="#292662"/>
      </g>
      <g id="Group_19251" data-name="Group 19251" transform="translate(19.707)">
        <path id="Path_19852" data-name="Path 19852" d="M183.145,137.774a6.658,6.658,0,0,1,9.275-1.08,6.477,6.477,0,0,1,1.1,9.166,6.658,6.658,0,0,1-9.275,1.08,6.476,6.476,0,0,1-1.1-9.166Zm7.776,16.214.5-2.087,2.27-.909,1.9,1.214,2.374-2.052-.88-1.958,1.284-2,2.3-.085.663-2.976-1.928-1.084-.19-2.323,1.819-1.353-1.3-2.762-2.239.206L195.9,134.06l.643-2.1-2.768-1.494-1.7,1.416-2.386-.527-.777-2.05-3.179.344-.5,2.087-2.269.909-1.9-1.214-2.373,2.052.879,1.958-1.284,2-2.3.085-.664,2.977,1.928,1.083.19,2.324-1.818,1.352,1.3,2.763,2.239-.207,1.592,1.761-.643,2.1,2.767,1.494,1.7-1.415,2.387.526.776,2.051Z" transform="translate(-175.329 -129.302)" fill="#292662" fill-rule="evenodd"/>
      </g>
      <g id="Group_19252" data-name="Group 19252" transform="translate(0 5.368)">
        <path id="Path_19853" data-name="Path 19853" d="M169.094,151.782l-1.614-1.243-1.227.1-.891,1.477-3.5-.643-.233-1.963-.948-.75-1.734.43-2.069-2.849,1.306-1.543-.116-1.1-1.577-.875.642-3.415,2.07-.2.743-.852-.482-1.672,2.955-1.918,1.614,1.242,1.228-.1.89-1.477,3.5.643.235,1.962.947.751,1.735-.43,2.068,2.849-1.305,1.543.115,1.1,1.577.875-.641,3.415-2.071.2-.742.853.481,1.672Zm-3.775-2.65,2.641-.214,1.212.934,1.038-.674-.4-1.374,1.721-1.976,1.514-.143.213-1.131-1.3-.72-.272-2.587.941-1.112-.717-.989-1.455.361-2.063-1.634-.175-1.454-1.289-.237-.744,1.235-2.642.214-1.211-.933-1.039.674.4,1.374-1.718,1.976-1.516.142-.212,1.131,1.3.721.273,2.587-.942,1.112.717.988,1.455-.361,2.064,1.635.174,1.454,1.289.237Z" transform="translate(-156.487 -134.434)" fill="#292662"/>
      </g>
    </g>
    <g id="Group_19265" data-name="Group 19265" transform="translate(19.107 60.268)" opacity="0.5">
      <g id="Group_19263" data-name="Group 19263" transform="translate(0 0)">
        <g id="Group_19254" data-name="Group 19254" transform="translate(0 6.024)">
          <path id="Path_19854" data-name="Path 19854" d="M35.7,103.842a2.422,2.422,0,0,1-1.57-.538c-1.386-1.131-2.531-4.14-3.45-6.557a21.608,21.608,0,0,0-1.139-2.694,24.989,24.989,0,0,1-4.979,1.106l-.1,0c-1.976-.1-4.334-5.346-5.03-7-.226-.411-1.214-2.619,2.037-4.942a47.987,47.987,0,0,1,6.41-3.822L42.806,67.248a2.359,2.359,0,0,1,.379-1.919,2.446,2.446,0,0,1,2.008-.869,3.683,3.683,0,0,1,2.445.923,27.182,27.182,0,0,1,4.194,5.724l.055,0a5.685,5.685,0,0,0,.659-.071c.412-.058.924-.13,1.59-.163l.076,0c1.429,0,1.952,1.883,2.233,2.9.046.165.079.3.109.366.368.719-.34,1.375-1.024,2.011a4.807,4.807,0,0,0-.75.8c1.479,3.244,2.99,7.434,1.889,9.149a1.721,1.721,0,0,1-1.54.79,3.917,3.917,0,0,1-1.332-.272c-3.16-1.148-8.2-12.629-9.573-15.87L30.831,82.314l-7.5,4.116,2.08,5.059,10.4-2.451h.005c.407,0,.5.017,2.246,4.472a39.651,39.651,0,0,1,2.121,6.661c.076.485.28,1.774-.6,2.059-.055.023-.268.156-.438.264A7.127,7.127,0,0,1,35.7,103.842ZM29.656,92.9c.7,0,1.049.83,2.048,3.455.827,2.173,1.96,5.15,3.117,6.095a1.33,1.33,0,0,0,.875.291,6.3,6.3,0,0,0,2.863-1.18,5.351,5.351,0,0,1,.584-.339c.408-1.24-2.668-8.943-3.628-11L24.752,92.774,21.94,85.938l8.31-4.56L44.657,68.91l.291.706c2.456,5.959,6.94,15.126,9.226,15.958a2.9,2.9,0,0,0,.957.206.638.638,0,0,0,.615-.285c.493-.766.225-3.316-2-8.174-.327-.715.365-1.359,1.037-1.982a4.778,4.778,0,0,0,.751-.8,4.965,4.965,0,0,1-.147-.479c-.159-.572-.58-2.09-1.174-2.09-.638.031-1.123.1-1.513.155a6.32,6.32,0,0,1-.812.082,1.046,1.046,0,0,1-.978-.5,26.144,26.144,0,0,0-4.025-5.525,2.582,2.582,0,0,0-1.692-.624A1.408,1.408,0,0,0,44.056,66a1.573,1.573,0,0,0-.109,1.321l.091.344L28.406,80.355a47.489,47.489,0,0,0-6.3,3.754c-2.683,1.915-1.761,3.441-1.722,3.506l.047.088c1.272,3.034,3.216,6.312,4.082,6.356a24.53,24.53,0,0,0,4.958-1.129l.074-.022Z" transform="translate(-19.107 -64.46)" fill="#292662"/>
        </g>
        <g id="Group_19255" data-name="Group 19255" transform="translate(18.995 27.292)">
          <rect id="Rectangle_18031" data-name="Rectangle 18031" width="17.382" height="1.099" transform="translate(0 3.324) rotate(-11.024)" fill="#292662"/>
        </g>
        <g id="Group_19256" data-name="Group 19256" transform="translate(30.01 12.887)">
          <path id="Path_19855" data-name="Path 19855" d="M51.074,79.035l-.425-.557a13.581,13.581,0,0,1-2.809-6.665l-.04-.567,6.15-.225,1.222,2.941ZM49.02,72.3A13.189,13.189,0,0,0,51.11,77.24l2.795-3.46-.678-1.633Z" transform="translate(-47.8 -71.021)" fill="#292662"/>
        </g>
        <g id="Group_19257" data-name="Group 19257" transform="translate(27.229 8.89)">
          <rect id="Rectangle_18032" data-name="Rectangle 18032" width="1.099" height="17.549" transform="translate(0 0.476) rotate(-25.677)" fill="#292662"/>
        </g>
        <g id="Group_19258" data-name="Group 19258" transform="translate(39.279 9.476)">
          <rect id="Rectangle_18033" data-name="Rectangle 18033" width="5.563" height="1.1" transform="matrix(0.845, -0.536, 0.536, 0.845, 0, 2.979)" fill="#292662"/>
        </g>
        <g id="Group_19259" data-name="Group 19259" transform="translate(15.363 3.674)">
          <rect id="Rectangle_18034" data-name="Rectangle 18034" width="1.099" height="5.564" transform="translate(0 0.589) rotate(-32.379)" fill="#292662"/>
        </g>
        <g id="Group_19260" data-name="Group 19260" transform="translate(33.466 32.182)">
          <rect id="Rectangle_18035" data-name="Rectangle 18035" width="1.099" height="5.564" transform="matrix(0.845, -0.535, 0.535, 0.845, 0, 0.589)" fill="#292662"/>
        </g>
        <g id="Group_19261" data-name="Group 19261" transform="translate(29.323)">
          <rect id="Rectangle_18036" data-name="Rectangle 18036" width="5.564" height="1.099" transform="translate(0 5.429) rotate(-77.369)" fill="#292662"/>
        </g>
        <g id="Group_19262" data-name="Group 19262" transform="translate(40.125 23.098)">
          <rect id="Rectangle_18037" data-name="Rectangle 18037" width="1.099" height="5.563" transform="matrix(0.218, -0.976, 0.976, 0.218, 0, 1.073)" fill="#292662"/>
        </g>
      </g>
      <g id="Group_19264" data-name="Group 19264" transform="translate(13.366 25.049)">
        <path id="Path_19856" data-name="Path 19856" d="M33.572,86.924l-1.686-3.832,1.006-.442,1.338,3.039,14.142-2.534.194,1.082Z" transform="translate(-31.886 -82.65)" fill="#292662"/>
      </g>
    </g>
    <g id="Group_19278" data-name="Group 19278" transform="translate(63.508 25.672)" opacity="0.5">
      <g id="Group_19266" data-name="Group 19266">
        <path id="Path_19857" data-name="Path 19857" d="M64.685,57.955,61.559,27.319l.524-.022,41.99-1.675,3.119,28.412ZM62.647,28.262l2.92,28.621L106.1,53.145l-2.91-26.5Z" transform="translate(-61.559 -25.623)" fill="#292662"/>
      </g>
      <g id="Group_19267" data-name="Group 19267" transform="translate(3.378 2.746)">
        <path id="Path_19858" data-name="Path 19858" d="M67.491,55.176l-2.7-25.1L101.4,28.248,104.1,51.8Zm-1.61-24.164,2.486,23.093L103,50.91l-2.477-21.631Z" transform="translate(-64.789 -28.248)" fill="#292662"/>
      </g>
      <g id="Group_19269" data-name="Group 19269" transform="translate(6.328 7.066)">
        <g id="Group_19268" data-name="Group 19268">
          <path id="Path_19859" data-name="Path 19859" d="M69.1,34.829l-1.227,2.25-.261-2.264,1.208-2.435,1.729,2.1.26,2.264L69.1,34.829Zm1.435,16.739L68.586,34.7l.98-.113,1.946,16.866L71.073,52l-.541-.433Zm.541.433-.485.05-.055-.483.541.433Zm4.971-.51L71.073,52l-.1-.98,4.972-.511.1.981Zm22.382-2.3-22.382,2.3-.1-.981,22.382-2.3.1.981Zm-.234-.472-2.235-1.257,2.269-.233,2.418,1.236-2.117,1.7-2.268.233Z" transform="translate(-67.609 -32.379)" fill="#292662" fill-rule="evenodd"/>
        </g>
      </g>
      <g id="Group_19271" data-name="Group 19271" transform="translate(8.658 6.062)">
        <g id="Group_19270" data-name="Group 19270">
          <path id="Path_19860" data-name="Path 19860" d="M75.35,46.615l-5.513-1.189.207-.964,5.514,1.189.233.842-.441.122Zm.441-.122-.188.177-.253-.054.441-.122Zm8.271-7.73-8.271,7.73-.674-.721,8.271-7.73.577-.069.1.79Zm-.674-.721.263-.246.315.177-.577.069Zm5.988,4.088-5.892-3.3.481-.86,5.893,3.3.135.75-.617.111Zm.617-.111-.263.31-.355-.2.617-.111Zm5.03-5.92-5.03,5.92-.752-.638,5.031-5.921.751.639Zm3.329-4.68-1.609,6.557-4.6-3.91Z" transform="translate(-69.837 -31.419)" fill="#292662" fill-rule="evenodd"/>
        </g>
      </g>
      <g id="Group_19272" data-name="Group 19272" transform="translate(12.641 8.206)">
        <rect id="Rectangle_18038" data-name="Rectangle 18038" width="0.657" height="17.532" transform="translate(0 0.086) rotate(-7.511)" fill="#292662"/>
      </g>
      <g id="Group_19273" data-name="Group 19273" transform="translate(17.591 8.029)">
        <rect id="Rectangle_18039" data-name="Rectangle 18039" width="0.658" height="16.94" transform="translate(0 0.072) rotate(-6.306)" fill="#292662"/>
      </g>
      <g id="Group_19274" data-name="Group 19274" transform="translate(27.237 8.534)">
        <rect id="Rectangle_18040" data-name="Rectangle 18040" width="0.657" height="15.758" transform="translate(0 0.078) rotate(-6.781)" fill="#292662"/>
      </g>
      <g id="Group_19275" data-name="Group 19275" transform="translate(22.271 8.136)">
        <rect id="Rectangle_18041" data-name="Rectangle 18041" width="0.657" height="16.262" transform="translate(0 0.075) rotate(-6.542)" fill="#292662"/>
      </g>
      <g id="Group_19276" data-name="Group 19276" transform="translate(12.85 18.682)">
        <path id="Path_19861" data-name="Path 19861" d="M75.43,46.422a1.407,1.407,0,1,0-1.46-1.406A1.436,1.436,0,0,0,75.43,46.422Z" transform="translate(-73.839 -43.479)" fill="#292662" fill-rule="evenodd"/>
        <path id="Path_19862" data-name="Path 19862" d="M75.436,46.56a1.538,1.538,0,1,1,1.591-1.537A1.567,1.567,0,0,1,75.436,46.56Zm0-2.811a1.275,1.275,0,1,0,1.327,1.274A1.3,1.3,0,0,0,75.436,43.749Z" transform="translate(-73.845 -43.485)" fill="#292662"/>
      </g>
      <g id="Group_19277" data-name="Group 19277" transform="translate(21.534 11.237)">
        <path id="Path_19863" data-name="Path 19863" d="M83.733,39.3A1.407,1.407,0,1,0,82.274,37.9,1.437,1.437,0,0,0,83.733,39.3Z" transform="translate(-82.142 -36.361)" fill="#292662" fill-rule="evenodd"/>
        <path id="Path_19864" data-name="Path 19864" d="M83.739,39.44A1.537,1.537,0,1,1,85.331,37.9,1.566,1.566,0,0,1,83.739,39.44Zm0-2.81A1.275,1.275,0,1,0,85.067,37.9,1.3,1.3,0,0,0,83.739,36.63Z" transform="translate(-82.148 -36.367)" fill="#292662"/>
      </g>
    </g>
    <g id="Group_19283" data-name="Group 19283" transform="translate(71.321 33.367)">
      <g id="Group_19279" data-name="Group 19279" transform="translate(11.181 59.908)">
        <path id="Path_19865" data-name="Path 19865" d="M90.358,110.752c.925-6.216,4.624-11.478,9.994-15.146l23.835,3.213,23.74,3.862c4.07,5.073,6.078,11.182,5.153,17.4L150.9,134.745,148.87,148.4l-1.746,11.738-11.1-1.651a37.08,37.08,0,0,1-21.1,2.65A37.09,37.09,0,0,1,95.5,152.461l-11.1-1.65,1.746-11.737,2.03-13.654Z" transform="translate(-79.504 -90.012)" fill="#ffd88d" fill-rule="evenodd"/>
        <path id="Path_19866" data-name="Path 19866" d="M138.2,96.373l8.067,11.736a12.733,12.733,0,0,0,9.9-12.73,12.751,12.751,0,0,1-7.087,4.3,10.407,10.407,0,0,0,1.473-8.925,10.4,10.4,0,0,1-12.348,5.62Z" transform="translate(-77.034 -90.235)" fill="#703215" fill-rule="evenodd"/>
        <path id="Path_19867" data-name="Path 19867" d="M90.186,111l-.826,5.561-1.2,8.093,2.262.337.448-3.015.755-5.078,2.732.406L96,106.212c14.991-4.853,39.805-1.163,52.736,7.842l-1.648,11.089,2.731.407-.755,5.077-.448,3.015,2.261.337,1.2-8.093.827-5.561a20.307,20.307,0,0,0,.222-3.019,21.033,21.033,0,0,0-1.053-6.517c-7.343-22.553-44.733-28.113-58.32-8.673a21.063,21.063,0,0,0-2.9,5.929A20.476,20.476,0,0,0,90.186,111Z" transform="translate(-79.332 -90.258)" fill="#703215" fill-rule="evenodd"/>
        <path id="Path_19868" data-name="Path 19868" d="M88.007,115.174c-2.77-.412-5.424,2-5.927,5.385s1.335,6.464,4.1,6.876l1.636.243,1.823-12.261-1.636-.243ZM154,124.988c2.77.411,4.607,3.49,4.1,6.876s-3.158,5.8-5.928,5.385l-1.635-.244,1.823-12.261Z" transform="translate(-79.614 -89.116)" fill="#ffd88d" fill-rule="evenodd"/>
        <path id="Path_19869" data-name="Path 19869" d="M103.546,120.079c1.481.22,2.388,2.369,2.026,4.8s-1.854,4.221-3.334,4-2.388-2.369-2.027-4.8,1.855-4.221,3.335-4Zm32.474,4.829c1.48.221,2.388,2.369,2.026,4.8s-1.854,4.222-3.335,4-2.387-2.369-2.026-4.8S134.538,124.688,136.019,124.908Z" transform="translate(-78.782 -88.889)" fill="#424242" fill-rule="evenodd"/>
        <path id="Path_19870" data-name="Path 19870" d="M111.975,137.528a15.182,15.182,0,0,0,4.447,3.091,15.2,15.2,0,0,0,5.153-1.663,20.817,20.817,0,0,0-4.669-1.6A20.813,20.813,0,0,0,111.975,137.528Z" transform="translate(-78.238 -88.099)" fill="#d8a94d" fill-rule="evenodd"/>
        <path id="Path_19871" data-name="Path 19871" d="M84.413,158.87c0,18.7,10.83,31.041,16.058,35.908v16.456c0,3.727,9,3.727,9,0V197.121c4.431,0,8.161.188,12.593.188v14.113c0,3.728,9,3.728,9,0V194.967c5.229-4.869,16.059-17.208,16.059-35.908v-1.344l-11.1-1.651a37.08,37.08,0,0,1-21.1,2.65A37.086,37.086,0,0,1,95.5,150.037l-11.089-1.649V158.87Z" transform="translate(-79.503 -87.589)" fill="#424242" fill-rule="evenodd"/>
        <path id="Path_19872" data-name="Path 19872" d="M141.3,178.152c2.876-5.535,4.31-13.582,4.31-19.43v-1.344l-7.351-1.094-3.751-.557-4.332,1.67.286-.138a36.987,36.987,0,0,1-13.091,1.527v9.035c0,3.615,1.964,5.189,6.545,6.545Z" transform="translate(-77.99 -87.252)" fill="#2b2b2b" fill-rule="evenodd"/>
        <path id="Path_19873" data-name="Path 19873" d="M84.413,158.76c0,9.44,3.838,20.795,8.5,26.983l12.567-3.667c3.863-.909,6.545-2.932,6.545-6.545a6.547,6.547,0,0,0-6.545-6.546l-10.867-3.418-3.657-8.229a6.546,6.546,0,0,0-6.545-6.545Z" transform="translate(-79.503 -87.478)" fill="#2b2b2b" fill-rule="evenodd"/>
        <path id="Path_19874" data-name="Path 19874" d="M127.9,158.147a41.408,41.408,0,0,1-25.921-3.491v2.173a25.907,25.907,0,0,0,12.984,21.859A25.882,25.882,0,0,0,127.9,158.147Z" transform="translate(-78.697 -87.301)" fill="#fff" fill-rule="evenodd"/>
        <path id="Path_19875" data-name="Path 19875" d="M104.531,167.519q.18.37.377.744l9.936-7.91,9.936,7.91c.132-.249.257-.5.379-.744l-10.06-8.008-.255-.2-.254.2Z" transform="translate(-78.58 -87.087)" fill="#cac9ca" fill-rule="evenodd"/>
        <path id="Path_19876" data-name="Path 19876" d="M115.388,188.292l-19.742.1c.373.448.782.965,1.144,1.372l18.139-.032h18.86c.361-.407.77-.892,1.143-1.34Z" transform="translate(-78.988 -85.757)" fill="#2b2b2b" fill-rule="evenodd"/>
        <path id="Path_19877" data-name="Path 19877" d="M114.559,160.307l-3.827,3.047,2.1,2.464-1.763,10.221a27.17,27.17,0,0,0,3.492,2.39,27.108,27.108,0,0,0,3.493-2.39l-1.763-10.221,2.1-2.464Z" transform="translate(-78.295 -87.042)" fill="#df4f50" fill-rule="evenodd"/>
        <path id="Path_19878" data-name="Path 19878" d="M79.719,157.265a4.91,4.91,0,1,1,9.819,0v13.284H105.7a4.909,4.909,0,1,1,0,9.818H84.629a4.909,4.909,0,0,1-4.91-4.908Z" transform="translate(-79.719 -87.407)" fill="#424242" fill-rule="evenodd"/>
        <rect id="Rectangle_18042" data-name="Rectangle 18042" width="4.909" height="9.819" transform="translate(18.207 83.142)" fill="#fff"/>
        <path id="Path_19879" data-name="Path 19879" d="M101.82,169.75v9.818h2.863a4.909,4.909,0,1,0,0-9.818Z" transform="translate(-78.704 -86.608)" fill="#ffd88d" fill-rule="evenodd"/>
        <path id="Path_19880" data-name="Path 19880" d="M116.029,210.783c17.342,0,31.4,2.725,31.4,6.085s-14.059,6.085-31.4,6.085-31.4-2.725-31.4-6.085S98.685,210.783,116.029,210.783Z" transform="translate(-79.494 -84.724)" fill="#eaeaea" fill-rule="evenodd"/>
        <path id="Path_19881" data-name="Path 19881" d="M109.08,209.039v7.511h-4.312v-1.995l-3.606,1.995H91.167v-1.235c.019-.268.078-1.331,2.044-2.242,1.866-.864,6.45-3.744,6.91-4.033Z" transform="translate(-79.193 -84.804)" fill="#d37d28" fill-rule="evenodd"/>
        <path id="Path_19882" data-name="Path 19882" d="M120.46,209.039v7.511h4.313v-1.995l3.606,1.995h9.995v-1.235c-.019-.268-.078-1.331-2.044-2.242-1.866-.864-6.45-3.744-6.91-4.033Z" transform="translate(-77.848 -84.804)" fill="#d37d28" fill-rule="evenodd"/>
        <path id="Path_19883" data-name="Path 19883" d="M109.08,214.313h-4.312l-3.606,1.995H91.167v-1.235a1.727,1.727,0,0,1,.221-.759h13.38v1.995h4.312Z" transform="translate(-79.193 -84.562)" fill="#975624" fill-rule="evenodd"/>
        <path id="Path_19884" data-name="Path 19884" d="M124.773,214.313l3.606,1.995h9.995v-1.235a1.727,1.727,0,0,0-.221-.759H120.46v1.995h4.313Z" transform="translate(-77.848 -84.562)" fill="#975624" fill-rule="evenodd"/>
        <path id="Path_19885" data-name="Path 19885" d="M118.936,150.979a4.91,4.91,0,0,1,9.819,0v12.375h11.069v-7.977a4.91,4.91,0,1,1,9.819,0v12.887a4.909,4.909,0,0,1-4.91,4.91H123.846a4.91,4.91,0,0,1-4.91-4.91Z" transform="translate(-77.918 -87.695)" fill="#424242" fill-rule="evenodd"/>
        <rect id="Rectangle_18043" data-name="Rectangle 18043" width="9.819" height="4.909" transform="translate(41.018 66.136)" fill="#fff"/>
        <path id="Path_19886" data-name="Path 19886" d="M119.531,151.05v0Zm-1.55-1.059-12,6.928a41.615,41.615,0,0,0,7.951,1.973q2.046.3,3.965.409.83.045,1.636.06V153.9h9.819v4.332q.838-.213,1.636-.461V151.05a6.546,6.546,0,0,0-13.013-1.011l.008-.048Zm-.086,1.059c0-.056,0-.113,0-.168,0,.057,0,.112,0,.168Zm.052-.834c.007-.053.015-.109.023-.162Z" transform="translate(-78.513 -87.767)" fill="#d8a94d" fill-rule="evenodd"/>
        <path id="Path_19887" data-name="Path 19887" d="M118.936,153.831h9.819V150.97a4.909,4.909,0,0,0-4.91-4.91,5.012,5.012,0,0,0-.8.064,4.909,4.909,0,0,0-4.112,4.846Z" transform="translate(-77.918 -87.696)" fill="#ffd88d" fill-rule="evenodd"/>
      </g>
      <g id="Group_19280" data-name="Group 19280" transform="translate(96.224 41.043)">
        <path id="Path_19888" data-name="Path 19888" d="M169.785,112.611a8.1,8.1,0,0,1-.526-3.141c0-11.175,10.507-12.2,10.507-24.905,0-3.652-1.751-5.04-4.815-5.04s-4.815,1.388-4.815,5.04v5.55h-9.107V85.075c0-8.18,4.815-12.854,14.185-12.854S189.4,76.9,189.4,85.075c0,13.294-11.383,15.338-11.383,24.687a10.584,10.584,0,0,0,.35,2.849Zm8.843,3.579v7.742h-9.281V116.19Z" transform="translate(-161.029 -72.221)" fill="#ffd400"/>
      </g>
      <g id="Group_19281" data-name="Group 19281" transform="translate(0 40.791)">
        <path id="Path_19889" data-name="Path 19889" d="M75.525,101.948a6.031,6.031,0,0,1-.389-2.331c0-8.29,7.8-9.049,7.8-18.478,0-2.709-1.3-3.739-3.573-3.739s-3.573,1.03-3.573,3.739v4.119H69.029V81.518c0-6.069,3.573-9.538,10.524-9.538s10.524,3.468,10.524,9.538c0,9.863-8.445,11.38-8.445,18.316a7.865,7.865,0,0,0,.259,2.114Zm6.562,2.655v5.744H75.2V104.6Z" transform="translate(-69.029 -71.98)" fill="#ffd400"/>
      </g>
      <g id="Group_19282" data-name="Group 19282" transform="translate(43.406)">
        <path id="Path_19890" data-name="Path 19890" d="M118.354,69.075a7.255,7.255,0,0,1-.47-2.807c0-9.985,9.39-10.9,9.39-22.256,0-3.264-1.566-4.5-4.3-4.5s-4.3,1.239-4.3,4.5v4.96h-8.137v-4.5c0-7.31,4.3-11.487,12.675-11.487s12.676,4.177,12.676,11.487c0,11.88-10.173,13.707-10.173,22.06a9.481,9.481,0,0,0,.313,2.547Zm7.9,3.2v6.919h-8.294V72.272Z" transform="translate(-110.529 -32.98)" fill="#ffd400"/>
      </g>
    </g>
  </g>
</svg>
