<svg xmlns="http://www.w3.org/2000/svg" width="30.309" height="30.309" viewBox="0 0 30.309 30.309">
  <g id="Group_64" data-name="Group 64" transform="translate(-1329.5 -4195.436)">
    <path id="Path_45" data-name="Path 45" d="M49.147,440.579l10.4,15.985-10.4.262a15.694,15.694,0,0,1-.559-4.025,67.718,67.718,0,0,1,.362-7.9Z" transform="translate(1281.698 3768.059)" fill="#c1c1c1"/>
    <path id="Subtraction_1" data-name="Subtraction 1" d="M6.634,6.221A1.567,1.567,0,0,1,5.2,5.658C5.4,2.987,7.365,3.57,9.917,3.676s4.786-.3,4.784,2.378v.117a.7.7,0,0,1-.28.049,4.1,4.1,0,0,1-.922-.176,8.721,8.721,0,0,0-2.312-.351,15.606,15.606,0,0,0-2.527.288,13.12,13.12,0,0,1-2.024.242Z" transform="translate(1334.664 4205.947)" fill="#c1c1c1"/>
    <g id="browser" transform="translate(1329.5 4195.436)">
      <path id="Path_16" data-name="Path 16" d="M153.91,213.816l-.316.316-.316-.316a3.568,3.568,0,1,0-5.046,5.046l5.361,5,5.339-4.982.022-.021a3.568,3.568,0,0,0-5.046-5.046Zm3.795,3.775-4.111,3.835-4.111-3.835a1.785,1.785,0,1,1,2.534-2.514l1.577,1.577,1.577-1.577a1.785,1.785,0,1,1,2.534,2.514Z" transform="translate(-138.44 -200.125)"/>
      <path id="Path_17" data-name="Path 17" d="M0,0V30.309H30.309V0ZM28.526,7.132H8.023V1.783h20.5ZM6.24,1.783V7.132H1.783V1.783ZM1.783,28.526V8.914H28.526V28.526Z"/>
      <path id="Path_18" data-name="Path 18" d="M420,60h1.783v1.783H420Z" transform="translate(-395.04 -56.434)"/>
      <path id="Path_19" data-name="Path 19" d="M360,60h1.783v1.783H360Z" transform="translate(-338.605 -56.434)"/>
      <path id="Path_20" data-name="Path 20" d="M300,60h1.783v1.783H300Z" transform="translate(-282.171 -56.434)"/>
    </g>
  </g>
</svg>
