<svg xmlns="http://www.w3.org/2000/svg" width="42.979" height="27.286" viewBox="0 0 42.979 27.286">
  <g id="Distributor_1" data-name="Distributor 1" transform="translate(0 0)">
    <path id="Path_52" data-name="Path 52" d="M-88.644,854.959a8.467,8.467,0,0,1,3.982,7.011c-3.376.951-9.088.433-9.088.433l.519-2.25,2.337-3.549Z" transform="translate(94.303 -842.3)" fill="#c1c1c1"/>
    <path id="Path_54" data-name="Path 54" d="M-74.686,854.959A8.467,8.467,0,0,1-70.7,861.97c-3.376.951-3.6,0-3.6,0l-1.991-3.029-.644-2.337Z" transform="translate(105.927 -842.3)" fill="#c1c1c1"/>
    <path id="Path_53" data-name="Path 53" d="M-82.057,833.56s6.247,6.7,6.37,13.573a16.923,16.923,0,0,1-9.659-.59l-2.164-2.423,1.471-7.011Z" transform="translate(98.622 -820.382)" fill="#c1c1c1"/>
    <path id="Path_15" data-name="Path 15" d="M3.677,0A3.56,3.56,0,0,1,7.354,3.43c0,1.894-.829.715-2.86.715S0,5.324,0,3.43A3.56,3.56,0,0,1,3.677,0Z" transform="translate(4.822 3.694)" fill="#c1c1c1"/>
    <path id="Path_51" data-name="Path 51" d="M3.677,0A3.56,3.56,0,0,1,7.354,3.43c0,1.894-.829.715-2.86.715S0,5.324,0,3.43A3.56,3.56,0,0,1,3.677,0Z" transform="translate(30.678 3.694)" fill="#c1c1c1"/>
    <path id="Path_50" data-name="Path 50" d="M5.189,0a5.023,5.023,0,0,1,5.189,4.84c0,2.673-1.17,1.008-4.036,1.008S0,7.513,0,4.84A5.023,5.023,0,0,1,5.189,0Z" transform="translate(16.238 0.513)" fill="#c1c1c1"/>
    <g id="_615075" data-name="615075">
      <g id="Group_16" data-name="Group 16">
        <path id="Path_49" data-name="Path 49" d="M37.17,104.272a4.907,4.907,0,1,0-5.63,0,8.5,8.5,0,0,0-2.9,1.7,11,11,0,0,0-3.98-2.168,6.216,6.216,0,1,0-6.429,0,11.093,11.093,0,0,0-3.937,2.144,8.571,8.571,0,0,0-2.866-1.667,4.907,4.907,0,1,0-5.63,0A8.613,8.613,0,0,0,0,112.419v.561a.037.037,0,0,0,.034.034h10.4a11.438,11.438,0,0,0-.094,1.437v.578a4.522,4.522,0,0,0,4.523,4.525H28.047a4.522,4.522,0,0,0,4.524-4.524v-.578a11.436,11.436,0,0,0-.094-1.437H42.945a.037.037,0,0,0,.034-.034v-.561a8.647,8.647,0,0,0-5.808-8.148Zm-6.36-4.022a3.546,3.546,0,1,1,3.614,3.546h-.136a3.541,3.541,0,0,1-3.478-3.546ZM16.574,98.481a4.856,4.856,0,1,1,5.136,4.847h-.56a4.863,4.863,0,0,1-4.575-4.847ZM5.043,100.25a3.546,3.546,0,1,1,3.614,3.55H8.521a3.547,3.547,0,0,1-3.478-3.546Zm5.63,11.4h-9.3a7.266,7.266,0,0,1,7.16-6.489h.1a7.19,7.19,0,0,1,4.635,1.727,11.166,11.166,0,0,0-2.6,4.762Zm20.52,3.385A3.168,3.168,0,0,1,28.03,118.2H14.847a3.168,3.168,0,0,1-3.163-3.163v-.578A9.768,9.768,0,0,1,21.15,104.7c.094.008.2.008.289.008s.2,0,.289-.008a9.768,9.768,0,0,1,9.465,9.754Zm1.012-3.385a11.136,11.136,0,0,0-2.577-4.729,7.225,7.225,0,0,1,4.677-1.76h.1a7.266,7.266,0,0,1,7.16,6.489Z" transform="translate(0 -92.267)"/>
      </g>
    </g>
  </g>
</svg>
