<svg xmlns="http://www.w3.org/2000/svg" width="32.202" height="41.997" viewBox="0 0 32.202 41.997">
  <g id="Group_60" data-name="Group 60" transform="translate(-1401 -4257)">
    <path id="Subtraction_1" data-name="Subtraction 1" d="M7.281,7.365A2.328,2.328,0,0,1,5.2,6.586c.291-3.7,3.453-5.745,7.16-5.6S19,3.424,19,7.134V7.3a1.062,1.062,0,0,1-.407.068,6.212,6.212,0,0,1-1.339-.244A13.239,13.239,0,0,0,13.9,6.633a23.728,23.728,0,0,0-3.67.4,19.945,19.945,0,0,1-2.94.334Z" transform="translate(1405 4256.478)" fill="#c1c1c1"/>
    <path id="Path_45" data-name="Path 45" d="M50.1,440.814l9.889,21.476-6.2-3.056A23.626,23.626,0,0,1,49.9,456.6c-.953-3.353-.926-6.181-.827-10.271S50.1,440.814,50.1,440.814Z" transform="translate(1352.294 3832.6)" fill="#c1c1c1"/>
    <g id="shipping" transform="translate(1401 4257)">
      <g id="Group_57" data-name="Group 57" transform="translate(11.199 3.498)">
        <g id="Group_56" data-name="Group 56">
          <path id="Path_9" data-name="Path 9" d="M193.13,42.432a.7.7,0,0,0-1.211.7,3.494,3.494,0,1,1-1.866-1.552.7.7,0,0,0,.468-1.318,4.9,4.9,0,1,0,2.61,2.17Z" transform="translate(-183.985 -39.98)"/>
        </g>
      </g>
      <g id="Group_59" data-name="Group 59">
        <g id="Group_58" data-name="Group 58">
          <path id="Path_10" data-name="Path 10" d="M88.192,13.939a.168.168,0,0,0-.008-.062.7.7,0,0,0-.079-.229h0a.1.1,0,0,1-.011-.013.7.7,0,0,0-.153-.169.55.55,0,0,0-.045-.036c-.013-.009-.024-.021-.038-.029L80.475,9.036c.015-.21.025-.42.025-.636a8.4,8.4,0,0,0-16.8,0c0,.21.009.426.025.636L56.344,13.4A.7.7,0,0,0,56,14V32.2a.7.7,0,0,0,.344.6l15.4,9.1a.577.577,0,0,0,.057.024.554.554,0,0,0,.059.025.624.624,0,0,0,.482,0,.565.565,0,0,0,.06-.025.449.449,0,0,0,.056-.024l15.4-9.1a.7.7,0,0,0,.344-.6V14C88.2,13.979,88.194,13.959,88.192,13.939ZM86.124,14l-3.64,2.151L78.75,13.945a11.8,11.8,0,0,0,1.485-3.425Zm-7.96,6.329,3.616-2.137v4.674L78.164,25Zm-.7-1.213L75.4,17.893A20.988,20.988,0,0,0,77.954,15.1l3.154,1.863ZM72.1,1.4a7.008,7.008,0,0,1,7,7c0,5.063-5.5,9.29-7,10.353-1.5-1.063-7-5.29-7-10.353a7.008,7.008,0,0,1,7-7ZM86.8,31.8l-14,8.273V37.8a.7.7,0,1,0-1.4,0v2.274L57.4,31.8V14.4l6.565-3.879c1.347,5.525,7.468,9.485,7.76,9.67a.7.7,0,0,0,.752,0,20.782,20.782,0,0,0,1.8-1.33l1.81,1.068L72.1,22.287,59.426,14.8a.7.7,0,0,0-.713,1.2L71.4,23.5V35a.7.7,0,1,0,1.4,0V23.5l3.967-2.344V26.23a.7.7,0,0,0,1.056.6l5.016-2.962a.7.7,0,0,0,.344-.6v-5.9L86.8,15.227Z" transform="translate(-56)"/>
        </g>
      </g>
    </g>
  </g>
</svg>
