<svg xmlns="http://www.w3.org/2000/svg" width="28.333" height="34" viewBox="0 0 28.333 34">
  <path id="fi-rr-file-check" d="M27.429,7.843,22.491,2.9A9.851,9.851,0,0,0,15.48,0h-6.4A7.092,7.092,0,0,0,2,7.083V26.917A7.092,7.092,0,0,0,9.083,34H23.25a7.092,7.092,0,0,0,7.083-7.083V14.854a9.851,9.851,0,0,0-2.9-7.011Zm-2,2a7.109,7.109,0,0,1,1.106,1.487H20.417A1.417,1.417,0,0,1,19,9.917V3.8a7.109,7.109,0,0,1,1.487,1.106ZM27.5,26.917a4.25,4.25,0,0,1-4.25,4.25H9.083a4.25,4.25,0,0,1-4.25-4.25V7.083a4.25,4.25,0,0,1,4.25-4.25h6.4c.234,0,.458.045.687.067V9.917a4.25,4.25,0,0,0,4.25,4.25h7.017c.021.229.067.453.067.687Zm-4.641-8.059a1.417,1.417,0,0,1-.05,2L17.725,25.7a4.25,4.25,0,0,1-5.987-.024L9.556,23.725a1.418,1.418,0,1,1,1.887-2.116l2.245,2a1.417,1.417,0,0,0,2.063.057l5.1-4.861a1.417,1.417,0,0,1,2.007.05Z" transform="translate(-2)"/>
</svg>
