<svg id="fi-rr-edit" xmlns="http://www.w3.org/2000/svg" width="34" height="34" viewBox="0 0 34 34">
  <path id="Path_18452" data-name="Path 18452" d="M18.656.93,6.464,13.122A4.966,4.966,0,0,0,5,16.657V18a1,1,0,0,0,1,1H7.343a4.966,4.966,0,0,0,3.535-1.464L23.07,5.344a3.125,3.125,0,0,0,0-4.414,3.194,3.194,0,0,0-4.414,0Zm3,3L9.464,16.122A3.02,3.02,0,0,1,7.343,17H7v-.343a3.02,3.02,0,0,1,.878-2.121L20.07,2.344a1.148,1.148,0,0,1,1.586,0,1.123,1.123,0,0,1,0,1.586Z" transform="translate(10)"/>
  <path id="Path_18453" data-name="Path 18453" d="M32.583,12.72a1.417,1.417,0,0,0-1.417,1.417V21.25H25.5a4.25,4.25,0,0,0-4.25,4.25v5.667H7.083a4.25,4.25,0,0,1-4.25-4.25V7.083a4.25,4.25,0,0,1,4.25-4.25H19.893a1.417,1.417,0,1,0,0-2.833H7.083A7.092,7.092,0,0,0,0,7.083V26.917A7.092,7.092,0,0,0,7.083,34H23.153a7.038,7.038,0,0,0,5.009-2.074l3.763-3.766A7.038,7.038,0,0,0,34,23.153V14.137A1.417,1.417,0,0,0,32.583,12.72Zm-6.425,17.2a4.215,4.215,0,0,1-2.075,1.133V25.5A1.417,1.417,0,0,1,25.5,24.083h5.56a4.273,4.273,0,0,1-1.133,2.074Z"/>
</svg>
