<svg id="fi-rr-print" xmlns="http://www.w3.org/2000/svg" width="34" height="34" viewBox="0 0 34 34">
  <path id="Path_18564" data-name="Path 18564" d="M26.917,8.5V5.667A5.667,5.667,0,0,0,21.25,0h-8.5A5.667,5.667,0,0,0,7.083,5.667V8.5A7.092,7.092,0,0,0,0,15.583v7.083A7.092,7.092,0,0,0,7.083,29.75,4.25,4.25,0,0,0,11.333,34H22.667a4.25,4.25,0,0,0,4.25-4.25A7.092,7.092,0,0,0,34,22.667V15.583A7.092,7.092,0,0,0,26.917,8.5Zm-17-2.833A2.833,2.833,0,0,1,12.75,2.833h8.5a2.833,2.833,0,0,1,2.833,2.833V8.5H9.917ZM24.083,29.75a1.417,1.417,0,0,1-1.417,1.417H11.333A1.417,1.417,0,0,1,9.917,29.75V24.083a1.417,1.417,0,0,1,1.417-1.417H22.667a1.417,1.417,0,0,1,1.417,1.417Zm7.083-7.083a4.25,4.25,0,0,1-4.25,4.25V24.083a4.25,4.25,0,0,0-4.25-4.25H11.333a4.25,4.25,0,0,0-4.25,4.25v2.833a4.25,4.25,0,0,1-4.25-4.25V15.583a4.25,4.25,0,0,1,4.25-4.25H26.917a4.25,4.25,0,0,1,4.25,4.25Z"/>
  <path id="Path_18565" data-name="Path 18565" d="M18,10H16a1,1,0,0,0,0,2h2a1,1,0,0,0,0-2Z" transform="translate(7.5 4.545)"/>
</svg>
