<svg xmlns="http://www.w3.org/2000/svg" width="34" height="34" viewBox="0 0 34 34">
  <path id="fi-rr-time-quarter-to" d="M34,17A17,17,0,1,1,0,17a1.417,1.417,0,0,1,2.833,0A14.167,14.167,0,1,0,17,2.833,1.417,1.417,0,1,1,17,0,17.018,17.018,0,0,1,34,17ZM14.559,15.583H11.333a1.417,1.417,0,1,0,0,2.833h3.226a2.825,2.825,0,1,0,3.858-3.858V9.917a1.417,1.417,0,0,0-2.833,0v4.642a2.833,2.833,0,0,0-1.024,1.024ZM2.588,12.444a1.417,1.417,0,1,0-1.417-1.417A1.417,1.417,0,0,0,2.588,12.444ZM5.98,7.377A1.417,1.417,0,1,0,4.563,5.96,1.417,1.417,0,0,0,5.98,7.377Zm5.04-3.352A1.417,1.417,0,1,0,9.6,2.608,1.417,1.417,0,0,0,11.02,4.025Z"/>
</svg>
