<svg xmlns="http://www.w3.org/2000/svg" width="28.333" height="34" viewBox="0 0 28.333 34">
  <path id="fi-rr-book" d="M23.25,0H9.083A7.092,7.092,0,0,0,2,7.083v21.25A5.667,5.667,0,0,0,7.667,34H23.25a7.092,7.092,0,0,0,7.083-7.083V7.083A7.092,7.092,0,0,0,23.25,0ZM27.5,7.083V22.667h-17V2.833H23.25A4.25,4.25,0,0,1,27.5,7.083ZM7.667,3.077v19.59a5.638,5.638,0,0,0-2.833.761V7.083A4.25,4.25,0,0,1,7.666,3.077ZM23.25,31.167H7.667a2.833,2.833,0,1,1,0-5.667H27.5v1.417A4.25,4.25,0,0,1,23.25,31.167Z" transform="translate(-2)"/>
</svg>
