<svg xmlns="http://www.w3.org/2000/svg" width="34" height="34" viewBox="0 0 34 34">
  <path id="fi-rr-rocket" d="M25.5,9.917A1.417,1.417,0,1,1,24.082,8.5,1.417,1.417,0,0,1,25.5,9.917ZM19.832,12.75a1.417,1.417,0,1,0,1.417,1.417A1.417,1.417,0,0,0,19.832,12.75ZM15.583,17A1.417,1.417,0,1,0,17,18.416,1.417,1.417,0,0,0,15.583,17ZM33.809,4.191l-.106.3c-2.128,5.9-4.169,11.518-8.2,16.5v.255a15.611,15.611,0,0,1-5.1,11.524A4.624,4.624,0,0,1,17.282,34a4.547,4.547,0,0,1-4.533-4.542V27.827A7.014,7.014,0,0,1,9.971,26.14l-.055-.054L6.668,29.334a1.416,1.416,0,1,1-2-2l3.248-3.248-.055-.054a7.055,7.055,0,0,1-1.691-2.779h-1.4A4.768,4.768,0,0,1,0,16.487a4.816,4.816,0,0,1,1.329-3.312A15.472,15.472,0,0,1,12.749,8.5H13C17.991,4.467,23.6,2.426,29.5.3L29.808.19a3.117,3.117,0,0,1,4,4ZM4.764,18.416H5.808A7.083,7.083,0,0,1,7.07,14.946a35.928,35.928,0,0,1,2.563-3.267A12.051,12.051,0,0,0,3.4,15.116a1.993,1.993,0,0,0-.567,1.371A1.932,1.932,0,0,0,4.764,18.416ZM22.241,24.44a36.2,36.2,0,0,1-3.19,2.492,7.059,7.059,0,0,1-3.468,1.241v1.285a1.711,1.711,0,0,0,1.71,1.708,1.8,1.8,0,0,0,1.207-.489,12.749,12.749,0,0,0,3.741-6.237ZM31.076,2.923a.271.271,0,0,0-.307-.068l-.3.11C23.6,5.437,17.676,7.574,12.574,12.675a29.56,29.56,0,0,0-3.185,3.9,4.25,4.25,0,0,0,.472,5.455l2.114,2.111a4.25,4.25,0,0,0,5.452.473,29.489,29.489,0,0,0,3.9-3.185c5.1-5.1,7.239-11.031,9.712-17.9l.108-.3a.272.272,0,0,0-.068-.312Z" transform="translate(0 0.001)"/>
</svg>
