<svg xmlns="http://www.w3.org/2000/svg" width="72" height="72" viewBox="0 0 72 72">
  <g id="Group_18954" data-name="Group 18954" transform="translate(-1219 -1500)">
    <g id="Group_18946" data-name="Group 18946" transform="translate(488 -142)">
      <rect id="Rectangle_17937" data-name="Rectangle 17937" width="72" height="72" rx="5" transform="translate(731 1642)" fill="#ffd400"/>
    </g>
    <path id="fi-rr-laptop" d="M31.169,20.262V10.084A7.092,7.092,0,0,0,24.085,3H9.917a7.092,7.092,0,0,0-7.084,7.084V20.262A4.24,4.24,0,0,0,4.25,28.5h25.5a4.24,4.24,0,0,0,1.417-8.24ZM9.917,5.834H24.085a4.25,4.25,0,0,1,4.25,4.25V20H22.454a2.834,2.834,0,0,0-2.165,1l-.35.414H14.061L13.713,21a2.834,2.834,0,0,0-2.165-1H5.667V10.084a4.25,4.25,0,0,1,4.25-4.25ZM29.752,25.669H4.25a1.417,1.417,0,0,1,0-2.834h7.3l.349.414a2.834,2.834,0,0,0,2.163,1h5.878a2.834,2.834,0,0,0,2.165-1l.35-.414h7.3a1.417,1.417,0,0,1,0,2.834Z" transform="translate(1237.999 1520.249)"/>
  </g>
</svg>
