<svg xmlns="http://www.w3.org/2000/svg" width="72" height="72" viewBox="0 0 72 72">
  <g id="Group_18976" data-name="Group 18976" transform="translate(-242 -1253)">
    <g id="Group_18945" data-name="Group 18945" transform="translate(-489 -389)">
      <rect id="Rectangle_17937" data-name="Rectangle 17937" width="72" height="72" rx="5" transform="translate(731 1642)" fill="#ffd400"/>
    </g>
    <g id="fi-rr-following" transform="translate(262.221 1273.221)">
      <path id="Path_18475" data-name="Path 18475" d="M10.889,15.778A7.889,7.889,0,1,0,3,7.889a7.889,7.889,0,0,0,7.889,7.889Zm0-13.148A5.259,5.259,0,1,1,5.63,7.889,5.259,5.259,0,0,1,10.889,2.63Z" transform="translate(0.944)"/>
      <path id="Path_18476" data-name="Path 18476" d="M11.833,14A11.848,11.848,0,0,0,0,25.833a1.315,1.315,0,0,0,2.63,0,9.2,9.2,0,1,1,18.407,0,1.315,1.315,0,0,0,2.63,0A11.848,11.848,0,0,0,11.833,14Z" transform="translate(0 4.407)"/>
      <path id="Path_18477" data-name="Path 18477" d="M23.89,7.875a2.77,2.77,0,0,0-2.63,2.893,2.77,2.77,0,0,0-2.63-2.893A2.77,2.77,0,0,0,16,10.768c0,2.275,2.966,4.94,4.444,6.126a1.3,1.3,0,0,0,1.63,0c1.478-1.183,4.444-3.851,4.444-6.126A2.77,2.77,0,0,0,23.89,7.875Z" transform="translate(5.036 2.479)"/>
    </g>
  </g>
</svg>
