<svg xmlns="http://www.w3.org/2000/svg" width="34.5" height="27.685" viewBox="0 0 34.5 27.685">
  <g id="review" transform="translate(0.25 -37.941)">
    <g id="Group_16552" data-name="Group 16552" transform="translate(4.718 45.185)">
      <g id="Group_16551" data-name="Group 16551" transform="translate(0 0)">
        <path id="Path_18697" data-name="Path 18697" d="M60.293,117.842a4.344,4.344,0,1,0,1.27,3.07A4.333,4.333,0,0,0,60.293,117.842Zm-.878,5.268v0a3.105,3.105,0,1,1,.91-2.2A3.105,3.105,0,0,1,59.415,123.107Z" transform="translate(-52.876 -116.568)" stroke="#000" stroke-width="0.5"/>
      </g>
    </g>
    <g id="Group_16554" data-name="Group 16554" transform="translate(0 55.296)">
      <g id="Group_16553" data-name="Group 16553" transform="translate(0 0)">
        <path id="Path_18698" data-name="Path 18698" d="M9.294,229.888H8.83A8.855,8.855,0,0,0,0,238.722v.625a.621.621,0,0,0,.621.621H17.5a.621.621,0,0,0,.621-.621v-.625A8.859,8.859,0,0,0,9.294,229.888Zm7.592,8.837H1.239a7.613,7.613,0,0,1,7.592-7.6h.464a7.613,7.613,0,0,1,7.592,7.592v0Z" transform="translate(0 -229.888)" stroke="#000" stroke-width="0.5"/>
      </g>
    </g>
    <g id="Group_16556" data-name="Group 16556" transform="translate(19.529 40.899)">
      <g id="Group_16555" data-name="Group 16555" transform="translate(0 0)">
        <path id="Path_18699" data-name="Path 18699" d="M228,71.643a.622.622,0,0,0-.286-.154l0,0-2.391-.553-1.26-2.1a.617.617,0,0,0-1.071,0l-1.263,2.1-2.391.553a.617.617,0,0,0-.328,1.007l1.61,1.845-.214,2.448a.618.618,0,0,0,.857.625l2.263-.96,2.209.935a.621.621,0,0,0,.91-.6l-.214-2.448,1.592-1.831A.621.621,0,0,0,228,71.643Zm-2.67,2.1a.617.617,0,0,0-.15.457l.146,1.681-1.556-.66a.617.617,0,0,0-.478,0l-1.556.66.146-1.681a.621.621,0,0,0-.189-.493l-1.071-1.239,1.642-.382a.618.618,0,0,0,.407-.307l.857-1.428L224.4,71.8a.617.617,0,0,0,.393.286l1.642.382Z" transform="translate(-218.865 -68.535)" stroke="#000" stroke-width="0.5"/>
      </g>
    </g>
    <g id="Group_16558" data-name="Group 16558" transform="translate(14.387 38.191)">
      <g id="Group_16557" data-name="Group 16557" transform="translate(0 0)">
        <path id="Path_18700" data-name="Path 18700" d="M177.922,40.3a12.25,12.25,0,0,0-13.734,0,6.635,6.635,0,0,0-2.948,5.29,5.832,5.832,0,0,0,.675,2.7,7.24,7.24,0,0,0,1.528,1.974l-1.56,3.234a.617.617,0,0,0,.882.785l3.569-2.209a11.778,11.778,0,0,0,2.109.639,12.919,12.919,0,0,0,2.595.264,11.646,11.646,0,0,0,6.867-2.106,6.223,6.223,0,0,0,.018-10.572Zm-.735,9.58h0a10.4,10.4,0,0,1-6.135,1.863,11.694,11.694,0,0,1-2.349-.232,10.432,10.432,0,0,1-2.142-.689.617.617,0,0,0-.6.05l-2.052,1.271.842-1.785a.621.621,0,0,0-.186-.75,6.172,6.172,0,0,1-1.56-1.888,4.608,4.608,0,0,1-.532-2.142,5.394,5.394,0,0,1,2.438-4.283,11.037,11.037,0,0,1,12.267,0,5.415,5.415,0,0,1,2.438,4.283A5.44,5.44,0,0,1,177.187,49.878Z" transform="translate(-161.24 -38.191)" stroke="#000" stroke-width="0.5"/>
      </g>
    </g>
  </g>
</svg>
