<svg xmlns="http://www.w3.org/2000/svg" width="22.571" height="22.571" viewBox="0 0 22.571 22.571">
  <path id="Instagram" d="M1426.644-627.429a6.642,6.642,0,0,1-4.733-1.775,6.548,6.548,0,0,1-1.911-4.869V-643.4a6.234,6.234,0,0,1,6.6-6.6h9.375a6.48,6.48,0,0,1,4.778,1.865,6.523,6.523,0,0,1,1.821,4.733v9.374a6.514,6.514,0,0,1-1.866,4.824,6.72,6.72,0,0,1-4.778,1.775Zm-3.322-19.295a4.535,4.535,0,0,0-1.229,3.322v9.329a4.572,4.572,0,0,0,1.229,3.367,4.7,4.7,0,0,0,3.322,1.183h9.284a4.7,4.7,0,0,0,3.322-1.183,4.447,4.447,0,0,0,1.319-3.322V-643.4a4.694,4.694,0,0,0-1.229-3.276,4.536,4.536,0,0,0-3.322-1.229h-9.374A4.627,4.627,0,0,0,1423.322-646.723Zm2.139,7.964a5.836,5.836,0,0,1,5.824-5.825,5.865,5.865,0,0,1,5.825,5.825,5.836,5.836,0,0,1-5.825,5.825A5.807,5.807,0,0,1,1425.461-638.76Zm2.093,0a3.749,3.749,0,0,0,3.732,3.732,3.749,3.749,0,0,0,3.732-3.732,3.748,3.748,0,0,0-3.732-3.732A3.748,3.748,0,0,0,1427.554-638.76Zm8.464-5.961a1.319,1.319,0,0,1,1.32-1.32,1.32,1.32,0,0,1,1.319,1.32,1.32,1.32,0,0,1-1.319,1.32A1.32,1.32,0,0,1,1436.018-644.721Z" transform="translate(-1420 650)" fill="#fff"/>
</svg>
