<svg xmlns="http://www.w3.org/2000/svg" width="37.334" height="53.097" viewBox="0 0 37.334 53.097">
  <g id="Location" transform="translate(-76)">
    <g id="Group_124" data-name="Group 124" transform="translate(76)">
      <g id="Group_123" data-name="Group 123" transform="translate(0)">
        <path id="Path_18412" data-name="Path 18412" d="M94.667,0A18.67,18.67,0,0,0,78.786,28.483L93.6,52.362a1.556,1.556,0,0,0,1.322.735h.012a1.555,1.555,0,0,0,1.322-.756l14.44-24.11A18.671,18.671,0,0,0,94.667,0Zm13.364,26.633L94.9,48.553,81.431,26.844a15.566,15.566,0,1,1,26.6-.21Z" transform="translate(-76)"/>
      </g>
    </g>
    <g id="Group_126" data-name="Group 126" transform="translate(85.333 9.333)">
      <g id="Group_125" data-name="Group 125" transform="translate(0)">
        <path id="Path_18413" data-name="Path 18413" d="M175.333,90a9.333,9.333,0,1,0,9.333,9.333A9.344,9.344,0,0,0,175.333,90Zm0,15.577a6.243,6.243,0,1,1,6.233-6.243A6.248,6.248,0,0,1,175.333,105.577Z" transform="translate(-166 -90)"/>
      </g>
    </g>
  </g>
</svg>
