<svg xmlns="http://www.w3.org/2000/svg" width="65" height="61.035" viewBox="0 0 65 61.035">
  <g id="Group_18940" data-name="Group 18940" transform="translate(5283 8798)">
    <path id="Path_53" data-name="Path 53" d="M-77.268,833.56s11.734,12.585,11.965,25.494c-6.026,1.4-18.281,0-18.281,0s-1.353-.973-.558-5.2A89.1,89.1,0,0,1-80.4,842.134Z" transform="translate(-5187.552 -9598.4)" fill="#c1c1c1"/>
    <path id="Path_53-2" data-name="Path 53" d="M-77.268,833.56s11.734,12.585,11.965,25.494a29.482,29.482,0,0,1-11.965,0s-1.514-1.685-.719-5.915,0-12.165,0-12.165Z" transform="translate(-5203.552 -9598.4)" fill="#c1c1c1"/>
    <path id="Path_53-3" data-name="Path 53" d="M-75.2,837.977s9.666,8.168,9.9,21.077c-6.026,1.4-9.661-1.673-9.661-1.673s-3.607-4.461-4.363-8.563a18.109,18.109,0,0,0-3.143-7.136Z" transform="matrix(-0.454, 0.891, -0.891, -0.454, -4520.761, -8321.8)" fill="#c1c1c1"/>
    <g id="open" transform="translate(-5283 -8813.584)">
      <path id="Path_18705" data-name="Path 18705" d="M51.923,129.567H25.93l-5.668-4.447H0v40.937a6.182,6.182,0,0,0,5.98,6.14l45.007.025h0a6.066,6.066,0,0,0,5.842-4.468l8.114-29.9H51.923ZM6.445,168.381H6.055a2.37,2.37,0,0,1-2.239-2.325V128.936H18.944l5.668,4.447h23.5v4.476H17.033L9.391,165.987A3.237,3.237,0,0,1,6.445,168.381Zm53.513-26.707-6.807,25.08a2.242,2.242,0,0,1-2.16,1.652h0l-38.458-.022a7.137,7.137,0,0,0,.542-1.4l6.877-25.313Z" transform="translate(0 -95.603)"/>
      <path id="Path_18706" data-name="Path 18706" d="M278.455,19.4a9.345,9.345,0,0,1,8.973,6.78l-2.262-1.757-2.341,3.014,6.868,5.335,6.868-5.335-2.341-3.014-2.794,2.17a13.146,13.146,0,0,0-26.118,2.137h3.816A9.341,9.341,0,0,1,278.455,19.4Z" transform="translate(-231.562)"/>
      <path id="Path_18707" data-name="Path 18707" d="M0,0H3.816V11.957H0Z" transform="translate(34.931 68.968) rotate(-89.943)"/>
    </g>
  </g>
</svg>
