<svg xmlns="http://www.w3.org/2000/svg" width="46.826" height="46.91" viewBox="0 0 46.826 46.91">
  <path id="Icon_feather-phone-call" data-name="Icon feather-phone-call" d="M30.215,9.862a10.452,10.452,0,0,1,8.257,8.257M30.215,1.5A18.814,18.814,0,0,1,46.834,18.1M44.744,34.78v6.271a4.181,4.181,0,0,1-4.557,4.181,41.371,41.371,0,0,1-18.041-6.418A40.764,40.764,0,0,1,9.6,26.272,41.371,41.371,0,0,1,3.185,8.148,4.181,4.181,0,0,1,7.345,3.59h6.271a4.181,4.181,0,0,1,4.181,3.6,26.841,26.841,0,0,0,1.463,5.874,4.181,4.181,0,0,1-.941,4.411l-2.655,2.655A33.448,33.448,0,0,0,28.208,32.669l2.655-2.655a4.181,4.181,0,0,1,4.411-.941,26.841,26.841,0,0,0,5.874,1.463A4.181,4.181,0,0,1,44.744,34.78Z" transform="translate(-1.666 0.156)" fill="none" stroke="#000" stroke-linecap="round" stroke-linejoin="round" stroke-width="3"/>
</svg>
