<svg xmlns="http://www.w3.org/2000/svg" width="34.007" height="34" viewBox="0 0 34.007 34">
  <path id="fi-rr-time-twenty-four" d="M20.686,30.176c-.425.32-.877.657-1.261.992H22.67a1.417,1.417,0,1,1,0,2.834H17a1.417,1.417,0,0,1-1.417-1.417c0-2.125,1.806-3.48,3.4-4.675,1.063-.8,2.267-1.7,2.267-2.408a1.417,1.417,0,0,0-2.834,0,1.417,1.417,0,1,1-2.834,0,4.25,4.25,0,1,1,8.5,0C24.086,27.626,22.28,28.981,20.686,30.176Zm11.9-8.926a1.417,1.417,0,0,0-1.417,1.417v4.25H29.753A1.417,1.417,0,0,1,28.337,25.5V22.667a1.417,1.417,0,1,0-2.834,0V25.5a4.25,4.25,0,0,0,4.25,4.25H31.17v2.834a1.417,1.417,0,0,0,2.834,0V22.667A1.417,1.417,0,0,0,32.587,21.251ZM18.419,17V9.917a1.417,1.417,0,1,0-2.834,0v5.667h-4.25a1.417,1.417,0,0,0,0,2.834H17A1.417,1.417,0,0,0,18.419,17ZM32.587,2.833A1.417,1.417,0,0,0,31.17,4.25V7.613a17,17,0,1,0-20.35,25.23,1.438,1.438,0,0,0,.516.1,1.417,1.417,0,0,0,.516-2.737A14.168,14.168,0,1,1,29.238,9.917H25.5a1.417,1.417,0,0,0,0,2.834h4.25A4.25,4.25,0,0,0,34,8.5V4.25A1.417,1.417,0,0,0,32.587,2.833Z" transform="translate(0.003 -0.001)"/>
</svg>
