<svg xmlns="http://www.w3.org/2000/svg" width="34" height="34" viewBox="0 0 34 34">
  <g id="Group_16561" data-name="Group 16561" transform="translate(-1370 -3188)">
    <path id="Path_18703" data-name="Path 18703" d="M217.133,183.867h13.6a1.133,1.133,0,0,0,1.133-1.133A14.75,14.75,0,0,0,217.133,168,1.133,1.133,0,0,0,216,169.133v13.6A1.133,1.133,0,0,0,217.133,183.867Zm1.133-13.549A12.485,12.485,0,0,1,229.549,181.6H218.267Z" transform="translate(1172.133 3020)"/>
    <path id="Path_18704" data-name="Path 18704" d="M102.733,229.467a14.733,14.733,0,0,0,14.733-14.733,1.133,1.133,0,0,0-1.133-1.133H103.867V201.133A1.133,1.133,0,0,0,102.733,200a14.733,14.733,0,0,0,0,29.467ZM101.6,202.318v12.416a1.133,1.133,0,0,0,1.133,1.133h12.416A12.47,12.47,0,1,1,101.6,202.318Z" transform="translate(1282 2992.533)"/>
  </g>
</svg>
