<svg xmlns="http://www.w3.org/2000/svg" width="72" height="72" viewBox="0 0 72 72">
  <g id="Group_19364" data-name="Group 19364" transform="translate(-1219 -1588)">
    <g id="Group_18953" data-name="Group 18953" transform="translate(0 -168)">
      <g id="Group_18951" data-name="Group 18951" transform="translate(0 -132)">
        <g id="Group_18950" data-name="Group 18950" transform="translate(976)">
          <g id="Group_18947" data-name="Group 18947" transform="translate(-488 246)">
            <rect id="Rectangle_17937" data-name="Rectangle 17937" width="72" height="72" rx="5" transform="translate(731 1642)" fill="#ffd400"/>
          </g>
        </g>
      </g>
    </g>
    <g id="fi-rr-lock" transform="translate(1239.994 1607.332)">
      <path id="Path_18527" data-name="Path 18527" d="M24.11,10.956V9.1A9.1,9.1,0,1,0,5.9,9.1v1.852A6.5,6.5,0,0,0,2,16.907v7.8a6.511,6.511,0,0,0,6.5,6.5H21.508a6.511,6.511,0,0,0,6.5-6.5v-7.8A6.5,6.5,0,0,0,24.11,10.956ZM8.5,9.1a6.5,6.5,0,1,1,13.006,0v1.3H8.5ZM25.41,24.711a3.9,3.9,0,0,1-3.9,3.9H8.5a3.9,3.9,0,0,1-3.9-3.9v-7.8a3.9,3.9,0,0,1,3.9-3.9H21.508a3.9,3.9,0,0,1,3.9,3.9Z"/>
      <path id="Path_18528" data-name="Path 18528" d="M12.3,14A1.3,1.3,0,0,0,11,15.3v2.6a1.3,1.3,0,0,0,2.6,0V15.3A1.3,1.3,0,0,0,12.3,14Z" transform="translate(2.705 4.208)"/>
    </g>
  </g>
</svg>
