<svg xmlns="http://www.w3.org/2000/svg" width="59.65" height="59.65" viewBox="0 0 59.65 59.65">
  <g id="Group_64" data-name="Group 64" transform="translate(-1329.5 -4195.436)">
    <path id="Path_45" data-name="Path 45" d="M49.693,440.579l20.468,31.459-20.468.516a30.887,30.887,0,0,1-1.1-7.922,133.273,133.273,0,0,1,.712-15.548Z" transform="translate(1282.454 3780.839)" fill="#c1c1c1"/>
    <path id="Subtraction_1" data-name="Subtraction 1" d="M8.022,8.808A3.084,3.084,0,0,1,5.2,7.7c.394-5.257,4.261-4.109,9.283-3.9s9.419-.59,9.415,4.68v.23a1.378,1.378,0,0,1-.551.1,8.069,8.069,0,0,1-1.815-.346,17.164,17.164,0,0,0-4.55-.691,30.714,30.714,0,0,0-4.973.567,25.821,25.821,0,0,1-3.983.476Z" transform="translate(1344.697 4219.558)" fill="#c1c1c1"/>
    <g id="browser" transform="translate(1329.5 4195.436)">
      <path id="Path_16" data-name="Path 16" d="M160.418,214.831l-.622.622-.622-.622a7.022,7.022,0,1,0-9.931,9.931l10.551,9.84,10.507-9.8.043-.041a7.022,7.022,0,0,0-9.931-9.931Zm7.469,7.429-8.091,7.548-8.091-7.548a3.513,3.513,0,1,1,4.987-4.948l3.1,3.1,3.1-3.1a3.513,3.513,0,1,1,4.987,4.948Z" transform="translate(-129.972 -187.886)"/>
      <path id="Path_17" data-name="Path 17" d="M0,0V59.65H59.65V0ZM56.141,14.036H15.79V3.509H56.135ZM12.281,3.509V14.036H3.509V3.509ZM3.509,56.141v-38.6H56.141v38.6Z"/>
      <path id="Path_18" data-name="Path 18" d="M420,60h3.509v3.509H420Z" transform="translate(-370.877 -52.982)"/>
      <path id="Path_19" data-name="Path 19" d="M360,60h3.509v3.509H360Z" transform="translate(-317.893 -52.982)"/>
      <path id="Path_20" data-name="Path 20" d="M300,60h3.509v3.509H300Z" transform="translate(-264.911 -52.982)"/>
    </g>
  </g>
</svg>
