<svg xmlns="http://www.w3.org/2000/svg" width="69.399" height="54.446" viewBox="0 0 69.399 54.446">
  <g id="Supplier" transform="translate(-106.702 -446)">
    <path id="Path_45" data-name="Path 45" d="M50,444l12.98,21.634L50,460.947Z" transform="translate(97.274 33.73)" opacity="0.15"/>
    <path id="Path_48" data-name="Path 48" d="M58.293,460.586,50,444l8.293,3.594Z" transform="translate(116.745 29.764)" opacity="0.15"/>
    <g id="Distributor" transform="translate(106.702 446)">
      <path id="Subtraction_1" data-name="Subtraction 1" d="M1.106,48.99h0l.119-2.044v2.038l-.119.007Zm21.372-2.45H11.025V39.19h4.287a4.3,4.3,0,0,0,3.492-1.8l3.673,9.151Zm-13.9,0h-4.9V39.19h4.9v7.348Zm6.738-9.8H3.675A3.678,3.678,0,0,1,0,33.064a15.841,15.841,0,0,1,3.105-9.438,16.033,16.033,0,0,1,3.479-3.453,15.869,15.869,0,0,1,4.406-2.252l1.653,4.118H8.575v8.575H4.9v2.452H15.313a1.839,1.839,0,1,1,0,3.675Zm.8-6.05h0a4.306,4.306,0,0,0-.8-.075H11.025V24.49h2.6l2.488,6.2Zm-6.04-15.044h0l-.263-.655c.225.18.461.352.7.513q-.213.066-.44.142Zm.732-8.061A2.478,2.478,0,0,1,8.6,6.756a7.35,7.35,0,0,1,14.678.583c0,.057,0,.115,0,.172a1.13,1.13,0,0,1-.433.072,6.611,6.611,0,0,1-1.425-.26,14.089,14.089,0,0,0-3.573-.518,25.251,25.251,0,0,0-3.906.424,21.225,21.225,0,0,1-3.128.356Z" transform="translate(2.45 2.571)" opacity="0.15"/>
      <path id="Path_14" data-name="Path 14" d="M9.9,104.479a9.725,9.725,0,0,0,4.07,10.615A18.406,18.406,0,0,0,1,132.655a6.13,6.13,0,0,0,3.675,5.606v10.32H37.751V132.655A18.406,18.406,0,0,0,24.784,115.1a9.725,9.725,0,0,0,4.07-10.615s-1.69-8.519-11.29-7.352A10.053,10.053,0,0,0,9.9,104.479Zm-2.772,34.3h4.9v7.35h-4.9ZM18.762,130.2H14.475V124.08H23.05V130.2h6.125V146.13h-14.7v-7.35h4.287a4.288,4.288,0,0,0,0-8.575Zm6.738-4.393,1.943,1.943H25.5Zm9.8,6.843V146.13H31.626V128.472l-6.843-6.843H12.025V130.2H8.35v2.452H18.763a1.839,1.839,0,0,1,0,3.675H7.125a3.678,3.678,0,0,1-3.673-3.677,15.925,15.925,0,1,1,31.851,0ZM19.375,114.279a7.35,7.35,0,1,1,7.35-7.351A7.35,7.35,0,0,1,19.375,114.279Z" transform="translate(-1 -97.019)"/>
    </g>
    <g id="_2928550_1_" data-name="2928550 (1)" transform="translate(146.472 463.667)">
      <path id="Path_43" data-name="Path 43" d="M60.622,36.243,53.206,33.37a7.307,7.307,0,1,0-13.785,0l-7.413,2.873a.8.8,0,0,0-.508.742v17.2a.8.8,0,0,0,.509.744l14.017,5.434a.8.8,0,0,0,.288.054.79.79,0,0,0,.284-.059l0,.005,14.018-5.434a.8.8,0,0,0,.508-.744v-17.2a.8.8,0,0,0-.508-.743Zm-2.5.743-2.588,1L51.25,36.338a7.346,7.346,0,0,0,1.264-1.527Zm-8.446.457,3.647,1.4-2.059.8-3.777-1.475a7.258,7.258,0,0,0,2.189-.725Zm2.482,3.564,2.679-1.038v3.324L54.394,43a.8.8,0,0,0-1.016.121l-1.215,1.289ZM46.315,25.251A5.712,5.712,0,1,1,40.6,30.964a5.712,5.712,0,0,1,5.712-5.712ZM40.571,35.464,39.5,35.047l.613-.237a7.322,7.322,0,0,0,.456.656Zm-3.266.436,11.761,4.6-2.751,1.066L34.5,36.985ZM33.1,53.637V38.15l12.422,4.816V58.454Zm14.017,4.817V42.966l3.455-1.34v4.8a.8.8,0,0,0,.5.741.789.789,0,0,0,.294.057.8.8,0,0,0,.581-.252L54.083,44.7l1.123.729a.8.8,0,0,0,1.231-.668v-5.41l3.1-1.2V53.637Z" transform="translate(-31.5 -23.637)"/>
      <path id="Path_44" data-name="Path 44" d="M58.089,39.012A.8.8,0,0,0,59.138,39l3.869-3.477a.8.8,0,1,0-1.067-1.185l-3.351,3.013-1.526-1.29a.8.8,0,1,0-1.03,1.218Z" transform="translate(-44.695 -29.338)"/>
    </g>
  </g>
</svg>
