<svg xmlns="http://www.w3.org/2000/svg" width="22.418" height="18.218" viewBox="0 0 22.418 18.218">
  <path id="Twitter" d="M25.992,12.483a9.151,9.151,0,0,1-2.642.724,4.607,4.607,0,0,0,2.022-2.545,9.207,9.207,0,0,1-2.921,1.117,4.6,4.6,0,0,0-7.837,4.195,13.059,13.059,0,0,1-9.48-4.805,4.605,4.605,0,0,0,1.423,6.141,4.586,4.586,0,0,1-2.083-.576c0,.019,0,.039,0,.058a4.6,4.6,0,0,0,3.69,4.51,4.624,4.624,0,0,1-1.212.161,4.557,4.557,0,0,1-.866-.083,4.6,4.6,0,0,0,4.3,3.194,9.28,9.28,0,0,1-6.809,1.9A13.08,13.08,0,0,0,23.71,15.458q0-.3-.013-.6A9.315,9.315,0,0,0,25.992,12.483Z" transform="translate(-3.574 -10.326)" fill="#fff"/>
</svg>
