<svg xmlns="http://www.w3.org/2000/svg" width="34" height="33.953" viewBox="0 0 34 33.953">
  <g id="upload" transform="translate(0 -0.358)">
    <g id="Group_16591" data-name="Group 16591" transform="translate(0 21.096)">
      <g id="Group_16590" data-name="Group 16590">
        <path id="Path_18721" data-name="Path 18721" d="M31.344,312.642v9.23a1.33,1.33,0,0,1-1.328,1.328H3.984a1.33,1.33,0,0,1-1.328-1.328v-9.23H0v9.23a3.989,3.989,0,0,0,3.984,3.984H30.016A3.989,3.989,0,0,0,34,321.872v-9.23Z" transform="translate(0 -312.642)"/>
      </g>
    </g>
    <g id="Group_16593" data-name="Group 16593" transform="translate(8.747 0.358)">
      <g id="Group_16592" data-name="Group 16592">
        <path id="Path_18722" data-name="Path 18722" d="M139.969.358l-8.253,8.253,1.878,1.878,5.047-5.047v20.7H141.3V5.443l5.047,5.047,1.878-1.878Z" transform="translate(-131.716 -0.358)"/>
      </g>
    </g>
  </g>
</svg>
