<svg xmlns="http://www.w3.org/2000/svg" width="34" height="28.367" viewBox="0 0 34 28.367">
  <path id="fi-rr-headset" d="M29.78,16.785v-2.02a12.765,12.765,0,0,0-25.531,0v2.02A7.092,7.092,0,0,0,7.086,30.368a2.837,2.837,0,0,0,2.837-2.837v-8.51a2.837,2.837,0,0,0-2.837-2.837V14.765a9.929,9.929,0,0,1,19.857,0v1.418a2.837,2.837,0,0,0-2.837,2.837v8.51H19.851a1.418,1.418,0,1,0,0,2.837h7.092A7.092,7.092,0,0,0,29.78,16.785ZM7.086,27.531h0a4.255,4.255,0,1,1,0-8.51Zm19.857,0v-8.51a4.255,4.255,0,0,1,0,8.51Z" transform="translate(-0.014 -2)"/>
</svg>
