<svg xmlns="http://www.w3.org/2000/svg" width="100.765" height="94.214" viewBox="0 0 100.765 94.214">
  <g id="Group_52866" data-name="Group 52866" transform="translate(-0.294 -0.798)">
    <path id="Path_31973" data-name="Path 31973" d="M19.13,1.3a1.72,1.72,0,0,0-1.713,1.713v4.6H11.474A10.694,10.694,0,0,0,.794,18.287V83.831a10.7,10.7,0,0,0,10.68,10.68H89.892a10.685,10.685,0,0,0,10.667-10.68V18.287A10.682,10.682,0,0,0,89.893,7.61h-5.94v-4.6a1.722,1.722,0,0,0-3.444,0v4.6H52.4v-4.6a1.72,1.72,0,0,0-3.44,0v4.6h-28.1v-4.6A1.72,1.72,0,0,0,19.13,1.3ZM11.474,11.05h5.943v4.582a1.72,1.72,0,1,0,3.44,0V11.05h28.1v4.582a1.72,1.72,0,1,0,3.44,0V11.05H80.509v4.582a1.722,1.722,0,1,0,3.444,0V11.05h5.94a7.186,7.186,0,0,1,7.24,7.236V28.6H4.237V18.287A7.183,7.183,0,0,1,11.474,11.05ZM4.237,32.037H97.132V83.832a7.186,7.186,0,0,1-7.24,7.236H11.474a7.183,7.183,0,0,1-7.236-7.236Zm85.419,7.794a1.738,1.738,0,0,0-1.441.611L77.831,52.823,70.9,46.436a1.72,1.72,0,0,0-2.321,2.54l8.251,7.606a1.72,1.72,0,0,0,2.489-.165L90.859,42.654a1.723,1.723,0,0,0-1.2-2.822Zm-75.3,0a1.72,1.72,0,0,0-1.727,1.713V55.759a1.72,1.72,0,0,0,1.727,1.713H28.526a1.72,1.72,0,0,0,1.727-1.713V41.548a1.72,1.72,0,0,0-1.727-1.713Zm29.228,0a1.72,1.72,0,0,0-1.713,1.713V55.759a1.72,1.72,0,0,0,1.713,1.713H57.768a1.72,1.72,0,0,0,1.727-1.713V41.548a1.72,1.72,0,0,0-1.727-1.713Zm-27.515,3.44H26.813V54.029H16.069Zm29.242,0H56.054V54.029H45.31ZM14.356,65.636a1.72,1.72,0,0,0-1.727,1.713V81.56a1.72,1.72,0,0,0,1.727,1.713H28.526a1.72,1.72,0,0,0,1.727-1.713V67.35a1.72,1.72,0,0,0-1.727-1.713Zm29.228,0A1.72,1.72,0,0,0,41.87,67.35V81.56a1.72,1.72,0,0,0,1.713,1.713H57.768a1.72,1.72,0,0,0,1.727-1.713V67.35a1.72,1.72,0,0,0-1.727-1.713Zm29.245,0a1.72,1.72,0,0,0-1.717,1.713V81.56a1.72,1.72,0,0,0,1.717,1.713H87.009a1.72,1.72,0,0,0,1.727-1.713V67.35a1.72,1.72,0,0,0-1.727-1.713Zm-56.759,3.44H26.813V79.83H16.069Zm29.241,0H56.054V79.83H45.31Zm29.245,0H85.3V79.83H74.555Z" transform="translate(0 0)" fill="#4f41b9" stroke="#4f41b9" stroke-width="1"/>
  </g>
</svg>
