<svg id="Group_37" data-name="Group 37" xmlns="http://www.w3.org/2000/svg" xmlns:xlink="http://www.w3.org/1999/xlink" width="102.721" height="85.073" viewBox="0 0 102.721 85.073">
  <defs>
    <clipPath id="clip-path">
      <rect id="Rectangle_46" data-name="Rectangle 46" width="102.721" height="85.073" fill="#4f41b9" stroke="#fff" stroke-width="2"/>
    </clipPath>
  </defs>
  <g id="Group_36" data-name="Group 36" transform="translate(0 0)" clip-path="url(#clip-path)">
    <path id="Path_47" data-name="Path 47" d="M102.35,74.2C99.161,58.336,80.872,48.255,74.963,45.378a32.163,32.163,0,0,0,3.615-14.753C78.578,12.6,67.386,0,51.357,0S24.135,12.6,24.135,30.626A32.41,32.41,0,0,0,27.75,45.378C21.851,48.255,3.557,58.336.373,74.2-.39,77.98.016,80.763,1.61,82.7a6.75,6.75,0,0,0,5.5,2.372H95.585a6.746,6.746,0,0,0,5.493-2.372c1.629-1.942,2.035-4.72,1.272-8.5M51.376,6.809c12.41,0,20.417,9.348,20.417,23.817,0,12.468-9.729,23.822-20.417,23.822S30.959,43.094,30.959,30.626c0-14.469,8.012-23.817,20.417-23.817m44.239,71.46H7.138c-.1,0-.181,0-.245,0a7.33,7.33,0,0,1,.181-2.734C9.789,62.014,27.78,52.892,31.556,51.111c5.053,6.149,12.185,10.135,19.82,10.135s14.767-4,19.82-10.135c3.766,1.771,21.762,10.908,24.467,24.418a17.675,17.675,0,0,1,.289,2.71,1.481,1.481,0,0,1-.338.029" transform="translate(-0.001 0)" fill="#4f41b9" stroke="#fff" stroke-width="2"/>
  </g>
</svg>
