<svg xmlns="http://www.w3.org/2000/svg" width="88.869" height="91.703" viewBox="0 0 88.869 91.703">
  <g id="Group_52867" data-name="Group 52867" transform="translate(0.5 0.5)">
    <path id="Path_31974" data-name="Path 31974" d="M69.62,21.319l-14.7,12.018L41.658,22.722a1.417,1.417,0,0,0-2.126.4L28.195,42.96a1.422,1.422,0,0,0,1.956,1.927L43.487,36.88,56.894,47.609a1.417,1.417,0,0,0,.865.312h.283a1.417,1.417,0,0,0,.964-.723L71.761,23.1a1.426,1.426,0,0,0-2.14-1.786Zm-12.316,23L44.55,34.06a1.417,1.417,0,0,0-1.616-.113L33.41,39.616l7.823-13.691,12.883,10.3a1.417,1.417,0,0,0,1.772,0l10.162-8.305Z" transform="translate(10.269 7.352)" fill="#4f41b9" stroke="#4f41b9" stroke-width="1"/>
    <path id="Path_31975" data-name="Path 31975" d="M84.617,20.841H54.855V8.086A7.086,7.086,0,0,0,47.769,1H8.086A7.086,7.086,0,0,0,1,8.086V84.617A7.086,7.086,0,0,0,8.086,91.7H47.769a7.086,7.086,0,0,0,7.086-7.086V65.952l2.338-2.594H84.617a4.252,4.252,0,0,0,4.252-4.252V25.093A4.252,4.252,0,0,0,84.617,20.841Zm-32.6,63.776a4.252,4.252,0,0,1-4.252,4.252H8.086a4.252,4.252,0,0,1-4.252-4.252V8.086A4.252,4.252,0,0,1,8.086,3.834H47.769a4.252,4.252,0,0,1,4.252,4.252V20.841H36.431a4.252,4.252,0,0,0-4.252,4.252V59.107a4.252,4.252,0,0,0,4.252,4.252h8.5v9.921a1.417,1.417,0,0,0,.907,1.318,1.3,1.3,0,0,0,.51.1,1.417,1.417,0,0,0,1.049-.468l4.62-5.13Zm34.014-25.51a1.417,1.417,0,0,1-1.417,1.417H56.556a1.417,1.417,0,0,0-1.049.468L47.769,69.58V61.941a1.417,1.417,0,0,0-1.417-1.417H36.431a1.417,1.417,0,0,1-1.417-1.417V25.093a1.417,1.417,0,0,1,1.417-1.417H84.617a1.417,1.417,0,0,1,1.417,1.417Z" transform="translate(-1 -1)" fill="#4f41b9" stroke="#4f41b9" stroke-width="1"/>
    <path id="Path_31976" data-name="Path 31976" d="M25.921,59h-8.5a1.417,1.417,0,1,0,0,2.834h8.5a1.417,1.417,0,1,0,0-2.834Z" transform="translate(5.259 23.2)" fill="#4f41b9" stroke="#4f41b9" stroke-width="1"/>
    <path id="Path_31977" data-name="Path 31977" d="M19.417,7.834h2.834a1.417,1.417,0,1,0,0-2.834H19.417a1.417,1.417,0,1,0,0,2.834Z" transform="translate(6.093 0.669)" fill="#4f41b9" stroke="#4f41b9" stroke-width="1"/>
  </g>
</svg>
