<svg xmlns="http://www.w3.org/2000/svg" width="89.4" height="89.403" viewBox="0 0 89.4 89.403">
  <g id="Group_8" data-name="Group 8" transform="translate(1 1)">
    <path id="Path_1" data-name="Path 1" d="M7.281,7.282H18.208V18.209H7.281ZM0,25.49H25.489V0H0Z" transform="translate(0.001 0.004)" fill="#4f41b9" stroke="#fff" stroke-width="2"/>
    <path id="Path_2" data-name="Path 2" d="M7.281,19.8H18.208V30.725H7.281ZM0,38.006H25.489V12.517H0Z" transform="translate(0.001 49.397)" fill="#4f41b9" stroke="#fff" stroke-width="2"/>
    <path id="Path_3" data-name="Path 3" d="M19.8,7.282H30.728V18.209H19.8ZM12.516,25.49H38V0H12.516Z" transform="translate(49.393 0.004)" fill="#4f41b9" stroke="#fff" stroke-width="2"/>
    <path id="Path_4" data-name="Path 4" d="M30.724,6.626V28.479H12.516v7.286H38V6.626Z" transform="translate(49.395 26.148)" fill="#4f41b9" stroke="#fff" stroke-width="2"/>
    <path id="Path_5" data-name="Path 5" d="M12.516,13.989V32.2H19.8V21.27H30.724V32.2H38V13.989Z" transform="translate(49.395 55.204)" fill="#4f41b9" stroke="#fff" stroke-width="2"/>
    <path id="Path_6" data-name="Path 6" d="M6.626,0V7.281H21.193V25.488h7.286V0Z" transform="translate(26.149)" fill="#4f41b9" stroke="#fff" stroke-width="2"/>
    <path id="Path_7" data-name="Path 7" d="M21.193,6.626V21.2H6.626V43.046H21.193V61.253h7.286V35.765H13.917V28.479H28.479V13.912h7.286V21.2h7.281V6.626Z" transform="translate(26.148 26.148)" fill="#4f41b9" stroke="#fff" stroke-width="2"/>
    <rect id="Rectangle_9" data-name="Rectangle 9" width="7.286" height="10.926" transform="translate(32.775 76.474)" fill="#4f41b9" stroke="#fff" stroke-width="2"/>
    <rect id="Rectangle_10" data-name="Rectangle 10" width="10.926" height="7.281" transform="translate(14.568 47.345)" fill="#4f41b9" stroke="#fff" stroke-width="2"/>
    <path id="Path_8" data-name="Path 8" d="M32.774,2.945V21.152H0V43.005H7.286V28.438H40.06V2.945Z" transform="translate(0 11.621)" fill="#4f41b9" stroke="#fff" stroke-width="2"/>
  </g>
</svg>
