<svg xmlns="http://www.w3.org/2000/svg" viewBox="0 0 259 167" enable-background="new 0 0 259 167"><style type="text/css">.st0{fill:#0076BF;} .st1{fill:#8BC53F;}</style><path class="st0" d="M116.3 140.6h-3.9l-6.5-28.3h3.6l3.6 17.7c.4 1.8.7 3.5 1 5.3h.2c.2-1.8.4-3.6.8-5.3l3.6-17.7h3.7l-6.1 28.3zM139.4 127.2v.8c0 2.8.5 9.6 4.4 9.6 3.1 0 3.6-4.4 3.6-6.7h3.7c-.1 4.3-1.7 10-6.9 10-7.4 0-8.4-8.8-8.4-14.5 0-5.1 1.1-14.7 7.9-14.7 6.6 0 7.7 8.7 7.7 13.6v1.7h-12zm8.2-3.1l-.1-.5c-.1-2.7-.2-8.4-4-8.4-3.4 0-4.2 6.4-4.2 8.9h8.3zM170 116h.1c.8-2 2.3-4.2 4.7-4.2v4.2l-.7-.1c-3.7 0-4.1 3.6-4.1 8.1v16.5h-3.6v-28.3h3.6v3.8zM199.6 118.1h-.1c-1-1.5-2.7-2.9-4.7-2.9-2.2 0-3.5 1.7-3.5 3.7 0 2.7 2.3 4.4 4.6 6.2 2.3 1.9 4.6 4 4.6 7.7 0 4.5-3 8.1-7.7 8.1-1.8 0-3.7-.8-5.1-1.9v-4.2c1.4 1.4 2.9 2.8 5 2.8 2.5 0 4.1-1.9 4.1-4.3 0-2.8-2.3-4.7-4.6-6.7s-4.6-4.2-4.6-7.6c0-4.2 2.8-7.2 7.1-7.2 1.8 0 3.5.7 5 1.8v4.5zM229.4 140.6h-3.6v-2.2h-.1c-1 1.6-2.6 2.6-4.7 2.6-4.5 0-6.7-2.5-6.7-14.9 0-6.3.2-14.3 7.1-14.3 2 0 3.3.8 4.4 2.4h.1v-1.9h3.6v28.3zm-7.2-25.8c-4 0-4.2 6.3-4.2 11.1 0 11.7 1.9 12.2 4 12.2 3.5 0 4.1-3.3 4.1-12.1 0-6.2-.4-11.2-3.9-11.2zM134 82.1c-8-1.8-11.7-15.7-8.3-31 1.5-6.5 4-12.1 6.9-16.4l-1.9-1.1c-5.3 4.6-9.8 12.3-11.9 21.5-3.7 16.6-1.7 34.9 11.2 37.8 10.4 2.3 22.6-12.8 26.3-29.4.2-.9.4-1.8.5-2.6l-2.9-.6c-3.7 13.9-12.3 23.5-19.9 21.8z"/><path class="st1" d="M30.9 112.3v17.7c0 3.9.2 7.6 3.7 7.6 3.6 0 3.8-3.7 3.9-7.6v-17.8h3.6v20.8c0 4.7-2.3 7.9-7.4 7.9-5 0-7.4-3.1-7.4-7.9v-20.8h3.6zM61.5 114.5c1.4-1.7 3.4-2.7 5.6-2.7 5 0 5.5 4.6 5.5 8.5v20.2h-3.6v-19.8c0-3.4-.2-6-3.2-6-4.1 0-4.2 4.5-4.2 7.4v18.4h-3.6v-28.3h3.6v2.3zM90.3 106.6c-1.5 0-2.7-1.2-2.7-2.7 0-1.4 1.2-2.6 2.7-2.6 1.4 0 2.6 1.2 2.6 2.6 0 1.5-1.2 2.7-2.6 2.7zm1.8 34h-3.6v-28.3h3.6v28.3zM158.4 45.3c-2.1-.5-4.2.8-4.6 2.9-.5 2.1.8 4.2 2.9 4.6 2.1.5 4.2-.8 4.6-2.9.5-2.1-.8-4.1-2.9-4.6zM142.3 25.4c1.4.3 2.7-.5 3-1.9.3-1.4-.6-2.7-1.9-3-1.4-.3-2.7.5-3 1.9-.3 1.3.5 2.7 1.9 3zM159 31.6c-1.7-.4-3.5.7-3.9 2.5-.4 1.7.7 3.5 2.5 3.9 1.7.4 3.5-.7 3.9-2.5.3-1.8-.8-3.6-2.5-3.9zM135.1 31.1c1 .2 1.9-.4 2.2-1.4.2-1-.4-1.9-1.4-2.2-1-.2-1.9.4-2.2 1.4-.2 1 .5 2 1.4 2.2zM153.2 24.8c1.6.4 3.2-.6 3.5-2.2.4-1.6-.6-3.2-2.2-3.5-1.6-.4-3.2.6-3.5 2.2-.4 1.6.6 3.2 2.2 3.5z"/></svg>