<svg width="48" height="48" viewBox="0 0 48 48" fill="none" xmlns="http://www.w3.org/2000/svg">
<circle cx="24" cy="24" r="24" fill="#F7F7F7"/>
<path d="M10.1818 36H15.2727V23.6394L8 18.1862V33.8187C8 35.0239 8.97636 36 10.1818 36Z" fill="#4285F4"/>
<path d="M32.7271 36H37.818C39.0234 36 39.9998 35.0239 39.9998 33.8187V18.1862L32.7271 23.6394V36Z" fill="#34A853"/>
<path d="M32.7271 14.1872V23.6394L39.9998 18.1862V15.2778C39.9998 12.5821 36.9216 11.0425 34.7634 12.6603L32.7271 14.1872Z" fill="#FBBC04"/>
<path fill-rule="evenodd" clip-rule="evenodd" d="M15.2729 23.6394V14.1872L24.0002 20.731L32.7275 14.1872V23.6394L24.0002 30.1832L15.2729 23.6394Z" fill="#EA4335"/>
<path d="M8 15.2778V18.1862L15.2727 23.6394V14.1872L13.2364 12.6603C11.0782 11.0425 8 12.5821 8 15.2778Z" fill="#C5221F"/>
</svg>
