<?xml version="1.0" encoding="utf-8"?>
<!-- Generator: Adobe Illustrator 22.0.1, SVG Export Plug-In . SVG Version: 6.00 Build 0)  -->
<svg width="48" height="48" version="1.1" id="_x2014_ÎÓÈ_x5F_1" xmlns="http://www.w3.org/2000/svg" xmlns:xlink="http://www.w3.org/1999/xlink"
	 x="0px" y="0px" viewBox="0 0 26 26" style="enable-background:new 0 0 26 26;" xml:space="preserve">
<style type="text/css">
	.st0{fill:#585858;}
	.st1{fill:#FFFFFF;}
</style>
<g>
	<circle class="st0" cx="13" cy="13.1" r="12"/>
	<g>
		<polygon class="st1" points="7.9,12.1 7.9,8.4 7.9,7.1 9.9,7.1 16.2,7.1 18.2,7.1 18.2,8.4 18.2,12.1 19.9,10.9 20.3,10.2 
			20.3,10.2 19.9,9.5 18.8,8.8 18.8,6.5 15.3,6.5 13,5 13,5 10.8,6.5 7.3,6.5 7.3,8.8 6.2,9.5 5.8,10.2 5.8,10.2 6.2,10.9 		"/>
		<path class="st1" d="M20.6,10.8l-0.3,0.5l-4.9,3.2l5.1,4.8c0.1-0.1,0.1-0.2,0.1-0.4V10.8L20.6,10.8z"/>
		<path class="st1" d="M5.8,11.3l-0.3-0.5v0v8.1c0,0.1,0,0.3,0.1,0.4l5.1-4.8L5.8,11.3z"/>
		<path class="st1" d="M13,16.1l-1.9-1.3L6,19.7c0.1,0.1,0.2,0.1,0.4,0.1h13.4c0.1,0,0.3,0,0.4-0.1l-5.2-4.8L13,16.1z"/>
	</g>
	<g>
		<path class="st1" d="M15.3,12.5H16c-0.2,0.4-0.5,0.7-0.9,1c-0.5,0.3-1.1,0.4-1.8,0.4c-0.7,0-1.2-0.1-1.7-0.3
			c-0.5-0.2-0.8-0.6-1.1-1c-0.2-0.5-0.4-0.9-0.4-1.4c0-0.6,0.1-1.1,0.4-1.6c0.3-0.5,0.6-0.9,1.1-1.1c0.5-0.2,1-0.4,1.6-0.4
			c0.5,0,1,0.1,1.4,0.3c0.4,0.2,0.7,0.5,0.9,0.8c0.2,0.4,0.3,0.8,0.3,1.2c0,0.5-0.2,1-0.5,1.4c-0.4,0.5-0.9,0.8-1.5,0.8
			c-0.2,0-0.3,0-0.4-0.1c-0.1-0.1-0.2-0.2-0.2-0.3c-0.2,0.2-0.5,0.3-0.8,0.3c-0.3,0-0.6-0.1-0.8-0.4c-0.2-0.2-0.3-0.5-0.3-0.9
			c0-0.5,0.1-0.9,0.4-1.3c0.3-0.5,0.7-0.7,1.2-0.7c0.4,0,0.6,0.1,0.8,0.4l0.1-0.3h0.8l-0.5,2.2c0,0.1,0,0.2,0,0.3c0,0.1,0,0.1,0,0.1
			c0,0,0.1,0,0.1,0c0.1,0,0.2-0.1,0.4-0.2c0.2-0.2,0.4-0.4,0.5-0.6c0.1-0.3,0.2-0.5,0.2-0.8c0-0.5-0.2-0.9-0.5-1.3
			c-0.4-0.3-0.9-0.5-1.5-0.5c-0.5,0-1,0.1-1.4,0.3c-0.4,0.2-0.7,0.5-0.9,0.9c-0.2,0.4-0.3,0.8-0.3,1.3c0,0.4,0.1,0.8,0.3,1.2
			c0.2,0.3,0.5,0.6,0.9,0.8c0.4,0.2,0.8,0.2,1.3,0.2s0.9-0.1,1.3-0.2C14.8,13,15.1,12.8,15.3,12.5z M12,11.3c0,0.3,0.1,0.5,0.2,0.6
			c0.1,0.1,0.2,0.2,0.4,0.2c0.1,0,0.2,0,0.3-0.1c0.1,0,0.2-0.1,0.2-0.2c0.1-0.1,0.2-0.3,0.3-0.5c0.1-0.2,0.1-0.5,0.1-0.7
			c0-0.2-0.1-0.4-0.2-0.5c-0.1-0.1-0.2-0.2-0.4-0.2c-0.2,0-0.3,0.1-0.5,0.2c-0.2,0.1-0.3,0.3-0.3,0.6C12.1,10.9,12,11.1,12,11.3z"/>
	</g>
</g>
</svg>
