<?xml version="1.0" encoding="UTF-8"?><svg width="48" height="48" id="Layer_2" xmlns="http://www.w3.org/2000/svg" viewBox="0 0 47.79 47.79"><defs><style>.cls-1{fill:#686868;}.cls-2{fill:#eaf3f9;}.cls-3{fill:#fff;}.cls-4{fill:#848484;}.cls-5{fill:#686868;}</style></defs><g id="Layer_1-2"><g><path class="cls-4" d="M47.79,23.89c0,13.19-10.7,23.89-23.9,23.89S0,37.09,0,23.89,10.7,0,23.89,0s23.9,10.7,23.9,23.89Z"/><g><rect class="cls-2" x="10.73" y="14.42" width="26.33" height="18.95"/><polygon class="cls-3" points="10.73 33.37 23.71 23.9 37.06 33.37 10.73 33.37"/><polygon class="cls-5" points="10.73 14.42 23.71 25.93 37.06 14.42 10.73 14.42"/><polygon class="cls-3" points="10.73 14.42 23.71 23.9 37.06 14.42 10.73 14.42"/></g><path class="cls-1" d="M47.79,23.89c0-1.07-.08-2.12-.21-3.16l-10.52-6.11v18.74H11.09l21.79,12.66c8.74-3.55,14.91-12.12,14.91-22.14Z"/></g></g></svg>