<svg width="48" height="48" viewBox="0 0 48 48" fill="none" xmlns="http://www.w3.org/2000/svg">
<circle cx="24" cy="24" r="24" fill="black"/>
<path d="M17.0248 33C12.0403 33 8 28.9716 8 23.9998C8 19.0281 12.0406 15 17.0248 15C22.009 15 26.0499 19.0293 26.0499 23.9998C26.0499 28.9704 22.0093 33 17.0248 33Z" fill="white"/>
<path d="M31.4378 32.4719C28.9457 32.4719 26.9253 28.6778 26.9253 23.9998C26.9253 19.3219 28.9457 15.5278 31.4378 15.5278C33.9299 15.5278 35.9504 19.3219 35.9504 23.9998C35.9504 28.679 33.9299 32.4719 31.4378 32.4719Z" fill="white"/>
<path d="M39.9999 23.9998C39.9999 28.1921 39.2893 31.5904 38.4128 31.5904C37.5364 31.5904 36.8257 28.1909 36.8257 23.9998C36.8257 19.8088 37.5364 16.4093 38.4131 16.4093C39.2899 16.4093 39.9999 19.8079 39.9999 23.9998" fill="white"/>
</svg>
