<svg width="48" height="48" viewBox="0 0 48 48" fill="none" xmlns="http://www.w3.org/2000/svg">
<circle cx="24" cy="24" r="24" fill="url(#paint0_radial_501_11305)"/>
<path fill-rule="evenodd" clip-rule="evenodd" d="M8 23.52C8 14.6023 14.9867 8 24 8C33.0133 8 40 14.6023 40 23.52C40 32.4378 33.0133 39.0401 24 39.0401C22.3811 39.0401 20.8278 38.8263 19.3685 38.425C19.0848 38.3469 18.7831 38.369 18.5139 38.4877L15.3381 39.8897C14.5074 40.2564 13.5697 39.6657 13.5419 38.7578L13.4547 35.9117C13.444 35.561 13.2862 35.2333 13.0249 34.9994C9.91168 32.2153 8 28.1846 8 23.52ZM19.0921 20.6021L14.3921 28.0588C13.941 28.7744 14.8206 29.5808 15.4945 29.0694L20.543 25.2379C20.8845 24.9787 21.3565 24.9773 21.6994 25.2346L25.4377 28.0382C26.5594 28.8796 28.1603 28.5842 28.908 27.398L33.608 19.9413C34.0589 19.2257 33.1794 18.4193 32.5055 18.9306L27.457 22.7621C27.1154 23.0213 26.6435 23.0227 26.3005 22.7654L22.5624 19.9618C21.4406 19.1205 19.8397 19.4159 19.0921 20.6021Z" fill="white"/>
<defs>
<radialGradient id="paint0_radial_501_11305" cx="0" cy="0" r="1" gradientUnits="userSpaceOnUse" gradientTransform="translate(9.23877 47.7433) rotate(-57.0915) scale(52.3006)">
<stop stop-color="#0099FF"/>
<stop offset="0.609754" stop-color="#A033FF"/>
<stop offset="0.934823" stop-color="#FF5280"/>
<stop offset="1" stop-color="#FF7061"/>
</radialGradient>
</defs>
</svg>
