<?xml version="1.0" encoding="iso-8859-1"?>
<!-- Uploaded to: SVG Repo, www.svgrepo.com, Generator: SVG Repo Mixer Tools -->
<svg height="48" width="48" version="1.1" id="Layer_1" xmlns="http://www.w3.org/2000/svg" xmlns:xlink="http://www.w3.org/1999/xlink" 
	 viewBox="0 0 473.935 473.935" xml:space="preserve">
<circle style="fill:#738A8D;" cx="236.967" cy="236.967" r="236.967"/>
<g>
	<path style="fill:#CCE9E9;" d="M327.362,253.48c0,8.808-7.139,15.951-15.951,15.951H162.502c-8.812,0-15.951-7.143-15.951-15.951
		v-65.156c0-8.808,7.139-15.955,15.951-15.955H311.41c8.808,0,15.951,7.147,15.951,15.955V253.48z"/>
	<path style="fill:#CCE9E9;" d="M382.527,316.162c0,14.189-11.502,25.687-25.691,25.687H117.077
		c-14.189,0-25.691-11.499-25.691-25.687V211.269c0-14.185,11.502-25.691,25.691-25.691h239.759
		c14.189,0,25.691,11.506,25.691,25.691V316.162z"/>
</g>
<polygon style="fill:#7BCCC7;" points="334.359,260.507 139.557,260.507 160.964,205.559 312.952,205.559 "/>
<polygon style="fill:#6EBCB5;" points="334.359,260.507 139.557,260.507 160.964,229.11 312.952,229.11 "/>
<path style="fill:#C2DFDD;" d="M382.527,316.162c0,14.189-11.502,25.687-25.691,25.687H117.077
	c-14.189,0-25.691-11.499-25.691-25.687V211.269c69.575,62.084,224.777,66.361,291.141,0V316.162z"/>
<path style="fill:#CDE9E6;" d="M91.386,211.269v10.701c69.575,62.084,224.777,66.361,291.141,0v-10.702
	C316.159,277.633,160.96,273.353,91.386,211.269z"/>
<path style="fill:#B2D0CC;" d="M356.836,341.853H117.077c-14.189,0-25.691-11.499-25.691-25.687v10.705
	c0,14.185,11.502,25.687,25.691,25.687h239.759c14.189,0,25.691-11.502,25.691-25.687v-10.705
	C382.527,330.351,371.024,341.853,356.836,341.853z"/>
<path style="fill:#626463;" d="M318.576,310.572c0,7.824-6.346,14.166-14.166,14.166H170.843c-7.824,0-14.17-6.342-14.17-14.166
	v-14.499c0-7.828,6.346-14.166,14.17-14.166h133.567c7.82,0,14.166,6.339,14.166,14.166V310.572z"/>
<polygon style="fill:#E7E7E7;" points="343.998,380.39 131.348,380.39 168.455,299.751 309.031,299.751 "/>
<polygon style="fill:#DFDFDF;" points="301.895,93.526 170.592,93.526 164.175,229.11 311.171,229.11 "/>
<polygon style="fill:#E7E7E7;" points="301.177,98.518 177.016,97.099 166.569,227.77 309.973,230.419 "/>
<polygon style="fill:#EDEEEF;" points="299.036,104.235 174.876,101.376 164.175,229.11 312.791,231.531 "/>
<g>
	<circle style="fill:#67B4AD;" cx="333.655" cy="211.636" r="7.484"/>
	<circle style="fill:#67B4AD;" cx="356.48" cy="211.636" r="7.484"/>
</g>
<path style="fill:#5CA39B;" d="M319.014,206.24c0,1.598-1.291,2.892-2.889,2.892H159.213c-1.598,0-2.892-1.298-2.892-2.892l0,0
	c0-1.598,1.295-2.889,2.892-2.889h156.916C317.723,203.347,319.014,204.642,319.014,206.24L319.014,206.24z"/>
<polygon style="fill:#C5E2E5;" points="319.96,365.318 220.541,365.318 224.945,324.667 304.855,324.667 "/>
<path style="fill:#6CC077;" d="M316.278,359.859l-10.889-10.627c0,0-3.85-3.899-7.427-3.746c-3.229,0.146-6.986,3.311-7.708,3.94
	l-4.513-3.536c0,0-4.516-4.576-8.711-4.382c-4.198,0.191-9.209,4.771-9.209,4.771l-1.369,1.074l-8.494-6.66
	c0,0-5.549-5.616-10.705-5.381c-5.156,0.228-11.319,5.86-11.319,5.86l-13.253,9.25l-2.14,14.896l98.379-0.041L316.278,359.859z"/>
<g>
	<path style="fill:#67B8CB;" d="M276.952,334.179c0.004-0.067,0.064-0.131,0.064-0.195c0-1.1-1.508-1.987-3.371-1.987
		c-0.243,0-0.46,0.052-0.692,0.082c-0.554-0.584-1.575-0.995-2.791-0.995c-1.579,0-2.833,0.674-3.128,1.553
		c-1.53,0.236-2.679,1.018-2.679,1.991c0,0.924,1.029,1.691,2.432,1.968c0.479,0.849,1.789,1.463,3.375,1.463
		c1.441,0,2.66-0.501,3.237-1.224c0.374,0.094,0.775,0.153,1.209,0.153c1.654,0,2.99-0.782,2.99-1.762
		C277.596,334.834,277.33,334.482,276.952,334.179z"/>
	<path style="fill:#67B8CB;" d="M292.701,336.675c-0.011-0.052-0.056-0.09-0.056-0.142c0-0.775,1.078-1.411,2.398-1.411
		c0.172,0,0.322,0.037,0.49,0.06c0.4-0.412,1.123-0.703,1.983-0.703c1.123,0,2.013,0.475,2.223,1.1
		c1.089,0.172,1.908,0.726,1.908,1.422c0,0.659-0.73,1.194-1.729,1.399c-0.341,0.599-1.268,1.033-2.402,1.033
		c-1.022,0-1.882-0.359-2.297-0.868c-0.266,0.067-0.55,0.108-0.857,0.108c-1.175,0-2.125-0.554-2.125-1.253
		C292.237,337.135,292.428,336.884,292.701,336.675z"/>
</g>
<polygon style="opacity:0.15;fill:#626463;enable-background:new    ;" points="160.261,316.372 168.455,299.751 309.031,299.751 
	317.367,316.372 "/>
<polygon style="fill:#447A74;" points="213.14,364.779 158.192,364.779 173.181,324.903 218.225,324.903 "/>
</svg>