<svg width="48" height="48" viewBox="0 0 48 48" fill="none" xmlns="http://www.w3.org/2000/svg">
<circle cx="24" cy="24" r="24" fill="#00ADEF"/>
<path d="M39.4156 21.3227C38.505 24.0738 36.5199 27.4398 33.4616 31.4194C29.1103 37.1394 25.4288 40 22.4174 40C20.5519 40 18.9727 38.2583 17.6836 34.7748L15.1001 25.1954C14.1426 21.7119 13.1163 19.9689 12.017 19.9689C11.7777 19.9689 10.9399 20.4782 9.50639 21.4929L8 19.5308C9.56733 18.1386 11.1241 16.7342 12.6701 15.3177C14.7775 13.477 16.358 12.5098 17.413 12.4122C19.9028 12.1694 21.4365 13.8913 22.0115 17.578C22.6333 21.5549 23.0639 24.0276 23.3059 24.9961C24.0239 28.2948 24.8135 29.9442 25.6773 29.9442C26.346 29.9442 27.3528 28.8741 28.6953 26.7339C30.0352 24.5937 30.7519 22.9641 30.8495 21.8452C31.0407 19.9979 30.3227 19.073 28.694 19.073C27.9278 19.073 27.1382 19.2511 26.3264 19.6034C27.8979 14.3914 30.9041 11.862 35.3388 12.0058C38.3008 12.0942 39.8527 13.8531 39.9932 17.2811C40.0372 18.7657 39.8695 20.3403 39.4156 21.3227Z" fill="white"/>
</svg>
