<svg width="48" height="48" viewBox="0 0 48 48" fill="none" xmlns="http://www.w3.org/2000/svg">
<circle cx="24" cy="24" r="24" fill="url(#paint0_linear_501_11303)"/>
<path fill-rule="evenodd" clip-rule="evenodd" d="M10.2604 31.7833L8 40L16.4466 37.7954C18.7827 39.0619 21.4003 39.7255 24.0603 39.7257H24.0671C32.8481 39.7257 39.9963 32.6112 40 23.8687C40.0017 19.6607 38.3238 15.6244 35.3356 12.6483C32.3474 9.67211 28.2937 8.00002 24.0668 8C15.2842 8 8.13728 15.113 8.13376 23.8559C8.13035 26.6386 8.86387 29.3729 10.2604 31.7833ZM17.3217 35.21L16.8379 34.9245L11.8258 36.2327L13.1638 31.3694L12.8485 30.8708C11.5223 28.7699 10.8204 26.3382 10.8241 23.8569C10.827 16.5901 16.7674 10.6783 24.0721 10.6783C31.3859 10.6812 37.3126 16.5862 37.3097 23.8674C37.3067 31.1347 31.366 37.0473 24.0671 37.0473H24.062C21.6904 37.0475 19.3624 36.4129 17.3217 35.21Z" fill="url(#paint1_linear_501_11303)"/>
<path fill-rule="evenodd" clip-rule="evenodd" d="M20.0849 17.2272C19.787 16.5673 19.4727 16.554 19.1891 16.5428C18.957 16.5329 18.6914 16.5335 18.4261 16.5335C18.0182 16.5441 17.6333 16.7238 17.3643 17.0293C16.9993 17.426 15.9707 18.3847 15.9707 20.3346C15.9707 22.2845 17.3974 24.1689 17.5963 24.4338C17.7953 24.6987 20.3505 28.8275 24.3969 30.4161C27.7598 31.7363 28.4442 31.4737 29.1742 31.4077C29.9042 31.3417 31.5295 30.4495 31.8613 29.5237C32.1932 28.5979 32.1931 27.8049 32.0935 27.6394C31.994 27.4739 31.7285 27.3752 31.3304 27.177C30.9322 26.9788 28.9751 26.0198 28.6101 25.8877C28.2451 25.7555 27.9797 25.6895 27.7142 26.0863C27.4488 26.4832 26.6863 27.3752 26.4537 27.6394C26.2212 27.9036 25.9892 27.9373 25.591 27.7391C25.1929 27.5409 23.9104 27.1222 22.3896 25.7721C21.2062 24.7216 20.4072 23.4243 20.1749 23.0275C19.9427 22.6308 20.15 22.4165 20.3497 22.2189C20.5285 22.0414 20.7479 21.7563 20.9469 21.5248C21.146 21.2934 21.212 21.1282 21.3447 20.8639C21.4775 20.5996 21.411 20.3678 21.3115 20.1696C21.212 19.9714 20.4389 18.011 20.0849 17.2272Z" fill="white"/>
<defs>
<linearGradient id="paint0_linear_501_11303" x1="48" y1="48" x2="48" y2="0" gradientUnits="userSpaceOnUse">
<stop stop-color="#20B038"/>
<stop offset="1" stop-color="#60D66A"/>
</linearGradient>
<linearGradient id="paint1_linear_501_11303" x1="40" y1="40" x2="40" y2="8" gradientUnits="userSpaceOnUse">
<stop stop-color="#F9F9F9"/>
<stop offset="1" stop-color="white"/>
</linearGradient>
</defs>
</svg>
