<?xml version="1.0" encoding="utf-8"?>
<!-- Generator: Adobe Illustrator 24.1.3, SVG Export Plug-In . SVG Version: 6.00 Build 0)  -->
<svg version="1.1" id="Layer_1" xmlns="http://www.w3.org/2000/svg" xmlns:xlink="http://www.w3.org/1999/xlink" x="0px" y="0px"
	 viewBox="0 0 450 100" style="enable-background:new 0 0 450 100;" xml:space="preserve">
<style type="text/css">
	.st0{fill:#FF4D4D;}
	.st1{fill:#FFFFFF;}
	.st2{fill:#221F1F;}
</style>
<g>
	<g>
		<path class="st2" d="M199.74,8.59l-5.92,11.69c-0.68,1.09-2.06,1.51-3.24,0.98c-2.22-1.33-4.74-2.1-7.32-2.25
			c-5.92,0-8.31,4.79-8.31,11.69v4.31V52.9v44.42c-0.05,1.46-1.22,2.63-2.68,2.68h-16.2c-1.46-0.05-2.63-1.22-2.68-2.68v-21.7
			c0-14.81,11.88-20.12,18-21.87V52.9l-17.89,2.72l-0.11-20.61v-4.31C153.4,10.99,165.66,0,181.99,0
			c6.14-0.04,12.15,1.83,17.18,5.35C200.05,6.19,200.28,7.51,199.74,8.59z"/>
		<path class="st2" d="M227.77,38.94v58.38c-0.05,1.46-1.22,2.63-2.68,2.68h-16.2c-1.46-0.05-2.63-1.22-2.68-2.68V61.65
			c0-14.82,11.88-20.12,18-21.87v-0.85h-17.8l-0.2-17.89V3.6c0-1.48,1.2-2.68,2.68-2.68h16.2c1.48,0,2.68,1.2,2.68,2.68v31.29
			L227.77,38.94z"/>
		<path class="st2" d="M12.13,92.63C6.38,87.72,3.5,81.2,3.5,73.05h20.84c0,2.95,1.02,5.39,3.05,7.31c2.04,1.92,5.33,2.87,9.88,2.87
			c4.15,0,7.38-0.6,9.7-1.8c2.32-1.2,3.47-2.87,3.47-5.03c0-1.68-0.52-2.97-1.56-3.89c-1.04-0.92-2.58-1.68-4.61-2.28
			c-2.04-0.6-5.49-1.46-10.36-2.58c-5.59-1.28-10.34-2.69-14.25-4.25c-3.91-1.56-7.29-4.09-10.12-7.61
			C6.72,52.29,5.3,47.62,5.3,41.79c0-8.06,2.83-14.35,8.5-18.86c5.67-4.51,13.49-6.77,23.47-6.77c6.87,0,12.7,1.14,17.49,3.41
			c4.79,2.28,8.4,5.45,10.84,9.52c2.43,4.07,3.65,8.74,3.65,14.01H48.41c0-2.87-0.92-5.29-2.75-7.25c-1.84-1.96-4.63-2.93-8.38-2.93
			c-3.51,0-6.29,0.6-8.32,1.8s-3.05,2.87-3.05,5.03c0,1.68,0.5,2.99,1.5,3.95c1,0.96,2.55,1.76,4.67,2.4
			c2.11,0.64,5.53,1.48,10.24,2.51c5.59,1.28,10.34,2.69,14.25,4.25c3.91,1.56,7.31,4.09,10.18,7.6c2.87,3.51,4.31,8.18,4.31,14.01
			c0,7.99-2.99,14.23-8.98,18.74C56.08,97.75,47.82,100,37.28,100C26.26,100,17.87,97.54,12.13,92.63z"/>
		<path class="st2" d="M84.76,91.92c-5.59-5.39-8.38-12.76-8.38-22.1c0-9.42,2.79-16.83,8.38-22.22c5.59-5.39,13.21-8.08,22.87-8.08
			c9.66,0,17.26,2.69,22.81,8.08c5.55,5.39,8.32,12.8,8.32,22.22c0,9.34-2.78,16.71-8.32,22.1c-5.55,5.39-13.16,8.08-22.81,8.08
			C97.97,100,90.34,97.31,84.76,91.92z M115.96,81.38c2.04-2.83,3.05-6.69,3.05-11.56c0-4.95-1.02-8.84-3.05-11.68
			c-2.04-2.83-4.81-4.25-8.32-4.25c-3.51,0-6.31,1.44-8.38,4.31c-2.08,2.87-3.11,6.75-3.11,11.62c0,4.87,1.04,8.72,3.11,11.56
			c2.08,2.84,4.87,4.25,8.38,4.25C111.14,85.63,113.92,84.21,115.96,81.38z"/>
		<path class="st2" d="M291.99,98.8c-0.64-1.6-1.04-4.51-1.2-8.74c-1.84,3.19-4.43,5.65-7.78,7.37c-3.35,1.72-7.03,2.58-11.02,2.58
			c-6.63,0-11.84-2.04-15.63-6.11c-3.79-4.07-5.69-9.62-5.69-16.65V40.72h19.76v33.65c0,2.72,0.46,5.17,1.38,7.37
			c0.92,2.2,3.09,3.29,6.53,3.29c3.67,0,6.57-1.26,8.68-3.77c2.11-2.51,3.17-5.97,3.17-10.36V40.72h19.76v48.51
			c0,1.84,0.12,3.65,0.36,5.45s0.52,3.17,0.84,4.13H291.99z"/>
		<path class="st2" d="M361.34,98.8c-0.64-1.84-1.04-4.55-1.2-8.14c-1.92,3.04-4.33,5.35-7.25,6.95c-2.92,1.6-6.17,2.4-9.76,2.4
			c-5.35,0-10.02-1.22-14.01-3.65c-3.99-2.43-7.07-5.93-9.22-10.48c-2.16-4.55-3.23-9.9-3.23-16.05c0-6.23,1.08-11.62,3.23-16.17
			c2.16-4.55,5.23-8.04,9.22-10.48c3.99-2.43,8.66-3.65,14.01-3.65c6.95,0,12.41,2.8,16.41,8.38V12.57h19.76v76.65
			c0,1.84,0.12,3.65,0.36,5.45c0.24,1.8,0.52,3.17,0.84,4.13H361.34z M356.85,81.14c2.04-2.91,3.05-6.69,3.05-11.32
			c0-4.87-1.06-8.74-3.17-11.62c-2.12-2.87-4.97-4.31-8.56-4.31s-6.43,1.42-8.5,4.25c-2.08,2.84-3.11,6.73-3.11,11.68
			c0,4.87,1.04,8.7,3.11,11.5c2.08,2.8,4.91,4.19,8.5,4.19C351.92,85.51,354.81,84.05,356.85,81.14z"/>
		<path class="st2" d="M445.9,74.61h-39.52c0.48,3.91,1.64,6.69,3.47,8.32c1.84,1.64,4.31,2.46,7.43,2.46c2.47,0,4.37-0.5,5.69-1.5
			c1.32-1,2.13-2.17,2.45-3.53h19.88c-0.72,6.15-3.47,10.96-8.26,14.43c-4.79,3.47-11.66,5.21-20.6,5.21
			c-9.82,0-17.35-2.59-22.58-7.78c-5.23-5.19-7.84-12.65-7.84-22.4c0-6.23,1.26-11.62,3.77-16.17c2.52-4.55,6.07-8.04,10.66-10.48
			c4.59-2.43,9.96-3.65,16.11-3.65c9.42,0,16.77,2.42,22.04,7.25c5.27,4.83,7.9,11.84,7.9,21.02
			C446.5,70.58,446.3,72.85,445.9,74.61z M409.55,55.81c-1.56,1.68-2.57,4.35-3.05,8.02h19.64c-0.16-3.35-1-5.95-2.52-7.78
			c-1.52-1.84-3.91-2.75-7.19-2.75C413.4,53.29,411.11,54.13,409.55,55.81z"/>
	</g>
	<path class="st2" d="M225.02,49.96c-0.02,0.02-0.03,0.06-0.04,0.08C225,49.98,225.01,49.96,225.02,49.96L225.02,49.96z"/>
</g>
<path class="st0" d="M257.18,27.67c0,1.33-0.81,2.49-1.93,2.97s-107.7,28.52-107.7,28.52l-0.52,0.14c-0.19,0.04-0.38,0.06-0.58,0.06
	c-1.8,0-3.25-1.45-3.25-3.25c0-1.19,0.64-2.23,1.59-2.79l0.73-0.32l79.32-34.25c0.01,0,0.01,0,0.02,0c1.66-0.63,3.4-0.94,5.14-0.94
	c1.4,0,2.79,0.2,4.15,0.6l20.74,6.16C256.22,24.98,257.18,26.21,257.18,27.67z"/>
</svg>
