<svg width="4" height="7" viewBox="0 0 4 7" fill="none" xmlns="http://www.w3.org/2000/svg">
<g clip-path="url(#clip0_152_735)">
<path d="M0.792627 0.138522L3.89862 3.24143C3.93548 3.27836 3.96154 3.31838 3.97677 3.36148C3.99226 3.40457 4 3.45075 4 3.5C4 3.54925 3.99226 3.59543 3.97677 3.63852C3.96154 3.68162 3.93548 3.72164 3.89862 3.75858L0.792626 6.87071C0.706605 6.9569 0.599078 7 0.470045 7C0.341013 7 0.230414 6.95383 0.138248 6.86148C0.0460823 6.76913 -4.47235e-07 6.66139 -4.3647e-07 6.53826C-4.25706e-07 6.41513 0.0460823 6.30739 0.138248 6.21504L2.84793 3.5L0.138249 0.78496C0.0522273 0.698769 0.00921639 0.59263 0.0092164 0.466544C0.00921641 0.340211 0.0552994 0.230871 0.147465 0.138522C0.239631 0.0461742 0.347158 1.57496e-07 0.470046 1.68239e-07C0.592934 1.78982e-07 0.700461 0.0461742 0.792627 0.138522Z" fill="#182A78"/>
</g>
<defs>
<clipPath id="clip0_152_735">
<rect width="4" height="7" fill="white"/>
</clipPath>
</defs>
</svg>
