<svg width="8" height="9" viewBox="0 0 8 9" fill="none" xmlns="http://www.w3.org/2000/svg">
<path d="M0.371494 7.66708C0.373829 7.49828 0.439149 7.34579 0.567457 7.20961C0.696067 7.07374 0.844773 7.00463 1.01358 7.0023L5.52519 6.93989L0.45173 1.86643C0.323096 1.73779 0.260002 1.58509 0.262448 1.40831C0.264885 1.23214 0.332224 1.07793 0.464466 0.94569C0.596708 0.813448 0.751069 0.745953 0.927548 0.743205C1.10402 0.741071 1.25657 0.80432 1.3852 0.932954L6.45867 6.00642L6.52107 1.4948C6.52341 1.326 6.59251 1.17729 6.72839 1.04868C6.86456 0.920373 7.01705 0.855052 7.18586 0.852717C7.35466 0.850382 7.50338 0.913532 7.63201 1.04217C7.76064 1.1708 7.82379 1.31952 7.82146 1.48832L7.7374 7.56519C7.7439 7.64949 7.7276 7.73026 7.68848 7.80752C7.64875 7.88478 7.59777 7.95453 7.53553 8.01676C7.4733 8.07899 7.40558 8.12795 7.33236 8.16364C7.25884 8.19902 7.17604 8.21735 7.08397 8.21862L1.0071 8.30268C0.838293 8.30502 0.689575 8.24187 0.560941 8.11323C0.432308 7.9846 0.369159 7.83588 0.371494 7.66708Z" fill="#182A78"/>
</svg>
