<svg width="19" height="19" viewBox="0 0 19 19" fill="none" xmlns="http://www.w3.org/2000/svg">
<g clip-path="url(#clip0_185_3753)">
<path d="M17.35 7.87806H1.65C0.74 7.87806 0 7.19221 0 6.34879V3.38757C0 2.54416 0.74 1.85831 1.65 1.85831H17.345C18.255 1.85831 18.995 2.54416 18.995 3.38757V6.34879C18.995 7.19221 18.255 7.87806 17.345 7.87806H17.35ZM1.65 2.7805C1.29 2.7805 1 3.05392 1 3.38294V6.34416C1 6.67782 1.29 6.9466 1.65 6.9466H17.345C17.705 6.9466 17.995 6.67318 17.995 6.34416V3.38294C17.995 3.04928 17.705 2.7805 17.345 2.7805H1.65Z" fill="#FFB932"/>
<path d="M15.185 19H3.815C1.71 19 0 17.4151 0 15.4641V6.77974C0 6.66852 0.005 6.5573 0.02 6.45072L0.415 2.3912L1.015 6.42755C1.06 6.72413 1.335 6.9512 1.655 6.9512H17.35C17.67 6.9512 17.945 6.72413 17.99 6.42755L18.59 2.3912L18.985 6.45072C18.995 6.56194 19.005 6.66852 19.005 6.77974V15.4641C19.005 17.4151 17.295 19 15.19 19H15.185ZM1 7.75291V15.4641C1 16.9007 2.265 18.0732 3.815 18.0732H15.185C16.735 18.0732 18 16.9007 18 15.4641V7.75291C17.8 7.83633 17.58 7.87803 17.35 7.87803H1.65C1.42 7.87803 1.2 7.83169 1 7.75291Z" fill="#FFB932"/>
<path d="M4.5 4.17073C4.225 4.17073 4 3.9622 4 3.70732V0.463415C4 0.208537 4.225 0 4.5 0C4.775 0 5 0.208537 5 0.463415V3.70732C5 3.9622 4.775 4.17073 4.5 4.17073Z" fill="#FFB932"/>
<path d="M14.5 4.17073C14.225 4.17073 14 3.9622 14 3.70732V0.463415C14 0.208537 14.225 0 14.5 0C14.775 0 15 0.208537 15 0.463415V3.70732C15 3.9622 14.775 4.17073 14.5 4.17073Z" fill="#FFB932"/>
<path d="M15.405 11.5854H14.095C13.7664 11.5854 13.5 11.8323 13.5 12.1368V13.351C13.5 13.6555 13.7664 13.9024 14.095 13.9024H15.405C15.7336 13.9024 16 13.6555 16 13.351V12.1368C16 11.8323 15.7336 11.5854 15.405 11.5854Z" fill="#FFB932"/>
<path d="M11.905 11.5854H10.595C10.2664 11.5854 10 11.8323 10 12.1368V13.351C10 13.6555 10.2664 13.9024 10.595 13.9024H11.905C12.2336 13.9024 12.5 13.6555 12.5 13.351V12.1368C12.5 11.8323 12.2336 11.5854 11.905 11.5854Z" fill="#FFB932"/>
<path d="M8.405 11.5854H7.095C6.76639 11.5854 6.5 11.8323 6.5 12.1368V13.351C6.5 13.6555 6.76639 13.9024 7.095 13.9024H8.405C8.73361 13.9024 9 13.6555 9 13.351V12.1368C9 11.8323 8.73361 11.5854 8.405 11.5854Z" fill="#FFB932"/>
<path d="M4.905 11.5854H3.595C3.26639 11.5854 3 11.8323 3 12.1368V13.351C3 13.6555 3.26639 13.9024 3.595 13.9024H4.905C5.23361 13.9024 5.5 13.6555 5.5 13.351V12.1368C5.5 11.8323 5.23361 11.5854 4.905 11.5854Z" fill="#FFB932"/>
<path d="M15.405 14.3658H14.095C13.7664 14.3658 13.5 14.6127 13.5 14.9173V16.1315C13.5 16.436 13.7664 16.6829 14.095 16.6829H15.405C15.7336 16.6829 16 16.436 16 16.1315V14.9173C16 14.6127 15.7336 14.3658 15.405 14.3658Z" fill="#FFB932"/>
<path d="M11.905 14.3658H10.595C10.2664 14.3658 10 14.6127 10 14.9173V16.1315C10 16.436 10.2664 16.6829 10.595 16.6829H11.905C12.2336 16.6829 12.5 16.436 12.5 16.1315V14.9173C12.5 14.6127 12.2336 14.3658 11.905 14.3658Z" fill="#FFB932"/>
<path d="M8.405 14.3658H7.095C6.76639 14.3658 6.5 14.6127 6.5 14.9173V16.1315C6.5 16.436 6.76639 16.6829 7.095 16.6829H8.405C8.73361 16.6829 9 16.436 9 16.1315V14.9173C9 14.6127 8.73361 14.3658 8.405 14.3658Z" fill="#FFB932"/>
<path d="M4.905 14.3658H3.595C3.26639 14.3658 3 14.6127 3 14.9173V16.1315C3 16.436 3.26639 16.6829 3.595 16.6829H4.905C5.23361 16.6829 5.5 16.436 5.5 16.1315V14.9173C5.5 14.6127 5.23361 14.3658 4.905 14.3658Z" fill="#FFB932"/>
</g>
<defs>
<clipPath id="clip0_185_3753">
<rect width="19" height="19" fill="white"/>
</clipPath>
</defs>
</svg>
