<svg width="19" height="17" viewBox="0 0 19 17" fill="#16D7F1" xmlns="http://www.w3.org/2000/svg">
<path d="M10.2048 16.3363C7.06363 16.3363 2.60321 14.8899 0.922697 14.3465C0.69889 14.2754 0.53398 14.2211 0.431893 14.1918C0.25913 14.1417 0.145264 13.9703 0.145264 13.7905C0.145264 13.7529 0.14919 13.7153 0.160969 13.6776C0.219866 13.4561 0.439746 13.3265 0.64392 13.385C3.18432 14.1375 8.13555 15.1784 10.566 14.3172C10.8841 14.2044 11.1589 13.9368 11.3199 13.5898L16.3968 1.31632C16.4439 1.20763 16.5303 1.12403 16.6363 1.0864C17.343 0.843941 17.7435 0.59312 18.0341 0.413365C18.1362 0.350659 18.2226 0.296315 18.305 0.250331C18.4856 0.150002 18.7055 0.187625 18.8547 0.338118C19 0.492791 19.0392 0.726891 18.9489 0.923368L13.3695 14.8941C13.1103 15.4626 12.6706 15.8849 12.1484 16.0688C11.6065 16.2611 10.9429 16.3405 10.2009 16.3405L10.2048 16.3363ZM9.07397 15.4459C10.2951 15.563 11.2414 15.5045 11.9049 15.2704C12.223 15.1575 12.4978 14.8899 12.6588 14.543L17.8888 1.45009C17.665 1.56714 17.3941 1.69255 17.0485 1.82214L12.0345 13.941C11.7754 14.5053 11.3356 14.9276 10.8173 15.1115C10.3069 15.2913 9.71398 15.3999 9.07397 15.4459ZM18.2383 0.572218C18.2383 0.572218 18.2304 0.58894 18.2265 0.5973L18.2383 0.572218Z" fill="#16D7F1"/>
</svg>
