<svg width="13" height="16" viewBox="0 0 13 16" fill="none" xmlns="http://www.w3.org/2000/svg">
<path d="M6.25 8.00005C6.6625 8.00005 7.01575 7.85893 7.30975 7.57669C7.60325 7.29493 7.75 6.95605 7.75 6.56005C7.75 6.16405 7.60325 5.82493 7.30975 5.54269C7.01575 5.26093 6.6625 5.12005 6.25 5.12005C5.8375 5.12005 5.4845 5.26093 5.191 5.54269C4.897 5.82493 4.75 6.16405 4.75 6.56005C4.75 6.95605 4.897 7.29493 5.191 7.57669C5.4845 7.85893 5.8375 8.00005 6.25 8.00005ZM6.25 15.2C4.2375 13.556 2.7345 12.0289 1.741 10.6187C0.747 9.20893 0.25 7.90405 0.25 6.70405C0.25 4.90405 0.85325 3.47005 2.05975 2.40205C3.26575 1.33405 4.6625 0.800049 6.25 0.800049C7.8375 0.800049 9.23425 1.33405 10.4403 2.40205C11.6467 3.47005 12.25 4.90405 12.25 6.70405C12.25 7.90405 11.7533 9.20893 10.7598 10.6187C9.76575 12.0289 8.2625 13.556 6.25 15.2Z" fill="#FFB932"/>
</svg>
