<svg width="214" height="59" viewBox="0 0 214 59" fill="none" xmlns="http://www.w3.org/2000/svg">
<path d="M24.8697 19.7813C26.3372 19.7813 27.5269 18.6151 27.5269 17.1765C27.5269 15.738 26.3372 14.5718 24.8697 14.5718C23.4022 14.5718 22.2125 15.738 22.2125 17.1765C22.2125 18.6151 23.4022 19.7813 24.8697 19.7813Z" fill="#253D85"/>
<path d="M24.8697 27.1626C26.3372 27.1626 27.5269 25.9964 27.5269 24.5579C27.5269 23.1193 26.3372 21.9531 24.8697 21.9531C23.4022 21.9531 22.2125 23.1193 22.2125 24.5579C22.2125 25.9964 23.4022 27.1626 24.8697 27.1626Z" fill="#253D85"/>
<path d="M24.8697 34.5444C26.3372 34.5444 27.5269 33.3783 27.5269 31.9397C27.5269 30.5011 26.3372 29.335 24.8697 29.335C23.4022 29.335 22.2125 30.5011 22.2125 31.9397C22.2125 33.3783 23.4022 34.5444 24.8697 34.5444Z" fill="#96999A"/>
<path d="M24.8697 41.9248C26.3372 41.9248 27.5269 40.7586 27.5269 39.3201C27.5269 37.8815 26.3372 36.7153 24.8697 36.7153C23.4022 36.7153 22.2125 37.8815 22.2125 39.3201C22.2125 40.7586 23.4022 41.9248 24.8697 41.9248Z" fill="#253D85"/>
<path d="M24.8697 49.3062C26.3372 49.3062 27.5269 48.14 27.5269 46.7014C27.5269 45.2629 26.3372 44.0967 24.8697 44.0967C23.4022 44.0967 22.2125 45.2629 22.2125 46.7014C22.2125 48.14 23.4022 49.3062 24.8697 49.3062Z" fill="#253D85"/>
<path d="M39.9299 34.5444C41.3975 34.5444 42.5871 33.3783 42.5871 31.9397C42.5871 30.5011 41.3975 29.335 39.9299 29.335C38.4624 29.335 37.2728 30.5011 37.2728 31.9397C37.2728 33.3783 38.4624 34.5444 39.9299 34.5444Z" fill="#253D85"/>
<path d="M32.3998 34.5444C33.8673 34.5444 35.057 33.3783 35.057 31.9397C35.057 30.5011 33.8673 29.335 32.3998 29.335C30.9323 29.335 29.7427 30.5011 29.7427 31.9397C29.7427 33.3783 30.9323 34.5444 32.3998 34.5444Z" fill="#253D85"/>
<path d="M17.3396 34.5444C18.8071 34.5444 19.9967 33.3783 19.9967 31.9397C19.9967 30.5011 18.8071 29.335 17.3396 29.335C15.8721 29.335 14.6824 30.5011 14.6824 31.9397C14.6824 33.3783 15.8721 34.5444 17.3396 34.5444Z" fill="#253D85"/>
<path d="M9.80945 34.5444C11.277 34.5444 12.4666 33.3783 12.4666 31.9397C12.4666 30.5011 11.277 29.335 9.80945 29.335C8.34194 29.335 7.15228 30.5011 7.15228 31.9397C7.15228 33.3783 8.34194 34.5444 9.80945 34.5444Z" fill="#253D85"/>
<path d="M32.3998 27.1626C33.8673 27.1626 35.057 25.9964 35.057 24.5579C35.057 23.1193 33.8673 21.9531 32.3998 21.9531C30.9323 21.9531 29.7427 23.1193 29.7427 24.5579C29.7427 25.9964 30.9323 27.1626 32.3998 27.1626Z" fill="#96999A"/>
<path d="M39.9299 19.7813C41.3975 19.7813 42.5871 18.6151 42.5871 17.1765C42.5871 15.738 41.3975 14.5718 39.9299 14.5718C38.4624 14.5718 37.2728 15.738 37.2728 17.1765C37.2728 18.6151 38.4624 19.7813 39.9299 19.7813Z" fill="#96999A"/>
<path d="M17.3396 41.9248C18.8071 41.9248 19.9967 40.7586 19.9967 39.3201C19.9967 37.8815 18.8071 36.7153 17.3396 36.7153C15.8721 36.7153 14.6824 37.8815 14.6824 39.3201C14.6824 40.7586 15.8721 41.9248 17.3396 41.9248Z" fill="#96999A"/>
<path d="M9.80945 49.3062C11.277 49.3062 12.4666 48.14 12.4666 46.7014C12.4666 45.2629 11.277 44.0967 9.80945 44.0967C8.34194 44.0967 7.15228 45.2629 7.15228 46.7014C7.15228 48.14 8.34194 49.3062 9.80945 49.3062Z" fill="#96999A"/>
<path d="M32.3998 41.9248C33.8673 41.9248 35.057 40.7586 35.057 39.3201C35.057 37.8815 33.8673 36.7153 32.3998 36.7153C30.9323 36.7153 29.7427 37.8815 29.7427 39.3201C29.7427 40.7586 30.9323 41.9248 32.3998 41.9248Z" fill="#96999A"/>
<path d="M39.9299 49.6187C41.3975 49.6187 42.5871 48.4525 42.5871 47.0139C42.5871 45.5754 41.3975 44.4092 39.9299 44.4092C38.4624 44.4092 37.2728 45.5754 37.2728 47.0139C37.2728 48.4525 38.4624 49.6187 39.9299 49.6187Z" fill="#96999A"/>
<path d="M17.3396 27.1626C18.8071 27.1626 19.9967 25.9964 19.9967 24.5579C19.9967 23.1193 18.8071 21.9531 17.3396 21.9531C15.8721 21.9531 14.6824 23.1193 14.6824 24.5579C14.6824 25.9964 15.8721 27.1626 17.3396 27.1626Z" fill="#96999A"/>
<path d="M9.80945 19.7813C11.277 19.7813 12.4666 18.6151 12.4666 17.1765C12.4666 15.738 11.277 14.5718 9.80945 14.5718C8.34194 14.5718 7.15228 15.738 7.15228 17.1765C7.15228 18.6151 8.34194 19.7813 9.80945 19.7813Z" fill="#96999A"/>
<path d="M49.9411 49.533L55.319 35.0059H57.3297L62.7176 49.533H60.484L59.2457 46.1394H53.4342L52.2171 49.533H49.9411ZM54.0907 44.2612H58.558L56.7902 39.374C56.7412 39.2429 56.6877 39.0922 56.632 38.9228C56.5751 38.7534 56.5194 38.5852 56.4626 38.4191C56.4057 38.253 56.3634 38.1077 56.3355 37.9832C56.2998 38.1077 56.2564 38.253 56.2029 38.4191C56.1494 38.5852 56.0947 38.7534 56.039 38.9228C55.9822 39.0922 55.9298 39.2429 55.8796 39.374L54.0907 44.2612Z" fill="#96999A"/>
<path d="M67.8703 49.7819C67.0801 49.7819 66.3233 49.6158 65.5999 49.2837C64.8765 48.9515 64.2892 48.5057 63.8378 47.9452L65.299 46.7314C65.6735 47.1258 66.0926 47.4317 66.5584 47.6502C67.0243 47.8677 67.4791 47.9769 67.9238 47.9769C68.5301 47.9769 69.0005 47.8677 69.3315 47.6502C69.6637 47.4328 69.8286 47.1302 69.8286 46.7423C69.8286 46.4932 69.7528 46.267 69.6013 46.0627C69.4497 45.8584 69.1933 45.6617 68.8333 45.4716C68.4733 45.2815 67.9862 45.0761 67.3721 44.8543C66.1728 44.4184 65.3146 43.9464 64.7996 43.4383C64.2847 42.9302 64.0272 42.2922 64.0272 41.5241C64.0272 40.6806 64.3728 39.9955 65.0649 39.47C65.756 38.9445 66.6532 38.6812 67.7533 38.6812C68.5157 38.6812 69.2145 38.821 69.8487 39.1018C70.484 39.3815 71.0302 39.7879 71.4894 40.3211L70.0605 41.4727C69.4185 40.8161 68.6416 40.4872 67.7321 40.4872C67.2172 40.4872 66.8081 40.5823 66.5038 40.7724C66.2007 40.9625 66.0491 41.2236 66.0491 41.5558C66.0491 41.8814 66.2218 42.1643 66.5674 42.4069C66.9129 42.6494 67.5449 42.9324 68.4622 43.258C69.2524 43.5279 69.8966 43.8251 70.3937 44.1507C70.8908 44.4763 71.2542 44.8477 71.4838 45.2662C71.7134 45.6847 71.8282 46.1676 71.8282 46.7139C71.8282 47.6688 71.4771 48.4194 70.7749 48.9657C70.0727 49.5087 69.1042 49.7819 67.8703 49.7819Z" fill="#96999A"/>
<path d="M77.5159 49.7819C76.7257 49.7819 75.9689 49.6158 75.2455 49.2837C74.5221 48.9515 73.9348 48.5057 73.4834 47.9452L74.9446 46.7314C75.3191 47.1258 75.7382 47.4317 76.2041 47.6502C76.6699 47.8677 77.1247 47.9769 77.5694 47.9769C78.1758 47.9769 78.6461 47.8677 78.9771 47.6502C79.3093 47.4328 79.4742 47.1302 79.4742 46.7423C79.4742 46.4932 79.3984 46.267 79.2469 46.0627C79.0953 45.8584 78.8389 45.6617 78.4789 45.4716C78.1189 45.2815 77.6318 45.0761 77.0177 44.8543C75.8184 44.4184 74.9602 43.9464 74.4452 43.4383C73.9303 42.9302 73.6728 42.2922 73.6728 41.5241C73.6728 40.6806 74.0184 39.9955 74.7105 39.47C75.4016 38.9445 76.2988 38.6812 77.3989 38.6812C78.1613 38.6812 78.8601 38.821 79.4943 39.1018C80.1296 39.3815 80.6758 39.7879 81.135 40.3211L79.7061 41.4727C79.0641 40.8161 78.2872 40.4872 77.3777 40.4872C76.8628 40.4872 76.4537 40.5823 76.1494 40.7724C75.8463 40.9625 75.6947 41.2236 75.6947 41.5558C75.6947 41.8814 75.8675 42.1643 76.213 42.4069C76.5585 42.6494 77.1905 42.9324 78.1078 43.258C78.898 43.5279 79.5422 43.8251 80.0393 44.1507C80.5364 44.4763 80.8998 44.8477 81.1294 45.2662C81.359 45.6847 81.4738 46.1676 81.4738 46.7139C81.4738 47.6688 81.1227 48.4194 80.4205 48.9657C79.7195 49.5087 78.7509 49.7819 77.5159 49.7819Z" fill="#96999A"/>
<path d="M87.8503 49.7818C86.3546 49.7818 85.1753 49.2857 84.3149 48.2925C83.4544 47.3005 83.0231 45.9489 83.0231 44.2401C83.0231 43.0984 83.2192 42.1128 83.6105 41.2825C84.0017 40.4521 84.559 39.8108 85.2835 39.3573C86.0068 38.9039 86.8628 38.6777 87.8503 38.6777C88.8457 38.6777 89.7039 38.9006 90.4284 39.3475C91.1517 39.7933 91.7079 40.4313 92.0958 41.2617C92.4837 42.0921 92.6776 43.0776 92.6776 44.2194C92.6776 45.3677 92.4814 46.3565 92.0902 47.1868C91.699 48.0172 91.1428 48.6564 90.4228 49.1065C89.7028 49.5567 88.8445 49.7818 87.8503 49.7818ZM87.8503 47.8304C88.6974 47.8304 89.3584 47.5124 89.8354 46.8755C90.3113 46.2396 90.5499 45.3535 90.5499 44.2194C90.5499 43.0853 90.3113 42.1992 89.8354 41.5633C89.3595 40.9274 88.6974 40.6083 87.8503 40.6083C87.0033 40.6083 86.3423 40.9263 85.8653 41.5633C85.3893 42.2003 85.1508 43.0918 85.1508 44.2401C85.1508 45.3677 85.3893 46.2483 85.8653 46.8809C86.3412 47.5146 87.0033 47.8304 87.8503 47.8304Z" fill="#96999A"/>
<path d="M98.5425 49.7816C97.5896 49.7816 96.7692 49.5587 96.0815 49.1119C95.3938 48.6661 94.8644 48.0291 94.4932 47.202C94.1232 46.376 93.9371 45.3883 93.9371 44.24C93.9371 43.0917 94.1254 42.1029 94.5033 41.2725C94.8811 40.4422 95.4184 39.803 96.1172 39.3528C96.816 38.9027 97.6486 38.6787 98.615 38.6787C99.6103 38.6787 100.447 38.9038 101.129 39.3528C101.81 39.803 102.303 40.4629 102.606 41.3348L100.617 42.0199C100.441 41.5697 100.183 41.2245 99.8444 40.9819C99.5055 40.7393 99.1032 40.6192 98.6373 40.6192C97.8259 40.6192 97.1972 40.9338 96.7525 41.5632C96.3078 42.1925 96.086 43.0851 96.086 44.24C96.086 45.3741 96.3044 46.2547 96.7425 46.8808C97.1805 47.5069 97.7935 47.8193 98.5838 47.8193C99.0987 47.8193 99.5423 47.685 99.9124 47.4151C100.282 47.1452 100.545 46.7584 100.7 46.2526L102.68 46.8753C102.398 47.8161 101.9 48.5361 101.187 49.0332C100.476 49.5325 99.5936 49.7816 98.5425 49.7816Z" fill="#96999A"/>
<path d="M105.613 37.1951C105.26 37.1951 104.959 37.0727 104.708 36.8269C104.458 36.5811 104.333 36.2861 104.333 35.9397C104.333 35.5868 104.457 35.2864 104.703 35.0372C104.95 34.7881 105.253 34.6636 105.613 34.6636C105.98 34.6636 106.288 34.7881 106.534 35.0372C106.782 35.2864 106.904 35.5868 106.904 35.9397C106.904 36.2926 106.78 36.5898 106.534 36.8324C106.288 37.0738 105.98 37.1951 105.613 37.1951ZM104.566 49.5327V38.928H106.672V49.5327H104.566Z" fill="#96999A"/>
<path d="M112.455 49.7818C111.277 49.7818 110.35 49.4649 109.676 48.8323C109.002 48.1997 108.665 47.3365 108.665 46.2428C108.665 45.537 108.835 44.9219 109.173 44.3953C109.512 43.8697 109.99 43.4633 110.608 43.1759C111.225 42.8886 111.951 42.7455 112.784 42.7455C113.292 42.7455 113.773 42.7979 114.228 42.9017C114.683 43.0055 115.102 43.1606 115.483 43.3682V42.6526C115.483 41.9053 115.299 41.3535 114.932 40.9973C114.566 40.6411 114.004 40.463 113.249 40.463C112.727 40.463 112.19 40.5559 111.636 40.7427C111.082 40.9296 110.547 41.1929 110.032 41.5316L109.418 39.8403C109.989 39.4731 110.632 39.188 111.349 38.9837C112.066 38.7793 112.78 38.6777 113.492 38.6777C114.833 38.6777 115.838 39.0033 116.504 39.6534C117.171 40.3035 117.505 41.2759 117.505 42.5695V49.5326H115.483V48.5985C115.081 48.9787 114.618 49.2715 114.097 49.4747C113.573 49.679 113.025 49.7818 112.455 49.7818ZM112.835 47.9965C113.314 47.9965 113.786 47.8872 114.248 47.6698C114.711 47.4523 115.121 47.1453 115.481 46.7509V45.1109C115.142 44.9175 114.757 44.7646 114.327 44.6542C113.897 44.5439 113.484 44.4881 113.089 44.4881C112.341 44.4881 111.751 44.6455 111.321 44.9601C110.891 45.2748 110.676 45.7053 110.676 46.2516C110.676 46.7913 110.866 47.2163 111.248 47.5277C111.629 47.8413 112.158 47.9965 112.835 47.9965Z" fill="#96999A"/>
<path d="M122.963 49.7819C122.186 49.7819 121.595 49.559 121.19 49.1121C120.784 48.6663 120.581 48.0173 120.581 47.1662V40.733H118.887V38.927H120.581V35.5443L122.688 34.5479V38.927H125.281V40.733H122.688V46.6166C122.688 47.0591 122.77 47.3847 122.936 47.5923C123.102 47.7999 123.361 47.9037 123.714 47.9037C124.223 47.9037 124.773 47.7278 125.366 47.3749L125.123 49.3055C124.799 49.4716 124.46 49.5928 124.107 49.6682C123.753 49.7436 123.372 49.7819 122.963 49.7819Z" fill="#96999A"/>
<path d="M128.334 37.1951C127.981 37.1951 127.68 37.0727 127.429 36.8269C127.178 36.5811 127.054 36.2861 127.054 35.9397C127.054 35.5868 127.177 35.2864 127.424 35.0372C127.671 34.7881 127.974 34.6636 128.334 34.6636C128.701 34.6636 129.009 34.7881 129.255 35.0372C129.502 35.2864 129.625 35.5868 129.625 35.9397C129.625 36.2926 129.501 36.5898 129.255 36.8324C129.007 37.0738 128.701 37.1951 128.334 37.1951ZM127.285 49.5327V38.928H129.392V49.5327H127.285Z" fill="#96999A"/>
<path d="M136.047 49.7818C134.551 49.7818 133.372 49.2857 132.512 48.2925C131.651 47.3005 131.22 45.9489 131.22 44.2401C131.22 43.0984 131.416 42.1128 131.807 41.2825C132.198 40.4521 132.757 39.8108 133.48 39.3573C134.204 38.9039 135.06 38.6777 136.047 38.6777C137.042 38.6777 137.902 38.9006 138.625 39.3475C139.349 39.7933 139.905 40.4313 140.293 41.2617C140.68 42.0921 140.874 43.0776 140.874 44.2194C140.874 45.3677 140.678 46.3565 140.287 47.1868C139.896 48.0172 139.34 48.6564 138.62 49.1065C137.9 49.5567 137.042 49.7818 136.047 49.7818ZM136.047 47.8304C136.894 47.8304 137.555 47.5124 138.032 46.8755C138.508 46.2396 138.747 45.3535 138.747 44.2194C138.747 43.0853 138.508 42.1992 138.032 41.5633C137.555 40.9274 136.894 40.6083 136.047 40.6083C135.2 40.6083 134.539 40.9263 134.062 41.5633C133.586 42.2003 133.348 43.0918 133.348 44.2401C133.348 45.3677 133.586 46.2483 134.062 46.8809C134.538 47.5146 135.2 47.8304 136.047 47.8304Z" fill="#96999A"/>
<path d="M142.787 49.5329V38.9282H144.894V39.9869C145.232 39.5444 145.636 39.2155 146.105 39.0014C146.574 38.7873 147.113 38.6802 147.719 38.6802C148.996 38.6802 149.956 39.0604 150.598 39.8219C151.24 40.5835 151.561 41.7307 151.561 43.2669V49.534H149.454V43.3182C149.454 42.4256 149.267 41.7515 148.894 41.2948C148.519 40.838 147.977 40.6097 147.263 40.6097C146.473 40.6097 145.88 40.8315 145.485 41.274C145.09 41.7165 144.892 42.3841 144.892 43.2767V49.534H142.787V49.5329Z" fill="#96999A"/>
<path d="M129.967 24.6927C130.984 25.6356 132.069 26.16 133.223 26.2682C134.376 26.3764 135.167 26.1873 135.592 25.7022C136.018 25.2171 136.114 24.7266 135.881 24.2283C135.647 23.7301 134.549 23.2854 132.584 22.8954C130.62 22.5053 129.376 21.7241 128.855 20.5528C128.333 19.3816 128.442 18.1491 129.185 16.8566C129.926 15.5641 131.286 14.891 133.264 14.8364C135.242 14.7829 137.013 15.469 138.579 16.8959L136.601 18.8353C135.502 17.9732 134.403 17.5362 133.304 17.522C132.205 17.5089 131.594 17.8651 131.471 18.5927C131.347 19.3204 131.938 19.8186 133.243 20.0874C134.548 20.3573 135.777 20.7604 136.931 21.2991C138.085 21.8377 138.723 22.7938 138.847 24.1671C138.971 25.5405 138.593 26.6583 137.713 27.5203C136.834 28.3824 135.626 28.8402 134.088 28.8937C132.55 28.9472 131.258 28.732 130.215 28.2469C129.17 27.7618 128.446 27.1903 128.041 26.5304L129.967 24.6927Z" fill="#253D85"/>
<path d="M149.788 23.5617C149.788 25.3655 149.321 26.7062 148.387 27.5813C147.453 28.4565 146.34 28.8804 145.049 28.8542C143.758 28.8269 142.672 28.3287 141.793 27.3595C140.913 26.3904 140.468 25.0771 140.453 23.4207C140.44 21.7644 140.886 20.4784 141.793 19.5628C142.699 18.6472 143.771 18.1828 145.007 18.1697C146.243 18.1566 147.349 18.5805 148.324 19.4426C149.3 20.3036 149.788 21.677 149.788 23.5617ZM147.027 23.5617C147.027 22.6996 146.862 22.0331 146.532 21.5622C146.202 21.0913 145.742 20.8488 145.151 20.8346C144.56 20.8215 144.087 21.0432 143.73 21.501C143.373 21.9588 143.194 22.6122 143.194 23.4601C143.194 24.3079 143.359 24.982 143.689 25.4803C144.019 25.9785 144.479 26.2342 145.069 26.2473C145.659 26.2604 146.133 25.9982 146.491 25.4595C146.847 24.922 147.027 24.2882 147.027 23.5617Z" fill="#253D85"/>
<path d="M160.171 20.4105L158.275 22.2286C157.726 21.3938 157.066 20.936 156.297 20.8552C155.528 20.7743 154.917 20.9557 154.463 21.4004C154.01 21.8451 153.756 22.4646 153.701 23.2589C153.646 24.0532 153.805 24.7404 154.175 25.3184C154.546 25.8975 155.15 26.1936 155.988 26.2067C156.826 26.2198 157.63 25.7828 158.399 24.8934L160.212 26.5902C158.922 28.0444 157.562 28.7983 156.133 28.8519C154.704 28.9054 153.475 28.4072 152.445 27.3572C151.415 26.3072 150.913 25.0005 150.941 23.4392C150.968 21.8778 151.395 20.6246 152.219 19.6828C153.042 18.7399 154.244 18.2417 155.824 18.1882C157.404 18.1357 158.853 18.8754 160.171 20.4105Z" fill="#253D85"/>
<path d="M163.178 14.5532C163.645 14.5532 164.017 14.7149 164.291 15.0383C164.565 15.3617 164.703 15.7245 164.703 16.1287C164.703 16.533 164.573 16.8892 164.312 17.1995C164.051 17.5098 163.673 17.6638 163.178 17.6638C162.683 17.6638 162.292 17.5021 162.004 17.1787C161.715 16.8553 161.571 16.4991 161.571 16.108C161.571 15.7179 161.715 15.3606 162.004 15.0372C162.292 14.7149 162.683 14.5532 163.178 14.5532ZM161.777 18.4319H164.497V28.6914H161.777V18.4319Z" fill="#253D85"/>
<path d="M174.797 27.1968C173.587 28.3276 172.249 28.8728 170.779 28.8324C169.309 28.792 168.155 28.2938 167.317 27.3377C166.479 26.3817 166.066 25.0826 166.081 23.4394C166.094 21.7972 166.548 20.5047 167.441 19.5618C168.333 18.6189 169.411 18.1479 170.675 18.1479C171.939 18.1479 173.03 18.6462 173.951 19.6426C174.871 20.6391 175.263 22.2015 175.126 24.3277H168.82C168.848 24.6773 169.005 25.0684 169.294 25.4989C169.583 25.9294 170.118 26.1719 170.901 26.2255C171.684 26.279 172.322 26.0234 172.817 25.4585L174.797 27.1968ZM168.905 22.3096H172.448C172.366 21.8245 172.194 21.4148 171.933 21.0772C171.673 20.7407 171.254 20.5659 170.676 20.5517C170.099 20.5385 169.681 20.7068 169.419 21.0564C169.158 21.4072 168.986 21.8245 168.905 22.3096Z" fill="#253D85"/>
<path d="M180.812 14.5532V18.4713H183.284L183.294 21.0367H180.822L180.812 25.2169C180.812 25.8364 181.045 26.1861 181.512 26.2669C181.979 26.3478 182.57 26.079 183.284 25.4595L182.883 28.2871C182.025 28.7176 181.197 28.8935 180.4 28.8126C179.603 28.7318 179.02 28.4018 178.649 27.8228C178.278 27.2437 178.089 26.6045 178.083 25.9042V21.0367H176.3V18.4822H178.083V15.7955L180.812 14.5532Z" fill="#253D85"/>
<path d="M186.991 14.5532C187.458 14.5532 187.83 14.7149 188.104 15.0383C188.378 15.3617 188.516 15.7245 188.516 16.1287C188.516 16.533 188.386 16.8892 188.125 17.1995C187.864 17.5098 187.486 17.6638 186.991 17.6638C186.497 17.6638 186.105 17.5021 185.817 17.1787C185.528 16.8553 185.384 16.4991 185.384 16.108C185.384 15.7179 185.528 15.3606 185.817 15.0372C186.105 14.7149 186.497 14.5532 186.991 14.5532ZM185.59 18.4319H188.31V28.6914H185.59V18.4319Z" fill="#253D85"/>
<path d="M198.817 27.1968C197.608 28.3276 196.269 28.8728 194.799 28.8324C193.329 28.792 192.175 28.2938 191.337 27.3377C190.499 26.3817 190.087 25.0826 190.101 23.4394C190.114 21.7972 190.568 20.5047 191.461 19.5618C192.354 18.6189 193.431 18.1479 194.695 18.1479C195.959 18.1479 197.051 18.6462 197.971 19.6426C198.892 20.6391 199.283 22.2015 199.146 24.3277H192.841C192.869 24.6773 193.026 25.0684 193.314 25.4989C193.603 25.9294 194.138 26.1719 194.922 26.2255C195.704 26.279 196.343 26.0234 196.838 25.4585L198.817 27.1968ZM192.924 22.3096H196.468C196.385 21.8245 196.213 21.4148 195.953 21.0772C195.692 20.7407 195.273 20.5659 194.695 20.5517C194.118 20.5385 193.7 20.7068 193.438 21.0564C193.178 21.4072 193.007 21.8245 192.924 22.3096Z" fill="#253D85"/>
<path d="M208.705 19.1183L207.84 21.3396C206.769 20.8282 205.868 20.5518 205.141 20.5114C204.413 20.4709 203.925 20.5179 203.678 20.6523C203.43 20.7867 203.321 20.9888 203.348 21.2587C203.376 21.5275 203.815 21.7974 204.666 22.0661C205.518 22.3349 206.452 22.7053 207.469 23.1773C208.485 23.6482 208.987 24.4698 208.972 25.6411C208.959 26.8123 208.546 27.6471 207.736 28.1453C206.926 28.6435 205.868 28.8861 204.563 28.8719C203.258 28.8588 201.822 28.4753 200.257 27.7203L201.287 25.5395C202.304 26.0781 203.231 26.395 204.068 26.4889C204.906 26.5829 205.49 26.5359 205.819 26.348C206.149 26.1601 206.273 25.9033 206.19 25.581C206.108 25.2576 205.565 24.9681 204.563 24.7124C203.56 24.4567 202.66 24.106 201.864 23.6624C201.067 23.2177 200.648 22.4638 200.607 21.4007C200.566 20.3376 200.903 19.5357 201.617 18.997C202.331 18.4584 203.327 18.182 204.604 18.1688C205.881 18.1557 207.249 18.4715 208.705 19.1183Z" fill="#253D85"/>
<path d="M50.0559 15.0381H56.4013C57.8848 15.0381 58.9971 15.3615 59.7394 16.0072C60.4806 16.654 60.8518 17.5423 60.8518 18.6731C60.8518 19.804 60.4093 20.666 59.5232 21.2582C60.7114 21.9859 61.3121 23.0085 61.3255 24.3284C61.3389 25.6483 60.893 26.7113 59.9858 27.5199C59.0796 28.3273 57.8981 28.7184 56.4425 28.6911H50.0559V15.0381ZM52.7655 17.6035V20.1787L56.7724 20.1689C57.1023 20.1689 57.3832 20.0476 57.6173 19.8051C57.8502 19.5625 57.9739 19.2391 57.9884 18.8359C58.0018 18.4317 57.8926 18.1225 57.6585 17.9072C57.4244 17.692 57.1291 17.5838 56.7724 17.5838L52.7655 17.6035ZM52.7655 22.6119V26.1257H56.5261C57.0477 26.1126 57.5014 25.9575 57.8859 25.6614C58.2704 25.3653 58.4699 24.9337 58.4833 24.3688C58.4967 23.8029 58.3117 23.3658 57.9271 23.0555C57.5426 22.7463 57.089 22.5977 56.5673 22.6108H52.7655V22.6119Z" fill="#253D85"/>
<path d="M63.4075 18.4321H66.1271V24.1278C66.1271 24.8009 66.2508 25.3329 66.4983 25.723C66.7457 26.1131 67.1782 26.3021 67.7968 26.289C68.4154 26.2759 68.8746 26.0737 69.1766 25.6826C69.4787 25.2925 69.6303 24.7069 69.6303 23.9257V18.4321H72.3498V28.6916H69.6303V27.9639C68.7787 28.5561 67.9205 28.8587 67.0545 28.8729C66.1895 28.8861 65.3647 28.5834 64.5823 27.9639C63.7999 27.3444 63.4075 26.1196 63.4075 24.2884V18.4321Z" fill="#253D85"/>
<path d="M76.4693 14.5532C76.9364 14.5532 77.3075 14.7149 77.5817 15.0383C77.8559 15.3617 77.9941 15.7245 77.9941 16.1287C77.9941 16.533 77.8637 16.8892 77.6029 17.1995C77.3421 17.5098 76.9642 17.6638 76.4693 17.6638C75.9745 17.6638 75.5832 17.5021 75.2946 17.1787C75.0059 16.8553 74.8621 16.4991 74.8621 16.108C74.8621 15.7179 75.0059 15.3606 75.2946 15.0372C75.5844 14.7149 75.9756 14.5532 76.4693 14.5532ZM75.0683 18.4319H77.7879V28.6914H75.0683V18.4319Z" fill="#253D85"/>
<path d="M80.5075 28.6913V15.7255L83.2271 14.3926V28.6913H80.5075Z" fill="#253D85"/>
<path d="M91.7369 28.6913V27.9636C91.1049 28.6104 90.3013 28.9196 89.3261 28.8923C88.3508 28.865 87.458 28.428 86.6477 27.579C85.8374 26.7312 85.4317 25.3775 85.4317 23.519C85.4317 21.6605 85.8363 20.3078 86.6477 19.46C87.458 18.6121 88.3508 18.1871 89.3261 18.1871C90.3013 18.1871 91.1049 18.4428 91.7369 18.9541V15.7627L94.4565 14.4297V28.6913H91.7369ZM91.7369 25.419V21.6626C91.1595 21.0705 90.5833 20.7809 90.006 20.794C89.4286 20.8072 88.9961 21.0093 88.7075 21.4004C88.4188 21.7905 88.275 22.4373 88.275 23.3398C88.275 24.2423 88.4333 24.9688 88.7487 25.5206C89.0641 26.0724 89.5111 26.3422 90.0884 26.328C90.6658 26.3149 91.2153 26.0123 91.7369 25.419Z" fill="#253D85"/>
<path d="M98.5771 14.5532C99.0441 14.5532 99.4153 14.7149 99.6894 15.0383C99.9636 15.3617 100.102 15.7245 100.102 16.1287C100.102 16.533 99.9714 16.8892 99.7106 17.1995C99.4498 17.5098 99.072 17.6638 98.5771 17.6638C98.0822 17.6638 97.691 17.5021 97.4023 17.1787C97.1136 16.8553 96.9699 16.4991 96.9699 16.108C96.9699 15.7179 97.1136 15.3606 97.4023 15.0372C97.691 14.7149 98.0822 14.5532 98.5771 14.5532ZM97.1761 18.4319H99.8956V28.6914H97.1761V18.4319Z" fill="#253D85"/>
<path d="M105.376 18.4317V19.0381C106.255 18.4186 107.182 18.1356 108.157 18.1902C109.132 18.2438 109.964 18.6141 110.65 19.3014C111.337 19.9875 111.68 21.0725 111.68 22.5529V28.6933H108.982V22.4732C108.968 22.0427 108.797 21.645 108.467 21.2812C108.137 20.9173 107.704 20.736 107.169 20.736C106.633 20.736 106.201 20.9042 105.871 21.2407C105.541 21.5773 105.376 21.975 105.376 22.4328V28.6933H102.635L102.614 18.4339H105.376V18.4317Z" fill="#253D85"/>
<path d="M119.922 18.4317H122.642V27.3582C122.642 30.046 122.262 31.0949 121.713 31.9034C120.885 33.1194 119.372 33.8132 117.143 33.8132L117.21 31.5843C117.21 31.5843 118.545 31.5122 119.372 30.7015C119.992 30.094 119.922 28.8255 119.922 27.9646C119.236 28.5568 118.426 28.8594 117.492 28.8736C116.558 28.8867 115.693 28.4562 114.896 27.5811C114.099 26.7059 113.686 25.3795 113.66 23.6019C113.632 21.8242 114.024 20.465 114.834 19.5221C115.645 18.5792 116.607 18.1291 117.719 18.1684C118.831 18.2088 119.566 18.4852 119.924 18.9966V18.4317H119.922ZM119.922 25.4188V21.5816C119.291 20.9895 118.708 20.7065 118.171 20.7338C117.635 20.7611 117.217 20.9895 116.914 21.4199C116.612 21.8504 116.454 22.5038 116.441 23.379C116.427 24.2541 116.591 24.9676 116.935 25.5194C117.279 26.0711 117.746 26.341 118.336 26.3268C118.926 26.3148 119.454 26.0121 119.922 25.4188Z" fill="#253D85"/>
</svg>
