<svg width="20" height="20" viewBox="0 0 20 20" fill="none" xmlns="http://www.w3.org/2000/svg">
<g clip-path="url(#clip0_983_13024)">
<path d="M4.00154 10.2076V13.6983C2.96317 13.8132 2.15015 14.6837 2.15015 15.753V17.4188C2.15015 18.5632 3.08247 19.4955 4.22689 19.4955H15.7771C16.9215 19.4955 17.8539 18.5632 17.8539 17.4188V15.753C17.8539 14.6837 17.0408 13.8132 16.0025 13.6983V10.2076C16.0025 6.89808 13.3115 4.20715 10.002 4.20715C6.69247 4.20715 4.00154 6.89808 4.00154 10.2076ZM16.9701 15.7574V17.4232C16.9701 18.0816 16.4355 18.6162 15.7771 18.6162H4.22689C3.56852 18.6162 3.03387 18.0816 3.03387 17.4232V15.7574C3.03387 15.099 3.56852 14.5644 4.22689 14.5644H15.7771C16.4355 14.5644 16.9701 15.099 16.9701 15.7574ZM8.01364 11.3299C8.01364 10.2341 8.90619 9.34157 10.002 9.34157C11.0978 9.34157 11.9904 10.2341 11.9904 11.3299C11.9904 12.4258 11.0978 13.3183 10.002 13.3183C8.90619 13.3183 8.01364 12.4258 8.01364 11.3299ZM10.002 5.09529C12.8211 5.09529 15.1188 7.38855 15.1188 10.212V13.6806H11.6501C12.3925 13.1592 12.8741 12.302 12.8741 11.3299C12.8741 9.74808 11.5839 8.45785 10.002 8.45785C8.42015 8.45785 7.12991 9.74808 7.12991 11.3299C7.12991 12.302 7.61596 13.1592 8.35387 13.6806H4.88526V10.212C4.88526 7.38855 7.17852 5.09529 10.002 5.09529Z" fill="#2149A4"/>
<path d="M0.736294 10.4418H2.79536C3.03839 10.4418 3.23722 10.243 3.23722 9.99997C3.23722 9.75694 3.03839 9.55811 2.79536 9.55811H0.736294C0.493271 9.55811 0.294434 9.75694 0.294434 9.99997C0.294434 10.243 0.493271 10.4418 0.736294 10.4418Z" fill="#2149A4"/>
<path d="M10.444 3.00093V0.94186C10.444 0.698837 10.2452 0.5 10.0022 0.5C9.75914 0.5 9.5603 0.698837 9.5603 0.94186V3.00093C9.5603 3.24395 9.75914 3.44279 10.0022 3.44279C10.2452 3.44279 10.444 3.24395 10.444 3.00093Z" fill="#2149A4"/>
<path d="M16.7627 9.99997C16.7627 10.243 16.9615 10.4418 17.2046 10.4418H19.2636C19.5066 10.4418 19.7055 10.243 19.7055 9.99997C19.7055 9.75694 19.5066 9.55811 19.2636 9.55811H17.2046C16.9615 9.55811 16.7627 9.75694 16.7627 9.99997Z" fill="#2149A4"/>
<path d="M3.40949 3.60629C3.23717 3.43397 2.9588 3.43397 2.78647 3.60629C2.61415 3.77862 2.61415 4.05699 2.78647 4.22932L4.24019 5.68304C4.32856 5.77141 4.43903 5.81118 4.55391 5.81118C4.6688 5.81118 4.77926 5.76699 4.86763 5.68304C5.03996 5.51071 5.03996 5.23234 4.86763 5.06002L3.41391 3.60629H3.40949Z" fill="#2149A4"/>
<path d="M16.5903 3.60629L15.1366 5.06002C14.9642 5.23234 14.9642 5.51071 15.1366 5.68304C15.2249 5.77141 15.3354 5.81118 15.4503 5.81118C15.5652 5.81118 15.6756 5.76699 15.764 5.68304L17.2177 4.22932C17.3901 4.05699 17.3901 3.77862 17.2177 3.60629C17.0454 3.43397 16.767 3.43397 16.5947 3.60629H16.5903Z" fill="#2149A4"/>
</g>
<defs>
<clipPath id="clip0_983_13024">
<rect width="19.4109" height="19" fill="white" transform="translate(0.294434 0.5)"/>
</clipPath>
</defs>
</svg>
