<svg width="16" height="20" viewBox="0 0 16 20" fill="none" xmlns="http://www.w3.org/2000/svg">
<g clip-path="url(#clip0_983_13074)">
<path d="M7.9753 0.5C7.70436 0.5 7.48269 0.721675 7.48269 0.992611V14.5985L3.92604 9.01724C3.77826 8.78572 3.47284 8.71675 3.24624 8.86453C3.01964 9.01231 2.95067 9.31773 3.09353 9.54434L7.55658 16.5542C7.64525 16.697 7.80289 16.7808 7.97037 16.7808C8.13786 16.7808 8.2955 16.6921 8.38417 16.5542L12.8472 9.54434C12.9014 9.46059 12.926 9.37192 12.926 9.27833C12.926 9.11576 12.8472 8.95813 12.6994 8.85961C12.4728 8.71182 12.1674 8.78079 12.0196 9.01232L8.46299 14.5936V0.992611C8.46299 0.721675 8.24131 0.5 7.97037 0.5H7.9753Z" fill="#2149A4"/>
<path d="M1.90145 19.5H14.0985C14.9458 19.5 15.6354 18.697 15.6354 17.7118V14.3177C15.6354 14.0467 15.4138 13.8251 15.1428 13.8251C14.8719 13.8251 14.6502 14.0467 14.6502 14.3177V17.7118C14.6502 18.1453 14.399 18.5147 14.0985 18.5147H1.90145C1.60096 18.5147 1.34972 18.1453 1.34972 17.7118V14.8054C1.34972 14.5344 1.12805 14.3128 0.857113 14.3128C0.586177 14.3128 0.364502 14.5344 0.364502 14.8054V17.7118C0.364502 18.697 1.05416 19.5 1.90145 19.5Z" fill="#2149A4"/>
</g>
<defs>
<clipPath id="clip0_983_13074">
<rect width="15.2709" height="19" fill="white" transform="translate(0.364502 0.5)"/>
</clipPath>
</defs>
</svg>
