<svg width="24" height="18" viewBox="0 0 24 18" fill="none" xmlns="http://www.w3.org/2000/svg">
<g clip-path="url(#clip0_983_13047)">
<path d="M18.1094 0.5H5.89034C3.17686 0.5 0.974609 2.70786 0.974609 5.41573V12.5843C0.974609 15.2921 3.17686 17.5 5.89034 17.5H18.1094C20.8173 17.5 23.0252 15.2921 23.0252 12.5843V5.41573C23.0252 2.70786 20.8173 0.5 18.1094 0.5ZM18.1094 1.83708C18.8285 1.83708 19.4915 2.05618 20.0533 2.41573L12.5476 9.29775C12.2611 9.5618 11.8117 9.5618 11.5308 9.29775L4.01393 2.38202C4.55888 2.04494 5.19933 1.83708 5.89034 1.83708H18.1094ZM2.31169 5.41573C2.31169 4.61798 2.58697 3.88764 3.03079 3.28652L7.81731 7.69101L2.36787 13.1404C2.33978 12.9551 2.31169 12.7753 2.31169 12.5843V5.41573ZM18.1094 16.1629H5.89034C4.62629 16.1629 3.52517 15.5 2.88472 14.5112L8.79483 8.60112L10.6207 10.2809C11.0196 10.6461 11.5308 10.8315 12.0364 10.8315C12.542 10.8315 13.0533 10.6517 13.4465 10.2865L15.2387 8.64045L21.1094 14.5112C20.4746 15.5 19.3679 16.1629 18.1038 16.1629H18.1094ZM21.6881 12.5843C21.6881 12.7753 21.66 12.9551 21.6319 13.1404L16.2274 7.73595L21.0139 3.34831C21.4353 3.93258 21.6881 4.64607 21.6881 5.42135V12.5899V12.5843Z" fill="#2149A4"/>
</g>
<defs>
<clipPath id="clip0_983_13047">
<rect width="22.0506" height="17" fill="white" transform="translate(0.974609 0.5)"/>
</clipPath>
</defs>
</svg>
