<svg width="18" height="20" viewBox="0 0 18 20" fill="none" xmlns="http://www.w3.org/2000/svg">
<g clip-path="url(#clip0_983_12966)">
<path d="M17.8048 3.88293C17.8048 3.03951 17.119 2.35366 16.2756 2.35366H14.0975V0.963415C14.0975 0.708537 13.889 0.5 13.6341 0.5C13.3792 0.5 13.1707 0.708537 13.1707 0.963415V2.35366H4.82921V0.963415C4.82921 0.708537 4.62068 0.5 4.3658 0.5C4.11092 0.5 3.90238 0.708537 3.90238 0.963415V2.35366H1.72434C0.880922 2.35366 0.195068 3.03951 0.195068 3.88293V6.84415C0.195068 6.89512 0.204337 6.94146 0.208971 6.9878C0.199703 7.08512 0.195068 7.1778 0.195068 7.27512V15.9595C0.195068 17.9105 1.77995 19.4954 3.73092 19.4954H14.269C16.2199 19.4954 17.8048 17.9105 17.8048 15.9595V7.27976C17.8048 7.18244 17.8002 7.08512 17.7909 6.9878C17.7909 6.94146 17.8048 6.89512 17.8048 6.84415V3.88293ZM1.1219 3.88293C1.1219 3.54927 1.39068 3.28049 1.72434 3.28049H3.90238V4.20732C3.90238 4.4622 4.11092 4.67073 4.3658 4.67073C4.62068 4.67073 4.82921 4.4622 4.82921 4.20732V3.28049H13.1707V4.20732C13.1707 4.4622 13.3792 4.67073 13.6341 4.67073C13.889 4.67073 14.0975 4.4622 14.0975 4.20732V3.28049H16.2756C16.6092 3.28049 16.878 3.5539 16.878 3.88293V6.84415C16.878 6.89049 16.8595 6.93219 16.8502 6.97854C16.8409 7.02951 16.827 7.07585 16.8038 7.11756C16.7946 7.14073 16.776 7.15927 16.7621 7.1778C16.7343 7.21951 16.7065 7.25659 16.6741 7.28902C16.6509 7.3122 16.6231 7.3261 16.5953 7.34463C16.5629 7.36781 16.5304 7.39098 16.4934 7.40488C16.4238 7.43268 16.3497 7.45122 16.2709 7.45122H1.72434C1.64556 7.45122 1.57141 7.43268 1.5019 7.40488C1.46482 7.39098 1.43239 7.36317 1.39995 7.34463C1.37214 7.3261 1.34434 7.3122 1.32117 7.28902C1.28409 7.25659 1.26092 7.21951 1.23312 7.1778C1.21921 7.15927 1.20531 7.14073 1.19141 7.11756C1.16824 7.07585 1.15434 7.02488 1.14507 6.97854C1.1358 6.93683 1.11726 6.89512 1.11726 6.84415V3.88293H1.1219ZM14.269 18.5732H3.73092C2.29434 18.5732 1.1219 17.4007 1.1219 15.9641V8.25293C1.30726 8.33171 1.51117 8.37805 1.72434 8.37805H16.2709C16.4841 8.37805 16.688 8.33171 16.8734 8.25293V15.9641C16.8734 17.4007 15.7009 18.5732 14.2643 18.5732H14.269Z" fill="#2149A4"/>
<path d="M14.4729 12.0853H13.2587C12.9542 12.0853 12.7073 12.3322 12.7073 12.6368V13.8509C12.7073 14.1555 12.9542 14.4024 13.2587 14.4024H14.4729C14.7774 14.4024 15.0243 14.1555 15.0243 13.8509V12.6368C15.0243 12.3322 14.7774 12.0853 14.4729 12.0853Z" fill="#2149A4"/>
<path d="M11.229 12.0853H10.0148C9.71028 12.0853 9.46338 12.3322 9.46338 12.6368V13.8509C9.46338 14.1555 9.71028 14.4024 10.0148 14.4024H11.229C11.5336 14.4024 11.7805 14.1555 11.7805 13.8509V12.6368C11.7805 12.3322 11.5336 12.0853 11.229 12.0853Z" fill="#2149A4"/>
<path d="M7.98509 12.0853H6.77095C6.46638 12.0853 6.21948 12.3322 6.21948 12.6368V13.8509C6.21948 14.1555 6.46638 14.4024 6.77095 14.4024H7.98509C8.28966 14.4024 8.53656 14.1555 8.53656 13.8509V12.6368C8.53656 12.3322 8.28966 12.0853 7.98509 12.0853Z" fill="#2149A4"/>
<path d="M4.7412 12.0853H3.52705C3.22248 12.0853 2.97559 12.3322 2.97559 12.6368V13.8509C2.97559 14.1555 3.22248 14.4024 3.52705 14.4024H4.7412C5.04576 14.4024 5.29266 14.1555 5.29266 13.8509V12.6368C5.29266 12.3322 5.04576 12.0853 4.7412 12.0853Z" fill="#2149A4"/>
<path d="M14.4729 14.8658H13.2587C12.9542 14.8658 12.7073 15.1127 12.7073 15.4173V16.6315C12.7073 16.936 12.9542 17.1829 13.2587 17.1829H14.4729C14.7774 17.1829 15.0243 16.936 15.0243 16.6315V15.4173C15.0243 15.1127 14.7774 14.8658 14.4729 14.8658Z" fill="#2149A4"/>
<path d="M11.229 14.8658H10.0148C9.71028 14.8658 9.46338 15.1127 9.46338 15.4173V16.6315C9.46338 16.936 9.71028 17.1829 10.0148 17.1829H11.229C11.5336 17.1829 11.7805 16.936 11.7805 16.6315V15.4173C11.7805 15.1127 11.5336 14.8658 11.229 14.8658Z" fill="#2149A4"/>
<path d="M7.98509 14.8658H6.77095C6.46638 14.8658 6.21948 15.1127 6.21948 15.4173V16.6315C6.21948 16.936 6.46638 17.1829 6.77095 17.1829H7.98509C8.28966 17.1829 8.53656 16.936 8.53656 16.6315V15.4173C8.53656 15.1127 8.28966 14.8658 7.98509 14.8658Z" fill="#2149A4"/>
<path d="M4.7412 14.8658H3.52705C3.22248 14.8658 2.97559 15.1127 2.97559 15.4173V16.6315C2.97559 16.936 3.22248 17.1829 3.52705 17.1829H4.7412C5.04576 17.1829 5.29266 16.936 5.29266 16.6315V15.4173C5.29266 15.1127 5.04576 14.8658 4.7412 14.8658Z" fill="#2149A4"/>
</g>
<defs>
<clipPath id="clip0_983_12966">
<rect width="17.6098" height="19" fill="white" transform="translate(0.195068 0.5)"/>
</clipPath>
</defs>
</svg>
