<svg width="21" height="21" viewBox="0 0 21 21" fill="none" xmlns="http://www.w3.org/2000/svg">
<path d="M14.469 21V12.873H17.1908L17.598 9.71367H14.469V7.69767C14.469 6.783 14.7233 6.15883 16.0347 6.15883H17.7077V3.33317C16.8978 3.24724 16.0838 3.20556 15.2693 3.20833C12.8578 3.20833 11.207 4.68067 11.207 7.385V9.71367H8.47933V12.873H11.207V21H1.16667C0.857247 21 0.560501 20.8771 0.341709 20.6583C0.122916 20.4395 0 20.1428 0 19.8333V1.16667C0 0.857247 0.122916 0.560501 0.341709 0.341709C0.560501 0.122916 0.857247 0 1.16667 0H19.8333C20.1428 0 20.4395 0.122916 20.6583 0.341709C20.8771 0.560501 21 0.857247 21 1.16667V19.8333C21 20.1428 20.8771 20.4395 20.6583 20.6583C20.4395 20.8771 20.1428 21 19.8333 21H14.469Z" fill="#182A78"/>
</svg>
