<svg width="13" height="19" viewBox="0 0 13 19" fill="none" xmlns="http://www.w3.org/2000/svg">
<g clip-path="url(#clip0_983_13009)">
<path d="M2.09257 15.9282H6.61658C6.84676 15.9282 7.03509 15.7399 7.03509 15.5097C7.03509 15.2795 6.84676 15.0912 6.61658 15.0912H2.09257C1.8624 15.0912 1.67407 15.2795 1.67407 15.5097C1.67407 15.7399 1.8624 15.9282 2.09257 15.9282Z" fill="#2149A4"/>
<path d="M2.09257 6.71274H6.61658C6.84676 6.71274 7.03509 6.52441 7.03509 6.29423C7.03509 6.06406 6.84676 5.87573 6.61658 5.87573H2.09257C1.8624 5.87573 1.67407 6.06406 1.67407 6.29423C1.67407 6.52441 1.8624 6.71274 2.09257 6.71274Z" fill="#2149A4"/>
<path d="M1.21784 19H11.3372C12.011 19 12.5551 18.4811 12.5551 17.8407V2.80396C12.5551 2.07996 11.9315 1.48568 11.1656 1.48568H10.4584C10.4416 0.665418 9.76784 0 8.94339 0H3.61167C2.78722 0 2.11344 0.665418 2.0967 1.48568H1.21784C0.544053 1.48568 0 2.00463 0 2.64493V17.8407C0 18.4811 0.548238 19 1.21784 19ZM2.92952 1.90419V1.51916C2.92952 1.14251 3.23502 0.837004 3.61167 0.837004H8.94339C9.32004 0.837004 9.62555 1.14251 9.62555 1.51916V1.95022C9.62555 2.32687 9.32004 2.63238 8.94339 2.63238H3.61167C3.23502 2.63238 2.92952 2.32687 2.92952 1.95022V1.90419ZM0.837004 2.64493C0.837004 2.46498 1.00859 2.32269 1.21784 2.32269H2.12181C2.25991 2.98392 2.87511 3.48612 3.61167 3.48612H8.94339C9.67996 3.48612 10.2993 2.98392 10.4333 2.32269H11.1656C11.4711 2.32269 11.7181 2.53612 11.7181 2.80396V17.8449C11.7181 18.0249 11.5465 18.1672 11.3372 18.1672H1.21784C1.00859 18.1672 0.837004 18.0207 0.837004 17.8449V2.64493Z" fill="#2149A4"/>
<path d="M8.58771 7.03081C8.66723 7.11033 8.77604 7.14799 8.88066 7.14799C8.98529 7.14799 9.08991 7.11033 9.17361 7.03081L10.7556 5.49491C10.923 5.33588 10.9271 5.06804 10.7639 4.90482C10.6007 4.73742 10.337 4.73324 10.1738 4.89645L8.88066 6.15196L8.26546 5.55769C8.09806 5.39865 7.83441 5.39865 7.67538 5.56606C7.51634 5.73346 7.51635 5.99711 7.68375 6.15614L8.58771 7.035V7.03081Z" fill="#2149A4"/>
<path d="M2.09257 9.78464H6.61658C6.84676 9.78464 7.03509 9.59631 7.03509 9.36613C7.03509 9.13596 6.84676 8.94763 6.61658 8.94763H2.09257C1.8624 8.94763 1.67407 9.13596 1.67407 9.36613C1.67407 9.59631 1.8624 9.78464 2.09257 9.78464Z" fill="#2149A4"/>
<path d="M8.58771 10.1069C8.66723 10.1864 8.77604 10.224 8.88066 10.224C8.98529 10.224 9.08991 10.1864 9.17361 10.1069L10.7556 8.57096C10.923 8.41193 10.9271 8.14409 10.7639 7.98087C10.6007 7.81347 10.337 7.80929 10.1738 7.9725L8.88066 9.22801L8.26546 8.63374C8.09806 8.4747 7.83441 8.4747 7.67538 8.64211C7.51634 8.80951 7.51635 9.07316 7.68375 9.23219L8.58771 10.111V10.1069Z" fill="#2149A4"/>
<path d="M2.09257 12.8564H6.61658C6.84676 12.8564 7.03509 12.6681 7.03509 12.4379C7.03509 12.2077 6.84676 12.0194 6.61658 12.0194H2.09257C1.8624 12.0194 1.67407 12.2077 1.67407 12.4379C1.67407 12.6681 1.8624 12.8564 2.09257 12.8564Z" fill="#2149A4"/>
<path d="M8.58771 13.1786C8.66723 13.2582 8.77604 13.2958 8.88066 13.2958C8.98529 13.2958 9.08991 13.2582 9.17361 13.1786L10.7556 11.6427C10.923 11.4837 10.9271 11.2159 10.7639 11.0526C10.6007 10.8852 10.337 10.8811 10.1738 11.0443L8.88066 12.2998L8.26546 11.7055C8.09806 11.5465 7.83441 11.5465 7.67538 11.7139C7.51634 11.8813 7.51635 12.1449 7.68375 12.304L8.58771 13.1828V13.1786Z" fill="#2149A4"/>
<path d="M8.58771 16.2504C8.66723 16.3299 8.77604 16.3676 8.88066 16.3676C8.98529 16.3676 9.08991 16.3299 9.17361 16.2504L10.7556 14.7145C10.923 14.5555 10.9271 14.2876 10.7639 14.1244C10.6007 13.957 10.337 13.9528 10.1738 14.1161L8.88066 15.3716L8.26546 14.7773C8.09806 14.6183 7.83441 14.6183 7.67538 14.7857C7.51634 14.9531 7.51635 15.2167 7.68375 15.3757L8.58771 16.2546V16.2504Z" fill="#2149A4"/>
</g>
<defs>
<clipPath id="clip0_983_13009">
<rect width="12.5551" height="19" fill="white"/>
</clipPath>
</defs>
</svg>
