<svg width="33" height="21" viewBox="0 0 33 21" fill="none" xmlns="http://www.w3.org/2000/svg">
<path d="M31.4444 20L24.4444 13C23.8889 13.4444 23.25 13.7963 22.5278 14.0556C21.8056 14.3148 21.037 14.4444 20.2222 14.4444C18.2037 14.4444 16.4956 13.7456 15.0978 12.3478C13.6993 10.9493 13 9.24074 13 7.22222C13 5.2037 13.6993 3.49519 15.0978 2.09667C16.4956 0.698889 18.2037 0 20.2222 0C22.2407 0 23.9493 0.698889 25.3478 2.09667C26.7456 3.49519 27.4444 5.2037 27.4444 7.22222C27.4444 8.03704 27.3148 8.80556 27.0556 9.52778C26.7963 10.25 26.4444 10.8889 26 11.4444L33 18.4444L31.4444 20ZM20.2222 12.2222C21.6111 12.2222 22.7919 11.7363 23.7644 10.7644C24.7363 9.79185 25.2222 8.61111 25.2222 7.22222C25.2222 5.83333 24.7363 4.65259 23.7644 3.68C22.7919 2.70815 21.6111 2.22222 20.2222 2.22222C18.8333 2.22222 17.6526 2.70815 16.68 3.68C15.7081 4.65259 15.2222 5.83333 15.2222 7.22222C15.2222 8.61111 15.7081 9.79185 16.68 10.7644C17.6526 11.7363 18.8333 12.2222 20.2222 12.2222Z" fill="#182A78"/>
<path d="M1 3.22583H11" stroke="#182A78" stroke-width="1.5" stroke-linecap="round"/>
<path d="M1 8.22583H11" stroke="#182A78" stroke-width="1.5" stroke-linecap="round"/>
<path d="M1 13H15.5" stroke="#182A78" stroke-width="1.5" stroke-linecap="round"/>
<circle cx="4" cy="3" r="1.5" fill="#F8F8F8" stroke="#182A78"/>
<circle cx="8" cy="13" r="1.5" fill="#F8F8F8" stroke="#182A78"/>
</svg>
