<svg width="20" height="20" viewBox="0 0 20 20" fill="none" xmlns="http://www.w3.org/2000/svg">
<g clip-path="url(#clip0_983_13042)">
<path d="M18.609 2.87625H8.45503C8.18046 1.52338 6.98235 0.5 5.54462 0.5C4.10689 0.5 2.91378 1.52338 2.63921 2.87625H1.39118C1.0617 2.87625 0.797119 3.14083 0.797119 3.47031C0.797119 3.79979 1.0617 4.06437 1.39118 4.06437H2.63921C2.91378 5.41724 4.11189 6.44062 5.54962 6.44062C6.98735 6.44062 8.18046 5.41724 8.46002 4.06437H18.614C18.9435 4.06437 19.208 3.79979 19.208 3.47031C19.208 3.14083 18.9435 2.87625 18.614 2.87625H18.609ZM5.54462 5.2525C4.56118 5.2525 3.76244 4.45376 3.76244 3.47031C3.76244 2.48686 4.56118 1.68812 5.54462 1.68812C6.52807 1.68812 7.32681 2.48686 7.32681 3.47031C7.32681 4.45376 6.52807 5.2525 5.54462 5.2525Z" fill="#2149A4"/>
<path d="M18.609 9.40591H17.955C17.6805 8.05305 16.4824 7.02966 15.0446 7.02966C13.6069 7.02966 12.4138 8.05305 12.1342 9.40591H1.39118C1.0617 9.40591 0.797119 9.67049 0.797119 9.99997C0.797119 10.3295 1.0617 10.594 1.39118 10.594H12.1392C12.4138 11.9469 13.6119 12.9703 15.0496 12.9703C16.4873 12.9703 17.6805 11.9469 17.96 10.594H18.614C18.9435 10.594 19.208 10.3295 19.208 9.99997C19.208 9.67049 18.9435 9.40591 18.614 9.40591H18.609ZM15.0446 11.7822C14.0612 11.7822 13.2624 10.9834 13.2624 9.99997C13.2624 9.01653 14.0612 8.21779 15.0446 8.21779C16.0281 8.21779 16.8268 9.01653 16.8268 9.99997C16.8268 10.9834 16.0281 11.7822 15.0446 11.7822Z" fill="#2149A4"/>
<path d="M18.609 15.9356H12.0194C11.7448 14.5827 10.5467 13.5593 9.10899 13.5593C7.67126 13.5593 6.47815 14.5827 6.19859 15.9356H1.39118C1.0617 15.9356 0.797119 16.2002 0.797119 16.5296C0.797119 16.8591 1.0617 17.1237 1.39118 17.1237H6.19859C6.47316 18.4766 7.67126 19.4999 9.10899 19.4999C10.5467 19.4999 11.7398 18.4766 12.0194 17.1237H18.609C18.9385 17.1237 19.2031 16.8591 19.2031 16.5296C19.2031 16.2002 18.9385 15.9356 18.609 15.9356ZM9.10899 18.3118C8.12555 18.3118 7.32681 17.5131 7.32681 16.5296C7.32681 15.5462 8.12555 14.7475 9.10899 14.7475C10.0924 14.7475 10.8912 15.5462 10.8912 16.5296C10.8912 17.5131 10.0924 18.3118 9.10899 18.3118Z" fill="#2149A4"/>
</g>
<defs>
<clipPath id="clip0_983_13042">
<rect width="18.4059" height="19" fill="white" transform="translate(0.797119 0.5)"/>
</clipPath>
</defs>
</svg>
