<svg width="20" height="20" viewBox="0 0 20 20" fill="none" xmlns="http://www.w3.org/2000/svg">
<g clip-path="url(#clip0_983_12963)">
<path d="M0.780575 19.4322C0.847289 19.3914 7.47861 15.2944 9.62678 18.5539C9.62678 18.5584 9.63568 18.563 9.64013 18.5675C9.64902 18.5811 9.65792 18.5901 9.66681 18.6037C9.67126 18.6082 9.67571 18.6173 9.6846 18.6218C9.69794 18.6354 9.71573 18.6445 9.72908 18.658L9.73797 18.6671C9.73797 18.6671 9.74242 18.6716 9.74687 18.6761C9.74687 18.6761 9.75576 18.6761 9.76021 18.6807C9.76466 18.6807 9.7691 18.6852 9.778 18.6897C9.78245 18.6897 9.7869 18.6988 9.79579 18.7033C9.80469 18.7033 9.81358 18.7078 9.82248 18.7124C9.83137 18.7124 9.83582 18.7169 9.84471 18.7214C9.84916 18.7214 9.85806 18.7259 9.8625 18.7305C9.86695 18.7305 9.87585 18.735 9.88029 18.7395C9.88029 18.7395 9.88029 18.7395 9.88919 18.7395C9.89364 18.7395 9.89808 18.7395 9.90253 18.7395C9.91143 18.7395 9.91587 18.7395 9.92477 18.7395C9.94701 18.7395 9.96924 18.7486 9.99148 18.7486C9.99148 18.7486 9.99593 18.7486 10.0004 18.7486C10.0137 18.7486 10.0271 18.7486 10.0404 18.7441C10.0493 18.7441 10.0626 18.7441 10.0715 18.7441C10.076 18.7441 10.0804 18.7441 10.0849 18.7441H10.0893C10.0938 18.7441 10.0982 18.7395 10.1071 18.735C10.1071 18.735 10.116 18.735 10.1205 18.7305C10.1294 18.7305 10.1338 18.7305 10.1427 18.7259C10.156 18.7214 10.1694 18.7124 10.1827 18.7033C10.1872 18.7033 10.1961 18.6988 10.2005 18.6943C10.2005 18.6943 10.205 18.6943 10.2094 18.6897C10.2094 18.6897 10.2139 18.6897 10.2183 18.6852C10.2183 18.6852 10.2228 18.6761 10.2272 18.6761C10.2272 18.6761 10.2317 18.6716 10.2361 18.6671C10.2672 18.6445 10.2939 18.6218 10.3162 18.5901C10.3162 18.5901 10.3206 18.5811 10.3251 18.5766C10.3251 18.5766 10.3295 18.5675 10.3339 18.5675C10.3339 18.5675 10.3428 18.5584 10.3428 18.5539C12.491 15.2944 19.1223 19.3914 19.189 19.4322C19.2602 19.4774 19.3403 19.5001 19.4203 19.5001C19.4959 19.5001 19.5715 19.482 19.6383 19.4412C19.7806 19.3597 19.8651 19.2103 19.8651 19.0474V4.09454C19.8651 3.70069 19.6471 3.34758 19.3091 3.20272L17.8236 2.55988V1.71785C17.8236 1.30136 17.5835 0.939195 17.2232 0.807911C16.3026 0.47291 13.1359 -0.296688 9.9648 3.2661C6.82926 -0.292161 3.6626 0.47291 2.74195 0.807911C2.3817 0.939195 2.14153 1.30136 2.14153 1.71785V2.55988L0.656043 3.20272C0.318028 3.34758 0.100098 3.70069 0.100098 4.09454V19.0474C0.100098 19.2103 0.189049 19.3643 0.326923 19.4412C0.393637 19.4774 0.469246 19.5001 0.544854 19.5001C0.62491 19.5001 0.704967 19.4774 0.776128 19.4322H0.780575ZM18.9889 4.03117C18.9889 4.03117 19.0067 4.05833 19.0067 4.09454V18.2687C17.6635 17.5308 14.5992 16.064 12.1574 16.4579C13.3005 15.5751 14.995 14.9142 17.2677 15.7109C17.4056 15.7562 17.5523 15.7381 17.6724 15.6521C17.7881 15.5661 17.8592 15.4303 17.8592 15.2854V3.54224L18.9889 4.03117ZM16.9519 1.65899C16.9519 1.65899 16.9697 1.68616 16.9697 1.71785V14.6697C13.7274 13.8186 11.5481 15.6068 10.4451 16.9015V4.12171C13.3138 0.703789 16.138 1.36474 16.9519 1.65899ZM3.03104 1.71785C3.03104 1.68616 3.03994 1.66352 3.04883 1.65899C3.86274 1.36474 6.68694 0.703789 9.55562 4.12171V16.9061C8.65277 15.8422 7.02496 14.4524 4.68554 14.4524C4.16962 14.4524 3.61812 14.5203 3.03549 14.6742V1.71785H3.03104ZM0.994058 4.09454C0.994058 4.05833 1.0074 4.03569 1.0074 4.03569L2.14598 3.54224V15.2809C2.14598 15.4257 2.21714 15.5661 2.33278 15.6476C2.44841 15.7336 2.59963 15.7562 2.7375 15.7064C4.99687 14.9142 6.69139 15.5751 7.83441 16.4534C5.3927 16.064 2.34167 17.5263 0.998506 18.2642V4.09454H0.994058Z" fill="#2149A4"/>
</g>
<defs>
<clipPath id="clip0_983_12963">
<rect width="19.7917" height="19" fill="white" transform="translate(0.104248 0.5)"/>
</clipPath>
</defs>
</svg>
