<svg width="20" height="20" viewBox="0 0 20 20" fill="none" xmlns="http://www.w3.org/2000/svg">
<g clip-path="url(#clip0_983_13078)">
<path d="M9.9978 0.5C4.76162 0.5 0.497803 4.76382 0.497803 10C0.497803 15.2362 4.76162 19.5 9.9978 19.5C15.234 19.5 19.4978 15.2362 19.4978 10C19.4978 4.76382 15.2386 0.5 9.9978 0.5ZM9.9978 18.587C5.26378 18.587 1.41083 14.734 1.41083 10C1.41083 5.26598 5.26378 1.41302 9.9978 1.41302C14.7318 1.41302 18.5848 5.26598 18.5848 10C18.5848 14.734 14.7318 18.587 9.9978 18.587Z" fill="#2149A4"/>
<path d="M9.95682 3.5769C7.87969 3.5769 6.18604 5.27056 6.18604 7.34769C6.18604 7.59877 6.39147 7.8042 6.64255 7.8042C6.89363 7.8042 7.09906 7.59877 7.09906 7.34769C7.09906 5.77272 8.38185 4.48993 9.95682 4.48993C11.5318 4.48993 12.8146 5.77272 12.8146 7.34769C12.8146 8.92265 11.5318 10.2054 9.95682 10.2054C9.70574 10.2054 9.50031 10.4109 9.50031 10.662V13.6202C9.50031 13.8712 9.70574 14.0767 9.95682 14.0767C10.2079 14.0767 10.4133 13.8712 10.4133 13.6202V11.0911C12.2759 10.8628 13.7276 9.27417 13.7276 7.34769C13.7276 5.27056 12.0339 3.5769 9.95682 3.5769Z" fill="#2149A4"/>
<path d="M10.0024 16.309C10.3806 16.309 10.6872 16.0024 10.6872 15.6242C10.6872 15.246 10.3806 14.9395 10.0024 14.9395C9.62421 14.9395 9.31763 15.246 9.31763 15.6242C9.31763 16.0024 9.62421 16.309 10.0024 16.309Z" fill="#2149A4"/>
</g>
<defs>
<clipPath id="clip0_983_13078">
<rect width="19.0046" height="19" fill="white" transform="translate(0.497803 0.5)"/>
</clipPath>
</defs>
</svg>
