<svg width="28" height="22" viewBox="0 0 28 22" fill="none" xmlns="http://www.w3.org/2000/svg">
<g clip-path="url(#clip0_983_13087)">
<path d="M27.4815 10.3217C27.2672 10.1299 23.64 6.88634 19.3133 4.94018L22.4723 0.912491C22.6641 0.669927 22.6189 0.314542 22.3764 0.122748C22.1282 -0.0690472 21.7784 -0.023919 21.5866 0.218645L18.2359 4.49454C16.6733 3.89095 15.0543 3.49608 13.4918 3.49608C7.10613 3.49044 0.754334 10.0735 0.489206 10.3556C0.297411 10.5586 0.280488 10.8689 0.449719 11.0889C0.618949 11.3089 3.65382 15.1956 8.25126 17.232L5.22767 21.0904C5.03587 21.333 5.081 21.6884 5.32356 21.8802C5.4251 21.9592 5.54921 21.9986 5.67331 21.9986C5.84254 21.9986 6.00613 21.9253 6.11895 21.7843L9.34561 17.6663C10.6318 18.1233 12.0138 18.4222 13.4805 18.4504C13.5933 18.4504 13.7061 18.4504 13.8189 18.4504C22.54 18.4504 27.3743 11.354 27.5774 11.0494C27.7354 10.8181 27.6959 10.5079 27.4872 10.3161L27.4815 10.3217ZM1.6569 10.7786C3.06151 9.4248 8.39792 4.61864 13.4861 4.61864C14.7892 4.61864 16.1543 4.93454 17.4969 5.42531L16.6 6.57044C15.7989 6.02326 14.8456 5.72993 13.8754 5.72993C11.2072 5.72993 9.041 7.90172 9.041 10.5643C9.041 12.1099 9.58254 13.3227 10.6374 14.1745L8.97895 16.2956C5.28972 14.733 2.55382 11.8222 1.6569 10.7786ZM11.3313 13.2889C10.5528 12.6458 10.1636 11.7545 10.1636 10.5643C10.1636 8.51659 11.8277 6.85813 13.8697 6.85813C14.5918 6.85813 15.2913 7.07813 15.8892 7.473L11.3256 13.2945L11.3313 13.2889ZM13.802 17.3222C13.7005 17.3222 13.5989 17.3222 13.4974 17.3222C12.3015 17.2997 11.162 17.0684 10.0846 16.713L18.5856 5.86531C22.1056 7.40531 25.2646 9.92685 26.3364 10.8294C25.1913 12.3017 20.7687 17.3279 13.802 17.3279V17.3222Z" fill="#2149A4"/>
</g>
<defs>
<clipPath id="clip0_983_13087">
<rect width="27.3364" height="22" fill="white" transform="translate(0.331787)"/>
</clipPath>
</defs>
</svg>
