<svg width="21" height="19" viewBox="0 0 21 19" fill="none" xmlns="http://www.w3.org/2000/svg">
<g clip-path="url(#clip0_983_13003)">
<path d="M14.9749 16.8163C15.0734 16.7748 15.172 16.8007 15.2498 16.8785L16.7644 18.5539C17.0289 18.8496 17.3817 19.0052 17.7447 19.0052C17.9004 19.0052 18.0612 18.9741 18.222 18.917C18.7718 18.7043 19.1297 18.1649 19.1297 17.5424V13.9479C19.1297 13.8545 19.1608 13.7663 19.2179 13.6885C20.3434 12.2465 20.9348 10.5711 20.9348 8.84384C20.9348 3.96287 16.2405 0 10.4674 0C4.69424 0 0 3.96287 0 8.83866C0 13.7144 4.69424 17.6773 10.4674 17.6773C12.039 17.6773 13.5588 17.3868 14.9749 16.8163ZM1.0374 8.83866C1.0374 4.53863 5.27 1.0374 10.4674 1.0374C15.6648 1.0374 19.8974 4.53863 19.8974 8.83866C19.8974 10.3325 19.3787 11.7849 18.3983 13.0453C18.2012 13.2995 18.0871 13.6211 18.0871 13.9427V17.5373C18.0871 17.7707 17.9626 17.9004 17.8433 17.947C17.7655 17.9782 17.6462 17.9885 17.5269 17.8589L16.0123 16.1835C15.7633 15.9085 15.421 15.7581 15.0683 15.7581C14.9075 15.7581 14.7415 15.7892 14.5859 15.8515C13.2943 16.3702 11.9094 16.6347 10.4674 16.6347C5.26481 16.6347 1.0374 13.1335 1.0374 8.83347V8.83866Z" fill="#2149A4"/>
<path d="M6.16226 5.70574H14.4615C14.7467 5.70574 14.9802 5.47232 14.9802 5.18704C14.9802 4.90175 14.7467 4.66833 14.4615 4.66833H6.16226C5.87697 4.66833 5.64355 4.90175 5.64355 5.18704C5.64355 5.47232 5.87697 5.70574 6.16226 5.70574Z" fill="#2149A4"/>
<path d="M6.16226 9.3366H14.4615C14.7467 9.3366 14.9802 9.10318 14.9802 8.81789C14.9802 8.53261 14.7467 8.29919 14.4615 8.29919H6.16226C5.87697 8.29919 5.64355 8.53261 5.64355 8.81789C5.64355 9.10318 5.87697 9.3366 6.16226 9.3366Z" fill="#2149A4"/>
<path d="M14.9802 12.4488C14.9802 12.1635 14.7467 11.9301 14.4615 11.9301H6.16226C5.87697 11.9301 5.64355 12.1635 5.64355 12.4488C5.64355 12.734 5.87697 12.9675 6.16226 12.9675H14.4615C14.7467 12.9675 14.9802 12.734 14.9802 12.4488Z" fill="#2149A4"/>
</g>
<defs>
<clipPath id="clip0_983_13003">
<rect width="20.9348" height="19" fill="white"/>
</clipPath>
</defs>
</svg>
