<svg width="20" height="20" viewBox="0 0 20 20" fill="none" xmlns="http://www.w3.org/2000/svg">
<g clip-path="url(#clip0_983_13065)">
<path d="M10.9987 6.03133C11.6248 6.03133 12.137 5.52425 12.137 4.89298C12.137 4.26172 11.63 3.75464 10.9987 3.75464C10.3674 3.75464 9.86035 4.26172 9.86035 4.89298C9.86035 5.52425 10.3674 6.03133 10.9987 6.03133Z" fill="#2149A4"/>
<path d="M7.76464 8.27177C8.1165 8.27177 8.81503 8.27177 8.99095 9.11518C9.16688 9.95859 6.53834 15.0863 7.58872 16.1367C8.6391 17.1871 12.3077 14.5637 12.3077 14.1756C12.3077 13.7876 11.6091 14.2119 10.5588 14.5637C9.50838 14.9156 9.86023 13.0373 9.86023 13.0373L11.6557 6.97302L7.88365 7.11273C7.61976 7.12308 7.3714 7.299 7.31448 7.55772C7.23687 7.91474 7.51628 8.2666 7.75947 8.2666L7.76464 8.27177Z" fill="#2149A4"/>
<path d="M10 19.5C15.2364 19.5 19.5 15.2364 19.5 10C19.5 4.76362 15.2364 0.5 10 0.5C4.76362 0.5 0.5 4.76362 0.5 10C0.5 15.2364 4.76362 19.5 10 19.5ZM10 1.53486C14.6672 1.53486 18.4651 5.33279 18.4651 10C18.4651 14.6672 14.6672 18.4651 10 18.4651C5.33279 18.4651 1.53486 14.6672 1.53486 10C1.53486 5.33279 5.33279 1.53486 10 1.53486Z" fill="#2149A4"/>
</g>
<defs>
<clipPath id="clip0_983_13065">
<rect width="19" height="19" fill="white" transform="translate(0.5 0.5)"/>
</clipPath>
</defs>
</svg>
