<svg width="18" height="19" viewBox="0 0 18 19" fill="none" xmlns="http://www.w3.org/2000/svg">
<g clip-path="url(#clip0_983_13000)">
<path d="M0.107935 15.5595C-0.128281 16.3708 0.0309078 17.2232 0.544421 17.9062C1.06821 18.6046 1.86929 19 2.73712 19H14.9485C15.8163 19 16.6174 18.5995 17.1412 17.9062C17.6547 17.2232 17.8139 16.3708 17.5777 15.5595C16.6123 12.2165 14.2039 9.74649 11.2614 8.85811C12.6633 8.02622 13.6082 6.50622 13.6082 4.76027C13.6082 2.13622 11.472 0 8.84794 0C6.22388 0 4.07739 2.13622 4.07739 4.76027C4.07739 6.50622 5.02226 8.02622 6.42415 8.85811C3.47658 9.74135 1.07334 12.2114 0.107935 15.5595ZM9.18172 9.84919L10.2909 14.0138L8.91983 14.9278L7.54875 14.0138L8.65794 9.84919H9.17659H9.18172ZM5.10442 4.76027C5.10442 2.70108 6.77848 1.02703 8.83766 1.02703C10.8969 1.02703 12.5709 2.70108 12.5709 4.76027C12.5709 6.81946 10.8969 8.49351 8.83766 8.49351C6.77848 8.49351 5.10442 6.81946 5.10442 4.76027ZM7.65658 9.62324L6.4601 14.1062C6.40361 14.3168 6.48577 14.5427 6.67064 14.6659L8.63226 15.9703C8.71956 16.0268 8.81713 16.0576 8.91469 16.0576C9.01226 16.0576 9.11496 16.0268 9.19712 15.9703L11.1587 14.6659C11.3436 14.5427 11.4258 14.3168 11.3693 14.1062L10.1831 9.64892C13.146 10.2035 15.6263 12.5503 16.5815 15.8419C16.7252 16.34 16.6277 16.8638 16.3093 17.2849C15.9806 17.7214 15.4825 17.973 14.9382 17.973H2.73712C2.1928 17.973 1.69469 17.7214 1.36604 17.2849C1.04766 16.8638 0.950097 16.34 1.09388 15.8419C2.06442 12.4886 4.62172 10.1162 7.66172 9.62324H7.65658Z" fill="#2149A4"/>
</g>
<defs>
<clipPath id="clip0_983_13000">
<rect width="17.6803" height="19" fill="white"/>
</clipPath>
</defs>
</svg>
