<svg width="20" height="20" viewBox="0 0 20 20" fill="none" xmlns="http://www.w3.org/2000/svg">
<g clip-path="url(#clip0_983_13038)">
<path d="M11.265 1.96429L9.28839 3.94087C9.01415 4.21511 9.01415 4.65493 9.28839 4.92399C9.56263 5.19305 10.0024 5.19823 10.2715 4.92399L12.2481 2.94741C13.5831 1.61244 15.7304 1.52965 17.0343 2.75596C17.7018 3.38205 18.0743 4.23063 18.0899 5.14648C18.1054 6.06233 17.7535 6.92127 17.1067 7.56805L13.4175 11.2573C12.6465 12.0283 11.6272 12.4526 10.5406 12.4526C9.45397 12.4526 8.42946 12.0283 7.66366 11.2573C7.38943 10.9831 6.94961 10.9831 6.68055 11.2573C6.41149 11.5316 6.40631 11.9714 6.68055 12.2404C7.71023 13.2753 9.08142 13.8393 10.5457 13.8393C12.0101 13.8393 13.3761 13.2701 14.4109 12.2404L18.1002 8.55117C19.0161 7.63532 19.5076 6.41936 19.4921 5.12579C19.4714 3.83221 18.9436 2.63178 17.9967 1.7418C16.1495 0.00323719 13.1329 0.101549 11.2701 1.96429H11.265Z" fill="#2149A4"/>
<path d="M9.73337 15.0759L7.75679 17.0525C6.42182 18.3875 4.27449 18.4703 2.97057 17.244C2.30309 16.6179 1.93054 15.7693 1.91501 14.8535C1.89949 13.9376 2.25134 13.0787 2.89813 12.4319L6.5874 8.74262C7.35837 7.97165 8.37771 7.54735 9.46431 7.54735C10.5509 7.54735 11.5754 7.97165 12.3412 8.74262C12.6154 9.01685 13.0553 9.01685 13.3243 8.74262C13.5934 8.46838 13.5986 8.02856 13.3243 7.7595C12.2946 6.72464 10.9235 6.16064 9.45913 6.16064C7.99481 6.16064 6.62879 6.72982 5.59394 7.7595L1.90467 11.4488C0.993991 12.3646 0.497259 13.5806 0.517956 14.8742C0.538653 16.1677 1.06643 17.3682 2.01333 18.2581C2.89296 19.0912 4.04682 19.5 5.20586 19.5C6.47874 19.5 7.76196 19.0084 8.73473 18.0356L10.7113 16.0591C10.9855 15.7848 10.9855 15.345 10.7113 15.0759C10.4371 14.8069 9.99726 14.8017 9.72819 15.0759H9.73337Z" fill="#2149A4"/>
</g>
<defs>
<clipPath id="clip0_983_13038">
<rect width="18.9638" height="19" fill="white" transform="translate(0.518066 0.5)"/>
</clipPath>
</defs>
</svg>
