<svg width="12" height="16" viewBox="0 0 12 16" fill="none" xmlns="http://www.w3.org/2000/svg">
<path d="M6 7.99999C6.4125 7.99999 6.76575 7.85887 7.05975 7.57663C7.35325 7.29487 7.5 6.95599 7.5 6.55999C7.5 6.16399 7.35325 5.82487 7.05975 5.54263C6.76575 5.26087 6.4125 5.11999 6 5.11999C5.5875 5.11999 5.2345 5.26087 4.941 5.54263C4.647 5.82487 4.5 6.16399 4.5 6.55999C4.5 6.95599 4.647 7.29487 4.941 7.57663C5.2345 7.85887 5.5875 7.99999 6 7.99999ZM6 15.2C3.9875 13.556 2.4845 12.0289 1.491 10.6186C0.497 9.20887 0 7.90399 0 6.70399C0 4.90399 0.60325 3.46999 1.80975 2.40199C3.01575 1.33399 4.4125 0.799988 6 0.799988C7.5875 0.799988 8.98425 1.33399 10.1903 2.40199C11.3967 3.46999 12 4.90399 12 6.70399C12 7.90399 11.5033 9.20887 10.5098 10.6186C9.51575 12.0289 8.0125 13.556 6 15.2Z" fill="#2149A4"/>
</svg>
