<svg width="22" height="20" viewBox="0 0 22 20" fill="none" xmlns="http://www.w3.org/2000/svg">
<g clip-path="url(#clip0_983_13032)">
<path d="M7.70713 6.98348H13.2631C13.5084 6.98348 13.709 6.78283 13.709 6.53758C13.709 6.29233 13.5084 6.09167 13.2631 6.09167H7.70713C7.46189 6.09167 7.26123 6.29233 7.26123 6.53758C7.26123 6.78283 7.46189 6.98348 7.70713 6.98348Z" fill="#2149A4"/>
<path d="M6.19102 10.0379H11.747C11.9922 10.0379 12.1929 9.83727 12.1929 9.59202C12.1929 9.34678 11.9922 9.14612 11.747 9.14612H6.19102C5.94577 9.14612 5.74512 9.34678 5.74512 9.59202C5.74512 9.83727 5.94577 10.0379 6.19102 10.0379Z" fill="#2149A4"/>
<path d="M4.67491 13.0879H10.2309C10.4761 13.0879 10.6768 12.8872 10.6768 12.6419C10.6768 12.3967 10.4761 12.196 10.2309 12.196H4.67491C4.42966 12.196 4.229 12.3967 4.229 12.6419C4.229 12.8872 4.42966 13.0879 4.67491 13.0879Z" fill="#2149A4"/>
<path d="M21.0041 2.34164C20.9104 2.39069 20.8079 2.44865 20.6964 2.51554C20.4823 2.64039 20.2103 2.80092 19.8269 2.9659L20.2193 2.04288C20.3218 1.83331 20.2772 1.5836 20.1078 1.41861C19.9428 1.25809 19.6931 1.21796 19.4835 1.32497L19.2873 1.42753C19.0198 1.57022 18.6586 1.76196 18.1547 1.96262L18.4446 1.27593C18.5471 1.06635 18.5025 0.816644 18.3375 0.651659C18.1726 0.491133 17.9229 0.451002 17.7133 0.558019C16.6922 1.07973 12.9822 2.75187 7.96134 2.26583C7.54665 2.2257 7.13642 2.44865 6.9536 2.82321L0.282863 16.2583C0.193682 16.4411 0.184764 16.6507 0.269486 16.838C0.349749 17.0208 0.510274 17.1591 0.702013 17.2126C0.81349 17.2438 1.00523 17.3017 1.25939 17.3775C3.16787 17.9572 8.23334 19.5001 11.8006 19.5001C12.6389 19.5001 13.3969 19.4153 14.0123 19.2102C14.6009 19.014 15.1047 18.5637 15.399 17.9572L21.7309 3.05954C21.8334 2.84997 21.7888 2.60026 21.6239 2.43528C21.4589 2.27475 21.2092 2.23462 20.9996 2.34164H21.0041ZM13.0714 16.5749C12.8886 16.9495 12.5765 17.2304 12.2153 17.3508C12.0458 17.4088 11.863 17.4578 11.6713 17.4979C11.6088 17.5113 11.5375 17.5202 11.4706 17.5336C11.3368 17.5604 11.2075 17.5827 11.0693 17.6005C10.989 17.6094 10.8999 17.6183 10.8151 17.6273C10.6858 17.6406 10.552 17.6585 10.4183 17.6674C10.3246 17.6718 10.2265 17.6763 10.1329 17.6808C10.0125 17.6852 9.89657 17.6941 9.77172 17.6941C9.77172 17.6941 9.77172 17.6941 9.77618 17.6941C9.78509 17.6941 9.79401 17.6941 9.79847 17.6897C10.1106 17.6228 10.4183 17.5381 10.7126 17.44C10.7126 17.44 10.717 17.44 10.7215 17.44C10.8999 17.382 11.0693 17.2884 11.2298 17.1858C11.5955 16.9495 11.9031 16.6106 12.1083 16.187L17.7846 3.05509C18.293 2.88564 18.6987 2.7162 19.0242 2.56459L13.0625 16.5794L13.0714 16.5749ZM7.75623 3.22007C7.77852 3.17548 7.82757 3.14873 7.88108 3.15318C12.1974 3.57679 15.6041 2.46649 17.2808 1.74858L11.3012 15.808C11.1183 16.1825 10.8062 16.4634 10.445 16.5838C10.2488 16.6507 10.0393 16.7087 9.82968 16.7577C9.74942 16.7756 9.66916 16.7934 9.58444 16.8068C9.45066 16.8335 9.32135 16.8648 9.18312 16.887C9.08502 16.9049 8.98246 16.9183 8.88437 16.9316C8.76397 16.9495 8.63912 16.9673 8.51872 16.9807C8.40725 16.9941 8.30023 17.003 8.18875 17.0119C8.07282 17.0208 7.95242 17.0342 7.83649 17.0387C7.72055 17.0476 7.60462 17.052 7.48868 17.0565C7.37275 17.061 7.26127 17.0654 7.14534 17.0699C7.02494 17.0699 6.90455 17.0699 6.78415 17.0699C6.67268 17.0699 6.5612 17.0699 6.45418 17.0699C6.32933 17.0699 6.20894 17.0654 6.08408 17.061C5.97707 17.061 5.87451 17.052 5.76749 17.0476C5.64264 17.0431 5.51778 17.0342 5.39739 17.0253C5.29483 17.0208 5.19673 17.0119 5.09863 17.003C4.97378 16.9941 4.85339 16.9851 4.72853 16.9718C4.63489 16.9629 4.54125 16.9539 4.44761 16.945C4.32722 16.9316 4.20237 16.9183 4.08643 16.9049C4.00171 16.896 3.91699 16.8826 3.83226 16.8737C3.71187 16.8603 3.59148 16.8425 3.47554 16.8291C3.39974 16.8202 3.32393 16.8068 3.25259 16.7979C3.13665 16.78 3.02072 16.7622 2.90924 16.7444C2.84236 16.7354 2.77993 16.7221 2.71304 16.7131C2.60603 16.6953 2.49455 16.6775 2.39199 16.6596C2.33402 16.6507 2.28052 16.6373 2.22701 16.6284C2.12445 16.6106 2.02189 16.5883 1.93271 16.5705C1.88812 16.5615 1.84353 16.5526 1.8034 16.5437C1.70976 16.5259 1.62058 16.5036 1.53586 16.4857C1.49572 16.4768 1.46897 16.4679 1.4333 16.4634C1.35749 16.4456 1.27723 16.4278 1.21034 16.4099L7.75623 3.22007ZM14.583 17.5916C14.4002 17.9661 14.0881 18.2471 13.7269 18.3675C12.9733 18.6172 11.8987 18.6796 10.5119 18.5547C10.6992 18.5414 10.8865 18.5235 11.0693 18.5012C11.0916 18.5012 11.1183 18.4923 11.1406 18.4923C11.3413 18.4656 11.5375 18.4343 11.7292 18.3942C11.7827 18.3853 11.8407 18.3719 11.8942 18.3585C12.1038 18.3139 12.3045 18.2604 12.4962 18.198C13.0848 18.0018 13.5842 17.5514 13.8785 16.9495L19.5727 4.0227C19.9651 3.88893 20.2728 3.75516 20.5269 3.62584L14.5875 17.5916H14.583Z" fill="#2149A4"/>
</g>
<defs>
<clipPath id="clip0_983_13032">
<rect width="21.5773" height="19" fill="white" transform="translate(0.211426 0.5)"/>
</clipPath>
</defs>
</svg>
