<svg width="16" height="20" viewBox="0 0 16 20" fill="none" xmlns="http://www.w3.org/2000/svg">
<g clip-path="url(#clip0_983_13050)">
<path d="M3.67667 19.5H12.3182C13.8455 19.5 15.0859 18.2596 15.0859 16.7323V9.51052C15.0859 8.20353 14.1736 7.10669 12.9537 6.81967V5.42042C12.9537 2.70906 10.7498 0.5 8.03842 0.5C5.32706 0.5 3.118 2.70906 3.118 5.42042V6.79916C1.85714 7.06056 0.908936 8.17791 0.908936 9.51052V16.7323C0.908936 18.2596 2.14929 19.5 3.67667 19.5ZM8.03842 1.52509C10.186 1.52509 11.9338 3.27286 11.9338 5.42042V6.74278H4.14309V5.42042C4.14309 3.27286 5.89086 1.52509 8.03842 1.52509ZM1.93402 9.51052C1.93402 8.54694 2.71822 7.76787 3.67667 7.76787H12.3182C13.2817 7.76787 14.0608 8.55206 14.0608 9.51052V16.7323C14.0608 17.6958 13.2766 18.4749 12.3182 18.4749H3.67667C2.71309 18.4749 1.93402 17.6907 1.93402 16.7323V9.51052Z" fill="#2149A4"/>
<path d="M7.20813 13.0676C7.36189 13.165 7.43877 13.3546 7.38239 13.5289L6.66996 15.8968C6.6187 16.0762 6.75196 16.2556 6.93648 16.2556H9.06866C9.25318 16.2556 9.38644 16.0762 9.33518 15.902L8.64837 13.5494C8.59712 13.37 8.67913 13.1804 8.83802 13.083C9.28905 12.8113 9.59146 12.3244 9.59146 11.7606C9.59146 10.8073 8.73038 10.0538 7.74117 10.2332C7.13637 10.346 6.63408 10.8329 6.51619 11.4377C6.37781 12.1245 6.69046 12.7447 7.20813 13.0727V13.0676Z" fill="#2149A4"/>
</g>
<defs>
<clipPath id="clip0_983_13050">
<rect width="14.1821" height="19" fill="white" transform="translate(0.908936 0.5)"/>
</clipPath>
</defs>
</svg>
