<svg width="16" height="20" viewBox="0 0 16 20" fill="none" xmlns="http://www.w3.org/2000/svg">
<g clip-path="url(#clip0_983_13062)">
<path d="M0.588131 18.4979C0.349041 18.6403 0.267649 18.9507 0.410085 19.1897C0.552522 19.4288 0.857743 19.5153 1.10192 19.3729C1.13753 19.3525 4.73405 17.3432 8.79349 18.8642C10.0195 19.322 11.0623 19.495 11.9322 19.495C14.3587 19.495 15.4829 18.1876 15.544 18.1113C15.722 17.8976 15.6915 17.5822 15.4778 17.3991C15.2642 17.2211 14.9437 17.2465 14.7606 17.4602C14.6944 17.5415 13.0513 19.3831 9.14958 17.918C6.85533 17.0583 4.72387 17.2007 3.15707 17.5568C4.38813 16.1172 5.60393 13.8331 5.00875 10.7809H9.87193C10.1517 10.7809 10.3806 10.552 10.3806 10.2722C10.3806 9.99242 10.1517 9.7635 9.87193 9.7635H4.78492C4.09817 6.7469 4.19991 4.52388 5.11049 3.16565C5.70567 2.27542 6.63659 1.75146 7.95413 1.56324C8.98679 1.41571 9.86685 1.61411 10.5587 2.14824C11.983 3.24704 12.2476 5.42937 12.2527 5.44971C12.2832 5.7295 12.5375 5.92789 12.8173 5.89737C13.0971 5.86685 13.2955 5.6125 13.265 5.3378C13.2548 5.23097 12.9547 2.7129 11.1895 1.34958C10.2738 0.637399 9.1394 0.367787 7.81678 0.561094C6.21946 0.790009 5.02401 1.47676 4.27113 2.60099C3.2232 4.1627 3.05533 6.57903 3.74717 9.7635H0.847569C0.567783 9.7635 0.338867 9.99242 0.338867 10.2722C0.338867 10.552 0.567783 10.7809 0.847569 10.7809H3.97608C5.07488 15.756 0.77635 18.386 0.588131 18.4979Z" fill="#2149A4"/>
</g>
<defs>
<clipPath id="clip0_983_13062">
<rect width="15.3221" height="19" fill="white" transform="translate(0.338867 0.5)"/>
</clipPath>
</defs>
</svg>
