<svg width="11" height="19" viewBox="0 0 11 19" fill="none" xmlns="http://www.w3.org/2000/svg">
<path d="M2.17972 0.375991L10.7212 8.79816C10.8226 8.89842 10.8942 9.00704 10.9361 9.12401C10.9787 9.24099 11 9.36632 11 9.5C11 9.63369 10.9787 9.75902 10.9361 9.87599C10.8942 9.99297 10.8226 10.1016 10.7212 10.2018L2.17972 18.6491C1.94316 18.883 1.64746 19 1.29262 19C0.937785 19 0.633638 18.8747 0.380182 18.624C0.126725 18.3734 -1.827e-06 18.0809 -1.79778e-06 17.7467C-1.76856e-06 17.4125 0.126725 17.1201 0.380182 16.8694L7.8318 9.5L0.380184 2.13061C0.143624 1.89666 0.0253445 1.60857 0.0253445 1.26633C0.0253445 0.92343 0.152072 0.626651 0.405529 0.375991C0.658985 0.125331 0.954684 1.02916e-06 1.29263 1.0587e-06C1.63057 1.08825e-06 1.92627 0.125331 2.17972 0.375991Z" fill="white"/>
</svg>
