<svg width="17" height="19" viewBox="0 0 17 19" fill="none" xmlns="http://www.w3.org/2000/svg">
<g clip-path="url(#clip0_983_12989)">
<path d="M16.1083 15.4509V0.42967C16.1083 0.193351 15.915 0 15.6787 0H3.81976C3.58345 0 3.39009 0.193351 3.39009 0.42967V2.47919H0.42967C0.193351 2.47919 0 2.67255 0 2.90886V16.8774C0 18.0504 0.953867 19 2.12257 19H12.4733C14.4799 19 16.1083 17.4059 16.1083 15.4509ZM0.85934 16.8774V3.33853H3.39009V16.8774C3.39009 17.5735 2.82293 18.1407 2.12687 18.1407C1.4308 18.1407 0.863636 17.5735 0.863636 16.8774H0.85934ZM4.24943 16.9247V0.85934H15.2533V15.4509C15.2533 16.9333 14.0072 18.1407 12.4776 18.1407H3.84125C4.09475 17.7969 4.24514 17.3758 4.24514 16.9204L4.24943 16.9247Z" fill="#2149A4"/>
<path d="M8.38727 6.61694H5.59871C5.31632 6.61694 5.0874 6.84586 5.0874 7.12825V8.99302C5.0874 9.2754 5.31632 9.50433 5.59871 9.50433H8.38727C8.66965 9.50433 8.89857 9.2754 8.89857 8.99302V7.12825C8.89857 6.84586 8.66965 6.61694 8.38727 6.61694Z" fill="#2149A4"/>
<path d="M5.51268 5.39669H13.9858C14.2221 5.39669 14.4154 5.20334 14.4154 4.96702C14.4154 4.7307 14.2221 4.53735 13.9858 4.53735H5.51268C5.27636 4.53735 5.08301 4.7307 5.08301 4.96702C5.08301 5.20334 5.27636 5.39669 5.51268 5.39669Z" fill="#2149A4"/>
<path d="M13.9857 6.59973H10.1745C9.93822 6.59973 9.74487 6.79308 9.74487 7.0294C9.74487 7.26572 9.93822 7.45907 10.1745 7.45907H13.9857C14.222 7.45907 14.4154 7.26572 14.4154 7.0294C14.4154 6.79308 14.222 6.59973 13.9857 6.59973Z" fill="#2149A4"/>
<path d="M13.9857 8.66211H10.1745C9.93822 8.66211 9.74487 8.85546 9.74487 9.09178C9.74487 9.3281 9.93822 9.52145 10.1745 9.52145H13.9857C14.222 9.52145 14.4154 9.3281 14.4154 9.09178C14.4154 8.85546 14.222 8.66211 13.9857 8.66211Z" fill="#2149A4"/>
<path d="M5.51268 3.33859H13.9858C14.2221 3.33859 14.4154 3.14524 14.4154 2.90892C14.4154 2.6726 14.2221 2.47925 13.9858 2.47925H5.51268C5.27636 2.47925 5.08301 2.6726 5.08301 2.90892C5.08301 3.14524 5.27636 3.33859 5.51268 3.33859Z" fill="#2149A4"/>
<path d="M5.51268 13.6421H13.9858C14.2221 13.6421 14.4154 13.4487 14.4154 13.2124C14.4154 12.9761 14.2221 12.7827 13.9858 12.7827H5.51268C5.27636 12.7827 5.08301 12.9761 5.08301 13.2124C5.08301 13.4487 5.27636 13.6421 5.51268 13.6421Z" fill="#2149A4"/>
<path d="M14.4154 15.2748C14.4154 15.0384 14.2221 14.8451 13.9858 14.8451H5.51268C5.27636 14.8451 5.08301 15.0384 5.08301 15.2748C5.08301 15.5111 5.27636 15.7044 5.51268 15.7044H13.9858C14.2221 15.7044 14.4154 15.5111 14.4154 15.2748Z" fill="#2149A4"/>
<path d="M5.51268 11.5839H13.9858C14.2221 11.5839 14.4154 11.3906 14.4154 11.1543C14.4154 10.918 14.2221 10.7246 13.9858 10.7246H5.51268C5.27636 10.7246 5.08301 10.918 5.08301 11.1543C5.08301 11.3906 5.27636 11.5839 5.51268 11.5839Z" fill="#2149A4"/>
</g>
<defs>
<clipPath id="clip0_983_12989">
<rect width="16.1083" height="19" fill="white"/>
</clipPath>
</defs>
</svg>
