<svg width="20" height="20" viewBox="0 0 20 20" fill="none" xmlns="http://www.w3.org/2000/svg">
<g clip-path="url(#clip0_983_13054)">
<path d="M13.8953 19.4628C14.1974 19.4893 14.4942 19.5052 14.7804 19.5052C16.3916 19.5052 17.7271 19.0654 18.7553 18.1962C19.333 17.7086 19.6351 16.9931 19.5874 16.2299C19.5344 15.4667 19.1369 14.7884 18.4903 14.3803L16.3757 13.0341C15.427 12.4299 14.2133 12.5624 13.4184 13.3574L12.9997 13.7761C12.6711 14.1047 12.104 14.0994 11.7807 13.7761L6.03035 8.02574C5.85546 7.85085 5.77066 7.62295 5.78126 7.37916C5.79186 7.13537 5.90316 6.91277 6.08865 6.75908L6.60804 6.32979C7.37652 5.6885 7.53022 4.54903 6.95783 3.73285L5.26717 1.31612C4.64709 0.46284 3.44932 0.240246 2.56955 0.828531C0.433702 2.26479 -0.128083 4.72393 0.942489 7.94094C1.91766 10.8612 8.76508 18.9912 13.8953 19.4575V19.4628ZM3.15783 1.70831C3.31683 1.60231 3.49172 1.55461 3.66132 1.55461C3.93691 1.55461 4.2072 1.68711 4.3768 1.9256L6.06745 4.34234C6.32715 4.71333 6.25825 5.22742 5.90846 5.51891L5.38907 5.9482C4.97568 6.29269 4.72659 6.79617 4.70009 7.33676C4.67359 7.87205 4.88028 8.39673 5.26187 8.77832L11.0122 14.5287C11.7383 15.2548 13.005 15.2548 13.7311 14.5287L14.1497 14.11C14.5896 13.6701 15.2627 13.5959 15.7874 13.9298L17.902 15.276C18.2624 15.5038 18.485 15.8801 18.5115 16.3041C18.538 16.7228 18.3737 17.1203 18.0557 17.3853C17.07 18.2174 15.6973 18.5619 13.9801 18.4029C9.28977 17.9789 2.73384 9.98669 1.93886 7.60705C1.30818 5.7097 1.00609 3.14987 3.15253 1.70831H3.15783Z" fill="#2149A4"/>
</g>
<defs>
<clipPath id="clip0_983_13054">
<rect width="19.1749" height="19" fill="white" transform="translate(0.412598 0.5)"/>
</clipPath>
</defs>
</svg>
