<svg width="14" height="20" viewBox="0 0 14 20" fill="none" xmlns="http://www.w3.org/2000/svg">
<g clip-path="url(#clip0_983_13106)">
<path d="M13.0885 5.18667C13.0379 5.11067 12.9745 5.03467 12.907 4.96711L8.8663 0.926444C8.79875 0.858889 8.72697 0.799778 8.64675 0.744889C8.57919 0.601333 8.43564 0.5 8.26675 0.5C8.21608 0.5 8.16964 0.512667 8.12741 0.529556C8.03453 0.512667 7.93741 0.5 7.8403 0.5H1.89541C1.21986 0.5 0.666748 1.05311 0.666748 1.72867V18.2713C0.666748 18.9469 1.21986 19.5 1.89541 19.5H12.1047C12.7845 19.5 13.3334 18.9469 13.3334 18.2713V5.99311C13.3334 5.896 13.325 5.79889 13.3039 5.706C13.3207 5.66378 13.3334 5.61733 13.3334 5.56667C13.3334 5.39778 13.2321 5.25422 13.0885 5.18667ZM11.8894 5.14444H8.92542C8.79453 5.14444 8.68475 5.03889 8.68475 4.90378V1.93978L11.8894 5.14444ZM12.4847 18.2713C12.4847 18.4824 12.3116 18.6556 12.1005 18.6556H1.89541C1.6843 18.6556 1.51119 18.4824 1.51119 18.2713V1.72867C1.51119 1.51756 1.6843 1.34444 1.89541 1.34444H7.8403V4.90378C7.8403 5.50333 8.32586 5.98889 8.92542 5.98889H12.4847V18.2671V18.2713Z" fill="#182A78"/>
</g>
<defs>
<clipPath id="clip0_983_13106">
<rect width="12.6667" height="19" fill="white" transform="translate(0.666748 0.5)"/>
</clipPath>
</defs>
</svg>
