<svg width="13" height="19" viewBox="0 0 13 19" fill="none" xmlns="http://www.w3.org/2000/svg">
<g clip-path="url(#clip0_983_12983)">
<path d="M12.4218 4.68667C12.3711 4.61067 12.3078 4.53467 12.2402 4.46711L8.19956 0.426444C8.132 0.358889 8.06022 0.299778 7.98 0.244889C7.91244 0.101333 7.76889 0 7.6 0C7.54933 0 7.50289 0.0126667 7.46067 0.0295556C7.36778 0.0126667 7.27067 0 7.17356 0H1.22867C0.553111 0 0 0.553111 0 1.22867V17.7713C0 18.4469 0.553111 19 1.22867 19H11.438C12.1178 19 12.6667 18.4469 12.6667 17.7713V5.49311C12.6667 5.396 12.6582 5.29889 12.6371 5.206C12.654 5.16378 12.6667 5.11733 12.6667 5.06667C12.6667 4.89778 12.5653 4.75422 12.4218 4.68667ZM11.2227 4.64444H8.25867C8.12778 4.64444 8.018 4.53889 8.018 4.40378V1.43978L11.2227 4.64444ZM11.818 17.7713C11.818 17.9824 11.6449 18.1556 11.4338 18.1556H1.22867C1.01756 18.1556 0.844444 17.9824 0.844444 17.7713V1.22867C0.844444 1.01756 1.01756 0.844444 1.22867 0.844444H7.17356V4.40378C7.17356 5.00333 7.65911 5.48889 8.25867 5.48889H11.818V17.7671V17.7713Z" fill="#2149A4"/>
<path d="M9.71123 8.02222H2.95567C2.72345 8.02222 2.53345 8.21222 2.53345 8.44444C2.53345 8.67666 2.72345 8.86666 2.95567 8.86666H9.71123C9.94345 8.86666 10.1334 8.67666 10.1334 8.44444C10.1334 8.21222 9.94345 8.02222 9.71123 8.02222Z" fill="#2149A4"/>
<path d="M9.71123 10.9778H2.95567C2.72345 10.9778 2.53345 11.1678 2.53345 11.4C2.53345 11.6322 2.72345 11.8222 2.95567 11.8222H9.71123C9.94345 11.8222 10.1334 11.6322 10.1334 11.4C10.1334 11.1678 9.94345 10.9778 9.71123 10.9778Z" fill="#2149A4"/>
<path d="M9.71123 13.9333H2.95567C2.72345 13.9333 2.53345 14.1233 2.53345 14.3556C2.53345 14.5878 2.72345 14.7778 2.95567 14.7778H9.71123C9.94345 14.7778 10.1334 14.5878 10.1334 14.3556C10.1334 14.1233 9.94345 13.9333 9.71123 13.9333Z" fill="#2149A4"/>
</g>
<defs>
<clipPath id="clip0_983_12983">
<rect width="12.6667" height="19" fill="white"/>
</clipPath>
</defs>
</svg>
