<svg width="20" height="19" viewBox="0 0 20 19" fill="none" xmlns="http://www.w3.org/2000/svg">
<g clip-path="url(#clip0_983_12977)">
<path d="M14.8158 5.84225V1.2054C14.8158 0.54035 14.2754 0 13.6104 0H13.1485C12.5435 0 12.0447 0.452601 11.9616 1.03452C8.91347 2.7895 7.75425 3.02504 7.56952 3.05737H4.62299C2.07365 3.05275 0 5.1264 0 7.67574C0 9.25061 0.794361 10.6454 2.00438 11.4813C1.89815 11.5644 1.82426 11.6891 1.82426 11.8369V17.6237C1.82426 18.3811 2.44312 19 3.20053 19C3.95795 19 4.57681 18.3811 4.57681 17.6237V14.063C5.37117 13.8597 5.96694 13.1531 5.99003 12.2987H7.58799C7.94823 12.405 9.23675 12.8483 11.9755 14.4186C12.1048 14.9451 12.5758 15.333 13.1439 15.333H13.6057C14.2708 15.333 14.8111 14.7927 14.8111 14.1276V9.49076C15.684 9.29217 16.3352 8.55323 16.3352 7.66651C16.3352 6.77978 15.684 6.04084 14.8111 5.84225H14.8158ZM8.22995 3.84249C8.86266 3.64852 10.0126 3.1913 11.9385 2.10598V13.3379C10.0126 12.2618 8.84881 11.7676 8.22995 11.5413V3.83787V3.84249ZM0.923675 7.67574C0.923675 5.63442 2.58167 3.97642 4.62299 3.97642H7.30627V11.3751H4.62299C2.58167 11.3751 0.923675 9.71706 0.923675 7.67574ZM3.65314 17.6191C3.65314 17.8685 3.44993 18.0717 3.20053 18.0717C2.95114 18.0717 2.74793 17.8685 2.74793 17.6191V12.2941H3.65314V17.6191ZM4.57681 13.0792V12.2941H5.07098C5.0525 12.6313 4.85853 12.9222 4.57681 13.0792ZM13.8921 14.123C13.8921 14.28 13.7674 14.4047 13.6104 14.4047H13.1485C12.9915 14.4047 12.8668 14.28 12.8668 14.123V1.2054C12.8668 1.04837 12.9915 0.923675 13.1485 0.923675H13.6104C13.7674 0.923675 13.8921 1.04837 13.8921 1.2054V14.1276V14.123ZM14.8158 8.52552V6.79825C15.1714 6.95528 15.4161 7.28318 15.4161 7.66189C15.4161 8.04059 15.1714 8.3685 14.8158 8.52552Z" fill="#2149A4"/>
<path d="M18.8937 7.09387H17.1711C16.9171 7.09387 16.7092 7.3017 16.7092 7.55571C16.7092 7.80972 16.9171 8.01755 17.1711 8.01755H18.8937C19.1477 8.01755 19.3556 7.80972 19.3556 7.55571C19.3556 7.3017 19.1477 7.09387 18.8937 7.09387Z" fill="#2149A4"/>
<path d="M16.8249 5.71757L18.0441 4.49831C18.2242 4.3182 18.2242 4.02724 18.0441 3.84712C17.864 3.66701 17.573 3.66701 17.3929 3.84712L16.1737 5.06638C15.9935 5.24649 15.9935 5.53745 16.1737 5.71757C16.266 5.80993 16.3815 5.8515 16.5016 5.8515C16.6216 5.8515 16.7371 5.80532 16.8295 5.71757H16.8249Z" fill="#2149A4"/>
<path d="M16.8249 9.38912C16.6447 9.209 16.3538 9.209 16.1737 9.38912C15.9935 9.56923 15.9935 9.86019 16.1737 10.0403L17.3929 11.2596C17.4853 11.3519 17.6007 11.3935 17.7208 11.3935C17.8409 11.3935 17.9564 11.3473 18.0487 11.2596C18.2288 11.0794 18.2288 10.7885 18.0487 10.6084L16.8295 9.38912H16.8249Z" fill="#2149A4"/>
</g>
<defs>
<clipPath id="clip0_983_12977">
<rect width="19.3556" height="19" fill="white"/>
</clipPath>
</defs>
</svg>
