<svg width="24" height="20" viewBox="0 0 24 20" fill="none" xmlns="http://www.w3.org/2000/svg">
<g clip-path="url(#clip0_983_13109)">
<path d="M21.5536 19.5H2.44679C1.87227 19.5 1.35875 19.2 1.07403 18.7018C0.789314 18.2035 0.799483 17.6086 1.09437 17.1155H1.08929L10.5664 1.26773C10.8511 0.789805 11.3545 0.505084 11.9137 0.5H11.9188C12.473 0.5 12.9764 0.78472 13.2662 1.25756L22.9009 17.1053C23.2009 17.5985 23.211 18.1933 22.9263 18.6967C22.6416 19.2 22.1281 19.5 21.5536 19.5ZM1.96379 17.6341C1.81126 17.8883 1.90786 18.112 1.9587 18.1984C2.00954 18.2849 2.1519 18.4831 2.44679 18.4831H21.5586C21.8535 18.4831 21.9959 18.2849 22.0467 18.1984C22.0925 18.112 22.1891 17.8832 22.0366 17.6341L12.3968 1.78633C12.2493 1.54228 12.0053 1.53211 11.9188 1.51686C11.8222 1.51686 11.5884 1.54228 11.4409 1.79141L1.96379 17.6341Z" fill="#182A78"/>
<path d="M12.0612 13.0888C11.7815 13.0888 11.5527 12.86 11.5527 12.5803V7.12488C11.5527 6.84525 11.7815 6.61646 12.0612 6.61646C12.3408 6.61646 12.5696 6.84525 12.5696 7.12488V12.5803C12.5696 12.86 12.3408 13.0888 12.0612 13.0888Z" fill="#182A78"/>
<path d="M12.0001 16.302C12.4578 16.302 12.8289 15.931 12.8289 15.4733C12.8289 15.0156 12.4578 14.6445 12.0001 14.6445C11.5424 14.6445 11.1714 15.0156 11.1714 15.4733C11.1714 15.931 11.5424 16.302 12.0001 16.302Z" fill="#182A78"/>
</g>
<defs>
<clipPath id="clip0_983_13109">
<rect width="22.2692" height="19" fill="white" transform="translate(0.865479 0.5)"/>
</clipPath>
</defs>
</svg>
