<svg width="19" height="15" viewBox="0 0 19 15" fill="none" xmlns="http://www.w3.org/2000/svg">
<path d="M9.41931 14.8924C9.22741 14.8924 9.04083 14.8184 8.95021 14.6963C8.83827 14.5482 6.11962 11.1064 0.70898 12.398C0.543729 12.435 0.367817 12.4202 0.223889 12.3499C0.0852909 12.2796 0 12.1686 0 12.0502V0.96245C0 0.621973 0.287857 0.325906 0.719642 0.218582C1.86574 -0.0626816 8.14286 -0.362247 9.82978 1.32457C9.90974 1.39119 9.95238 1.47631 9.95238 1.56142L9.95238 14.526C9.95238 14.6963 9.78713 14.8443 9.54725 14.885C9.5046 14.8924 9.46196 14.8961 9.41931 14.8961V14.8924ZM3.04915 11.3692C5.85309 11.3692 7.80412 12.5091 8.88624 13.3788V1.77705C7.69048 0.581285 2.0683 0.673785 1.08746 0.914339C1.08213 0.921741 1.06614 0.936544 1.06614 0.96245V11.5505C1.76979 11.4247 2.42546 11.3692 3.04382 11.3692H3.04915Z" fill="#182A78"/>
<path d="M9.58057 14.8924C9.77247 14.8924 9.95904 14.8184 10.0497 14.6963C10.1616 14.5482 12.8803 11.1064 18.2909 12.398C18.4561 12.435 18.6321 12.4202 18.776 12.3499C18.9146 12.2796 18.9999 12.1686 18.9999 12.0502V0.96245C18.9999 0.621973 18.712 0.325906 18.2802 0.218582C17.1341 -0.0626816 10.857 -0.362247 9.1701 1.32457C9.09014 1.39119 9.0475 1.47631 9.0475 1.56142L9.0475 14.526C9.0475 14.6963 9.21275 14.8443 9.45263 14.885C9.49527 14.8924 9.53792 14.8961 9.58057 14.8961V14.8924ZM15.9507 11.3692C13.1468 11.3692 11.1958 12.5091 10.1136 13.3788V1.77705C11.3094 0.581285 16.9316 0.673785 17.9124 0.914339C17.9177 0.921741 17.9337 0.936544 17.9337 0.96245V11.5505C17.2301 11.4247 16.5744 11.3692 15.9561 11.3692H15.9507Z" fill="#182A78"/>
<circle cx="2.66268" cy="6.24935" r="0.853353" fill="#182A78"/>
<circle cx="4.93844" cy="6.24935" r="0.853353" fill="#182A78"/>
<circle cx="7.21395" cy="6.24935" r="0.853353" fill="#182A78"/>
</svg>
