<svg width="20" height="20" viewBox="0 0 20 20" fill="none" xmlns="http://www.w3.org/2000/svg">
<g clip-path="url(#clip0_983_13020)">
<path d="M11.7363 14.8075H5.54811C5.32211 14.8075 5.13721 14.9924 5.13721 15.2184C5.13721 15.4444 5.32211 15.6293 5.54811 15.6293H11.7363C11.9623 15.6293 12.1472 15.4444 12.1472 15.2184C12.1472 14.9924 11.9623 14.8075 11.7363 14.8075Z" fill="#2149A4"/>
<path d="M19.1817 15.2348L16.1246 12.0298C16.4533 11.4915 16.6505 10.867 16.6669 10.1931C16.6998 8.66043 15.7917 7.32089 14.4686 6.73742V3.19546C14.4686 2.56267 13.9509 2.04494 13.3181 2.04494H12.1471V1.64637C12.1471 1.01358 11.6334 0.49585 10.9965 0.49585H5.55211C5.19052 0.49585 4.84947 0.635555 4.59472 0.890313L0.892511 4.60074C0.637753 4.85549 0.498047 5.19654 0.498047 5.55813V16.8045C0.498047 17.4372 1.01167 17.955 1.64857 17.955H2.81963V18.3535C2.81963 18.9863 3.33736 19.5041 3.97015 19.5041H13.3222C13.955 19.5041 14.4727 18.9863 14.4727 18.3535V13.657L17.5134 16.8373C17.7271 17.0592 18.0147 17.1866 18.3229 17.1948C18.3311 17.1948 18.3393 17.1948 18.3516 17.1948C18.6516 17.1948 18.9351 17.0798 19.1488 16.8743C19.609 16.4346 19.6254 15.6991 19.1858 15.2389L19.1817 15.2348ZM3.04973 6.34706C2.91414 6.4128 2.81963 6.55251 2.81963 6.71276C2.81963 6.75796 2.83196 6.79905 2.84428 6.84014C2.82785 6.92643 2.81963 7.01272 2.81963 7.10312V17.1291H1.64857C1.46777 17.1291 1.31985 16.9811 1.31985 16.8003V5.55402C1.31985 5.41432 1.37326 5.27872 1.47599 5.18011L5.17819 1.4779C5.27681 1.37928 5.41241 1.32176 5.55211 1.32176H10.9965C11.1773 1.32176 11.3253 1.46968 11.3253 1.65048V2.04905H7.8737C7.7833 2.04905 7.69701 2.05727 7.61072 2.0737C7.56963 2.06138 7.52854 2.04905 7.48334 2.04905C7.32309 2.04905 7.18749 2.14356 7.11764 2.27915C7.04779 2.32846 6.97793 2.38188 6.9163 2.44351L3.21409 6.14572C3.15246 6.20735 3.09493 6.27721 3.04973 6.34706ZM7.07244 3.45022V6.10874C7.07244 6.21557 6.98615 6.30186 6.87932 6.30186H4.2208L7.07244 3.45022ZM13.6468 18.3494C13.6468 18.5302 13.4989 18.6782 13.3181 18.6782H3.97015C3.78935 18.6782 3.64143 18.5302 3.64143 18.3494V7.12366H6.87932C7.43814 7.12366 7.89424 6.66756 7.89424 6.10874V2.87085H13.3181C13.4989 2.87085 13.6468 3.01877 13.6468 3.19957V6.49088C13.4537 6.45389 13.2606 6.42924 13.0592 6.42513C11.2513 6.37171 9.7022 7.67016 9.35704 9.40004H5.548C5.32201 9.40004 5.1371 9.58495 5.1371 9.81094C5.1371 10.0369 5.32201 10.2218 5.548 10.2218H9.28719C9.30773 10.9122 9.51318 11.5614 9.86656 12.1079H5.548C5.32201 12.1079 5.1371 12.2928 5.1371 12.5188C5.1371 12.7448 5.32201 12.9297 5.548 12.9297H10.5856C11.2102 13.4597 12.0073 13.7885 12.8867 13.809C12.9154 13.809 12.9442 13.809 12.973 13.809C13.2031 13.809 13.4249 13.7843 13.6427 13.7433V18.3535L13.6468 18.3494ZM12.9853 12.9831C12.9853 12.9831 12.9771 12.9831 12.973 12.9831C12.9524 12.9831 12.9278 12.9831 12.9072 12.9831C12.8497 12.9831 12.7963 12.9749 12.7429 12.9708C12.7182 12.9708 12.6977 12.9708 12.673 12.9667C12.5867 12.9584 12.5045 12.9461 12.4224 12.9297C12.4141 12.9297 12.4059 12.9297 12.4018 12.9297C11.0664 12.6585 10.0761 11.4628 10.1049 10.0575C10.1419 8.49607 11.4198 7.25104 12.973 7.25104C12.973 7.25104 12.9771 7.25104 12.9812 7.25104C12.9976 7.25104 13.0182 7.25104 13.0346 7.25104C13.0592 7.25104 13.088 7.25515 13.1127 7.25515C13.1866 7.25515 13.2606 7.26337 13.3346 7.27158C13.3469 7.27158 13.3551 7.27158 13.3633 7.27569C14.7645 7.46471 15.8493 8.66043 15.8493 10.115C15.8493 11.697 14.5673 12.9831 12.9812 12.9831H12.9853ZM18.5735 16.2785C18.5078 16.3401 18.4338 16.373 18.3352 16.373C18.2448 16.373 18.1626 16.336 18.101 16.2703L15.0973 13.131C15.2822 12.9995 15.4548 12.8557 15.6109 12.6914L18.5858 15.806C18.7132 15.9375 18.7091 16.1511 18.5735 16.2785Z" fill="#2149A4"/>
</g>
<defs>
<clipPath id="clip0_983_13020">
<rect width="19.0041" height="19" fill="white" transform="translate(0.498047 0.5)"/>
</clipPath>
</defs>
</svg>
