<svg width="10" height="10" viewBox="0 0 10 10" fill="none" xmlns="http://www.w3.org/2000/svg">
<path d="M4.687 9.33663C4.56929 9.22772 4.50765 9.08911 4.50209 8.92079C4.49695 8.75248 4.55324 8.61386 4.67095 8.50495L7.81701 5.59406L0.642055 5.59406C0.460139 5.59406 0.307544 5.53703 0.18427 5.42297C0.0614233 5.30931 0 5.16832 0 5C0 4.83168 0.0614233 4.69049 0.18427 4.57644C0.307544 4.46277 0.460139 4.40594 0.642055 4.40594L7.81701 4.40594L4.67095 1.49505C4.55324 1.38614 4.49695 1.24752 4.50209 1.07921C4.50765 0.910891 4.56929 0.772277 4.687 0.663366C4.80471 0.554455 4.95452 0.5 5.13644 0.5C5.31835 0.5 5.46816 0.554455 5.58587 0.663366L9.82343 4.58416C9.88764 4.63366 9.93323 4.69545 9.96019 4.76951C9.98673 4.84396 10 4.92079 10 5C10 5.07921 9.98673 5.15347 9.96019 5.22277C9.93323 5.29208 9.88764 5.35644 9.82343 5.41584L5.58587 9.33663C5.46816 9.44554 5.31835 9.5 5.13644 9.5C4.95452 9.5 4.80471 9.44554 4.687 9.33663Z" fill="white"/>
</svg>
