<svg width="16" height="26" viewBox="0 0 16 26" fill="none" xmlns="http://www.w3.org/2000/svg">
<path d="M3.47235 0.51451L15.1198 12.0396C15.2581 12.1768 15.3558 12.3254 15.4129 12.4855C15.471 12.6456 15.5 12.8171 15.5 13C15.5 13.1829 15.471 13.3544 15.4129 13.5145C15.3558 13.6746 15.2581 13.8232 15.1198 13.9604L3.47235 25.5198C3.14977 25.8399 2.74654 26 2.26267 26C1.7788 26 1.36405 25.8285 1.01843 25.4855C0.672811 25.1425 0.499998 24.7423 0.499998 24.285C0.499998 23.8276 0.672811 23.4274 1.01843 23.0844L11.1797 13L1.01843 2.91557C0.695854 2.59543 0.534563 2.2012 0.534563 1.73288C0.534563 1.26364 0.707374 0.857518 1.053 0.51451C1.39862 0.171502 1.80184 7.48448e-07 2.26267 7.87435e-07C2.7235 8.26422e-07 3.12673 0.171502 3.47235 0.51451Z" fill="white"/>
</svg>
