<svg width="18" height="20" viewBox="0 0 18 20" fill="none" xmlns="http://www.w3.org/2000/svg">
<g clip-path="url(#clip0_983_13100)">
<path d="M17.1057 18.6781L11.5892 11.9061C12.9507 10.711 13.818 8.96125 13.818 7.01486C13.8129 3.42463 10.8883 0.5 7.29807 0.5C3.70783 0.5 0.783203 3.42463 0.783203 7.01486C0.783203 10.6051 3.70783 13.5297 7.29807 13.5297C8.57885 13.5297 9.76887 13.1515 10.7774 12.5111L16.319 19.3134C16.4199 19.4344 16.5661 19.5 16.7123 19.5C16.8233 19.5 16.9393 19.4647 17.03 19.3891C17.2468 19.2126 17.2771 18.8949 17.1006 18.6781H17.1057ZM1.7917 7.01486C1.7917 3.9793 4.2625 1.50849 7.29807 1.50849C10.3336 1.50849 12.8044 3.9793 12.8044 7.01486C12.8044 10.0504 10.3336 12.5212 7.29807 12.5212C4.2625 12.5212 1.7917 10.0504 1.7917 7.01486Z" fill="#2149A4"/>
</g>
<defs>
<clipPath id="clip0_983_13100">
<rect width="16.4334" height="19" fill="white" transform="translate(0.783203 0.5)"/>
</clipPath>
</defs>
</svg>
