<svg width="14" height="20" viewBox="0 0 14 20" fill="none" xmlns="http://www.w3.org/2000/svg">
<g clip-path="url(#clip0_983_13070)">
<path d="M6.99773 13.7947C7.22299 13.7947 7.4073 13.6104 7.4073 13.3851V2.3144L10.3644 6.95484C10.4873 7.14734 10.7412 7.20468 10.9296 7.08181C11.118 6.95893 11.1754 6.705 11.0566 6.5166L7.34586 0.688403C7.27214 0.569627 7.14108 0.5 7.00182 0.5C6.86257 0.5 6.7315 0.573723 6.65778 0.688403L2.94297 6.5166C2.89792 6.58623 2.87744 6.65995 2.87744 6.73777C2.87744 6.87292 2.94297 7.00399 3.06584 7.0859C3.25425 7.20877 3.50818 7.15143 3.63105 6.95894L6.58816 2.3185V13.3892C6.58816 13.6145 6.77246 13.7988 6.99773 13.7988V13.7947Z" fill="#2149A4"/>
<path d="M0.637207 9.75223V18.3C0.637207 18.9635 1.21061 19.5041 1.91507 19.5041H12.0806C12.7851 19.5041 13.3585 18.9635 13.3585 18.3V9.75223C13.3585 9.08873 12.7851 8.5481 12.0806 8.5481H8.84501C8.61975 8.5481 8.43544 8.7324 8.43544 8.95767C8.43544 9.18293 8.61975 9.36724 8.84501 9.36724H12.0806C12.3346 9.36724 12.5393 9.53926 12.5393 9.75223V18.3C12.5393 18.513 12.3346 18.685 12.0806 18.685H1.91507C1.66113 18.685 1.45635 18.513 1.45635 18.3V9.75223C1.45635 9.53926 1.66113 9.36724 1.91507 9.36724H5.11791C5.34318 9.36724 5.52749 9.18293 5.52749 8.95767C5.52749 8.7324 5.34318 8.5481 5.11791 8.5481H1.91507C1.21061 8.5481 0.637207 9.08873 0.637207 9.75223Z" fill="#2149A4"/>
</g>
<defs>
<clipPath id="clip0_983_13070">
<rect width="12.7254" height="19" fill="white" transform="translate(0.637207 0.5)"/>
</clipPath>
</defs>
</svg>
