<svg width="20" height="20" viewBox="0 0 20 20" fill="none" xmlns="http://www.w3.org/2000/svg">
<g clip-path="url(#clip0_983_13093)">
<path d="M16.9051 13.7758C16.4999 13.3103 14.9482 11.3663 14.9482 8.66376C14.9482 5.69824 13.4266 3.68531 11.6335 2.98703V2.21979C11.6335 1.53013 11.1939 0.504272 9.98267 0.504272H9.93957C8.99561 0.517203 8.22405 1.31031 8.22405 2.27151V3.09479C7.50423 3.37496 6.84474 3.80169 6.33181 4.34479C5.29733 5.44393 4.80595 6.99565 4.91371 8.83617C5.12061 12.3189 3.46112 13.5517 3.12492 13.7672C2.21543 13.8405 1.49561 14.5991 1.49561 15.5258C1.49561 16.5043 2.29302 17.3017 3.27147 17.3017H7.39647C7.60336 18.5474 8.68526 19.5 9.98698 19.5C11.2887 19.5 12.3706 18.5474 12.5775 17.3017H16.7025C17.681 17.3017 18.4784 16.5043 18.4784 15.5258C18.4784 14.6207 17.793 13.8793 16.9137 13.7715L16.9051 13.7758ZM9.08181 2.2672C9.08181 1.77582 9.46974 1.37065 9.97836 1.36203C10.6982 1.36203 10.7672 2.0172 10.7672 2.21548V2.74996C10.5861 2.7241 10.4051 2.70255 10.2197 2.70255C9.83612 2.70255 9.4525 2.74565 9.0775 2.82755V2.26289L9.08181 2.2672ZM5.76716 8.78444C5.67233 7.16375 6.06888 5.87065 6.9525 4.93531C7.75854 4.08186 8.98267 3.56893 10.2197 3.56893C12.1206 3.56893 14.0818 5.4741 14.0818 8.65944C14.0818 11.0086 15.0991 12.806 15.7844 13.75H4.40509C5.10767 12.9267 5.92664 11.4008 5.77147 8.78444H5.76716ZM9.97836 18.6379C9.15509 18.6379 8.46543 18.0689 8.27147 17.3017H11.6853C11.4913 18.0689 10.8016 18.6379 9.97836 18.6379ZM16.6939 16.4396H3.26285C2.75854 16.4396 2.34905 16.0301 2.34905 15.5258C2.34905 15.0215 2.75854 14.612 3.26285 14.612H16.6939C17.1982 14.612 17.6077 15.0215 17.6077 15.5258C17.6077 16.0301 17.1982 16.4396 16.6939 16.4396Z" fill="#2149A4"/>
<path d="M3.55178 5.54739C3.33195 5.45687 3.08195 5.56032 2.98712 5.78015C2.19402 7.70687 2.96126 9.40946 2.99574 9.47843C3.06902 9.6336 3.22419 9.72843 3.38799 9.72843C3.44833 9.72843 3.50868 9.71549 3.56902 9.68963C3.78454 9.59049 3.87937 9.33618 3.78023 9.12067C3.77592 9.10774 3.13799 7.68101 3.78885 6.11205C3.87937 5.89222 3.77592 5.63791 3.55609 5.54739H3.55178Z" fill="#2149A4"/>
<path d="M1.84909 11.8922C2.06892 11.7974 2.16806 11.5431 2.07323 11.3233C2.05599 11.2845 0.469784 7.53015 2.31461 3.5086C2.41375 3.29308 2.31461 3.03446 2.10341 2.93532C1.88789 2.83618 1.62927 2.93101 1.53013 3.14653C-0.482802 7.53015 1.21116 11.4957 1.28444 11.6638C1.35341 11.8276 1.51289 11.9224 1.68099 11.9224C1.73703 11.9224 1.79737 11.9095 1.85341 11.8879L1.84909 11.8922Z" fill="#2149A4"/>
<path d="M16.4482 9.5258C16.4999 9.54736 16.556 9.56029 16.612 9.56029C16.7801 9.56029 16.9396 9.46115 17.0085 9.29304C17.806 7.36632 17.0344 5.66373 16.9999 5.59477C16.9008 5.37925 16.6422 5.28442 16.4266 5.38356C16.2111 5.4827 16.1163 5.74132 16.2154 5.95684C16.2241 5.96977 16.862 7.38356 16.2068 8.96546C16.1163 9.18529 16.2197 9.4396 16.4396 9.53011L16.4482 9.5258Z" fill="#2149A4"/>
<path d="M18.1509 3.18101C17.9311 3.27584 17.8319 3.53015 17.9268 3.74998C17.944 3.78877 19.5302 7.54308 17.6854 11.5646C17.5862 11.7801 17.6854 12.0388 17.8966 12.1379C17.9526 12.1638 18.0173 12.1767 18.0776 12.1767C18.2414 12.1767 18.3966 12.0819 18.4699 11.9267C20.4828 7.54308 18.7888 3.57756 18.7155 3.40946C18.6207 3.19394 18.3707 3.09049 18.1466 3.18532L18.1509 3.18101Z" fill="#2149A4"/>
</g>
<defs>
<clipPath id="clip0_983_13093">
<rect width="18.9052" height="19" fill="white" transform="translate(0.547363 0.5)"/>
</clipPath>
</defs>
</svg>
