<svg width="20" height="35" viewBox="0 0 20 35" fill="none" xmlns="http://www.w3.org/2000/svg">
<path d="M16.0369 1.27292L0.506911 16.3442C0.322579 16.5236 0.192318 16.718 0.116127 16.9273C0.0387081 17.1366 -1.55734e-06 17.3609 -1.53573e-06 17.6001C-1.51412e-06 17.8393 0.0387082 18.0636 0.116128 18.2729C0.192318 18.4822 0.322579 18.6766 0.506911 18.856L16.0369 33.9721C16.467 34.3908 17.0046 34.6001 17.6498 34.6001C18.2949 34.6001 18.8479 34.3758 19.3088 33.9273C19.7696 33.4787 20 32.9554 20 32.3574C20 31.7593 19.7696 31.236 19.3088 30.7874L5.76037 17.6001L19.3088 4.41276C19.7389 3.99411 19.9539 3.47858 19.9539 2.86617C19.9539 2.25255 19.7235 1.72147 19.2627 1.27292C18.8018 0.82437 18.2642 0.600096 17.6498 0.600096C17.0353 0.600096 16.4977 0.82437 16.0369 1.27292Z" fill="#16D7F1"/>
</svg>
