<svg width="20" height="20" viewBox="0 0 20 20" fill="none" xmlns="http://www.w3.org/2000/svg">
<g clip-path="url(#clip0_983_13103)">
<path d="M16.6913 13.3204C15.7832 13.3204 14.9711 13.7145 14.404 14.3391L7.85928 10.9322C7.95058 10.6055 8.00344 10.2595 8.00344 9.90389C8.00344 9.5483 7.95539 9.23116 7.86889 8.91401L14.7644 6.00202C15.293 6.42489 15.9609 6.67956 16.6913 6.67956C18.3972 6.67956 19.7811 5.29084 19.7811 3.58978C19.7811 1.88872 18.3972 0.5 16.6913 0.5C14.9855 0.5 13.6016 1.88872 13.6016 3.58978C13.6016 4.20005 13.7794 4.76707 14.0869 5.24279L7.5133 8.02023C6.85018 6.82372 5.57198 6.01163 4.10637 6.01163C1.96323 6.01163 0.214111 7.76075 0.214111 9.9087C0.214111 12.0567 1.96323 13.8058 4.11118 13.8058C5.56237 13.8058 6.82615 13.0081 7.49408 11.8308L13.8755 15.1512C13.7025 15.5357 13.6016 15.9633 13.6016 16.415C13.6016 18.1209 14.9903 19.5048 16.6913 19.5048C18.3924 19.5048 19.7811 18.1161 19.7811 16.415C19.7811 14.714 18.3972 13.3252 16.6913 13.3252V13.3204ZM16.6913 1.46105C17.8638 1.46105 18.8201 2.4173 18.8201 3.58978C18.8201 4.76227 17.8638 5.71851 16.6913 5.71851C15.5189 5.71851 14.5626 4.76227 14.5626 3.58978C14.5626 2.4173 15.5189 1.46105 16.6913 1.46105ZM4.11118 12.8399C2.4918 12.8399 1.17516 11.5233 1.17516 9.90389C1.17516 8.28452 2.4918 6.96788 4.11118 6.96788C5.73055 6.96788 7.04719 8.28452 7.04719 9.90389C7.04719 11.5233 5.73055 12.8399 4.11118 12.8399ZM16.6962 18.5389C15.5237 18.5389 14.5674 17.5827 14.5674 16.4102C14.5674 15.2377 15.5237 14.2815 16.6962 14.2815C17.8686 14.2815 18.8249 15.2377 18.8249 16.4102C18.8249 17.5827 17.8686 18.5389 16.6962 18.5389Z" fill="#182A78"/>
</g>
<defs>
<clipPath id="clip0_983_13103">
<rect width="19.5718" height="19" fill="white" transform="translate(0.214111 0.5)"/>
</clipPath>
</defs>
</svg>
