<svg width="20" height="20" viewBox="0 0 20 20" fill="none" xmlns="http://www.w3.org/2000/svg">
<g clip-path="url(#clip0_983_13093)">
<path d="M16.9051 13.7758C16.5 13.3103 14.9482 11.3663 14.9482 8.66376C14.9482 5.69824 13.4267 3.68531 11.6336 2.98703V2.21979C11.6336 1.53013 11.1939 0.504272 9.98271 0.504272H9.93961C8.99565 0.517203 8.22409 1.31031 8.22409 2.27151V3.09479C7.50427 3.37496 6.84478 3.80169 6.33185 4.34479C5.29737 5.44393 4.80599 6.99565 4.91375 8.83617C5.12065 12.3189 3.46116 13.5517 3.12496 13.7672C2.21547 13.8405 1.49565 14.5991 1.49565 15.5258C1.49565 16.5043 2.29306 17.3017 3.27151 17.3017H7.39651C7.6034 18.5474 8.6853 19.5 9.98703 19.5C11.2887 19.5 12.3706 18.5474 12.5775 17.3017H16.7025C17.681 17.3017 18.4784 16.5043 18.4784 15.5258C18.4784 14.6207 17.7931 13.8793 16.9137 13.7715L16.9051 13.7758ZM9.08185 2.2672C9.08185 1.77582 9.46978 1.37065 9.9784 1.36203C10.6982 1.36203 10.7672 2.0172 10.7672 2.21548V2.74996C10.5862 2.7241 10.4051 2.70255 10.2198 2.70255C9.83616 2.70255 9.45254 2.74565 9.07754 2.82755V2.26289L9.08185 2.2672ZM5.7672 8.78444C5.67237 7.16375 6.06892 5.87065 6.95254 4.93531C7.75858 4.08186 8.98272 3.56893 10.2198 3.56893C12.1206 3.56893 14.0819 5.4741 14.0819 8.65944C14.0819 11.0086 15.0991 12.806 15.7844 13.75H4.40513C5.10772 12.9267 5.92668 11.4008 5.77151 8.78444H5.7672ZM9.9784 18.6379C9.15513 18.6379 8.46547 18.0689 8.27151 17.3017H11.6853C11.4913 18.0689 10.8017 18.6379 9.9784 18.6379ZM16.6939 16.4396H3.26289C2.75858 16.4396 2.34909 16.0301 2.34909 15.5258C2.34909 15.0215 2.75858 14.612 3.26289 14.612H16.6939C17.1982 14.612 17.6077 15.0215 17.6077 15.5258C17.6077 16.0301 17.1982 16.4396 16.6939 16.4396Z" fill="#2149A4"/>
<path d="M3.55168 5.54738C3.33185 5.45686 3.08185 5.56031 2.98703 5.78013C2.19392 7.70686 2.96116 9.40944 2.99565 9.47841C3.06892 9.63358 3.2241 9.72841 3.38789 9.72841C3.44823 9.72841 3.50858 9.71548 3.56892 9.68962C3.78444 9.59048 3.87927 9.33617 3.78013 9.12065C3.77582 9.10772 3.13789 7.681 3.78875 6.11203C3.87927 5.8922 3.77582 5.63789 3.55599 5.54738H3.55168Z" fill="#2149A4"/>
<path d="M1.84909 11.8922C2.06892 11.7974 2.16806 11.5431 2.07323 11.3232C2.05599 11.2844 0.469784 7.53013 2.31461 3.50858C2.41375 3.29307 2.31461 3.03444 2.10341 2.93531C1.88789 2.83617 1.62927 2.931 1.53013 3.14651C-0.482802 7.53013 1.21116 11.4957 1.28444 11.6638C1.35341 11.8275 1.51289 11.9224 1.68099 11.9224C1.73703 11.9224 1.79737 11.9094 1.85341 11.8879L1.84909 11.8922Z" fill="#2149A4"/>
<path d="M16.4482 9.52582C16.5 9.54737 16.556 9.56031 16.612 9.56031C16.7801 9.56031 16.9396 9.46117 17.0086 9.29307C17.806 7.36634 17.0344 5.66375 17 5.59479C16.9008 5.37927 16.6422 5.28444 16.4267 5.38358C16.2112 5.48272 16.1163 5.74134 16.2155 5.95686C16.2241 5.96979 16.862 7.38358 16.2069 8.96548C16.1163 9.18531 16.2198 9.43962 16.4396 9.53013L16.4482 9.52582Z" fill="#2149A4"/>
<path d="M18.1508 3.181C17.931 3.27582 17.8319 3.53013 17.9267 3.74996C17.9439 3.78876 19.5301 7.54307 17.6853 11.5646C17.5862 11.7801 17.6853 12.0388 17.8965 12.1379C17.9525 12.1638 18.0172 12.1767 18.0775 12.1767C18.2413 12.1767 18.3965 12.0819 18.4698 11.9267C20.4827 7.54307 18.7888 3.57755 18.7155 3.40944C18.6206 3.19393 18.3706 3.09048 18.1465 3.18531L18.1508 3.181Z" fill="#2149A4"/>
</g>
<defs>
<clipPath id="clip0_983_13093">
<rect width="18.9052" height="19" fill="white" transform="translate(0.547363 0.5)"/>
</clipPath>
</defs>
</svg>
