<svg width="20" height="20" viewBox="0 0 20 20" fill="none" xmlns="http://www.w3.org/2000/svg">
<g clip-path="url(#clip0_983_13090)">
<path d="M19.0657 7.06245L13.4274 6.19396L10.9473 1.06197C10.7801 0.718284 10.4411 0.5 10.0556 0.5C9.67944 0.513933 9.33111 0.708995 9.15927 1.04803L6.59095 6.14287L0.938789 6.91848C0.562597 6.96957 0.251426 7.22965 0.130673 7.59191C0.00992028 7.95417 0.102807 8.34429 0.372179 8.61366L4.42204 12.6264L3.40958 18.2367C3.33991 18.6129 3.49318 18.9891 3.7997 19.2167C4.10623 19.4443 4.51029 19.4768 4.84932 19.3003L9.92094 16.6902L14.9461 19.3839C15.0947 19.4628 15.2573 19.5046 15.4198 19.5046C15.6242 19.5046 15.8239 19.4396 16.0004 19.3189C16.3116 19.0959 16.4648 18.7244 16.4044 18.3482L15.4849 12.7193L19.5998 8.77157C19.8738 8.50684 19.9759 8.11672 19.8598 7.75446C19.7437 7.3922 19.4372 7.12748 19.061 7.0671L19.0657 7.06245ZM18.9588 8.09814L14.6675 12.213C14.556 12.3198 14.5049 12.4731 14.5328 12.6217L15.4895 18.4922C15.4895 18.4922 15.4942 18.534 15.4616 18.5572C15.4291 18.5804 15.4013 18.5665 15.392 18.5572L10.1532 15.7474C10.0835 15.7102 10.0092 15.6916 9.93488 15.6916C9.86057 15.6916 9.7909 15.7102 9.72124 15.7427L4.43598 18.469C4.43598 18.469 4.39882 18.4875 4.36631 18.4643C4.3338 18.4411 4.33845 18.4086 4.33845 18.3993L5.39271 12.5474C5.42058 12.3988 5.36949 12.2409 5.26267 12.1341L1.03168 7.94952C1.03168 7.94952 1.00381 7.92166 1.0131 7.87986C1.02703 7.83806 1.0549 7.83342 1.06883 7.83342L6.9625 7.0253C7.11576 7.00672 7.2458 6.90919 7.31547 6.77451L9.99061 1.46138C9.99061 1.46138 10.0092 1.42422 10.051 1.42422C10.116 1.42422 10.1067 1.45209 10.1114 1.46138L12.6983 6.8163C12.7633 6.95563 12.8933 7.04852 13.0466 7.07174L18.9263 7.97739C18.9263 7.97739 18.9681 7.98203 18.9821 8.02383C18.996 8.06563 18.9728 8.08421 18.9635 8.0935L18.9588 8.09814Z" fill="#2149A4"/>
</g>
<defs>
<clipPath id="clip0_983_13090">
<rect width="19.8313" height="19" fill="white" transform="translate(0.0842285 0.5)"/>
</clipPath>
</defs>
</svg>
