<svg width="20" height="20" viewBox="0 0 20 20" fill="none" xmlns="http://www.w3.org/2000/svg">
<g clip-path="url(#clip0_983_13057)">
<path d="M10 19.5C15.2412 19.5 19.5 15.2361 19.5 10C19.5 4.76394 15.2412 0.5 10 0.5C4.7588 0.5 0.5 4.76394 0.5 10C0.5 15.2361 4.76394 19.5 10 19.5ZM10 1.5287C14.6703 1.5287 18.4713 5.32972 18.4713 10C18.4713 14.6703 14.6703 18.4713 10 18.4713C5.32972 18.4713 1.5287 14.6703 1.5287 10C1.5287 5.32972 5.32972 1.5287 10 1.5287Z" fill="#2149A4"/>
<path d="M12.4534 13.9708C12.5562 14.0736 12.6848 14.1199 12.8186 14.1199C12.9523 14.1199 13.0809 14.0685 13.1837 13.9708C13.3843 13.7702 13.3843 13.4461 13.1837 13.2455L10.1388 10.2006V4.05414C10.1388 3.77125 9.90735 3.53979 9.62446 3.53979C9.34156 3.53979 9.11011 3.77125 9.11011 4.05414V10.4166C9.11011 10.5555 9.16669 10.6841 9.25927 10.7818L12.4534 13.9759V13.9708Z" fill="#2149A4"/>
</g>
<defs>
<clipPath id="clip0_983_13057">
<rect width="19" height="19" fill="white" transform="translate(0.5 0.5)"/>
</clipPath>
</defs>
</svg>
