<svg width="21" height="21" viewBox="0 0 21 21" fill="none" xmlns="http://www.w3.org/2000/svg">
<path d="M20.16 0H0.84C0.375375 0 0 0.375375 0 0.84V20.16C0 20.6246 0.375375 21 0.84 21H20.16C20.6246 21 21 20.6246 21 20.16V0.84C21 0.375375 20.6246 0 20.16 0ZM16.1516 7.60463C16.1595 7.728 16.1595 7.85663 16.1595 7.98263C16.1595 11.8361 13.2247 16.275 7.86187 16.275C6.20812 16.275 4.67512 15.7946 3.38362 14.9677C3.61987 14.994 3.84563 15.0045 4.08713 15.0045C5.45213 15.0045 6.70687 14.5425 7.707 13.7603C6.426 13.734 5.34975 12.894 4.98225 11.739C5.43112 11.8046 5.83537 11.8046 6.29737 11.6865C5.63778 11.5525 5.04492 11.1943 4.61952 10.6727C4.19411 10.1511 3.9624 9.49832 3.96375 8.82525V8.7885C4.34962 9.00637 4.80375 9.14025 5.27887 9.15862C4.87946 8.89244 4.5519 8.5318 4.32524 8.1087C4.09858 7.6856 3.97982 7.21311 3.9795 6.73312C3.9795 6.18975 4.12125 5.69362 4.37587 5.26312C5.10799 6.16438 6.02157 6.9015 7.05722 7.42656C8.09287 7.95162 9.22742 8.25288 10.3871 8.31075C9.975 6.32888 11.4555 4.725 13.2352 4.725C14.0752 4.725 14.8312 5.07675 15.3641 5.64375C16.023 5.52037 16.653 5.27362 17.2147 4.94287C16.9969 5.6175 16.5401 6.18712 15.9337 6.54675C16.5217 6.48375 17.0887 6.321 17.6137 6.09263C17.2174 6.67537 16.7212 7.1925 16.1516 7.60463Z" fill="#182A78"/>
</svg>
