<svg width="30" height="16" viewBox="0 0 30 16" fill="none" xmlns="http://www.w3.org/2000/svg">
<g clip-path="url(#clip0_983_13083)">
<path d="M14.4516 0C7.63064 0 0.839834 7.03807 0.556381 7.33962C0.35133 7.55673 0.333238 7.88843 0.514165 8.12363C0.755401 8.43724 6.52698 15.8311 14.4456 16C14.5662 16 14.6868 16 14.8074 16C24.1312 16 29.2997 8.41312 29.5168 8.08745C29.6857 7.84018 29.6435 7.50848 29.4203 7.30343C29.0886 7.00792 21.2545 0 14.4576 0L14.4516 0ZM14.4637 14.7878C8.15533 14.6551 3.11952 9.32378 1.80478 7.79193C3.30648 6.34452 9.01172 1.20618 14.4516 1.20618C19.8915 1.20618 26.5014 6.41689 28.19 7.84621C26.9476 9.43837 22.0807 14.9506 14.4637 14.7878Z" fill="#2149A4"/>
<path d="M9.69897 7.56278C9.69897 10.4154 12.0209 12.7373 14.8735 12.7373C17.7261 12.7373 20.042 10.4154 20.042 7.56278C20.042 4.71016 17.7201 2.39429 14.8735 2.39429C12.0269 2.39429 9.69897 4.71619 9.69897 7.56278ZM14.8735 3.60047C17.0567 3.60047 18.8358 5.37959 18.8358 7.56278C18.8358 9.74596 17.0567 11.5311 14.8735 11.5311C12.6903 11.5311 10.9052 9.752 10.9052 7.56278C10.9052 5.37356 12.6843 3.60047 14.8735 3.60047Z" fill="#2149A4"/>
</g>
<defs>
<clipPath id="clip0_983_13083">
<rect width="29.2258" height="16" fill="white" transform="translate(0.387207)"/>
</clipPath>
</defs>
</svg>
